<svg width="140" height="140" viewBox="0 0 140 140" fill="none" xmlns="http://www.w3.org/2000/svg">
<circle cx="70" cy="70" r="70" fill="#FD9F32"/>
<g filter="url(#filter0_d_1760_3020)">
<path d="M95.6465 29.1657C105.754 39.2758 95.8735 59.3523 77.3949 77.8329C58.9164 96.3053 38.8378 106.188 28.7298 96.0824C18.6197 85.9723 28.5007 65.8958 46.9793 47.4152C65.4557 28.9408 85.5364 19.0577 95.6465 29.1657Z" fill="white"/>
</g>
<path d="M53.6581 72.9089C54.2935 81.6211 52.9394 86.5939 51.1686 89.4354C47.3875 92.8333 45.6021 93.2166 45.6021 93.2166C45.6021 93.2166 45.0042 69.5382 45.6521 60.5405C45.6958 59.9322 48.5603 56.0698 48.5603 56.0698C48.5603 56.0698 53.0019 63.9092 53.6581 72.9089Z" fill="white"/>
<path d="M70.3237 58.9776C70.9591 67.6898 69.6029 72.6625 67.8342 75.5041C64.0531 78.9019 62.2677 79.2853 62.2677 79.2853C62.2677 79.2853 61.6698 55.6089 62.3156 46.6092C62.3594 46.0009 65.2239 42.1385 65.2239 42.1385C65.2239 42.1385 69.6696 49.98 70.3237 58.9776Z" fill="white"/>
<path d="M87.0361 45.8688C87.6715 54.581 86.3153 59.5538 84.5466 62.3953C80.7655 65.7931 78.9801 66.1765 78.9801 66.1765C78.9801 66.1765 78.3822 42.5001 79.028 33.5004C79.0718 32.8921 81.9363 29.0297 81.9363 29.0297C81.9363 29.0297 86.3778 36.8711 87.0361 45.8688Z" fill="white"/>
<path d="M49.6875 76.8828C49.6875 85.9054 45.6022 93.2198 45.6022 93.2198C45.6022 93.2198 41.519 85.9054 41.519 76.8828C41.519 67.8601 45.6022 60.5437 45.6022 60.5437C45.6022 60.5437 49.6875 67.8601 49.6875 76.8828Z" fill="#FD9F32"/>
<path d="M66.3824 62.954C66.3824 71.9787 62.2992 79.293 62.2992 79.293C62.2992 79.293 58.216 71.9787 58.2139 62.954C58.2139 53.9334 62.2992 46.617 62.2992 46.617C62.2992 46.617 66.3824 53.9334 66.3824 62.954Z" fill="#FD9F32"/>
<path d="M83.0192 49.7978C83.0192 58.8225 78.9339 66.1369 78.9339 66.1369C78.9339 66.1369 74.8507 58.8225 74.8486 49.7978C74.8486 40.7773 78.9339 33.4609 78.9339 33.4609C78.9339 33.4609 83.0192 40.7773 83.0192 49.7978Z" fill="#FD9F32"/>
<mask id="path-9-outside-1_1760_3020" maskUnits="userSpaceOnUse" x="55.0265" y="55.4638" width="66.5089" height="65.823" fill="black">
<rect fill="white" x="55.0265" y="55.4638" width="66.5089" height="65.823"/>
<path d="M108.196 74.0168C106.69 73.213 104.946 73.0348 103.278 73.5128C102.96 73.6038 102.653 73.7126 102.357 73.8487C102.3 73.3817 102.189 72.9229 102.025 72.4817C101.495 71.0585 100.46 69.8799 99.1189 69.1705C97.6019 68.3631 95.8308 68.1802 94.1824 68.6606C93.8618 68.7525 93.554 68.8682 93.2582 68.9998C93.1307 68.0154 92.7696 67.0757 92.2051 66.2593C91.6406 65.443 90.8892 64.7738 90.0137 64.3077C88.5081 63.5017 86.7616 63.3249 85.0962 63.8021C83.4294 64.2796 82.0429 65.354 81.1918 66.8352C80.4295 68.1482 80.176 69.6965 80.4794 71.1855C80.5747 71.6457 80.7226 72.0934 80.9204 72.5198C80.5986 72.5636 80.2787 72.6292 79.9616 72.7201C78.2962 73.1972 76.9097 74.2745 76.0586 75.7529C75.0008 77.591 74.9651 79.7196 75.8051 81.4873C75.4638 81.5291 75.1262 81.5975 74.7955 81.6917C73.1301 82.1689 71.7461 83.247 70.8945 84.7262C70.132 86.0397 69.8781 87.5885 70.1811 89.0782C70.2775 89.5379 70.4256 89.9852 70.6225 90.4116C70.2982 90.4535 69.9776 90.5202 69.6635 90.6112C67.9974 91.0885 66.6122 92.1648 65.7621 93.6443C64.9105 95.1235 64.696 96.8249 65.1592 98.4415C65.622 100.057 66.7049 101.387 68.2106 102.19C69.7214 102.996 71.4754 103.178 73.1483 102.699C73.4675 102.608 73.774 102.492 74.0714 102.361C74.1992 103.345 74.5603 104.284 75.1245 105.101C75.6886 105.917 76.4394 106.586 77.3142 107.053C78.8193 107.857 80.5672 108.036 82.2319 107.559C82.5498 107.468 82.8558 107.357 83.1512 107.224C83.2093 107.689 83.3209 108.147 83.4838 108.587C84.0157 110.011 85.0512 111.19 86.3936 111.901C87.8978 112.704 89.6448 112.885 91.3108 112.408C92.9776 111.93 94.363 110.852 95.2141 109.374C95.9764 108.06 96.23 106.511 95.9268 105.022C95.8312 104.562 95.6832 104.115 95.4858 103.69C95.8073 103.645 96.1261 103.578 96.444 103.487C98.1101 103.01 99.4964 101.935 100.347 100.456C101.406 98.6169 101.441 96.4921 100.6 94.7217C100.94 94.6771 101.278 94.6102 101.61 94.515C103.275 94.0378 104.659 92.9597 105.511 91.4805C106.275 90.1679 106.528 88.6189 106.222 87.13C106.127 86.6702 105.979 86.2231 105.781 85.798C106.103 85.7553 106.423 85.6892 106.742 85.5978C108.408 85.1202 109.792 84.0414 110.644 82.5629C111.494 81.0841 111.71 79.3809 111.248 77.7677C110.785 76.1545 109.7 74.8203 108.196 74.0168ZM79.2208 95.6234C78.9715 96.0544 78.5641 96.3708 78.0852 96.5054C77.608 96.6443 77.0955 96.5915 76.6562 96.3582C76.4423 96.2458 76.2533 96.0911 76.1008 95.9035C75.9482 95.7159 75.8352 95.4993 75.7686 95.2668C75.702 95.0343 75.6831 94.7907 75.7132 94.5508C75.7433 94.3109 75.8217 94.0796 75.9436 93.871C76.1936 93.4416 76.6006 93.1265 77.0786 92.9922C77.564 92.8531 78.0722 92.9055 78.5082 93.1362C78.9472 93.3721 79.2593 93.7589 79.3939 94.2285C79.5285 94.6982 79.4689 95.193 79.2208 95.6234ZM87.9812 99.9852C87.7335 100.417 87.3315 100.73 86.8461 100.869C86.3686 101.009 85.8553 100.955 85.4165 100.72C85.2029 100.608 85.0141 100.453 84.8617 100.266C84.7093 100.078 84.5964 99.8621 84.5299 99.6299C84.4633 99.3976 84.4445 99.1543 84.4746 98.9146C84.5046 98.675 84.5829 98.444 84.7047 98.2356C84.9542 97.8054 85.3609 97.4894 85.839 97.354C86.3243 97.215 86.8318 97.2697 87.2694 97.5008C87.483 97.6131 87.6717 97.7677 87.824 97.9551C87.9764 98.1425 88.0892 98.3588 88.1557 98.591C88.2223 98.8233 88.2411 99.0665 88.2111 99.3062C88.1811 99.5458 88.1029 99.7768 87.9812 99.9852ZM84.9696 86.5622C84.7222 86.9943 84.315 87.3117 83.8359 87.4458C83.3578 87.5859 82.8438 87.5326 82.4043 87.2972C82.1908 87.185 82.0022 87.0306 81.8499 86.8434C81.6976 86.6562 81.5848 86.44 81.5183 86.2079C81.4519 85.9759 81.4331 85.7328 81.4631 85.4933C81.4931 85.2539 81.5713 85.023 81.693 84.8148C81.9426 84.3837 82.3501 84.067 82.8292 83.932C83.3131 83.7933 83.8209 83.8465 84.2584 84.0798C84.4721 84.1918 84.6609 84.346 84.8134 84.5332C84.9658 84.7204 85.0787 84.9367 85.1452 85.1688C85.2117 85.401 85.2305 85.6442 85.2003 85.8837C85.1701 86.1232 85.0916 86.3541 84.9696 86.5622ZM86.7223 76.6361C86.9706 76.2063 87.3733 75.893 87.858 75.7542C88.3426 75.6153 88.8481 75.6684 89.2877 75.9011C89.5012 76.0136 89.6899 76.1683 89.8422 76.3557C89.9945 76.5432 90.1073 76.7595 90.1739 76.9918C90.2404 77.2241 90.2593 77.4674 90.2293 77.707C90.1994 77.9467 90.1213 78.1778 89.9997 78.3863C89.75 78.8165 89.3494 79.1292 88.8647 79.268C88.3801 79.4069 87.8725 79.3544 87.4343 79.1213C87.2207 79.0088 87.0321 78.8542 86.8798 78.6667C86.7275 78.4792 86.6147 78.2629 86.5481 78.0306C86.4816 77.7984 86.4627 77.555 86.4926 77.3154C86.5226 77.0757 86.6007 76.8446 86.7223 76.6361ZM93.7313 90.9259C93.4836 91.3575 93.0767 91.6744 92.598 91.8086C92.12 91.9496 91.6056 91.8965 91.1659 91.6609C90.9523 91.5486 90.7637 91.3941 90.6114 91.2068C90.459 91.0194 90.3462 90.8031 90.2797 90.571C90.2132 90.3388 90.1943 90.0956 90.2244 89.856C90.2544 89.6164 90.3326 89.3855 90.4543 89.1771C90.7041 88.7459 91.1118 88.4292 91.5911 88.2941C92.0744 88.1556 92.5811 88.2106 93.0196 88.4421C93.2336 88.554 93.4226 88.7083 93.5752 88.8956C93.7278 89.0829 93.8408 89.2993 93.9074 89.5316C93.9739 89.7639 93.9927 90.0073 93.9624 90.247C93.9321 90.4867 93.8535 90.7177 93.7313 90.9259ZM98.7598 82.7474C98.511 83.1788 98.1035 83.4956 97.6244 83.6301C97.1471 83.7694 96.6342 83.7163 96.1952 83.4822C95.9815 83.3702 95.7928 83.2159 95.6404 83.0287C95.488 82.8414 95.3751 82.6252 95.3086 82.3931C95.2421 82.161 95.2234 81.9178 95.2535 81.6783C95.2836 81.4388 95.362 81.208 95.4839 80.9998C95.7313 80.5675 96.1383 80.2499 96.6174 80.1155C97.0954 79.9755 97.6094 80.0292 98.0486 80.265C98.2622 80.377 98.451 80.5313 98.6034 80.7186C98.7558 80.9058 98.8686 81.122 98.9351 81.3541C99.0016 81.5862 99.0204 81.8294 98.9903 82.0689C98.9601 82.3084 98.8817 82.5392 98.7598 82.7474Z"/>
</mask>
<path d="M108.196 74.0168C106.69 73.213 104.946 73.0348 103.278 73.5128C102.96 73.6038 102.653 73.7126 102.357 73.8487C102.3 73.3817 102.189 72.9229 102.025 72.4817C101.495 71.0585 100.46 69.8799 99.1189 69.1705C97.6019 68.3631 95.8308 68.1802 94.1824 68.6606C93.8618 68.7525 93.554 68.8682 93.2582 68.9998C93.1307 68.0154 92.7696 67.0757 92.2051 66.2593C91.6406 65.443 90.8892 64.7738 90.0137 64.3077C88.5081 63.5017 86.7616 63.3249 85.0962 63.8021C83.4294 64.2796 82.0429 65.354 81.1918 66.8352C80.4295 68.1482 80.176 69.6965 80.4794 71.1855C80.5747 71.6457 80.7226 72.0934 80.9204 72.5198C80.5986 72.5636 80.2787 72.6292 79.9616 72.7201C78.2962 73.1972 76.9097 74.2745 76.0586 75.7529C75.0008 77.591 74.9651 79.7196 75.8051 81.4873C75.4638 81.5291 75.1262 81.5975 74.7955 81.6917C73.1301 82.1689 71.7461 83.247 70.8945 84.7262C70.132 86.0397 69.8781 87.5885 70.1811 89.0782C70.2775 89.5379 70.4256 89.9852 70.6225 90.4116C70.2982 90.4535 69.9776 90.5202 69.6635 90.6112C67.9974 91.0885 66.6122 92.1648 65.7621 93.6443C64.9105 95.1235 64.696 96.8249 65.1592 98.4415C65.622 100.057 66.7049 101.387 68.2106 102.19C69.7214 102.996 71.4754 103.178 73.1483 102.699C73.4675 102.608 73.774 102.492 74.0714 102.361C74.1992 103.345 74.5603 104.284 75.1245 105.101C75.6886 105.917 76.4394 106.586 77.3142 107.053C78.8193 107.857 80.5672 108.036 82.2319 107.559C82.5498 107.468 82.8558 107.357 83.1512 107.224C83.2093 107.689 83.3209 108.147 83.4838 108.587C84.0157 110.011 85.0512 111.19 86.3936 111.901C87.8978 112.704 89.6448 112.885 91.3108 112.408C92.9776 111.93 94.363 110.852 95.2141 109.374C95.9764 108.06 96.23 106.511 95.9268 105.022C95.8312 104.562 95.6832 104.115 95.4858 103.69C95.8073 103.645 96.1261 103.578 96.444 103.487C98.1101 103.01 99.4964 101.935 100.347 100.456C101.406 98.6169 101.441 96.4921 100.6 94.7217C100.94 94.6771 101.278 94.6102 101.61 94.515C103.275 94.0378 104.659 92.9597 105.511 91.4805C106.275 90.1679 106.528 88.6189 106.222 87.13C106.127 86.6702 105.979 86.2231 105.781 85.798C106.103 85.7553 106.423 85.6892 106.742 85.5978C108.408 85.1202 109.792 84.0414 110.644 82.5629C111.494 81.0841 111.71 79.3809 111.248 77.7677C110.785 76.1545 109.7 74.8203 108.196 74.0168ZM79.2208 95.6234C78.9715 96.0544 78.5641 96.3708 78.0852 96.5054C77.608 96.6443 77.0955 96.5915 76.6562 96.3582C76.4423 96.2458 76.2533 96.0911 76.1008 95.9035C75.9482 95.7159 75.8352 95.4993 75.7686 95.2668C75.702 95.0343 75.6831 94.7907 75.7132 94.5508C75.7433 94.3109 75.8217 94.0796 75.9436 93.871C76.1936 93.4416 76.6006 93.1265 77.0786 92.9922C77.564 92.8531 78.0722 92.9055 78.5082 93.1362C78.9472 93.3721 79.2593 93.7589 79.3939 94.2285C79.5285 94.6982 79.4689 95.193 79.2208 95.6234ZM87.9812 99.9852C87.7335 100.417 87.3315 100.73 86.8461 100.869C86.3686 101.009 85.8553 100.955 85.4165 100.72C85.2029 100.608 85.0141 100.453 84.8617 100.266C84.7093 100.078 84.5964 99.8621 84.5299 99.6299C84.4633 99.3976 84.4445 99.1543 84.4746 98.9146C84.5046 98.675 84.5829 98.444 84.7047 98.2356C84.9542 97.8054 85.3609 97.4894 85.839 97.354C86.3243 97.215 86.8318 97.2697 87.2694 97.5008C87.483 97.6131 87.6717 97.7677 87.824 97.9551C87.9764 98.1425 88.0892 98.3588 88.1557 98.591C88.2223 98.8233 88.2411 99.0665 88.2111 99.3062C88.1811 99.5458 88.1029 99.7768 87.9812 99.9852ZM84.9696 86.5622C84.7222 86.9943 84.315 87.3117 83.8359 87.4458C83.3578 87.5859 82.8438 87.5326 82.4043 87.2972C82.1908 87.185 82.0022 87.0306 81.8499 86.8434C81.6976 86.6562 81.5848 86.44 81.5183 86.2079C81.4519 85.9759 81.4331 85.7328 81.4631 85.4933C81.4931 85.2539 81.5713 85.023 81.693 84.8148C81.9426 84.3837 82.3501 84.067 82.8292 83.932C83.3131 83.7933 83.8209 83.8465 84.2584 84.0798C84.4721 84.1918 84.6609 84.346 84.8134 84.5332C84.9658 84.7204 85.0787 84.9367 85.1452 85.1688C85.2117 85.401 85.2305 85.6442 85.2003 85.8837C85.1701 86.1232 85.0916 86.3541 84.9696 86.5622ZM86.7223 76.6361C86.9706 76.2063 87.3733 75.893 87.858 75.7542C88.3426 75.6153 88.8481 75.6684 89.2877 75.9011C89.5012 76.0136 89.6899 76.1683 89.8422 76.3557C89.9945 76.5432 90.1073 76.7595 90.1739 76.9918C90.2404 77.2241 90.2593 77.4674 90.2293 77.707C90.1994 77.9467 90.1213 78.1778 89.9997 78.3863C89.75 78.8165 89.3494 79.1292 88.8647 79.268C88.3801 79.4069 87.8725 79.3544 87.4343 79.1213C87.2207 79.0088 87.0321 78.8542 86.8798 78.6667C86.7275 78.4792 86.6147 78.2629 86.5481 78.0306C86.4816 77.7984 86.4627 77.555 86.4926 77.3154C86.5226 77.0757 86.6007 76.8446 86.7223 76.6361ZM93.7313 90.9259C93.4836 91.3575 93.0767 91.6744 92.598 91.8086C92.12 91.9496 91.6056 91.8965 91.1659 91.6609C90.9523 91.5486 90.7637 91.3941 90.6114 91.2068C90.459 91.0194 90.3462 90.8031 90.2797 90.571C90.2132 90.3388 90.1943 90.0956 90.2244 89.856C90.2544 89.6164 90.3326 89.3855 90.4543 89.1771C90.7041 88.7459 91.1118 88.4292 91.5911 88.2941C92.0744 88.1556 92.5811 88.2106 93.0196 88.4421C93.2336 88.554 93.4226 88.7083 93.5752 88.8956C93.7278 89.0829 93.8408 89.2993 93.9074 89.5316C93.9739 89.7639 93.9927 90.0073 93.9624 90.247C93.9321 90.4867 93.8535 90.7177 93.7313 90.9259ZM98.7598 82.7474C98.511 83.1788 98.1035 83.4956 97.6244 83.6301C97.1471 83.7694 96.6342 83.7163 96.1952 83.4822C95.9815 83.3702 95.7928 83.2159 95.6404 83.0287C95.488 82.8414 95.3751 82.6252 95.3086 82.3931C95.2421 82.161 95.2234 81.9178 95.2535 81.6783C95.2836 81.4388 95.362 81.208 95.4839 80.9998C95.7313 80.5675 96.1383 80.2499 96.6174 80.1155C97.0954 79.9755 97.6094 80.0292 98.0486 80.265C98.2622 80.377 98.451 80.5313 98.6034 80.7186C98.7558 80.9058 98.8686 81.122 98.9351 81.3541C99.0016 81.5862 99.0204 81.8294 98.9903 82.0689C98.9601 82.3084 98.8817 82.5392 98.7598 82.7474Z" fill="white"/>
<path d="M108.196 74.0168C106.69 73.213 104.946 73.0348 103.278 73.5128C102.96 73.6038 102.653 73.7126 102.357 73.8487C102.3 73.3817 102.189 72.9229 102.025 72.4817C101.495 71.0585 100.46 69.8799 99.1189 69.1705C97.6019 68.3631 95.8308 68.1802 94.1824 68.6606C93.8618 68.7525 93.554 68.8682 93.2582 68.9998C93.1307 68.0154 92.7696 67.0757 92.2051 66.2593C91.6406 65.443 90.8892 64.7738 90.0137 64.3077C88.5081 63.5017 86.7616 63.3249 85.0962 63.8021C83.4294 64.2796 82.0429 65.354 81.1918 66.8352C80.4295 68.1482 80.176 69.6965 80.4794 71.1855C80.5747 71.6457 80.7226 72.0934 80.9204 72.5198C80.5986 72.5636 80.2787 72.6292 79.9616 72.7201C78.2962 73.1972 76.9097 74.2745 76.0586 75.7529C75.0008 77.591 74.9651 79.7196 75.8051 81.4873C75.4638 81.5291 75.1262 81.5975 74.7955 81.6917C73.1301 82.1689 71.7461 83.247 70.8945 84.7262C70.132 86.0397 69.8781 87.5885 70.1811 89.0782C70.2775 89.5379 70.4256 89.9852 70.6225 90.4116C70.2982 90.4535 69.9776 90.5202 69.6635 90.6112C67.9974 91.0885 66.6122 92.1648 65.7621 93.6443C64.9105 95.1235 64.696 96.8249 65.1592 98.4415C65.622 100.057 66.7049 101.387 68.2106 102.19C69.7214 102.996 71.4754 103.178 73.1483 102.699C73.4675 102.608 73.774 102.492 74.0714 102.361C74.1992 103.345 74.5603 104.284 75.1245 105.101C75.6886 105.917 76.4394 106.586 77.3142 107.053C78.8193 107.857 80.5672 108.036 82.2319 107.559C82.5498 107.468 82.8558 107.357 83.1512 107.224C83.2093 107.689 83.3209 108.147 83.4838 108.587C84.0157 110.011 85.0512 111.19 86.3936 111.901C87.8978 112.704 89.6448 112.885 91.3108 112.408C92.9776 111.93 94.363 110.852 95.2141 109.374C95.9764 108.06 96.23 106.511 95.9268 105.022C95.8312 104.562 95.6832 104.115 95.4858 103.69C95.8073 103.645 96.1261 103.578 96.444 103.487C98.1101 103.01 99.4964 101.935 100.347 100.456C101.406 98.6169 101.441 96.4921 100.6 94.7217C100.94 94.6771 101.278 94.6102 101.61 94.515C103.275 94.0378 104.659 92.9597 105.511 91.4805C106.275 90.1679 106.528 88.6189 106.222 87.13C106.127 86.6702 105.979 86.2231 105.781 85.798C106.103 85.7553 106.423 85.6892 106.742 85.5978C108.408 85.1202 109.792 84.0414 110.644 82.5629C111.494 81.0841 111.71 79.3809 111.248 77.7677C110.785 76.1545 109.7 74.8203 108.196 74.0168ZM79.2208 95.6234C78.9715 96.0544 78.5641 96.3708 78.0852 96.5054C77.608 96.6443 77.0955 96.5915 76.6562 96.3582C76.4423 96.2458 76.2533 96.0911 76.1008 95.9035C75.9482 95.7159 75.8352 95.4993 75.7686 95.2668C75.702 95.0343 75.6831 94.7907 75.7132 94.5508C75.7433 94.3109 75.8217 94.0796 75.9436 93.871C76.1936 93.4416 76.6006 93.1265 77.0786 92.9922C77.564 92.8531 78.0722 92.9055 78.5082 93.1362C78.9472 93.3721 79.2593 93.7589 79.3939 94.2285C79.5285 94.6982 79.4689 95.193 79.2208 95.6234ZM87.9812 99.9852C87.7335 100.417 87.3315 100.73 86.8461 100.869C86.3686 101.009 85.8553 100.955 85.4165 100.72C85.2029 100.608 85.0141 100.453 84.8617 100.266C84.7093 100.078 84.5964 99.8621 84.5299 99.6299C84.4633 99.3976 84.4445 99.1543 84.4746 98.9146C84.5046 98.675 84.5829 98.444 84.7047 98.2356C84.9542 97.8054 85.3609 97.4894 85.839 97.354C86.3243 97.215 86.8318 97.2697 87.2694 97.5008C87.483 97.6131 87.6717 97.7677 87.824 97.9551C87.9764 98.1425 88.0892 98.3588 88.1557 98.591C88.2223 98.8233 88.2411 99.0665 88.2111 99.3062C88.1811 99.5458 88.1029 99.7768 87.9812 99.9852ZM84.9696 86.5622C84.7222 86.9943 84.315 87.3117 83.8359 87.4458C83.3578 87.5859 82.8438 87.5326 82.4043 87.2972C82.1908 87.185 82.0022 87.0306 81.8499 86.8434C81.6976 86.6562 81.5848 86.44 81.5183 86.2079C81.4519 85.9759 81.4331 85.7328 81.4631 85.4933C81.4931 85.2539 81.5713 85.023 81.693 84.8148C81.9426 84.3837 82.3501 84.067 82.8292 83.932C83.3131 83.7933 83.8209 83.8465 84.2584 84.0798C84.4721 84.1918 84.6609 84.346 84.8134 84.5332C84.9658 84.7204 85.0787 84.9367 85.1452 85.1688C85.2117 85.401 85.2305 85.6442 85.2003 85.8837C85.1701 86.1232 85.0916 86.3541 84.9696 86.5622ZM86.7223 76.6361C86.9706 76.2063 87.3733 75.893 87.858 75.7542C88.3426 75.6153 88.8481 75.6684 89.2877 75.9011C89.5012 76.0136 89.6899 76.1683 89.8422 76.3557C89.9945 76.5432 90.1073 76.7595 90.1739 76.9918C90.2404 77.2241 90.2593 77.4674 90.2293 77.707C90.1994 77.9467 90.1213 78.1778 89.9997 78.3863C89.75 78.8165 89.3494 79.1292 88.8647 79.268C88.3801 79.4069 87.8725 79.3544 87.4343 79.1213C87.2207 79.0088 87.0321 78.8542 86.8798 78.6667C86.7275 78.4792 86.6147 78.2629 86.5481 78.0306C86.4816 77.7984 86.4627 77.555 86.4926 77.3154C86.5226 77.0757 86.6007 76.8446 86.7223 76.6361ZM93.7313 90.9259C93.4836 91.3575 93.0767 91.6744 92.598 91.8086C92.12 91.9496 91.6056 91.8965 91.1659 91.6609C90.9523 91.5486 90.7637 91.3941 90.6114 91.2068C90.459 91.0194 90.3462 90.8031 90.2797 90.571C90.2132 90.3388 90.1943 90.0956 90.2244 89.856C90.2544 89.6164 90.3326 89.3855 90.4543 89.1771C90.7041 88.7459 91.1118 88.4292 91.5911 88.2941C92.0744 88.1556 92.5811 88.2106 93.0196 88.4421C93.2336 88.554 93.4226 88.7083 93.5752 88.8956C93.7278 89.0829 93.8408 89.2993 93.9074 89.5316C93.9739 89.7639 93.9927 90.0073 93.9624 90.247C93.9321 90.4867 93.8535 90.7177 93.7313 90.9259ZM98.7598 82.7474C98.511 83.1788 98.1035 83.4956 97.6244 83.6301C97.1471 83.7694 96.6342 83.7163 96.1952 83.4822C95.9815 83.3702 95.7928 83.2159 95.6404 83.0287C95.488 82.8414 95.3751 82.6252 95.3086 82.3931C95.2421 82.161 95.2234 81.9178 95.2535 81.6783C95.2836 81.4388 95.362 81.208 95.4839 80.9998C95.7313 80.5675 96.1383 80.2499 96.6174 80.1155C97.0954 79.9755 97.6094 80.0292 98.0486 80.265C98.2622 80.377 98.451 80.5313 98.6034 80.7186C98.7558 80.9058 98.8686 81.122 98.9351 81.3541C99.0016 81.5862 99.0204 81.8294 98.9903 82.0689C98.9601 82.3084 98.8817 82.5392 98.7598 82.7474Z" stroke="#FD9F32" stroke-width="4" mask="url(#path-9-outside-1_1760_3020)"/>
<defs>
<filter id="filter0_d_1760_3020" x="14.6875" y="16.125" width="103" height="102.997" filterUnits="userSpaceOnUse" color-interpolation-filters="sRGB">
<feFlood flood-opacity="0" result="BackgroundImageFix"/>
<feColorMatrix in="SourceAlpha" type="matrix" values="0 0 0 0 0 0 0 0 0 0 0 0 0 0 0 0 0 0 127 0" result="hardAlpha"/>
<feOffset dx="4" dy="5"/>
<feGaussianBlur stdDeviation="7"/>
<feComposite in2="hardAlpha" operator="out"/>
<feColorMatrix type="matrix" values="0 0 0 0 0.8625 0 0 0 0 0.3128 0 0 0 0 0.00359374 0 0 0 0.3 0"/>
<feBlend mode="normal" in2="BackgroundImageFix" result="effect1_dropShadow_1760_3020"/>
<feBlend mode="normal" in="SourceGraphic" in2="effect1_dropShadow_1760_3020" result="shape"/>
</filter>
</defs>
</svg>
