<svg width="140" height="142" viewBox="0 0 140 142" fill="none" xmlns="http://www.w3.org/2000/svg">
<circle cx="70" cy="70" r="70" fill="#FD9F32"/>
<g filter="url(#filter0_d_1760_3388)">
<path d="M27.6924 83.1103V78.3507H32.7058V65.595H35.3712L28.2318 69.6565V64.2623L34.3876 60.7402H38.5443V78.3507H43.2087V83.1103H27.6924Z" fill="white"/>
<path d="M53.3502 83.4594C50.6002 83.4594 48.4848 82.4546 47.004 80.445C45.5444 78.4142 44.8146 75.5478 44.8146 71.8459C44.8146 68.1017 45.5444 65.2565 47.004 63.3103C48.4848 61.3642 50.6002 60.3911 53.3502 60.3911C56.1213 60.3911 58.2367 61.3642 59.6963 63.3103C61.1559 65.2565 61.8858 68.0911 61.8858 71.8142C61.8858 75.5373 61.1454 78.4142 59.6646 80.445C58.205 82.4546 56.1002 83.4594 53.3502 83.4594ZM53.3502 78.795C54.3656 78.795 55.1165 78.245 55.6031 77.145C56.1108 76.045 56.3646 74.2786 56.3646 71.8459C56.3646 69.3921 56.1108 67.6469 55.6031 66.6103C55.1165 65.5527 54.3656 65.0238 53.3502 65.0238C52.3348 65.0238 51.5733 65.5527 51.0656 66.6103C50.579 67.6469 50.3358 69.3815 50.3358 71.8142C50.3358 74.268 50.579 76.045 51.0656 77.145C51.5733 78.245 52.3348 78.795 53.3502 78.795Z" fill="white"/>
<path d="M72.3762 83.4594C69.6262 83.4594 67.5109 82.4546 66.0301 80.445C64.5705 78.4142 63.8407 75.5478 63.8407 71.8459C63.8407 68.1017 64.5705 65.2565 66.0301 63.3103C67.5109 61.3642 69.6262 60.3911 72.3762 60.3911C75.1474 60.3911 77.2628 61.3642 78.7224 63.3103C80.182 65.2565 80.9118 68.0911 80.9118 71.8142C80.9118 75.5373 80.1714 78.4142 78.6907 80.445C77.231 82.4546 75.1262 83.4594 72.3762 83.4594ZM72.3762 78.795C73.3916 78.795 74.1426 78.245 74.6291 77.145C75.1368 76.045 75.3907 74.2786 75.3907 71.8459C75.3907 69.3921 75.1368 67.6469 74.6291 66.6103C74.1426 65.5527 73.3916 65.0238 72.3762 65.0238C71.3609 65.0238 70.5993 65.5527 70.0916 66.6103C69.6051 67.6469 69.3618 69.3815 69.3618 71.8142C69.3618 74.268 69.6051 76.045 70.0916 77.145C70.5993 78.245 71.3609 78.795 72.3762 78.795Z" fill="white"/>
<path d="M93.0206 83.1103H88.3244L101.397 60.7402H106.094L93.0206 83.1103ZM88.8004 74.0671C86.8965 74.0671 85.4158 73.443 84.3581 72.195C83.3004 70.9257 82.7715 69.2546 82.7715 67.1815C82.7715 65.0873 83.3004 63.4373 84.3581 62.2315C85.4369 61.0046 86.9177 60.3911 88.8004 60.3911C90.6831 60.3911 92.1533 61.0152 93.211 62.2632C94.2687 63.5113 94.7975 65.1507 94.7975 67.1815C94.7975 69.2546 94.2687 70.9257 93.211 72.195C92.1533 73.443 90.6831 74.0671 88.8004 74.0671ZM88.8004 70.6402C89.2869 70.6402 89.6571 70.3863 89.911 69.8786C90.186 69.3498 90.3235 68.4507 90.3235 67.1815C90.3235 65.9123 90.186 65.0344 89.911 64.5478C89.636 64.0613 89.2658 63.818 88.8004 63.818C88.2927 63.818 87.9119 64.0507 87.6581 64.5161C87.4042 64.9815 87.2773 65.87 87.2773 67.1815C87.2773 68.493 87.4042 69.4027 87.6581 69.9103C87.9119 70.3969 88.2927 70.6402 88.8004 70.6402ZM105.618 83.4594C103.735 83.4594 102.265 82.8353 101.207 81.5873C100.149 80.318 99.6206 78.6469 99.6206 76.5738C99.6206 74.4796 100.149 72.8296 101.207 71.6238C102.286 70.3969 103.756 69.7834 105.618 69.7834C107.522 69.7834 108.992 70.4075 110.028 71.6555C111.086 72.9036 111.615 74.543 111.615 76.5738C111.615 78.6469 111.086 80.318 110.028 81.5873C108.992 82.8353 107.522 83.4594 105.618 83.4594ZM105.618 80.0325C106.125 80.0325 106.506 79.7786 106.76 79.2709C107.014 78.7421 107.141 77.843 107.141 76.5738C107.141 75.3046 107.003 74.4267 106.728 73.9402C106.474 73.4536 106.104 73.2103 105.618 73.2103C105.131 73.2103 104.75 73.4536 104.475 73.9402C104.222 74.4055 104.095 75.2834 104.095 76.5738C104.095 77.8853 104.222 78.795 104.475 79.3027C104.75 79.7892 105.131 80.0325 105.618 80.0325Z" fill="white"/>
<path d="M28.9774 96.3507C28.7161 96.6385 28.6039 97.0326 28.6745 97.416C29.4591 101.284 32.1126 104.809 35.9395 107.077C39.6828 109.296 43.8793 109.966 47.5431 108.953C47.8441 109.061 48.313 109.215 48.9242 109.399C45.6727 110.245 42.4892 111.772 40.4035 114.516C40.1866 114.801 40.1049 115.168 40.1824 115.519C40.2545 115.87 40.4791 116.171 40.7946 116.339C46.0279 119.193 52.0854 119.622 56.9855 117.515C59.7824 116.294 61.8449 114.34 62.8153 112.03C63.9658 112.115 65.1626 112.2 66.4039 112.232C63.2838 113.963 60.346 116.45 59.0063 119.949C58.8748 120.281 58.9 120.655 59.0737 120.969C59.2397 121.285 59.5354 121.512 59.8822 121.59C65.6359 122.858 71.527 121.591 75.6475 118.205C77.9703 116.285 79.3993 113.863 79.7214 111.403C80.8244 111.218 81.9253 111.007 83.0551 110.769C80.7169 112.981 78.7549 115.723 78.2166 119.001C78.1589 119.353 78.2589 119.714 78.4904 119.987C78.7175 120.262 79.0528 120.425 79.4085 120.432C85.2655 120.54 91.0018 118.004 94.3968 113.826C96.3701 111.373 97.3063 108.587 97.0454 106.039C100.292 104.517 103.411 102.736 106.371 100.712C106.9 100.352 107.062 99.6433 106.742 99.0857C106.729 99.0597 106.71 99.036 106.687 99.0177C106.506 98.7497 106.225 98.5659 105.908 98.5063C105.591 98.4468 105.263 98.5172 104.999 98.7013C102.204 100.605 99.264 102.289 96.2068 103.735C96.1669 103.667 96.1168 103.605 96.0585 103.552C91.6268 98.8495 84.4543 96.9453 77.3372 98.5535C77.0179 98.6252 76.7425 98.8251 76.575 99.1062C76.3944 99.3817 76.34 99.7214 76.4245 100.041C77.2681 103.411 80.3884 106.469 84.138 108.018C82.4872 108.422 80.8637 108.751 79.2677 109.008C75.6059 103.397 68.7041 99.6155 62.2189 99.7674C61.8966 99.7816 61.5935 99.921 61.3736 100.157C61.1454 100.392 61.0246 100.712 61.0411 101.04C61.1715 104.215 63.2247 107.525 66.1435 109.805C65.1361 109.765 64.1703 109.701 63.2263 109.625L63.226 109.525C63.2273 109.423 63.2154 109.321 63.1904 109.222C62.8157 107.804 62.2521 106.443 61.5146 105.174C59.019 100.852 54.5739 97.513 49.1275 96.0673C48.8142 95.9788 48.4785 96.0244 48.2014 96.1929C47.9181 96.3552 47.7138 96.626 47.6356 96.9438C46.8233 100.236 48.0999 104.274 50.5799 107.377C49.5454 107.071 48.7867 106.815 48.3898 106.677C43.1114 98.807 37.8411 96.8335 30.0062 95.9765C29.623 95.933 29.2423 96.0713 28.9774 96.3507Z" fill="white"/>
<path d="M110.428 47.722C110.69 47.4341 110.802 47.04 110.731 46.6566C109.947 42.7888 107.293 39.2637 103.466 36.9956C99.7229 34.7767 95.5264 34.1066 91.8626 35.1193C91.5616 35.0112 91.0927 34.8578 90.4815 34.6738C93.733 33.8274 96.9165 32.3009 99.0022 29.5568C99.2191 29.2715 99.3008 28.9042 99.2234 28.5531C99.1512 28.2022 98.9266 27.9018 98.6111 27.7335C93.3778 24.8791 87.3203 24.4502 82.4202 26.5581C79.6233 27.7784 77.5608 29.7325 76.5904 32.0428C75.4399 31.9581 74.2431 31.8726 73.0018 31.841C76.1219 30.1094 79.0597 27.6223 80.3994 24.1234C80.5309 23.7913 80.5057 23.4172 80.332 23.1038C80.166 22.788 79.8703 22.5609 79.5235 22.4825C73.7698 21.2142 67.8787 22.4815 63.7582 25.8676C61.4354 27.7876 60.0064 30.2098 59.6843 32.6696C58.5813 32.8545 57.4804 33.0659 56.3506 33.3033C58.6888 31.0919 60.6508 28.3494 61.1891 25.0713C61.2468 24.7192 61.1468 24.3587 60.9153 24.086C60.6881 23.8107 60.3529 23.648 59.9972 23.6406C54.1402 23.5326 48.4039 26.0685 45.0089 30.2469C43.0356 32.6995 42.0994 35.486 42.3603 38.0332C39.1134 39.5554 35.9951 41.3367 33.0343 43.3603C32.5055 43.7209 32.344 44.4293 32.6639 44.9869C32.677 45.013 32.6953 45.0367 32.7183 45.055C32.8999 45.3229 33.1804 45.5068 33.4981 45.5664C33.815 45.6258 34.1423 45.5554 34.4064 45.3713C37.2021 43.4674 40.1417 41.7841 43.1989 40.3378C43.2388 40.4056 43.2889 40.4676 43.3472 40.5209C47.7789 45.2232 54.9513 47.1273 62.0685 45.5191C62.3878 45.4474 62.6632 45.2476 62.8307 44.9664C63.0113 44.6909 63.0657 44.3513 62.9812 44.0312C62.1376 40.6619 59.0173 37.6039 55.2677 36.0545C56.9185 35.6507 58.542 35.3213 60.138 35.0645C63.7998 40.6756 70.7016 44.4571 77.1868 44.3052C77.5091 44.2911 77.8122 44.1516 78.0321 43.916C78.2603 43.6808 78.3811 43.3608 78.3646 43.0324C78.2342 39.858 76.181 36.5473 73.2622 34.2675C74.2696 34.3076 75.2354 34.3711 76.1794 34.4479L76.1797 34.5472C76.1784 34.6494 76.1903 34.7518 76.2153 34.8507C76.59 36.2685 77.1536 37.6299 77.8911 38.8981C80.3867 43.2206 84.8318 46.5596 90.2782 48.0054C90.5915 48.0938 90.9272 48.0482 91.2043 47.8797C91.4876 47.7174 91.6919 47.4467 91.7701 47.1289C92.5824 43.8362 91.3058 39.7988 88.8258 36.6957C89.8603 37.0021 90.619 37.2576 91.0159 37.3953C96.2943 45.2656 101.565 47.2391 109.4 48.0961C109.783 48.1397 110.163 48.0014 110.428 47.722Z" fill="white"/>
</g>
<defs>
<filter id="filter0_d_1760_3388" x="17.6924" y="13" width="111.922" height="128.073" filterUnits="userSpaceOnUse" color-interpolation-filters="sRGB">
<feFlood flood-opacity="0" result="BackgroundImageFix"/>
<feColorMatrix in="SourceAlpha" type="matrix" values="0 0 0 0 0 0 0 0 0 0 0 0 0 0 0 0 0 0 127 0" result="hardAlpha"/>
<feOffset dx="4" dy="5"/>
<feGaussianBlur stdDeviation="7"/>
<feComposite in2="hardAlpha" operator="out"/>
<feColorMatrix type="matrix" values="0 0 0 0 0.8625 0 0 0 0 0.3128 0 0 0 0 0.00359374 0 0 0 0.3 0"/>
<feBlend mode="normal" in2="BackgroundImageFix" result="effect1_dropShadow_1760_3388"/>
<feBlend mode="normal" in="SourceGraphic" in2="effect1_dropShadow_1760_3388" result="shape"/>
</filter>
</defs>
</svg>
