<svg width="140" height="140" viewBox="0 0 140 140" fill="none" xmlns="http://www.w3.org/2000/svg">
<circle cx="70" cy="70" r="70" fill="#FD9F32"/>
<g filter="url(#filter0_d_609_3154)">
<g filter="url(#filter1_d_609_3154)">
<path d="M84.0625 60.6261C84.0625 59.9842 83.6298 59.5563 82.9808 59.5563C81.899 59.5563 80.8173 59.7703 79.7356 59.9842C82.3317 57.4167 84.0625 53.9932 84.0625 49.9279C84.0625 49.286 83.6298 48.8581 82.9808 48.8581C79.7356 48.8581 76.7067 49.9279 74.3269 51.8536C75.8413 47.1464 74.5433 41.5833 70.8654 37.9459C70.4327 37.518 69.7837 37.518 69.351 37.9459C65.4567 41.7973 64.375 47.1464 65.8894 51.8536C63.5096 49.9279 60.4808 48.8581 57.2356 48.8581C56.3702 48.8581 55.9375 49.286 55.9375 49.9279C55.9375 53.7793 57.6683 57.4167 60.2644 59.9842C59.1827 59.7703 58.101 59.5563 57.0192 59.5563C56.3702 59.5563 55.9375 59.9842 55.9375 60.6261C55.9375 64.4775 57.6683 68.1149 60.2644 70.6824C59.1827 70.4685 58.101 70.2545 57.0192 70.2545C56.3702 70.2545 55.9375 70.6824 55.9375 71.3243C55.9375 78.1712 61.1298 83.9482 67.8365 85.018V94.8604C67.8365 96.1441 68.7019 97 70 97C71.2981 97 72.1635 96.1441 72.1635 94.8604V85.018C78.8702 83.9482 84.0625 78.1712 84.0625 71.3243C84.0625 70.6824 83.6298 70.2545 82.9808 70.2545C81.899 70.2545 80.8173 70.4685 79.7356 70.6824C82.3317 68.1149 84.0625 64.4775 84.0625 60.6261ZM70 63.8356C71.0817 63.8356 72.1635 63.6216 73.2452 63.4077C71.9471 64.6914 70.649 66.4032 70 68.1149C69.351 66.4032 68.0529 64.6914 66.7548 63.4077C67.8365 63.6216 68.9183 63.8356 70 63.8356ZM70 78.8131C69.351 77.1014 68.0529 75.3896 66.7548 74.1059C67.8365 74.3198 68.9183 74.5338 70 74.5338C71.0817 74.5338 72.1635 74.3198 73.2452 74.1059C71.9471 75.3896 70.649 77.1014 70 78.8131Z" fill="white"/>
</g>
<mask id="path-3-inside-1_609_3154" fill="white">
<path d="M29.4051 45.437C33.1004 39.0366 38.2567 33.6007 44.4532 29.5728C50.6497 25.545 57.7108 23.0394 65.0603 22.2606C72.4097 21.4817 79.8391 22.4517 86.7422 25.0914C93.6453 27.731 99.8264 31.9655 104.781 37.4493L101.856 40.092C97.3182 35.0694 91.6568 31.191 85.3343 28.7733C79.0117 26.3556 72.207 25.4672 65.4757 26.1805C58.7443 26.8939 52.277 29.1887 46.6015 32.8779C40.9261 36.567 36.2034 41.5458 32.8189 47.408L29.4051 45.437Z"/>
</mask>
<path d="M29.4051 45.437C33.1004 39.0366 38.2567 33.6007 44.4532 29.5728C50.6497 25.545 57.7108 23.0394 65.0603 22.2606C72.4097 21.4817 79.8391 22.4517 86.7422 25.0914C93.6453 27.731 99.8264 31.9655 104.781 37.4493L101.856 40.092C97.3182 35.0694 91.6568 31.191 85.3343 28.7733C79.0117 26.3556 72.207 25.4672 65.4757 26.1805C58.7443 26.8939 52.277 29.1887 46.6015 32.8779C40.9261 36.567 36.2034 41.5458 32.8189 47.408L29.4051 45.437Z" stroke="white" stroke-width="4" mask="url(#path-3-inside-1_609_3154)"/>
<mask id="path-4-inside-2_609_3154" fill="white">
<path d="M110.595 45.4364C114.29 51.8369 116.419 59.0203 116.809 66.4006C117.199 73.7809 115.839 81.1488 112.839 87.903C109.838 94.6572 105.284 100.606 99.546 105.265C93.8084 109.923 87.0507 113.159 79.8243 114.708L78.9981 110.853C85.6168 109.435 91.8063 106.471 97.0613 102.204C102.316 97.9377 106.488 92.4889 109.236 86.3027C111.984 80.1165 113.23 73.3682 112.873 66.6086C112.516 59.849 110.565 53.2696 107.181 47.4074L110.595 45.4364Z"/>
</mask>
<path d="M110.595 45.4364C114.29 51.8369 116.419 59.0203 116.809 66.4006C117.199 73.7809 115.839 81.1488 112.839 87.903C109.838 94.6572 105.284 100.606 99.546 105.265C93.8084 109.923 87.0507 113.159 79.8243 114.708L78.9981 110.853C85.6168 109.435 91.8063 106.471 97.0613 102.204C102.316 97.9377 106.488 92.4889 109.236 86.3027C111.984 80.1165 113.23 73.3682 112.873 66.6086C112.516 59.849 110.565 53.2696 107.181 47.4074L110.595 45.4364Z" stroke="white" stroke-width="4" mask="url(#path-4-inside-2_609_3154)"/>
<mask id="path-5-inside-3_609_3154" fill="white">
<path d="M70 115.75C62.6016 115.75 55.3082 113.999 48.7164 110.64C42.1246 107.28 36.4215 102.408 32.0736 96.4223C27.7258 90.4363 24.8565 83.5061 23.7006 76.1986C22.5447 68.891 23.135 61.4136 25.4231 54.3779L29.1718 55.597C27.0761 62.041 26.5355 68.8896 27.5941 75.5827C28.6528 82.2757 31.2808 88.6231 35.263 94.1058C39.2453 99.5884 44.4687 104.051 50.5062 107.127C56.5437 110.204 63.2237 111.808 70 111.808L70 115.75Z"/>
</mask>
<path d="M70 115.75C62.6016 115.75 55.3082 113.999 48.7164 110.64C42.1246 107.28 36.4215 102.408 32.0736 96.4223C27.7258 90.4363 24.8565 83.5061 23.7006 76.1986C22.5447 68.891 23.135 61.4136 25.4231 54.3779L29.1718 55.597C27.0761 62.041 26.5355 68.8896 27.5941 75.5827C28.6528 82.2757 31.2808 88.6231 35.263 94.1058C39.2453 99.5884 44.4687 104.051 50.5062 107.127C56.5437 110.204 63.2237 111.808 70 111.808L70 115.75Z" stroke="white" stroke-width="4" mask="url(#path-5-inside-3_609_3154)"/>
<path fill-rule="evenodd" clip-rule="evenodd" d="M30.9375 45.4375V37.625H27.8125V48.5625H38.75V45.4375H30.9375Z" fill="white"/>
<path fill-rule="evenodd" clip-rule="evenodd" d="M109.469 47.351L117.015 49.3731L117.824 46.3546L107.259 43.5237L104.428 54.0885L107.447 54.8973L109.469 47.351Z" fill="white"/>
<path fill-rule="evenodd" clip-rule="evenodd" d="M68.5484 113.004L63.0242 118.528L65.2339 120.738L72.9679 113.004L65.2339 105.27L63.0242 107.48L68.5484 113.004Z" fill="white"/>
</g>
<defs>
<filter id="filter0_d_609_3154" x="13.125" y="12.9995" width="122.699" height="126.739" filterUnits="userSpaceOnUse" color-interpolation-filters="sRGB">
<feFlood flood-opacity="0" result="BackgroundImageFix"/>
<feColorMatrix in="SourceAlpha" type="matrix" values="0 0 0 0 0 0 0 0 0 0 0 0 0 0 0 0 0 0 127 0" result="hardAlpha"/>
<feOffset dx="4" dy="5"/>
<feGaussianBlur stdDeviation="7"/>
<feComposite in2="hardAlpha" operator="out"/>
<feColorMatrix type="matrix" values="0 0 0 0 0.8625 0 0 0 0 0.3128 0 0 0 0 0.00359374 0 0 0 0.3 0"/>
<feBlend mode="normal" in2="BackgroundImageFix" result="effect1_dropShadow_609_3154"/>
<feBlend mode="normal" in="SourceGraphic" in2="effect1_dropShadow_609_3154" result="shape"/>
</filter>
<filter id="filter1_d_609_3154" x="45.9375" y="28.625" width="56.125" height="87.375" filterUnits="userSpaceOnUse" color-interpolation-filters="sRGB">
<feFlood flood-opacity="0" result="BackgroundImageFix"/>
<feColorMatrix in="SourceAlpha" type="matrix" values="0 0 0 0 0 0 0 0 0 0 0 0 0 0 0 0 0 0 127 0" result="hardAlpha"/>
<feOffset dx="4" dy="5"/>
<feGaussianBlur stdDeviation="7"/>
<feComposite in2="hardAlpha" operator="out"/>
<feColorMatrix type="matrix" values="0 0 0 0 0.8625 0 0 0 0 0.3128 0 0 0 0 0.00359374 0 0 0 0.3 0"/>
<feBlend mode="normal" in2="BackgroundImageFix" result="effect1_dropShadow_609_3154"/>
<feBlend mode="normal" in="SourceGraphic" in2="effect1_dropShadow_609_3154" result="shape"/>
</filter>
</defs>
</svg>
