<svg width="197" height="252" viewBox="0 0 197 252" fill="none" xmlns="http://www.w3.org/2000/svg">
<path d="M3.00259 31.1365C3.1227 31.0164 3.3629 30.7762 3.483 30.6561C5.28455 28.8546 7.08612 26.8129 8.76756 24.8913C9.12787 24.4109 9.60828 23.9305 9.96858 23.33C10.2088 23.0898 10.449 22.7295 10.6892 22.4893C11.0495 22.0089 11.4098 21.6486 11.7701 21.1682C12.0103 20.8079 12.3707 20.4476 12.6109 20.0873C12.9712 19.727 13.2114 19.2466 13.5717 18.8863C13.932 18.526 14.1722 18.0456 14.4124 17.6853C14.6526 17.325 15.0129 16.8446 15.2531 16.4843C16.334 14.923 17.415 13.2416 18.4959 11.6803C19.4567 10.9597 20.4176 10.3592 21.4985 10.119C21.9789 9.99889 22.3392 10.2391 22.5794 10.7195C29.5454 15.4034 35.3104 22.8496 41.1954 28.8546C47.3207 35.2198 53.446 41.465 59.5712 47.8303C66.1769 54.5559 72.7826 61.4016 79.3883 68.1272C81.9104 64.5242 84.4326 61.0413 86.9548 57.5584C86.8347 57.4383 86.8347 57.3182 86.7146 57.1981C86.4744 56.8378 87.0749 56.4775 87.3151 56.8378C87.3151 56.8378 87.3151 56.8378 87.4352 56.9579C87.4352 56.9579 87.4352 56.9579 87.5553 56.8378C87.7955 56.4775 88.396 56.8378 88.1558 57.1981C88.0357 57.3182 88.0357 57.4383 87.9156 57.5584C88.7563 58.6393 89.477 59.7202 90.1976 60.8011C90.3177 60.8011 90.4378 60.8011 90.5579 60.9212C94.161 64.0438 96.563 68.6076 99.2053 72.4508C101.127 75.2131 103.049 77.9754 104.85 80.8578C115.659 67.0463 126.949 53.5951 137.999 40.0238C143.403 33.2982 148.808 26.6928 154.213 19.9672C159.377 13.6019 164.421 5.7954 170.787 0.631105C170.907 0.150705 171.267 -0.0894943 171.748 0.0306055C172.709 0.270805 173.789 0.751204 174.75 1.3517C175.591 2.6728 176.672 4.114 177.873 5.6753C178.113 6.0356 178.473 6.3959 178.714 6.7562C179.074 7.23659 179.434 7.59689 179.795 8.07729C180.035 8.43759 180.395 8.79789 180.635 9.15819C180.996 9.51849 181.236 9.87879 181.596 10.2391C181.956 10.5994 182.317 11.0798 182.557 11.4401C182.797 11.8004 183.037 12.0406 183.398 12.2808C183.758 12.7612 184.238 13.2416 184.599 13.6019L184.719 13.722C186.4 15.5235 188.202 17.325 190.003 19.0064C190.124 19.1265 190.364 19.2466 190.484 19.4868C191.204 20.0873 191.805 20.6878 192.405 21.2883C192.405 21.2883 192.405 21.2883 192.285 21.2883C189.763 27.8938 182.317 33.6586 177.753 38.7027C171.027 46.0288 164.301 53.3549 157.455 60.5609C151.21 67.2865 144.965 74.0121 138.599 80.7377C133.074 86.6226 127.79 92.8678 122.025 98.3923C121.905 98.8727 121.545 99.2331 121.064 99.2331C120.944 99.3532 120.824 99.4732 120.704 99.5933C120.343 99.233 119.863 98.7527 119.503 98.3923C117.341 96.2306 115.059 94.0688 112.777 92.0271C112.657 92.7477 112.297 93.2281 111.936 93.8286C114.458 97.912 116.981 102.115 119.383 106.319C119.503 106.319 119.623 106.439 119.623 106.439C132.954 119.05 146.046 132.02 159.257 144.751C165.622 150.876 171.868 157.001 178.233 163.126C184.238 169.011 191.685 174.776 196.369 181.742C196.849 181.862 197.089 182.222 196.969 182.823C196.729 183.903 196.129 184.864 195.408 185.825C193.727 186.906 192.165 187.987 190.484 189.188C190.124 189.428 189.763 189.668 189.403 189.908C188.922 190.269 188.442 190.629 187.962 190.869C187.601 191.109 187.241 191.47 186.761 191.71C186.4 191.95 185.92 192.31 185.56 192.551C185.079 192.911 184.719 193.151 184.238 193.511C183.878 193.752 183.638 193.992 183.278 194.232C182.797 194.592 182.317 195.073 181.836 195.433L181.716 195.553C179.795 197.234 177.873 198.916 175.951 200.717C175.831 200.837 175.591 201.078 175.471 201.198C174.87 201.798 174.27 202.399 173.669 203.119C173.669 203.119 173.669 203.119 173.669 202.999C167.184 199.877 162.019 191.83 157.335 186.666C150.489 179.099 143.644 171.533 136.798 163.967C132.114 158.803 127.55 153.638 122.866 148.354C124.547 161.205 125.508 174.295 126.949 187.266C127.91 196.033 129.351 205.041 130.432 214.048C130.913 214.649 131.273 215.37 131.753 215.97C131.873 216.09 131.873 216.21 131.994 216.33C132.114 215.97 132.354 215.61 132.594 215.249C132.834 214.889 133.555 215.009 133.555 215.49C133.555 216.45 133.435 217.291 133.315 218.252C134.035 219.333 134.756 220.414 135.356 221.495C137.398 221.495 139.32 221.495 141.362 221.495C139.92 219.933 138.359 218.372 136.918 216.811C135.477 215.37 133.795 213.928 132.834 212.127C132.714 212.007 132.834 211.767 132.954 211.646C132.234 211.646 131.513 211.646 130.792 211.646C130.672 210.445 130.552 209.124 130.312 207.923C134.996 207.563 139.8 207.563 144.484 207.443C148.568 207.443 152.891 207.083 156.975 207.563C157.215 207.083 157.696 206.842 158.176 207.203C158.536 207.443 159.017 207.803 159.377 208.043C159.617 208.164 159.978 208.164 160.218 208.284C160.578 208.404 160.698 208.764 160.578 209.124C162.38 210.686 164.061 212.487 165.743 214.048C168.385 216.691 171.027 219.213 173.549 221.855C173.669 222.095 173.429 222.335 173.309 222.215C170.667 220.174 168.025 218.132 165.502 215.97C163.1 214.048 160.458 212.127 158.296 209.965C156.735 210.325 155.173 210.566 153.612 210.686C157.816 214.048 161.779 217.772 165.743 221.495C168.505 221.615 171.147 221.855 173.789 222.335V222.455C171.988 222.936 170.066 223.176 168.025 223.416C168.625 226.058 168.145 229.181 167.664 231.823C167.664 231.823 167.664 231.823 167.664 231.943C166.583 232.544 165.622 232.784 164.421 232.784C163.821 232.304 163.461 231.583 163.701 230.742C164.181 228.46 164.782 225.818 165.983 223.656C161.659 224.017 157.335 224.137 153.132 224.257C150.009 224.377 147.006 224.617 143.884 224.737C143.764 226.179 143.644 227.5 143.283 228.941C143.283 229.061 143.043 229.061 143.043 228.941C143.163 227.62 143.403 226.179 143.644 224.857C142.202 224.978 140.881 224.978 139.44 224.978C139.32 226.899 139.08 228.701 138.839 230.622C138.839 230.862 138.359 230.862 138.479 230.622C138.599 228.701 138.96 226.899 139.2 225.098C136.918 225.218 134.516 225.218 132.234 225.338C132.234 226.899 132.234 228.34 132.234 229.902C132.234 230.022 131.994 230.022 131.994 229.902C131.994 228.34 131.994 226.899 131.994 225.338C131.753 225.338 131.633 225.338 131.393 225.338C131.513 227.5 131.513 229.782 131.513 231.943C131.994 232.063 132.354 232.063 132.834 232.184C132.954 232.184 132.954 232.304 132.834 232.304C132.354 232.304 131.994 232.184 131.513 232.184C131.513 233.745 131.393 235.306 131.273 236.988C131.273 237.348 130.792 237.348 130.672 237.108C130.192 235.426 129.712 233.745 129.351 232.063C126.469 231.823 123.466 231.583 120.704 230.862C120.464 230.742 120.464 230.382 120.824 230.382C123.586 230.502 126.469 230.983 129.231 231.463C128.871 229.902 128.511 228.34 128.27 226.779C124.907 226.539 121.545 226.179 118.302 225.338C118.062 225.218 118.062 224.857 118.422 224.857C121.665 225.098 125.028 225.698 128.27 226.419C128.03 225.098 127.79 223.656 127.55 222.335C124.787 222.215 122.025 221.975 119.263 221.735C119.022 221.735 119.022 221.375 119.263 221.375C122.025 221.615 124.787 221.735 127.55 222.215C127.43 221.615 127.43 221.014 127.309 220.534C122.866 219.933 118.422 219.573 113.978 219.093C105.811 218.252 97.644 217.892 89.3568 218.012C80.3491 218.012 71.3414 218.852 62.4537 220.053V220.174C67.2579 219.693 72.5424 220.414 77.2264 220.534C84.7929 220.654 92.3594 220.654 99.9259 220.654C100.046 220.654 100.046 220.774 99.9259 220.774C93.0801 221.014 86.3543 221.375 79.5084 221.735C74.1037 221.975 67.8584 223.296 62.3336 222.816C62.3336 223.176 62.3336 223.656 62.2135 224.017C73.5032 223.296 85.5135 224.737 96.8033 224.857C96.9234 224.857 96.9234 224.978 96.8033 224.978C85.5135 225.218 73.5032 226.779 62.0934 226.179C62.0934 226.779 61.9733 227.38 61.9733 227.98C73.5032 227.86 85.2733 227.98 96.8033 228.701C85.2733 229.661 73.5032 229.902 61.8532 229.902C61.8532 230.382 61.7331 230.983 61.7331 231.463C66.0568 231.223 70.5006 231.583 74.8243 231.703C81.9104 231.823 88.9965 231.703 95.9625 232.063C96.0826 232.063 96.0826 232.184 95.9625 232.184C89.7172 232.664 83.4718 232.784 77.1063 233.024C71.9419 233.264 66.6573 233.865 61.4929 233.625C61.4929 234.105 61.3728 234.706 61.3728 235.186C64.8558 235.066 68.4589 235.306 71.9419 235.306C78.4274 235.306 84.913 235.306 91.3986 235.186C93.9208 234.946 96.4429 234.826 99.0852 234.826C99.9259 229.902 102.328 223.656 107.492 223.656C113.978 223.656 112.297 230.502 111.336 235.066C114.458 235.186 117.461 235.426 120.464 235.666C122.986 235.546 125.508 235.426 127.91 235.186C128.15 235.186 128.15 235.546 127.91 235.546C126.589 235.666 125.268 235.787 123.947 235.907C124.307 235.907 124.307 236.387 123.947 236.387C119.142 236.867 114.218 237.468 109.174 237.828C109.174 237.948 109.174 238.068 109.174 238.189C109.774 241.071 105.21 241.431 105.331 238.669C105.331 238.429 105.331 238.309 105.331 238.068C104.97 238.068 104.61 238.068 104.25 238.068C103.649 241.191 98.845 241.311 98.6048 238.189C94.0409 238.189 89.477 237.948 85.1532 237.348C84.4326 237.228 84.4326 236.027 85.1532 235.907C86.4744 235.666 87.6754 235.546 88.9965 235.426C84.0723 235.787 79.028 236.147 74.1037 236.507C69.9001 236.747 65.3362 237.588 61.0125 237.588C61.0125 238.189 60.8924 238.909 60.8924 239.51C64.6156 239.029 68.579 239.269 72.1821 239.149C78.1872 238.909 84.1924 239.029 90.0775 238.549C90.1976 238.549 90.1976 238.669 90.0775 238.669C84.0723 239.029 78.0671 239.87 72.1821 240.711C70.6207 240.951 69.0594 241.191 67.4981 241.311C69.6599 241.191 71.9419 241.191 73.9836 241.431C78.5476 240.711 83.1115 240.11 87.6754 239.39C87.7955 239.39 87.7955 239.51 87.6754 239.63C84.3125 240.35 81.0697 241.191 77.8269 242.032C79.1481 242.272 80.3491 242.632 81.6702 243.113C82.0306 243.233 82.0305 243.833 81.5501 243.833C78.6677 243.473 75.7852 243.233 73.0228 243.233C72.6625 243.353 72.4223 243.353 72.062 243.473C68.2187 244.434 64.2553 246.115 60.1718 246.235C59.9315 247.196 59.4511 248.037 58.7305 248.637C63.5346 248.037 68.6991 248.397 73.263 248.397C73.9836 248.397 74.1037 249.478 73.3831 249.598C67.2579 250.679 59.9315 252.721 53.8063 251.52C52.8455 251.4 53.0857 250.078 53.8063 249.838C53.9264 249.838 54.0465 249.838 54.0465 249.718C53.9264 250.919 55.6078 251.279 56.3284 250.439C56.5686 250.078 56.8089 249.838 57.0491 249.478C55.4877 249.838 53.6862 249.478 52.8455 248.157C51.6444 248.757 50.4434 249.358 49.2424 249.838C48.6418 250.199 47.8011 249.358 48.4016 248.757C48.5217 248.637 48.6418 248.517 48.7619 248.397C47.4408 248.517 46.1197 248.757 44.7985 248.877C44.7985 250.439 43.9578 252 41.9161 252C39.1537 252 38.4331 248.998 39.514 247.316C38.7934 239.51 39.0336 231.703 39.6341 223.897C38.5532 224.137 37.5923 224.257 36.5114 224.497C36.7516 223.296 36.9918 222.095 37.3521 220.894C37.4722 220.894 37.5923 220.774 37.7124 220.774C37.8326 219.693 37.9526 218.732 38.0728 217.651C38.0728 217.531 38.1929 217.411 38.1929 217.291C38.1929 217.171 38.1929 217.051 38.1929 217.051C38.1929 217.051 38.1929 217.051 38.1929 216.931C38.313 216.571 38.313 216.21 38.4331 215.85C39.0336 215.49 39.7542 215.129 40.4748 214.889C40.4748 214.529 40.5949 214.169 40.5949 213.688C41.5558 205.882 42.6367 197.715 44.7985 189.908C39.9944 195.673 35.1903 201.438 30.3862 207.203C30.0258 207.563 29.6655 207.803 29.1851 207.683C28.7047 207.923 28.1042 207.923 27.6238 207.683C20.0573 203.119 13.4516 195.793 7.80672 189.188C8.04692 188.587 8.16704 188.107 8.40724 187.506C8.40724 187.386 8.52733 187.266 8.52733 187.266V187.146C8.52733 187.026 8.64743 186.906 8.64743 186.666C8.88765 186.305 9.24796 185.945 9.48816 185.585C11.5299 182.943 13.5717 180.421 15.7335 177.898C15.9737 177.538 16.214 177.178 16.5743 176.938C23.9006 168.05 31.4671 159.283 39.1537 150.756V150.636C39.2738 150.516 39.3939 150.396 39.3939 150.275C39.3939 150.275 39.3939 150.275 39.514 150.275C40.9552 148.594 42.5166 147.033 43.9578 145.351C45.2789 144.03 46.6001 142.589 47.9212 141.268C47.8011 141.148 47.8011 141.028 47.8011 140.788V140.667C47.9212 140.187 47.9212 139.707 48.0413 139.346C47.9212 139.466 47.681 139.587 47.4408 139.707C45.6393 140.187 43.9578 139.947 42.3965 138.986C42.0362 138.746 41.796 138.386 41.796 138.025C41.6759 138.025 41.6758 138.025 41.5557 138.025C40.8351 138.265 40.1145 138.386 39.3939 138.626C38.0728 138.866 36.6315 137.305 37.3521 136.224C37.3521 135.984 37.3521 135.863 37.4722 135.623C43.1171 124.814 49.0022 114.246 55.2475 103.797C55.1274 103.797 55.1274 103.797 55.0073 103.797C54.2867 103.677 54.5269 102.596 55.1274 102.596C55.3676 102.596 55.7279 102.596 55.9681 102.476C58.2501 98.7527 60.5321 95.0296 62.814 91.3065C61.9733 90.4658 61.0125 89.7452 60.1718 88.9045C53.2058 82.6593 46.1197 76.4141 39.1537 70.0488C31.5872 63.2031 24.0207 56.3574 16.4542 49.5117C11.2897 44.8278 3.12268 39.6635 0.120102 33.1782C0.120102 33.1782 0.120117 33.1782 1.52588e-05 33.1782C1.80156 32.3375 2.40208 31.737 3.00259 31.1365ZM147.367 221.375C144.364 218.732 141.241 215.97 138.719 212.968C138.599 212.847 138.719 212.487 138.96 212.607C142.322 215.129 145.325 218.372 148.328 221.375C149.288 221.375 150.249 221.375 151.21 221.375C155.894 221.375 160.818 221.254 165.622 221.495C161.419 218.012 157.095 214.649 153.252 210.806C151.931 210.926 150.489 210.926 149.168 211.046C153.012 213.808 156.495 217.411 159.978 220.654C159.978 220.654 159.978 220.774 159.857 220.774C156.134 217.651 151.811 214.769 148.448 211.286V211.166C147.967 211.166 147.487 211.166 147.006 211.286C146.046 211.286 144.965 211.406 144.004 211.406C147.487 214.409 150.73 217.892 153.972 221.014C154.093 221.134 153.972 221.134 153.852 221.134C150.369 217.892 146.766 214.889 143.523 211.406C140.281 211.526 136.918 211.767 133.675 211.767C135.356 212.968 136.557 214.769 137.758 216.33C139.2 218.012 140.641 219.693 141.962 221.495C143.764 221.375 145.565 221.375 147.367 221.375ZM131.633 224.257C131.633 223.296 131.753 222.335 131.633 221.375H131.873C131.753 221.254 131.513 221.014 131.393 220.894C131.513 222.095 131.513 223.176 131.633 224.257ZM131.393 220.654C131.633 220.894 131.873 221.134 132.114 221.495C133.195 221.495 134.275 221.495 135.356 221.495L133.195 219.093C132.594 219.693 131.273 219.213 131.513 218.132C131.633 217.892 131.633 217.651 131.753 217.411L131.033 216.691L130.913 216.571C131.153 217.892 131.273 219.213 131.393 220.654ZM109.054 234.826C109.654 234.826 110.375 234.826 110.975 234.946C110.855 233.745 110.735 232.664 110.735 231.583C110.615 229.902 110.855 227.139 108.453 227.5C108.213 227.5 107.853 227.62 107.613 227.74C108.333 230.022 108.693 232.424 109.054 234.826ZM105.691 234.706C105.691 233.264 105.691 231.943 105.691 230.502C105.331 231.823 105.09 233.385 104.97 234.706C105.21 234.706 105.451 234.706 105.691 234.706ZM39.2738 217.411C39.3939 218.372 39.514 219.453 39.514 220.414C39.9944 220.294 40.3547 220.174 40.8351 220.053C40.8351 219.813 40.8351 219.573 40.9552 219.453C40.8351 219.453 40.715 219.333 40.8351 219.213C40.8351 218.973 40.9552 218.612 41.0753 218.372C41.1954 217.772 41.1954 217.171 41.3155 216.45C40.4748 216.811 39.8743 217.051 39.2738 217.411ZM17.7753 17.9255C17.0547 18.7662 16.4541 19.6069 15.7335 20.4476C18.3758 21.6486 20.0573 23.6903 22.3392 25.9722C22.5794 26.2124 22.8196 26.4526 23.0598 26.6928C24.2609 25.3717 25.4619 24.0506 26.6629 22.7295C24.5011 20.2074 22.3392 17.8054 20.2975 15.2833C19.5768 16.124 18.7361 16.9647 17.7753 17.9255ZM87.4352 102.716C89.7172 102.356 91.9991 102.476 94.2811 102.596C93.9208 102.356 93.5605 102.115 93.2002 101.755C92.2393 101.035 91.2785 100.314 90.3177 99.5933C89.8373 99.5933 89.3568 99.5934 88.8764 99.4733C88.396 99.4733 88.396 98.7527 88.8764 98.7527C88.9965 98.7527 89.2367 98.7527 89.3568 98.7527C89.1166 98.5125 88.9965 98.3924 88.7563 98.1522C87.0749 99.8335 85.3934 101.635 83.8321 103.316C84.7929 103.316 85.7537 103.316 86.8347 103.437C86.8347 103.196 87.0749 102.836 87.4352 102.716ZM89.7172 82.5392C89.9574 82.5392 90.0775 82.5392 90.3177 82.5392C89.7172 81.9387 89.1166 81.3382 88.5161 80.6176C87.7955 80.4975 87.195 80.2573 86.4744 80.1372C86.2342 80.4975 85.8739 80.9779 85.6336 81.3382C86.7146 82.299 87.6754 83.3799 88.7563 84.3407C89.9574 84.3407 91.1584 84.4608 92.2393 84.4608C91.9991 84.2206 91.7589 83.9804 91.5187 83.7402C90.9182 83.5 90.3177 83.3799 89.7172 83.1397C89.3568 83.0196 89.3568 82.5392 89.7172 82.5392ZM42.1562 45.1881C44.5583 47.47 46.8403 49.872 49.2424 52.1539C49.963 51.3132 50.8037 50.4725 51.5243 49.6318C49.1222 47.2298 46.6001 44.7077 44.3181 42.1856C43.5975 43.1464 42.8769 44.2273 42.1562 45.1881ZM43.5975 41.3449C40.8351 38.3424 38.0728 35.34 35.3104 32.3375C34.4697 33.5385 33.6289 34.7394 32.6681 35.8203C35.5506 38.5826 38.313 41.3449 41.1954 44.2273C42.0362 43.2665 42.7568 42.3057 43.5975 41.3449ZM50.3233 53.1147C51.164 53.9554 52.0047 54.7961 52.8455 55.6368L56.8089 59.48C57.5295 58.5192 58.2501 57.6785 58.9707 56.7177C57.5295 55.3966 56.0882 53.9554 54.7671 52.6343C54.0465 51.9137 53.2058 51.073 52.4852 50.3524C51.6444 51.3132 50.9238 52.274 50.3233 53.1147ZM57.5295 60.3207L64.4955 67.1664C65.3362 66.3257 66.1769 65.485 66.8975 64.6443C64.3754 62.2423 61.9733 59.8403 59.4511 57.4383C58.9707 58.3991 58.2501 59.3599 57.5295 60.3207ZM65.6965 68.2473L72.5424 74.9729C73.263 74.0121 74.1037 73.0513 74.8243 72.2106C72.5424 70.0488 70.2604 67.7669 67.9785 65.6051C67.2579 66.4458 66.4171 67.4066 65.6965 68.2473ZM71.4615 78.8161C70.6207 80.1372 69.78 81.5784 68.9393 82.8995L69.1795 83.1397C70.0202 81.8186 70.8609 80.4975 71.8218 79.1764L71.4615 78.8161ZM73.3831 75.8136L73.6233 76.0538C74.3439 75.093 74.9445 74.0121 75.6651 73.0513L75.545 72.9312C74.8243 73.892 74.1037 74.8528 73.3831 75.8136ZM75.6651 75.5734C76.5058 75.4533 77.3465 75.4533 78.1872 75.4533C77.7068 74.9729 77.2264 74.4925 76.746 74.0121C76.2656 74.4925 76.0254 74.9729 75.6651 75.5734ZM75.0646 76.4141C74.9445 76.6543 74.8244 76.8945 74.7043 77.0146L81.43 83.6201C82.2708 82.6593 82.9914 81.8186 83.8321 80.8578C82.3909 79.4166 80.8295 77.9754 79.3883 76.5342C77.947 76.6543 76.5058 76.5342 75.0646 76.4141ZM91.879 88.6643C90.678 87.4633 89.477 86.3824 88.2759 85.1814C86.5945 85.1814 84.7929 85.3015 83.1115 85.3015L86.2342 88.4241C88.0357 88.5442 89.9574 88.6643 91.879 88.6643ZM86.9548 89.1447L90.3177 92.5075C90.4378 92.3874 90.678 92.2673 90.7981 92.1472C91.5187 91.4266 92.3594 90.706 93.2002 90.1055C92.8399 89.7452 92.3594 89.3849 91.9991 88.9045C90.3177 89.0246 88.6362 89.1447 86.9548 89.1447ZM87.4352 84.3407C86.7146 83.6201 85.8738 82.8995 85.1532 82.0588C84.6728 82.7794 84.0723 83.5 83.5919 84.2206C84.7929 84.3407 86.1141 84.3407 87.4352 84.3407ZM82.0305 89.2648C81.3099 89.2648 80.5893 89.2648 79.8687 89.2648C79.2682 90.1055 78.6677 90.9462 78.1872 91.7869C78.5476 92.1472 79.028 92.5075 79.5084 92.9879C81.6702 92.8678 83.8321 92.9879 85.994 93.108L82.0305 89.2648ZM81.0697 88.304L80.8295 88.0638C80.7094 88.1839 80.7094 88.304 80.5893 88.304C80.8295 88.304 80.9496 88.304 81.0697 88.304ZM84.4326 80.2573C85.0331 79.6568 85.6336 78.9362 86.1141 78.3357C85.5135 77.7352 84.913 77.0146 84.1924 76.4141C82.9914 76.5342 81.7903 76.6543 80.5893 76.6543C81.9104 77.7352 83.1115 79.0563 84.4326 80.2573ZM89.477 85.1814C90.9182 86.6226 92.4795 88.0638 93.9208 89.505C94.4012 89.1447 94.8816 88.9045 95.362 88.5442C95.4821 88.4241 95.7223 88.304 95.8424 88.304C94.7615 87.103 93.5605 86.0221 92.4795 84.8211C92.4795 84.9412 92.3594 85.0613 92.2393 85.0613C91.2785 85.0613 90.4378 85.1814 89.477 85.1814ZM84.4326 97.4316C85.5135 96.4708 86.7146 95.6301 87.6754 94.9095L86.8347 94.0688C84.913 94.1889 82.8713 94.309 80.9496 94.309C82.2708 95.3899 83.3517 96.4708 84.4326 97.4316ZM82.6311 98.3923C80.9496 98.3923 79.1481 98.2723 77.4666 98.0321C78.6677 99.113 79.7486 100.194 80.8295 101.275C81.43 100.434 82.1507 99.5934 82.9914 98.7527C82.8713 98.6326 82.7512 98.5125 82.6311 98.3923ZM81.7903 97.4316C80.8295 96.3507 79.8687 95.3899 78.7878 94.309C78.0671 94.309 77.3465 94.1889 76.6259 94.0688C76.1455 94.6693 75.7852 95.2698 75.3048 95.8703C75.7852 96.3507 76.2656 96.711 76.746 97.1914C78.3074 97.1914 79.9888 97.1914 81.7903 97.4316ZM76.0254 89.6251C76.2656 89.2648 76.6259 89.0246 76.8661 88.6643C77.5867 87.8236 78.3073 87.103 79.028 86.2623L77.8269 85.1814C77.2264 85.1814 76.746 85.1814 76.1455 85.0613C74.8243 85.0613 73.3831 84.9412 72.062 84.8211C71.7017 84.8211 71.7017 84.1005 72.062 84.1005C73.5032 83.8603 74.9445 83.7402 76.3857 83.7402L72.6625 80.1372C71.8218 81.4583 70.981 82.7794 70.1403 84.2206C72.062 86.0221 74.1037 87.8236 76.0254 89.6251ZM69.78 90.1055C71.2213 89.7452 72.7826 89.7452 74.3439 89.8653C72.7826 88.304 71.2213 86.7427 69.5398 85.0613C68.6991 86.2623 67.9785 87.5834 67.1377 88.9045C68.9393 90.4658 70.7408 92.1472 72.5424 93.7085C73.263 92.8678 73.8635 91.907 74.5842 91.0663C72.9027 91.1864 71.1011 91.1864 69.5398 90.8261C69.4197 90.706 69.4197 90.1055 69.78 90.1055ZM68.4589 83.8603C68.3388 83.7402 68.3388 83.7402 68.2187 83.6201C67.3779 84.8211 66.4171 86.0221 65.3362 87.103C65.5764 87.3432 65.8166 87.4633 65.9367 87.7035C66.8975 86.5025 67.6182 85.1814 68.4589 83.8603ZM70.2604 77.6151L63.5346 71.0096C62.4537 72.2106 61.4929 73.5317 60.412 74.7327C62.6939 76.8945 64.8558 79.0563 67.1377 81.2181C68.0986 80.0171 69.1795 78.8161 70.2604 77.6151ZM62.2135 69.6885L55.6078 63.2031C54.647 64.5242 53.6862 65.8453 52.7253 67.2865C54.7671 69.3282 56.929 71.2498 58.9707 73.2915C59.9315 72.0905 61.0125 70.8895 62.2135 69.6885ZM54.5269 62.2423L50.3233 58.0388C49.6027 57.3182 48.882 56.5976 48.1614 55.877C47.0805 57.1981 45.9996 58.5192 45.0388 59.8403C46.3599 61.1614 47.8011 62.4825 49.1222 63.8036C49.963 64.5242 50.6836 65.3649 51.5243 66.0855C52.4851 64.7644 53.5661 63.4433 54.5269 62.2423ZM46.9604 54.7961C44.6784 52.5142 42.3965 50.3524 40.2346 48.0705C39.2738 49.5117 38.1929 50.9529 37.1119 52.3941C39.2738 54.4358 41.4356 56.4775 43.5975 58.6393C44.6784 57.3182 45.8795 55.9971 46.9604 54.7961ZM39.0336 46.9896C36.2712 44.2273 33.3887 41.465 30.6263 38.7027C29.5454 40.1439 28.4645 41.7052 27.3836 43.1464C30.1459 45.7886 32.9083 48.4308 35.7908 51.073C36.8717 49.6318 37.9527 48.3107 39.0336 46.9896ZM31.8274 35.0997C32.7882 33.8988 33.6289 32.8179 34.5898 31.6169C32.0676 28.7345 29.5454 25.9722 27.0233 22.9697C25.9423 24.4109 24.8614 25.732 23.7805 27.1732C26.5428 29.9355 29.1851 32.4576 31.8274 35.0997ZM22.4593 10.9597C22.4593 11.0798 22.3392 11.1999 22.3392 11.32C22.4593 11.32 22.5794 11.32 22.6995 11.32C22.5794 11.1999 22.5794 11.0798 22.4593 10.9597ZM22.8196 11.4401C22.5794 11.8004 22.2191 12.2808 21.9789 12.6411C21.6186 13.3617 21.2583 14.0823 20.6578 14.6828C22.8196 17.0848 25.1016 19.6069 27.2635 22.0089C27.9841 21.1682 28.7047 20.3275 29.5454 19.4868C27.0232 16.9647 24.7413 14.3225 22.8196 11.4401ZM29.6655 19.727C28.9449 20.5677 28.3444 21.5285 27.6238 22.3692C30.1459 25.2516 32.7882 28.0139 35.3104 30.8963C36.1511 29.8154 36.9918 28.8546 37.8326 27.7737C35.1903 25.1315 32.3078 22.4893 29.6655 19.727ZM38.1929 28.3742C37.3521 29.4551 36.6315 30.536 35.7908 31.6169C38.5532 34.6194 41.3155 37.6218 44.0779 40.6243C44.9186 39.5434 45.8795 38.4625 46.7202 37.3816C43.9578 34.3792 41.0753 31.3767 38.1929 28.3742ZM47.4408 37.862C46.6001 39.063 45.7594 40.1439 44.9186 41.3449C47.3207 43.867 49.7228 46.3891 52.2449 48.9112C53.2058 47.8303 54.1666 46.8695 55.1274 45.7886C52.4851 43.1464 49.963 40.5042 47.4408 37.862ZM58.13 48.9112C57.2893 48.0705 56.4485 47.1097 55.6078 46.269C54.7671 47.3499 53.9264 48.5509 52.9656 49.6318C54.2867 50.9529 55.6078 52.274 57.0491 53.5951L59.5712 55.9971C60.412 55.0363 61.2527 53.9554 62.0934 52.8745C60.6522 51.6735 59.331 50.3524 58.13 48.9112ZM62.3336 53.475C61.613 54.5559 60.7723 55.6368 60.0517 56.7177C62.5738 59.1197 65.096 61.6418 67.6181 64.0438C68.4589 63.2031 69.1795 62.3624 70.0202 61.5217C67.498 58.8795 64.9759 56.1172 62.3336 53.475ZM70.7408 62.1222C70.0202 62.9629 69.2996 63.9237 68.579 64.7644C70.861 66.9262 73.1429 69.2081 75.4249 71.3699C76.0254 70.5292 76.746 69.8086 77.3465 68.9679C75.0646 66.8061 72.9027 64.5242 70.7408 62.1222ZM77.8269 69.5684C77.2264 70.4091 76.6259 71.2498 76.0254 72.0905L76.1455 72.2106C76.746 71.49 77.3465 70.5292 77.8269 69.5684C77.947 69.6885 77.8269 69.6885 77.8269 69.5684ZM78.7878 70.6493C78.1872 71.49 77.7068 72.3307 77.1063 73.1714L79.3883 75.3332C80.8295 75.3332 82.1507 75.4533 83.5919 75.5734C82.0305 74.0121 80.3491 72.3307 78.7878 70.6493ZM105.331 86.0221C104.49 84.701 103.649 83.2598 102.688 81.9387C101.487 81.8186 100.286 81.8186 98.9651 81.6985C98.845 81.4583 98.7249 81.098 98.6048 80.8578C99.9259 81.098 101.247 81.3382 102.448 81.5784C101.487 80.0171 100.526 78.5759 99.5656 77.0146C98.6048 77.0146 97.644 77.0146 96.563 77.0146C96.4429 76.6543 96.2027 76.4141 96.0826 76.0538C97.1636 76.1739 98.2445 76.4141 99.2053 76.5342C98.845 75.9337 98.3646 75.2131 98.0043 74.6126C96.4429 72.3307 94.6414 70.1689 92.9599 67.7669C92.5996 67.7669 92.1192 67.7669 91.7589 67.7669C91.6388 67.5267 91.5187 67.2865 91.3986 67.0463C91.7589 67.0463 92.1192 67.1664 92.4795 67.1664C91.2785 65.3649 90.1976 63.5634 89.477 61.6418C89.2368 61.2815 88.9965 60.9212 88.7563 60.4408C88.5161 61.2815 88.0357 62.1222 87.4352 62.9629H87.5553C88.6362 63.3232 87.7955 64.8845 86.9548 64.284C86.8347 64.1639 86.7146 64.1639 86.5945 64.0438C86.3543 64.4041 86.1141 64.6443 85.8739 65.0046C85.2733 65.8453 84.5527 66.5659 83.9522 67.2865C83.5919 67.7669 82.7512 67.7669 82.2708 68.1272C82.2708 68.1272 82.1507 68.1272 82.1507 68.0071C82.3909 67.2865 82.0306 66.5659 82.2708 65.9654C82.7512 65.1247 83.2316 64.1639 83.712 63.3232C84.5527 61.7619 85.5135 59.8403 86.9548 58.8795C87.195 58.7594 87.4352 58.6393 87.6754 58.6393C87.4352 58.279 87.195 58.0388 87.0749 57.6785C84.6728 61.2815 82.2708 64.8845 79.8687 68.4875C82.0305 70.6493 84.0723 72.8111 86.2342 74.9729C88.5161 74.7327 90.9182 74.9729 93.2002 75.3332C93.4404 75.8136 93.6806 76.1739 93.9208 76.6543C91.6388 76.6543 89.3568 76.5342 87.195 76.0538C88.1558 77.1347 89.2367 78.0955 90.1976 79.1764C91.9991 79.2965 93.8007 79.6568 95.6022 80.0171C95.8424 80.4975 96.0826 80.8578 96.2027 81.3382C94.7615 81.2181 93.2001 81.098 91.7589 80.9779C92.3594 81.5784 92.8398 82.1789 93.4404 82.7794C94.6414 83.0196 95.9625 83.2598 97.1636 83.6201C97.4038 84.1005 97.5239 84.5809 97.7641 85.0613C96.9234 84.9412 95.9625 84.701 95.1218 84.5809C95.9625 85.4216 96.6832 86.2623 97.5239 87.103C97.8842 87.5834 97.8842 88.0638 97.5239 88.4241C98.0043 88.4241 98.4847 88.4241 98.9651 88.4241C98.9651 88.5442 99.0852 88.7844 99.0852 88.9045C98.3646 88.9045 97.644 88.7844 96.9234 88.7844C96.3228 89.9854 95.362 91.0663 94.5213 92.2673C94.2811 92.5075 94.0409 92.8678 93.9208 93.108C94.7615 93.9487 95.4821 94.9095 96.3228 95.7502C96.9234 96.2306 97.4038 96.8311 97.8842 97.4316C98.0043 97.5517 98.1244 97.6718 98.1244 97.7919C98.2445 97.5517 98.4847 97.3115 98.845 97.0713C99.3254 96.711 99.9259 96.4708 100.406 96.2306C100.526 96.1105 100.647 95.8703 100.767 95.7502C101.367 95.1497 101.968 94.6693 102.448 94.0688C100.286 94.0688 98.1244 94.1889 96.0826 94.0688C95.9625 94.0688 95.8424 93.8286 96.0826 93.8286C98.2445 93.7085 100.526 93.8286 102.688 93.9487C103.289 93.3482 104.009 92.7477 104.61 92.1472C103.649 92.0271 102.688 92.0271 101.727 91.907C101.848 91.7869 101.968 91.5467 101.968 91.4266C102.929 91.5467 104.009 91.6668 104.97 91.7869C105.811 91.0663 106.532 90.4658 107.492 89.8653C107.372 89.7452 107.252 89.505 107.252 89.3849C105.451 89.3849 103.529 89.2648 101.607 89.2648C101.607 89.1447 101.487 89.0246 101.487 88.7844C103.409 88.9045 105.21 89.1447 107.132 89.2648C106.532 88.304 105.931 87.3432 105.331 86.3824C103.769 86.1422 102.088 85.902 100.526 85.6618C100.406 85.3015 100.286 84.9412 100.166 84.5809C102.088 85.0613 103.769 85.5417 105.331 86.0221ZM60.0517 157.962C60.2919 157.842 60.5321 157.842 60.8924 157.842C60.2919 157.241 59.5712 156.521 58.9707 155.8L55.4877 159.883C57.2893 159.523 58.9707 159.163 60.7723 158.803C60.5321 158.803 60.412 158.803 60.1718 158.803C59.6913 158.803 59.5712 158.082 60.0517 157.962ZM61.7331 141.268C62.6939 142.229 63.5346 143.069 64.4955 144.03L65.096 143.19C65.2161 142.349 65.3362 141.388 65.5764 140.547C64.2553 140.908 63.0542 141.148 61.7331 141.268ZM65.8166 139.106C66.0568 137.905 66.297 136.704 66.5372 135.623C66.1769 135.623 65.9367 135.623 65.5764 135.743C64.3754 137.185 63.0542 138.626 61.8532 140.067C63.1743 139.707 64.4955 139.346 65.8166 139.106ZM53.3259 149.915C53.2057 150.035 53.0857 150.155 52.9656 150.396C52.6053 152.077 52.1248 153.758 51.7645 155.44C53.0857 155.079 54.4068 154.839 55.7279 154.479L56.6888 153.398C55.6078 152.197 54.4068 150.996 53.3259 149.915ZM57.5295 152.317L61.9733 147.033C59.5712 147.753 57.0491 148.234 54.5269 148.834C55.6078 150.035 56.5687 151.116 57.5295 152.317ZM53.9264 147.994H54.0465C55.848 145.952 57.5295 143.91 59.331 141.748L59.2109 141.628C57.7697 141.868 56.3284 141.989 54.8872 142.229C54.5269 144.03 54.0465 145.952 53.5661 147.753C53.6862 147.873 53.8063 147.994 53.9264 147.994ZM55.3676 147.513C57.8898 146.672 60.412 145.832 63.0542 145.231C61.9733 144.27 60.8924 143.31 59.8114 142.349C58.3702 144.03 56.929 145.832 55.3676 147.513ZM61.613 152.677C62.3336 152.437 63.1743 152.317 63.8949 152.197C64.0151 151.356 64.1352 150.516 64.1352 149.555L61.613 152.677ZM62.2135 153.999C61.4929 154.119 60.8924 154.239 60.1718 154.359L59.6913 154.839C60.412 155.68 61.1326 156.641 61.8532 157.481C62.4537 156.761 63.0542 156.16 63.6548 155.44C63.6548 154.959 63.7749 154.479 63.7749 153.999C63.2944 153.999 62.6939 153.999 62.2135 153.999ZM54.647 160.844C54.1666 161.445 53.6862 161.925 53.3259 162.526C54.0465 163.246 54.647 163.967 55.3676 164.808C55.6078 164.808 55.7279 164.687 55.9681 164.687C56.5686 163.967 57.0491 163.366 57.6496 162.646C58.3702 161.805 59.2109 160.844 59.9315 160.004C58.13 160.244 56.4485 160.604 54.647 160.844ZM56.2083 165.648C57.1692 166.609 58.0099 167.69 58.9707 168.651C59.6913 167.69 60.412 166.849 61.1326 165.888C61.4929 165.408 61.8532 165.048 62.2135 164.567C62.2135 164.447 62.2135 164.447 62.3336 164.327C60.412 164.687 58.4903 165.048 56.5686 165.288C56.4485 165.408 56.3284 165.528 56.2083 165.648ZM55.6078 166.369C53.8063 168.531 52.0047 170.692 50.3233 172.974C52.4851 172.494 54.647 171.893 56.8089 171.413C57.2893 170.813 57.8898 170.092 58.3702 169.491C58.3702 169.371 58.4903 169.371 58.4903 169.251C57.5295 168.29 56.5686 167.33 55.6078 166.369ZM49.8429 173.575C49.6027 173.815 49.3625 174.175 49.2424 174.416C50.0831 175.496 51.0439 176.457 51.8846 177.538C53.2058 175.977 54.4068 174.416 55.7279 172.854C53.6862 172.974 51.7645 173.215 49.8429 173.575ZM48.5217 175.136C48.1614 177.658 47.8011 180.18 47.4408 182.702C48.7619 181.141 49.963 179.58 51.2841 178.019C50.4434 177.058 49.4826 176.097 48.5217 175.136ZM48.0413 168.651C47.4408 169.371 46.8403 170.092 46.2398 170.813C46.7202 171.413 47.2006 172.014 47.681 172.494C47.8011 171.293 47.9212 169.972 48.0413 168.651ZM47.5609 174.055C46.8403 173.335 46.1197 172.494 45.399 171.773C42.8769 174.656 40.3547 177.658 37.9526 180.541C38.9135 181.622 39.7542 182.702 40.715 183.783C42.997 180.781 45.2789 177.778 47.5609 174.896C47.5609 174.656 47.5609 174.416 47.5609 174.055ZM37.1119 181.501C34.83 184.264 32.4279 187.026 30.1459 189.668C31.347 190.989 32.4279 192.19 33.6289 193.511C35.7908 190.509 37.9527 187.506 40.1145 184.624C39.1537 183.543 38.1929 182.582 37.1119 181.501ZM43.1171 169.491C41.916 168.29 40.715 166.969 39.6341 165.768C37.232 168.531 34.7099 171.413 32.3078 174.175C33.5088 175.496 34.5898 176.818 35.7908 178.139C38.1929 175.256 40.5949 172.374 43.1171 169.491ZM44.0779 168.29C45.6393 166.369 47.2006 164.567 48.7619 162.646C48.7619 162.406 48.882 162.045 48.882 161.805C48.7619 161.685 48.6418 161.445 48.882 161.445C48.882 161.084 49.0022 160.724 49.0022 160.364C48.1614 159.523 47.2006 158.682 46.3599 157.842C44.4382 160.004 42.5166 162.165 40.5949 164.447C41.9161 165.648 42.997 166.969 44.0779 168.29ZM49.4826 158.322C49.6027 157.602 49.7228 156.761 49.8429 156.04C49.7228 156.04 49.6027 155.8 49.7228 155.8H49.8429C49.963 154.959 50.0831 154.239 50.3233 153.398C49.4826 154.479 48.5217 155.44 47.5609 156.521C48.2815 157.121 48.882 157.722 49.4826 158.322ZM49.7228 166.729C49.3625 168.891 49.0022 171.173 48.7619 173.335C50.8037 170.813 52.8454 168.29 54.8872 165.768C54.7671 165.648 54.647 165.528 54.5269 165.528C53.2058 165.648 51.7645 165.888 50.4434 166.129C51.6444 165.888 52.8454 165.528 54.0465 165.168C53.446 164.687 52.9656 164.087 52.365 163.607C51.5243 164.567 50.6836 165.648 49.7228 166.729ZM51.0439 160.004C51.6444 159.283 52.3651 158.442 52.9656 157.722L55.0073 155.2C53.9264 155.32 52.8455 155.56 51.6444 155.68C51.4042 156.761 51.164 157.842 50.9238 158.923C51.0439 159.283 50.9238 159.643 51.0439 160.004C50.9238 160.004 50.9238 160.004 51.0439 160.004ZM52.0047 145.952C52.4851 144.27 52.9656 142.589 53.446 140.908C52.4852 141.989 51.5243 143.069 50.4434 144.15C51.0439 144.751 51.5243 145.351 52.0047 145.952ZM51.7645 138.506C51.6444 138.386 51.6444 138.386 51.5243 138.265C51.4042 138.626 51.164 138.866 51.0439 139.226C51.2841 138.986 51.5243 138.746 51.7645 138.506ZM51.2841 137.905C51.164 137.425 51.2841 136.824 51.6444 136.344C52.0047 135.984 52.365 135.623 52.8455 135.263C52.9656 135.023 53.0857 134.783 53.2058 134.542C52.7254 134.783 52.1248 134.903 51.6444 135.023C51.6444 135.143 51.5243 135.383 51.5243 135.503C51.2841 136.704 51.0439 137.905 50.8037 139.106C50.9238 138.746 51.164 138.386 51.2841 137.905ZM53.0857 135.143C53.6862 134.663 54.2867 134.302 55.0073 133.942C55.3676 133.702 55.848 134.062 55.7279 134.422C55.6078 134.663 55.6078 134.783 55.4877 135.023C56.0882 134.422 56.8089 133.822 57.4094 133.221C56.5686 133.341 55.7279 133.582 54.8872 133.822C54.647 134.062 54.2867 134.182 53.8063 134.422C53.6862 134.542 53.5661 134.542 53.446 134.663C53.3259 134.663 53.2058 134.903 53.0857 135.143ZM55.7279 138.506C55.4877 139.707 55.2475 140.788 55.0073 141.868C56.0882 141.628 57.1692 141.268 58.3702 140.908C57.4094 140.067 56.5686 139.226 55.7279 138.506ZM60.6522 140.187C61.8532 138.746 63.1743 137.305 64.3754 135.743C62.0934 135.984 59.9315 136.464 57.6496 137.185C58.6104 138.265 59.6913 139.226 60.6522 140.187ZM66.4171 133.341C66.0568 132.861 65.6965 132.501 65.3362 132.14C64.8558 132.14 64.3754 132.14 63.7749 132.26C62.9341 132.26 61.9733 132.381 61.1326 132.501C60.1718 133.582 59.2109 134.663 58.2501 135.743C60.7723 134.542 63.5346 133.702 66.4171 133.341ZM66.0568 129.258C67.2578 129.258 68.579 129.258 69.78 129.258C71.2213 127.577 72.6625 125.775 73.9836 124.094C73.0228 123.253 72.1821 122.292 71.3414 121.331C69.1795 123.613 67.0177 125.895 64.8558 128.177C65.3362 128.658 65.6965 128.898 66.0568 129.258ZM86.7146 132.981C86.3543 133.101 85.9939 133.101 85.7537 133.221C85.9939 133.582 86.2342 133.822 86.4744 134.182C87.0749 133.462 87.6754 132.741 88.1558 132.02C87.7955 132.02 87.5553 132.02 87.195 132.02C86.4744 132.02 85.7537 132.02 84.913 132.02C84.7929 132.14 84.7929 132.14 84.6728 132.26C84.7929 132.381 84.913 132.621 85.1532 132.741C85.6336 132.741 86.1141 132.621 86.4744 132.621C86.9548 132.501 86.9548 132.981 86.7146 132.981ZM83.8321 133.582C83.712 133.582 83.712 133.582 83.5919 133.582C82.511 134.903 81.3099 136.224 80.229 137.545C81.43 137.545 82.6311 137.545 83.712 137.545C84.3125 136.824 84.913 135.984 85.5135 135.263C85.0331 134.662 84.4326 134.062 83.8321 133.582ZM80.229 123.253C80.8295 123.253 81.5501 123.253 82.1507 123.253L85.7537 119.05C84.6728 118.329 83.5919 117.608 82.3909 116.888C80.5893 118.929 78.6677 120.851 76.8661 122.893C77.8269 123.974 78.7878 125.175 79.6285 126.256L82.0305 123.373C81.43 123.253 80.8295 123.253 80.229 123.253ZM86.1141 113.885C85.7537 114.005 85.3934 114.005 85.0331 114.125C85.5135 114.486 85.994 114.966 86.4744 115.326C86.9548 114.846 87.3151 114.366 87.7955 113.885C87.7955 113.765 87.7955 113.645 87.7955 113.525C87.195 113.645 86.7146 113.765 86.1141 113.885ZM88.1558 112.804C88.2759 112.684 88.2759 112.684 88.2759 112.564C87.5553 112.684 86.8347 112.684 86.1141 112.804C86.8347 112.924 87.4352 112.924 88.1558 112.804ZM68.4589 149.915C68.2187 149.795 67.9785 149.915 67.8584 149.915C67.8584 150.155 67.8584 150.516 67.7383 150.756C67.9785 150.516 68.2187 150.275 68.4589 149.915ZM68.0986 151.717C68.8192 151.717 69.6599 151.597 70.3805 151.597C70.0202 151.236 69.5398 150.876 69.1795 150.516C68.6991 150.876 68.4589 151.356 68.0986 151.717ZM69.1795 148.954C70.0202 147.994 70.8609 146.913 71.7017 145.952C70.5006 146.072 69.2996 146.072 68.0986 146.072C68.0986 146.672 67.9785 147.153 67.9785 147.753C68.4589 148.114 68.8192 148.594 69.1795 148.954ZM72.7826 144.871C73.6233 143.91 74.464 142.949 75.3048 141.989C75.3048 141.989 75.3048 141.989 75.1847 141.868C73.6233 142.109 71.9419 142.229 70.3805 142.349L68.579 144.391C68.579 144.511 68.579 144.631 68.3388 144.751H68.2187C68.2187 144.871 68.2187 144.991 68.2187 145.111C69.78 145.111 71.2213 144.991 72.7826 144.871ZM73.1429 132.26C72.1821 132.621 71.1012 132.981 70.1403 133.221C71.2213 133.341 72.1821 133.462 73.263 133.822L74.9445 131.78C74.464 131.78 73.8635 131.78 73.3831 131.78C73.263 132.02 73.263 132.26 73.1429 132.26ZM70.981 141.748C72.1821 141.628 73.3831 141.508 74.5842 141.388C73.9836 140.788 73.3831 140.187 72.9027 139.587C72.9027 139.587 72.9027 139.587 72.7826 139.587L70.981 141.748ZM71.8218 135.503C71.7017 135.503 71.5816 135.503 71.4615 135.503C71.2213 135.503 71.1012 135.383 71.1012 135.263H70.981C71.1012 135.503 71.3414 135.743 71.4615 135.863L71.8218 135.503ZM74.3439 137.785C75.9053 137.665 77.5867 137.545 79.1481 137.545C80.229 136.344 81.3099 135.143 82.2708 133.822C80.4692 134.182 78.6677 134.422 76.8661 134.783L74.3439 137.785ZM74.3439 139.466C74.8243 140.067 75.3048 140.667 75.9053 141.268C75.9053 141.268 75.9053 141.268 76.0254 141.268C76.6259 140.547 77.2264 139.827 77.8269 139.106C76.6259 139.226 75.545 139.346 74.3439 139.466ZM69.2996 138.386L70.3805 137.064C69.9001 136.584 69.4197 136.224 68.9393 135.743C68.8192 136.704 68.8192 137.545 68.6991 138.506C68.9393 138.506 69.1795 138.506 69.2996 138.386ZM72.4223 131.9C71.3414 131.9 70.3805 131.9 69.2996 132.02C69.2996 132.26 69.2996 132.501 69.1795 132.741C70.3805 132.501 71.3414 132.14 72.4223 131.9ZM76.746 129.618L78.0671 127.937C76.9862 126.976 75.9053 126.015 74.8243 124.934C73.5032 126.376 72.3022 127.817 70.981 129.258C73.0228 129.378 74.8243 129.498 76.746 129.618ZM79.2682 131.9L77.7068 133.702C79.5084 133.462 81.1898 133.221 82.9914 132.981L83.1115 132.861C82.7512 132.501 82.511 132.26 82.1507 131.9C81.1898 131.9 80.229 131.9 79.2682 131.9ZM79.028 138.866C78.4274 139.587 77.7068 140.307 77.1063 141.148C78.4275 141.028 79.7486 141.028 80.9496 140.908C81.6702 140.067 82.3909 139.226 82.9914 138.265C81.7903 138.506 80.3491 138.746 79.028 138.866ZM76.6259 141.748L76.5058 141.868C77.1063 142.589 77.8269 143.43 78.4275 144.15C79.2682 143.069 80.1089 142.109 80.9496 141.028C79.3883 141.388 78.0671 141.628 76.6259 141.748ZM75.7852 142.709C75.1847 143.43 74.4641 144.15 73.8635 144.991C75.1847 144.991 76.5058 144.991 77.8269 144.991C77.8269 144.991 77.8269 144.991 77.947 144.871C77.2264 144.15 76.5058 143.43 75.7852 142.709ZM73.0228 145.952C72.1821 146.913 71.3414 147.873 70.5006 148.834C72.062 148.594 73.5032 148.474 75.0646 148.354C75.7852 147.393 76.6259 146.432 77.3465 145.471C75.9053 145.712 74.464 145.832 73.0228 145.952ZM69.9001 149.675C70.5006 150.275 71.1012 150.876 71.7017 151.597C72.062 151.597 72.3022 151.597 72.6625 151.597C73.3831 150.756 73.9836 149.915 74.7043 149.074C73.0228 149.315 71.4615 149.435 69.9001 149.675ZM67.4981 153.878C67.378 154.839 67.2578 155.92 67.1377 156.881C67.6181 156.881 67.9785 156.761 68.4589 156.761C69.4197 155.68 70.2604 154.479 71.2213 153.398C69.9001 153.518 68.6991 153.638 67.4981 153.878ZM76.0254 121.812C77.7068 119.77 79.2682 117.728 80.9496 115.687C80.229 115.086 79.5084 114.366 78.9079 113.645C78.7878 113.645 78.6677 113.645 78.5476 113.645C76.9862 115.447 75.3048 117.248 73.7434 119.05C74.464 120.01 75.1847 120.851 76.0254 121.812ZM82.9914 112.444C84.913 112.324 86.8347 112.204 88.7563 112.084C89.3568 111.363 89.9574 110.763 90.678 110.162C87.4352 110.282 84.0723 110.402 80.8295 110.522C81.5501 111.123 82.2708 111.723 82.9914 112.444ZM88.5161 120.971L86.5945 123.133C86.7146 123.133 86.7146 123.253 86.5945 123.253H86.4744L81.9104 128.658C82.2708 129.138 82.6311 129.498 83.1115 129.979C83.712 129.979 84.3125 130.099 84.913 130.099C85.0331 130.099 85.1532 130.099 85.3934 130.099L91.5187 123.013C90.4378 122.412 89.477 121.692 88.5161 120.971ZM86.4744 130.339C87.4352 130.339 88.5161 130.459 89.477 130.459C91.0383 128.537 92.5996 126.616 94.161 124.694C93.4404 124.454 92.8398 124.094 92.2393 123.613C90.3177 125.895 88.396 128.057 86.4744 130.339ZM118.902 131.42C118.062 130.579 117.341 129.859 116.5 129.018C115.78 129.618 114.939 130.339 114.218 130.939C115.78 131.06 117.341 131.18 118.902 131.42ZM116.861 135.263C116.981 135.383 117.101 135.623 117.341 135.743C117.581 135.623 117.941 135.503 118.182 135.263C117.701 135.263 117.341 135.263 116.861 135.263ZM119.263 137.905C119.263 137.905 119.142 137.905 119.142 137.785C119.383 138.025 119.623 138.386 119.983 138.626C121.064 137.545 122.145 136.584 123.466 135.743C123.346 135.623 123.226 135.503 122.986 135.263C122.746 135.263 122.625 135.263 122.385 135.263C122.265 135.383 122.265 135.383 122.145 135.503C122.025 135.623 121.905 135.623 121.665 135.743C121.665 136.104 121.545 136.344 121.184 136.464C120.584 136.704 119.983 136.824 119.383 137.064C119.503 137.064 119.503 137.185 119.623 137.185C120.103 137.545 119.743 138.145 119.263 137.905ZM120.704 131.66C123.226 132.02 125.628 132.26 128.15 132.621L125.388 129.738C123.106 129.498 120.704 129.378 118.422 129.138C119.142 129.979 119.983 130.819 120.704 131.66ZM174.75 168.891C171.748 166.129 168.745 163.366 165.743 160.604C164.782 161.445 163.821 162.165 162.86 163.006C165.622 165.888 168.505 168.651 171.267 171.533C172.348 170.692 173.549 169.732 174.75 168.891ZM171.988 172.374C174.63 175.016 177.152 177.658 179.795 180.3C181.236 179.22 182.557 178.139 183.998 177.058C181.116 174.536 178.233 172.014 175.471 169.491C174.27 170.452 173.189 171.413 171.988 172.374ZM115.419 112.804C115.059 113.165 114.819 113.525 114.458 113.765L118.062 117.368C120.343 117.969 122.505 118.569 124.667 119.17C124.667 119.17 124.667 119.17 124.787 119.17C124.667 119.05 124.667 118.929 124.547 118.809C122.746 116.888 120.824 114.966 119.022 113.165C117.941 113.045 116.74 112.924 115.419 112.804ZM118.182 112.084C117.821 111.723 117.461 111.363 117.101 110.883C116.861 111.123 116.62 111.483 116.38 111.723C116.981 111.844 117.581 111.964 118.182 112.084ZM120.824 125.175C119.863 126.135 118.782 126.976 117.701 127.937C120.103 128.297 122.385 128.778 124.787 129.138L120.824 125.175ZM121.905 121.331C122.625 120.851 123.346 120.251 124.067 119.77C122.505 119.53 120.944 119.17 119.503 118.929L121.905 121.331ZM111.216 108.721C111.696 109.321 111.816 110.042 112.176 110.643C112.417 110.763 112.537 111.003 112.777 111.123C113.137 110.763 113.498 110.402 113.738 110.042C113.978 109.802 114.338 109.562 114.579 109.321C115.059 108.961 115.539 108.481 116.02 108.12C114.098 108 112.176 107.88 110.255 107.64C110.735 108.12 110.975 108.481 111.216 108.721ZM109.654 119.77C110.375 120.491 111.096 121.331 111.696 122.052C113.978 122.292 116.26 122.653 118.542 123.013L113.137 117.368C112.657 117.248 112.176 117.128 111.696 117.008C111.096 117.849 110.375 118.809 109.654 119.77ZM123.466 122.893L124.547 123.974C125.388 124.094 126.108 124.214 126.949 124.334C127.43 124.454 127.189 125.175 126.709 125.055C126.349 125.055 125.868 124.934 125.508 124.934L131.033 130.579C129.351 127.336 127.67 124.214 125.868 120.971C125.028 121.452 124.187 122.172 123.466 122.893ZM132.714 129.738C133.195 129.378 133.795 129.018 134.275 128.658C132.714 126.976 131.033 125.295 129.471 123.613C130.432 125.655 131.633 127.697 132.714 129.738ZM133.195 130.819C134.035 132.26 134.756 133.702 135.597 135.263L138.839 138.506C139.8 137.785 140.641 136.944 141.602 136.224C139.44 133.942 137.158 131.66 134.996 129.378C134.396 129.859 133.795 130.339 133.195 130.819ZM139.92 139.587L146.766 146.552C147.727 145.832 148.688 145.231 149.649 144.511C147.247 141.989 144.845 139.587 142.443 137.064C141.602 138.025 140.761 138.746 139.92 139.587ZM147.607 147.393L151.45 151.356C152.291 152.197 153.132 153.038 153.972 153.878C154.933 153.158 155.774 152.437 156.735 151.717C156.014 150.996 155.173 150.155 154.453 149.435C153.132 147.994 151.69 146.552 150.369 145.231C149.408 145.952 148.568 146.672 147.607 147.393ZM154.933 154.959C157.215 157.361 159.617 159.643 161.899 162.045C162.86 161.325 163.941 160.604 164.902 159.883C162.38 157.481 159.978 155.079 157.455 152.677C156.615 153.398 155.774 154.119 154.933 154.959ZM160.098 165.168C158.777 166.249 157.335 167.33 156.014 168.411C158.656 171.173 161.299 173.935 163.941 176.818C165.382 175.737 166.944 174.656 168.385 173.575C165.622 170.692 162.86 167.93 160.098 165.168ZM159.017 163.967C156.735 161.685 154.573 159.403 152.291 157.241C151.09 158.322 149.769 159.523 148.448 160.604C150.489 162.766 152.531 164.928 154.693 167.089C156.134 166.009 157.576 165.048 159.017 163.967ZM151.21 156.04C150.489 155.32 149.769 154.599 149.048 153.878L144.845 149.675C143.523 150.756 142.322 151.717 141.001 152.798C141.722 153.638 142.563 154.359 143.283 155.2C144.604 156.521 145.925 157.962 147.247 159.283C148.568 158.202 149.889 157.121 151.21 156.04ZM143.884 148.714L137.398 142.109C136.197 143.19 134.996 144.27 133.915 145.471C135.957 147.513 137.879 149.675 139.92 151.717C141.241 150.636 142.563 149.675 143.884 148.714ZM136.077 140.667L131.753 136.344C129.952 137.064 128.27 137.545 126.589 137.785C128.511 139.827 130.432 141.748 132.354 143.79C133.675 142.829 134.876 141.748 136.077 140.667ZM115.299 126.015C116.26 125.295 117.341 124.574 118.302 123.974C116.38 123.733 114.458 123.373 112.537 123.013C113.498 123.974 114.458 124.934 115.299 126.015ZM108.333 121.211C107.613 122.052 106.772 122.773 105.811 123.373C107.012 124.574 108.213 125.775 109.294 127.096C110.615 127.216 111.936 127.336 113.257 127.457C113.498 127.216 113.738 127.096 114.098 126.856C112.297 124.934 110.375 123.013 108.333 121.211ZM109.534 114.486C109.054 114.125 108.573 113.885 108.093 113.525C108.093 113.645 107.973 113.765 107.973 113.885C107.973 113.885 107.853 113.885 107.853 114.005C108.213 114.366 108.693 114.726 109.054 115.086L109.534 114.486ZM110.495 128.177C110.735 128.417 110.975 128.778 111.216 129.018C111.456 128.778 111.696 128.658 111.936 128.417C111.576 128.297 110.975 128.177 110.495 128.177ZM111.096 135.023C108.573 134.903 106.171 134.783 103.649 134.542C104.73 134.783 105.691 134.903 106.772 135.143C108.453 135.383 110.135 135.623 111.816 135.743L111.096 135.023ZM106.892 130.339C106.772 130.099 106.532 129.979 106.412 129.738C104.97 129.618 103.649 129.618 102.208 129.498C100.046 129.378 97.7641 129.738 95.9625 128.658C95.7223 128.537 95.7223 128.297 95.6022 128.177C95.1218 129.018 94.6414 129.738 94.161 130.579C95.0017 130.579 95.9625 130.579 96.8033 130.579C100.166 130.339 103.529 130.219 106.892 130.339ZM100.767 122.893C98.6048 122.893 96.4429 122.893 94.4012 122.653C94.6414 122.893 94.7615 123.133 95.0017 123.373C96.563 123.133 98.1244 123.613 99.5656 124.094C100.406 124.334 101.367 124.574 102.208 124.934C102.088 124.814 101.968 124.694 101.848 124.574C101.367 124.454 101.007 123.974 101.007 123.493C100.887 123.253 100.767 123.133 100.767 122.893ZM95.2419 126.496C95.6022 126.256 95.8424 126.015 96.2027 125.655C96.0826 125.655 96.0826 125.655 95.9625 125.535C95.7223 125.895 95.4821 126.135 95.2419 126.496ZM100.166 126.256C99.0852 126.135 98.0043 126.015 96.8033 125.895C96.563 126.376 96.2027 126.976 95.9625 127.457C97.7641 126.976 99.5656 127.457 101.367 127.937C102.688 128.297 104.009 128.537 105.331 128.778C104.73 128.057 104.13 127.457 103.529 126.736C102.448 126.496 101.367 126.376 100.166 126.256ZM92.4795 120.491C93.6806 120.491 94.8816 120.731 96.0826 120.971C98.0043 121.211 99.9259 121.572 101.727 121.932C101.848 121.812 102.088 121.572 102.208 121.452C102.929 120.851 103.529 120.13 104.25 119.53C102.088 119.65 100.046 119.77 97.8842 119.77C96.2027 119.77 94.4012 119.89 92.7197 119.89C92.4795 120.01 92.1192 120.01 91.9991 119.89C92.1192 120.251 92.2393 120.371 92.4795 120.491ZM97.8842 118.689C100.286 118.689 102.568 118.809 104.97 118.929C105.691 118.209 106.532 117.488 107.252 116.768C103.649 117.008 99.9259 117.248 96.2027 117.248C95.8424 117.728 95.362 118.209 94.8816 118.569C95.9625 118.569 96.9234 118.569 97.8842 118.689ZM105.931 115.206C105.571 114.966 105.331 114.606 104.97 114.366C104.49 114.125 104.009 113.765 103.529 113.525C101.968 113.525 100.526 113.525 98.9651 113.525C98.7249 113.885 98.4847 114.246 98.2445 114.486C100.887 114.606 103.529 114.966 105.931 115.206ZM105.691 82.4191C105.811 82.5392 105.931 82.6593 105.931 82.7794C106.412 83.0196 107.012 83.3799 107.492 83.7402C110.015 80.8578 112.417 77.9754 114.939 75.093C114.458 74.3724 113.858 73.7719 113.378 73.0513C110.855 76.1739 108.333 79.2965 105.691 82.4191ZM114.218 71.9704C114.819 72.5709 115.419 73.1714 116.02 73.7719C118.542 70.8895 120.944 68.0071 123.466 65.1247C122.866 64.284 122.265 63.5634 121.545 62.7227C119.142 65.8453 116.74 68.8478 114.218 71.9704ZM134.035 59.48L140.281 52.1539C139.56 51.1931 138.839 50.3524 138.119 49.3916C135.957 51.9137 133.675 54.5559 131.513 57.078C132.354 57.9187 133.195 58.7594 134.035 59.48ZM130.792 58.0388C128.751 60.4408 126.709 62.7227 124.667 65.1247C125.508 65.9654 126.229 66.9262 127.069 67.7669L133.074 60.681C132.354 59.8403 131.513 58.8795 130.792 58.0388ZM141.121 51.3132L144.604 47.2298C145.325 46.3891 146.046 45.4283 146.886 44.5876C146.166 43.7469 145.445 42.9062 144.604 42.0655C143.884 42.9062 143.283 43.6268 142.563 44.4675C141.241 45.9087 140.04 47.3499 138.719 48.7911C139.56 49.6318 140.281 50.4725 141.121 51.3132ZM147.727 43.5067C149.889 40.9846 151.931 38.5826 154.093 36.1806C153.372 35.2198 152.531 34.2591 151.811 33.2983C149.649 35.9404 147.607 38.5826 145.325 41.2248C146.166 41.9454 146.886 42.7861 147.727 43.5067ZM154.933 35.0997C157.455 32.0973 159.978 29.2149 162.5 26.2124C161.539 25.1315 160.698 23.9305 159.737 22.8496C157.335 26.0923 154.933 29.2149 152.411 32.3375C153.252 33.2983 154.093 34.259 154.933 35.0997ZM163.22 25.3717C165.622 22.6094 167.904 19.8471 170.306 17.0848C169.226 15.7637 168.025 14.4426 166.944 13.1215C164.782 16.124 162.5 19.1265 160.338 22.129C161.299 23.2099 162.26 24.2908 163.22 25.3717ZM157.095 37.6218C158.296 38.9429 159.377 40.1439 160.578 41.465C163.1 38.5826 165.502 35.8204 168.025 32.938C166.944 31.4968 165.743 30.1757 164.662 28.7345C162.139 31.8571 159.617 34.7394 157.095 37.6218ZM156.134 38.8228C154.093 41.2248 152.171 43.5067 150.129 45.9087C151.33 47.1097 152.411 48.3107 153.612 49.5117C155.534 47.3499 157.455 45.068 159.377 42.9062C158.296 41.5851 157.215 40.264 156.134 38.8228ZM149.048 47.1097C148.448 47.8303 147.727 48.671 147.127 49.3916L143.403 53.8353C144.484 55.0363 145.565 56.2373 146.646 57.4383C147.367 56.5976 148.087 55.7569 148.808 54.9162C150.009 53.475 151.21 52.1539 152.531 50.7127C151.33 49.6318 150.129 48.4308 149.048 47.1097ZM142.443 54.9162L136.557 61.882C137.758 62.9629 138.839 64.0438 139.92 65.1247C141.722 62.9629 143.644 60.9212 145.445 58.7594C144.484 57.4383 143.523 56.2373 142.443 54.9162ZM135.356 63.2031L129.351 70.289C130.432 71.3699 131.513 72.4508 132.594 73.5317C134.636 71.2498 136.557 68.9679 138.599 66.686C137.518 65.485 136.437 64.4041 135.356 63.2031ZM128.39 71.49L121.665 79.4166C122.625 80.4975 123.706 81.4583 124.787 82.5392C126.949 80.1372 129.111 77.7352 131.153 75.3332C130.192 74.1322 129.231 72.8111 128.39 71.49ZM126.229 68.7277C125.508 67.7669 124.787 66.8061 123.947 65.8453L116.62 74.3724C117.461 75.2131 118.302 76.0538 119.142 77.0146L126.229 68.7277ZM122.025 62.2423C122.746 62.9629 123.346 63.6835 124.067 64.5242C126.108 62.1222 128.15 59.8403 130.192 57.4383C129.471 56.5976 128.631 55.7569 127.91 54.9162C125.988 57.3182 124.067 59.7202 122.025 62.2423ZM128.39 54.1956C129.231 54.9162 130.072 55.7569 130.913 56.4775C133.195 53.8353 135.356 51.3132 137.638 48.671C136.798 47.5901 136.077 46.6293 135.236 45.5484C132.954 48.5509 130.672 51.3132 128.39 54.1956ZM139.08 40.9846C137.879 42.4258 136.798 43.867 135.597 45.3082C136.437 46.269 137.278 47.2298 138.119 48.1906C138.839 47.3499 139.56 46.5092 140.281 45.6685C141.482 44.2273 142.683 42.7861 143.884 41.465C142.923 40.3841 142.082 39.4233 141.121 38.3424C140.521 39.063 139.8 40.0238 139.08 40.9846ZM141.722 37.6218C142.683 38.5826 143.644 39.5434 144.604 40.5042C146.766 37.862 148.928 35.2198 151.09 32.4576C150.249 31.3767 149.288 30.2958 148.448 29.0948C146.286 31.9772 144.004 34.8596 141.722 37.6218ZM149.048 28.6144C150.009 29.6953 150.85 30.6561 151.811 31.737C154.333 28.6144 156.735 25.3717 159.137 22.2491C158.296 21.1682 157.455 20.2074 156.615 19.1265C154.093 22.2491 151.57 25.4918 149.048 28.6144ZM157.095 18.526C157.936 19.4868 158.777 20.4476 159.737 21.4084C162.019 18.4059 164.301 15.4034 166.463 12.521C165.743 11.6803 165.022 10.8396 164.301 9.99889C161.899 12.8813 159.377 15.7637 157.095 18.526ZM171.267 2.4326C170.907 2.0723 170.667 1.712 170.306 1.3517C168.745 4.3542 166.703 7.11649 164.421 9.87879C165.142 10.5994 165.983 11.4401 166.703 12.1607C168.625 9.63859 170.547 6.99639 172.468 4.4743C171.988 3.7537 171.628 3.1532 171.267 2.4326ZM175.471 7.35669C174.51 6.516 173.669 5.6753 172.829 4.8346C171.027 7.47679 169.105 10.119 167.184 12.7612C168.385 13.9622 169.706 15.2833 170.907 16.4843C171.147 16.2441 171.387 16.0039 171.628 15.7637C173.669 13.4818 175.111 11.1999 177.633 9.87879C176.912 8.91799 176.192 8.07729 175.471 7.35669ZM182.677 27.5335C184.719 25.3717 186.52 23.0898 188.802 21.4084C186.641 20.2074 184.599 18.1657 182.797 16.0039C181.596 17.325 180.515 18.6461 179.314 19.9672C180.395 18.6461 181.596 17.325 182.677 16.0039C181.356 14.3225 180.035 12.6411 178.834 11.1999C177.873 13.8421 175.951 15.5235 174.03 17.8054C173.789 18.1657 173.549 18.4059 173.309 18.7662C176.312 21.8888 179.314 25.0114 182.317 28.134C182.437 27.8938 182.557 27.7737 182.677 27.5335ZM180.996 29.335C178.113 26.2124 175.231 22.9697 172.468 19.6069C170.186 22.3692 167.784 25.1315 165.502 27.8938C166.703 29.2149 167.904 30.536 169.105 31.8571C169.586 31.2566 170.066 30.6561 170.667 30.1757C170.186 30.7762 169.706 31.3767 169.226 31.9772C170.787 33.6586 172.348 35.46 173.91 37.1414C176.192 34.4992 178.594 31.8571 180.996 29.335ZM172.468 38.4625C171.027 36.661 169.586 34.8595 168.145 33.0581C165.743 35.9404 163.34 38.8228 160.818 41.7052C162.26 43.2665 163.581 44.8278 165.022 46.5092C167.424 43.867 169.946 41.1047 172.468 38.4625ZM157.936 54.1956C159.857 52.1539 161.659 50.1122 163.581 48.0705C162.26 46.5092 160.938 44.8278 159.617 43.1464C157.696 45.4283 155.894 47.5901 153.972 49.872C155.294 51.3132 156.615 52.7544 157.936 54.1956ZM154.573 57.7986C155.294 56.9579 156.014 56.2373 156.735 55.5167C155.414 54.1956 154.093 52.7544 152.891 51.3132C152.171 52.1539 151.57 52.9946 150.85 53.7152C149.649 55.1564 148.448 56.5976 147.127 58.0388C148.328 59.3599 149.408 60.681 150.61 62.1222C151.931 60.681 153.252 59.2398 154.573 57.7986ZM149.288 63.4433C148.207 62.1222 147.006 60.681 145.925 59.3599C144.124 61.5217 142.322 63.5634 140.521 65.7252C141.722 66.9262 142.923 68.0071 144.004 69.2081C145.805 67.2865 147.607 65.3649 149.288 63.4433ZM142.563 70.7694C141.482 69.5684 140.281 68.4875 139.2 67.2865C137.278 69.5684 135.236 71.8503 133.315 74.2523C134.396 75.3332 135.356 76.5342 136.197 77.8553C138.239 75.4533 140.401 73.1714 142.563 70.7694ZM134.636 79.4166C133.555 78.4558 132.594 77.3749 131.633 76.1739C129.591 78.5759 127.55 81.098 125.508 83.5C126.349 84.4608 127.309 85.4216 128.03 86.3824C130.312 83.9804 132.474 81.6985 134.636 79.4166ZM120.824 94.4291C122.505 92.5075 124.187 90.5859 125.988 88.6643C125.148 87.8236 124.427 86.8628 123.706 85.902C122.025 87.9437 120.343 89.9854 118.662 92.0271C119.383 92.7477 120.223 93.5884 120.824 94.4291ZM117.101 90.9462C119.022 88.9045 120.824 86.8628 122.625 84.8211C121.665 83.6201 120.824 82.4191 119.863 81.3382L113.738 88.5442C114.819 89.2648 116.02 90.1055 117.101 90.9462ZM117.821 78.5759C117.101 77.6151 116.26 76.6543 115.539 75.6935C113.137 78.4558 110.735 81.3382 108.333 84.1005C109.294 84.8211 110.255 85.6618 111.216 86.3824L117.821 78.5759ZM108.573 88.1839C108.814 88.4241 108.934 88.7844 109.174 89.0246C109.294 88.9045 109.294 88.9045 109.414 88.7844C109.174 88.6643 108.934 88.4241 108.573 88.1839ZM110.975 95.1497L110.735 95.3899C110.495 95.7502 110.375 96.2306 110.135 96.5909C110.135 96.711 110.135 96.711 110.135 96.8311C110.135 97.912 109.294 98.5125 108.453 98.7527C110.135 98.8727 111.936 99.233 113.618 99.5933C112.777 98.1522 111.816 96.5909 110.975 95.1497ZM114.218 100.554C112.417 100.434 110.615 100.314 108.814 99.9537C108.934 100.074 108.934 100.314 109.054 100.434C109.174 100.794 109.294 101.155 109.294 101.515C111.456 101.875 113.618 102.596 115.78 103.076C115.179 102.236 114.699 101.395 114.218 100.554ZM116.5 104.517C114.098 104.157 111.576 103.917 109.174 103.437C108.934 104.277 108.573 104.998 108.093 105.718C108.333 105.959 108.453 106.079 108.693 106.319C111.456 106.679 114.218 107.28 116.861 107.88C117.221 107.64 117.581 107.4 118.062 107.16C117.581 106.199 117.101 105.358 116.5 104.517ZM118.782 108.481C118.302 109.081 117.941 109.682 117.581 110.282C118.302 111.003 119.022 111.723 119.623 112.444C120.103 112.564 120.704 112.684 121.184 112.684C120.464 111.243 119.623 109.922 118.782 108.481ZM121.545 113.285C121.184 113.285 120.824 113.285 120.464 113.165C121.304 114.005 122.145 114.966 122.986 115.807C122.505 114.966 122.025 114.125 121.545 113.285ZM123.106 112.564C123.226 112.804 123.346 112.924 123.466 113.165C123.586 113.165 123.706 113.165 123.826 113.285C123.586 112.924 123.346 112.684 123.106 112.564ZM124.187 113.525H123.706C124.547 115.086 125.508 116.648 126.349 118.209C126.829 117.849 127.309 117.488 127.91 117.128C126.589 115.927 125.388 114.726 124.187 113.525ZM128.871 118.089C128.27 118.569 127.67 119.05 127.189 119.65C127.189 119.77 127.309 119.89 127.43 120.01H127.67C127.79 120.01 127.79 120.251 127.67 120.251C127.79 120.371 127.79 120.491 127.91 120.731C130.312 123.253 132.714 125.655 135.116 128.177C135.957 127.577 136.798 126.976 137.638 126.376C134.636 123.613 131.753 120.851 128.871 118.089ZM137.999 126.856C137.158 127.457 136.437 128.177 135.597 128.778C137.758 131.06 140.04 133.341 142.202 135.623C143.043 134.903 144.004 134.182 144.845 133.462C142.683 131.3 140.281 129.138 137.999 126.856ZM145.565 134.062C144.724 134.903 143.884 135.623 143.043 136.464C145.445 138.986 147.967 141.508 150.369 144.03C151.45 143.31 152.531 142.469 153.612 141.748C150.97 139.226 148.328 136.704 145.565 134.062ZM158.176 146.072C156.855 144.751 155.414 143.43 154.093 142.229C153.012 143.069 152.051 143.91 151.09 144.751C151.931 145.592 152.651 146.432 153.492 147.273C154.813 148.594 156.134 150.035 157.455 151.356C158.536 150.516 159.737 149.675 160.818 148.714C159.857 147.753 159.017 146.913 158.176 146.072ZM161.299 149.074C160.218 150.035 159.257 150.996 158.176 151.957C160.698 154.479 163.22 156.881 165.743 159.283C166.944 158.442 168.025 157.602 169.226 156.761L161.299 149.074ZM169.826 157.361C168.745 158.202 167.664 159.163 166.583 160.004C169.586 162.766 172.588 165.648 175.591 168.29C176.672 167.45 177.753 166.729 178.834 165.888C175.831 163.126 172.829 160.244 169.826 157.361ZM179.314 166.489C178.233 167.33 177.272 168.17 176.192 169.011C178.954 171.533 181.836 174.175 184.719 176.697C185.56 175.977 186.52 175.376 187.361 174.656C184.599 171.893 181.956 169.011 179.314 166.489ZM195.768 181.862C195.888 181.862 196.009 181.742 196.129 181.742C196.009 181.622 195.888 181.622 195.768 181.501C195.768 181.622 195.768 181.742 195.768 181.862ZM194.447 182.342C194.808 182.102 195.288 181.742 195.648 181.501C192.766 179.58 190.124 177.298 187.601 174.776C186.761 175.496 185.92 176.217 185.079 177.058C187.481 179.22 190.003 181.501 192.405 183.663C193.006 183.063 193.727 182.582 194.447 182.342ZM186.761 188.467C187.601 187.747 188.442 187.146 189.283 186.426C190.124 185.585 191.084 184.624 192.045 183.903C189.523 181.742 187.001 179.7 184.599 177.538C183.278 178.739 181.956 179.94 180.635 181.141C180.876 181.381 181.116 181.622 181.356 181.862C183.398 184.023 185.56 185.705 186.761 188.467ZM168.505 192.43C170.547 194.712 172.709 196.754 174.27 199.276C175.591 197.114 177.753 195.193 180.155 193.391C178.954 192.07 177.753 190.869 176.432 189.548C177.633 190.869 178.954 192.07 180.155 193.391C181.956 192.07 183.758 190.869 185.199 189.668C182.677 188.467 180.996 186.305 178.834 184.144C178.594 183.903 178.233 183.543 177.993 183.303C174.75 186.305 171.387 189.188 168.025 191.95C168.265 192.07 168.385 192.31 168.505 192.43ZM166.823 190.629C170.186 187.867 173.669 185.104 177.152 182.342C174.51 179.7 171.988 177.058 169.346 174.536C167.904 175.737 166.463 176.818 165.142 178.019C163.34 179.46 161.419 181.021 159.617 182.462C162.019 185.104 164.421 187.867 166.823 190.629ZM158.296 181.021C160.218 179.58 162.019 178.259 163.941 176.818C161.179 174.055 158.536 171.293 155.774 168.651C154.093 169.972 152.411 171.293 150.73 172.614C153.252 175.376 155.774 178.259 158.296 181.021ZM149.288 171.053C150.97 169.852 152.651 168.531 154.453 167.33C152.291 165.168 150.249 163.126 148.087 160.964C146.646 162.285 145.085 163.486 143.523 164.808C145.565 166.849 147.367 168.891 149.288 171.053ZM140.161 160.964C140.881 161.805 141.602 162.526 142.322 163.366C143.764 162.045 145.205 160.844 146.766 159.643C146.046 158.923 145.205 158.082 144.484 157.361C143.163 156.04 141.722 154.599 140.401 153.158C138.96 154.239 137.518 155.44 136.077 156.521C137.518 157.962 138.839 159.523 140.161 160.964ZM134.876 155.2C136.317 154.119 137.758 153.038 139.2 151.957C137.158 149.915 135.236 147.873 133.195 145.832C131.994 147.033 130.672 148.114 129.471 149.195C131.273 151.236 133.074 153.158 134.876 155.2ZM128.03 147.633C129.231 146.552 130.552 145.471 131.753 144.391C129.712 142.229 127.55 140.067 125.508 138.025C125.388 138.025 125.148 138.025 125.028 138.025C123.947 138.986 122.746 139.827 121.545 140.427C123.586 142.829 125.868 145.231 128.03 147.633ZM126.829 214.529C125.868 214.409 125.028 214.289 124.067 214.169C125.148 215.37 125.988 216.33 126.829 215.249C126.829 214.889 126.829 214.649 126.829 214.529ZM125.628 217.772C125.628 217.772 125.988 217.892 126.349 217.892C125.748 217.171 123.466 213.808 122.746 214.649C121.545 216.21 122.025 215.85 120.103 216.571H119.983C121.905 216.931 123.826 217.411 125.628 217.772ZM119.022 216.45C117.461 215.49 116.74 212.367 115.659 215.97C116.74 216.09 117.821 216.33 119.022 216.45ZM115.059 213.568C115.059 213.448 115.299 213.328 115.419 213.088C114.579 212.968 113.858 212.968 113.017 212.847C113.738 214.048 114.579 215.129 115.059 213.568ZM113.978 215.73C112.417 213.688 111.936 212.847 110.375 215.37C111.456 215.49 112.657 215.61 113.978 215.73ZM110.255 212.607C108.693 212.487 107.132 212.367 105.571 212.247C107.132 213.568 108.573 214.289 110.255 212.607ZM106.892 215.129C105.09 213.448 103.649 212.127 102.808 214.889C104.25 214.889 105.571 215.009 106.892 215.129ZM103.289 210.445C103.529 210.566 103.769 210.806 103.889 210.926C106.291 211.166 108.693 211.406 111.096 211.646C111.096 211.646 111.096 211.646 111.216 211.526C111.456 211.286 111.816 211.046 112.176 211.406C112.297 211.526 112.297 211.646 112.417 211.767C113.978 212.007 115.539 212.127 116.981 212.367C117.461 212.247 117.821 212.127 117.581 212.247C117.821 212.127 118.182 212.367 118.302 212.607C118.782 212.727 119.263 212.727 119.743 212.847L122.385 212.968C122.385 212.727 122.746 212.607 122.986 212.847C123.226 213.088 123.346 213.328 123.586 213.568C124.667 213.808 125.748 213.928 126.829 214.169C126.829 213.808 126.709 213.448 126.709 212.968C123.706 212.727 120.824 212.367 117.941 211.767C117.581 211.646 117.701 211.166 118.062 211.166C120.944 211.406 123.947 211.767 126.709 212.367C126.589 210.926 126.469 209.485 126.229 208.043C123.106 207.563 120.103 206.963 117.101 206.122C116.861 206.002 116.981 205.641 117.221 205.641C120.223 206.122 123.226 206.842 126.229 207.563C126.108 206.002 125.988 204.32 125.748 202.759C121.785 202.639 117.821 202.159 113.858 201.318C113.498 201.198 113.618 200.717 113.978 200.717C117.941 200.837 121.905 201.438 125.748 202.279C125.628 200.477 125.388 198.556 125.268 196.754C122.265 196.514 119.263 196.154 116.38 195.433C116.14 195.433 116.14 194.953 116.5 194.953C119.503 195.193 122.385 195.673 125.268 196.394C125.148 194.953 124.907 193.391 124.787 191.95C124.787 191.47 124.667 190.989 124.667 190.509C121.905 190.509 119.142 190.149 116.5 189.788C116.26 189.788 116.26 189.308 116.62 189.308C119.383 189.428 122.025 189.668 124.667 190.149C124.307 186.906 123.826 183.663 123.466 180.541C120.584 180.421 117.701 180.3 114.939 179.82C114.579 179.82 114.699 179.22 115.059 179.22C117.821 179.22 120.704 179.46 123.466 179.7C123.226 178.259 123.106 176.818 122.866 175.256C119.743 174.896 116.5 174.536 113.378 173.815C113.257 173.815 113.257 173.455 113.378 173.455C116.5 173.815 119.623 174.295 122.746 174.896C122.505 173.094 122.265 171.413 122.025 169.612C119.383 169.491 116.74 169.371 114.098 168.891C113.738 168.771 113.858 168.29 114.218 168.29C116.861 168.17 119.383 168.531 122.025 168.891C121.785 166.729 121.424 164.567 121.184 162.406C118.062 162.406 114.939 162.646 111.816 162.526C111.576 162.526 111.576 162.165 111.816 162.045C114.939 161.925 118.062 162.165 121.184 162.165C121.064 160.844 120.824 159.403 120.704 158.082C117.701 157.602 114.699 157.241 111.816 156.521C111.696 156.521 111.696 156.16 111.816 156.16C114.819 156.521 117.701 157.121 120.584 157.722C120.343 155.68 120.103 153.638 119.983 151.597C116.981 150.996 113.978 150.275 110.975 149.315C110.735 149.195 110.855 148.834 111.096 148.954C114.098 149.555 116.981 150.396 119.983 151.236C119.863 149.795 119.743 148.354 119.623 146.913C117.581 146.552 115.539 146.072 113.378 145.471C113.137 145.351 113.257 145.111 113.498 145.111C115.539 145.351 117.581 145.832 119.503 146.312C119.383 145.351 119.383 144.27 119.263 143.31C119.022 143.069 118.902 142.829 118.662 142.709C118.062 142.109 117.461 141.388 116.981 140.788C116.86 140.788 116.861 140.788 116.74 140.788C115.9 140.908 115.059 140.788 114.098 140.788C113.858 140.788 113.858 140.427 114.098 140.427C114.819 140.427 115.539 140.427 116.26 140.427C116.38 140.427 116.38 140.427 116.5 140.427C115.78 139.587 114.939 138.746 114.098 137.905C110.495 137.785 106.892 137.425 103.409 137.305C99.2053 137.185 94.2811 137.425 90.4378 135.623C89.5971 136.704 88.6362 137.905 87.7955 138.986C90.0775 138.746 92.4795 138.506 94.7615 138.265C95.0017 138.265 95.0017 138.626 94.7615 138.626C92.2393 138.986 89.5971 139.466 87.0749 139.827C86.3543 140.788 85.5135 141.748 84.7929 142.709C87.3151 142.349 89.8373 142.229 92.3594 142.229C92.7197 142.229 92.8399 142.829 92.4795 142.829C89.7172 143.31 86.9548 143.55 84.1924 143.55C83.8321 144.03 83.4718 144.511 82.9914 144.991C82.8713 145.111 82.7512 145.231 82.6311 145.351C85.5135 146.072 88.7563 145.832 91.3986 144.511C91.5187 144.511 91.5187 144.511 91.5187 144.631C88.5161 146.793 85.2733 147.393 82.0305 146.192C81.6702 146.672 81.3099 147.153 80.9496 147.633C84.7929 147.513 88.8764 147.994 92.4795 148.354C88.396 148.834 83.9522 149.435 79.7486 149.195C79.1481 149.915 78.5476 150.636 77.947 151.356H78.0671C78.1872 151.356 78.3074 151.476 78.4275 151.597C82.511 150.756 86.8347 151.116 90.9182 151.116C91.0383 151.116 91.0383 151.236 90.9182 151.236C86.7146 151.717 82.3909 152.677 78.0671 152.317C77.947 152.317 77.8269 152.197 77.8269 152.197C77.5867 152.197 77.3465 152.317 77.2264 152.317C76.746 152.918 76.2656 153.518 75.7852 154.119C80.9496 153.278 86.5945 154.119 91.7589 154.479C91.879 154.479 91.879 154.599 91.7589 154.599C86.5945 154.839 80.8295 155.8 75.6651 154.839C75.545 154.839 75.4249 154.719 75.4249 154.599C74.8243 155.32 74.3439 155.92 73.7434 156.641C74.9445 156.641 76.1455 156.641 77.3465 156.761C77.4666 156.761 77.4666 156.881 77.3465 156.881C77.2264 156.881 76.9862 157.001 76.8661 157.001C82.3909 156.761 88.0357 157.121 93.3203 157.241C93.4404 157.241 93.3203 157.361 93.3203 157.361C86.4744 157.962 79.1481 158.803 72.1821 158.442C71.7017 159.043 71.1012 159.763 70.6207 160.364C78.1872 159.523 86.5945 160.844 94.161 160.724C94.2811 160.724 94.2811 160.964 94.161 160.964C87.0749 161.205 79.3883 162.646 72.062 162.526C70.7408 162.886 69.4197 163.246 68.0986 163.486C68.0986 163.486 68.0986 163.486 67.9785 163.607C76.0254 163.006 84.6728 164.207 92.4795 164.087C92.5996 164.087 92.5996 164.327 92.4795 164.327C84.1924 164.567 74.8244 166.249 66.4171 165.528C66.297 165.648 66.297 165.648 66.1769 165.768C66.1769 165.888 66.1769 166.009 66.0568 166.129C66.6573 166.249 67.2578 166.729 67.3779 167.33C67.3779 167.45 67.3779 167.69 67.3779 167.81C69.5398 167.69 71.7017 167.69 73.7434 167.57C78.0671 167.45 82.3909 167.089 86.7146 166.609C82.3909 167.21 78.1872 168.17 73.9836 168.891C71.8218 169.251 69.6599 169.852 67.4981 170.212C67.4981 170.692 67.4981 171.173 67.4981 171.653C76.2656 170.933 85.3934 172.134 94.0409 172.014C94.161 172.014 94.161 172.134 94.0409 172.134C85.3934 172.254 76.1455 173.695 67.3779 173.215C67.3779 173.455 67.3779 173.695 67.3779 173.815C67.7383 174.055 67.7383 174.656 67.3779 174.896C75.0646 174.416 83.3517 175.136 90.9182 175.016C83.2316 175.496 75.0646 176.938 67.1377 176.938C67.1377 177.058 67.1377 177.298 67.1377 177.418C67.1377 178.019 66.7774 178.379 66.4171 178.619C75.3048 178.019 84.5527 178.979 93.4404 178.979C93.6806 178.979 93.6806 179.22 93.4404 179.22C84.4326 179.46 75.0646 180.541 66.0568 180.06C66.0568 180.3 66.0568 180.421 66.0568 180.661C66.1769 180.661 66.297 180.661 66.4171 180.781C66.8975 180.901 67.1377 181.501 67.1377 181.862C70.0202 181.742 73.0228 181.982 76.0254 181.982C82.1507 181.982 88.2759 181.862 94.2811 181.622C94.4012 181.622 94.4012 181.742 94.2811 181.742C88.9965 181.862 83.5919 182.342 78.3074 182.702C74.2238 182.943 70.1403 183.663 66.0568 183.663C66.0568 184.384 66.0568 184.984 65.9367 185.705C75.545 185.104 85.7538 186.426 95.1218 186.546V186.666C85.6336 186.906 75.4249 188.227 65.8166 187.506C65.8166 188.227 65.6965 188.948 65.6965 189.788C75.0646 189.068 85.0331 190.629 94.4012 190.509C94.5213 190.509 94.5213 190.629 94.4012 190.629C85.0331 190.749 74.9445 192.43 65.5764 191.83C65.5764 192.19 65.5764 192.43 65.4563 192.791C65.6965 193.031 65.6965 193.271 65.6965 193.511C69.0594 193.391 72.6625 193.872 76.0254 193.992C82.3909 194.352 88.8764 194.352 95.2419 194.472C95.362 194.472 95.362 194.712 95.2419 194.712C89.5971 194.832 84.0723 194.712 78.4275 194.953C74.1037 195.073 69.5398 195.793 65.2161 195.433C65.096 196.033 65.096 196.634 64.9759 197.355C65.4563 197.475 65.6965 198.075 65.5764 198.435C74.8244 197.835 84.4326 198.676 93.5605 198.676C93.6806 198.676 93.6806 198.796 93.5605 198.796C84.0723 199.156 74.2238 200.477 64.7357 200.117C64.7357 200.357 64.7357 200.477 64.7357 200.717C64.8558 200.958 64.8558 201.198 64.6156 201.438C64.6156 201.678 64.6156 201.918 64.4955 202.159C73.5032 200.717 83.5919 202.038 92.7197 202.159C92.8398 202.159 92.8398 202.279 92.7197 202.279C83.5919 202.759 73.7434 204.681 64.7357 203.6C64.6156 203.6 64.4955 203.48 64.3754 203.48C64.3754 204.08 64.2553 204.561 64.2553 205.161C64.2553 205.641 64.1352 206.122 64.1352 206.602C67.9785 206.362 71.8218 206.722 75.545 206.722C81.5501 206.602 87.5553 206.482 93.4404 206.362C93.5605 206.362 93.5605 206.482 93.4404 206.482C88.1558 206.842 82.9914 207.203 77.7068 207.563C73.263 207.923 68.4589 208.764 63.8949 208.884C63.8949 209.365 63.7749 209.965 63.7749 210.445C68.9393 210.205 74.1037 210.205 78.6677 210.085C86.7146 209.845 94.7615 210.085 102.688 210.686C102.448 210.445 102.929 210.205 103.289 210.445ZM101.848 212.007C100.767 211.887 99.6857 211.887 98.6048 211.887C100.046 213.088 101.127 213.928 101.848 212.007ZM100.046 214.649C98.7249 213.328 97.7641 212.367 96.3228 214.409C96.3228 214.409 96.3228 214.409 96.2027 214.529C97.5239 214.529 98.7249 214.529 100.046 214.649ZM89.8373 214.409C88.5161 212.968 87.7955 211.406 85.994 214.409C87.3151 214.409 88.6362 214.409 89.8373 214.409ZM75.3048 213.688C76.3857 212.487 78.0671 211.887 79.5084 211.646C80.5893 211.526 82.2708 212.127 83.2316 212.968H83.3517C83.4718 212.968 83.4718 213.088 83.3517 213.088C83.4718 213.208 83.712 213.448 83.8321 213.568C84.0723 213.928 84.3125 214.169 84.4326 214.409C84.6728 214.409 84.7929 214.409 85.0331 214.409C85.1532 214.169 85.5135 213.568 85.994 212.968C86.3543 212.487 86.9548 212.007 87.5553 211.526C85.994 211.526 84.5527 211.526 82.9914 211.526C79.6285 211.526 76.2656 211.646 72.9027 211.767C73.263 212.127 73.8635 212.968 74.3439 213.688C74.5841 213.688 74.9445 213.688 75.3048 213.688ZM73.1429 214.889C73.0228 214.769 73.0228 214.769 72.9027 214.649C72.1821 214.769 71.4615 214.889 70.7408 215.009C71.4615 215.009 72.3022 215.009 73.1429 214.889ZM72.062 213.808C71.1012 213.088 70.3805 213.208 69.6599 213.928C70.3805 213.928 71.2213 213.928 72.062 213.808ZM63.5346 212.487C64.6156 213.088 65.3362 213.808 65.8166 214.289C66.4171 214.289 67.0176 214.169 67.4981 214.169C67.7383 213.688 67.9785 213.088 68.3388 212.127C66.6573 212.247 64.9759 212.367 63.2944 212.487C63.4146 212.367 63.5346 212.487 63.5346 212.487ZM63.1743 162.526C63.1743 161.805 63.2944 161.084 63.2944 160.364C62.9341 160.004 62.6939 159.643 62.3336 159.403C61.9733 159.523 61.613 159.523 61.2527 159.643C60.7723 160.244 60.1718 160.844 59.6913 161.445C58.9707 162.406 58.13 163.246 57.4094 164.207C58.4903 163.847 59.5712 163.607 60.7723 163.366C60.7723 163.246 60.8924 163.246 61.0125 163.246C61.7331 162.886 62.4537 162.646 63.1743 162.526ZM61.4929 174.656C61.7331 173.575 62.0934 172.494 62.4537 171.533C61.8532 171.653 61.2527 171.773 60.6522 171.893C59.2109 173.575 57.7697 175.256 56.4485 177.058C57.0491 176.818 57.6496 176.577 58.2501 176.457C58.13 176.217 58.13 175.737 58.6104 175.617C59.4511 175.256 60.5321 175.016 61.4929 174.656ZM64.3754 241.671C63.2944 241.792 62.2135 241.792 61.1326 241.912C61.1326 242.032 61.1326 242.272 61.1326 242.392C62.2135 242.032 63.2944 241.792 64.3754 241.671ZM61.0125 176.938C60.8924 176.938 60.7723 176.818 60.6522 176.697C58.9707 176.938 57.2893 177.298 55.7279 178.019C55.1274 178.739 54.4068 179.58 53.8063 180.3C55.848 179.7 57.8898 178.979 60.0517 178.379C60.2919 178.379 60.5321 178.259 60.7723 178.139C60.7723 177.778 60.8924 177.298 61.0125 176.938ZM60.0517 181.622C60.0517 181.501 60.0517 181.381 60.0517 181.261C57.6496 181.261 55.3676 181.141 52.9656 181.141C52.0047 182.222 51.164 183.303 50.2032 184.504C52.6052 183.663 55.1274 182.943 57.6496 182.342C58.3702 182.102 59.2109 181.862 60.0517 181.622ZM59.5712 185.104C59.5712 184.984 59.5712 184.864 59.5712 184.744C59.2109 184.744 58.7305 184.864 58.3702 184.864C55.3676 185.345 52.3651 185.705 49.2424 185.705C49.1223 185.825 49.1223 185.825 49.0022 185.945C49.0022 186.666 48.882 187.386 48.882 188.107C51.4042 187.506 53.9264 186.666 56.4485 185.945C57.4094 185.585 58.4903 185.345 59.5712 185.104ZM59.0908 188.467C58.7305 188.467 58.3702 188.467 58.0099 188.587C54.8872 188.828 51.8846 188.707 48.7619 188.948C48.6418 190.269 48.5217 191.71 48.4016 193.031C50.9238 191.71 53.6862 191.109 56.3284 190.389C57.1692 190.149 58.0099 189.908 58.8506 189.668C59.0908 189.188 59.0908 188.827 59.0908 188.467ZM58.7305 192.551C58.4903 192.551 58.2501 192.551 58.0099 192.671C54.8872 193.031 51.6444 193.511 48.4016 193.151C48.2815 194.232 48.1614 195.193 48.0413 196.274C50.6836 195.433 53.3259 194.472 56.0882 193.872C56.929 193.632 57.7697 193.511 58.6104 193.271C58.7305 193.031 58.7305 192.791 58.7305 192.551ZM58.3702 196.274C57.8898 196.394 57.2893 196.394 56.8089 196.514C53.8063 196.994 50.8037 197.114 47.9212 197.355C47.8011 198.195 47.681 199.036 47.5609 199.877C50.3233 199.036 53.2058 198.556 56.0882 198.195C56.8089 198.075 57.5295 197.955 58.2501 197.835C58.3702 197.234 58.3702 196.754 58.3702 196.274ZM58.0099 200.357C57.8898 200.357 57.7697 200.357 57.6496 200.357C54.1666 200.597 50.8037 200.837 47.3207 200.597C47.2006 201.198 47.2006 201.798 47.0805 202.519L47.2006 202.399C50.0831 201.918 52.8455 201.558 55.6078 200.958C56.5686 200.717 57.2893 200.597 58.0099 200.357ZM57.7697 203.72C57.7697 203.48 57.8898 203.119 57.8898 202.879C57.7697 202.879 57.5295 202.879 57.4094 202.879C54.1666 202.879 50.8037 202.879 47.5609 202.999C47.4408 202.999 47.3207 202.879 47.2006 202.759C47.0805 203.6 46.9604 204.561 46.8403 205.401C49.4826 204.681 52.2449 204.44 55.0073 204.2C55.848 204.08 56.8089 203.84 57.7697 203.72ZM56.8089 206.362C56.2083 206.362 55.4877 206.242 54.8872 206.242C52.1248 206.242 49.3624 206.242 46.7202 205.762C46.6001 206.842 46.3599 208.043 46.2398 209.124C49.0022 208.404 51.6444 207.683 54.4068 206.963C55.2475 206.842 55.9681 206.602 56.8089 206.362ZM46.1197 209.845C46.1197 210.205 45.9996 210.445 45.9996 210.806C48.6418 210.205 51.2841 209.845 53.9264 209.244C51.2841 209.485 48.7619 209.725 46.1197 209.845ZM56.4485 214.649C55.3676 214.889 54.4068 215.009 53.3259 215.249C53.446 215.61 53.5661 216.09 53.5661 216.45C53.8063 216.33 53.9264 216.33 54.1666 216.21C54.8872 215.97 55.6078 215.61 56.3284 215.37C56.3284 215.129 56.3284 214.889 56.4485 214.649ZM50.5635 214.169C52.2449 213.688 53.8063 213.328 55.4877 213.088C53.8063 213.328 52.0047 213.568 50.3233 213.808C50.3233 213.928 50.4434 214.048 50.5635 214.169ZM50.2032 215.61C50.0831 215.61 49.963 215.61 49.8429 215.61C49.7228 216.33 49.6027 217.171 49.3625 217.892C49.963 217.651 50.5635 217.411 51.164 217.171C50.8037 216.811 50.4434 216.21 50.2032 215.61ZM51.5243 215.49C51.7645 215.85 52.1248 216.21 52.365 216.571C52.4852 216.09 52.4851 215.73 52.6052 215.249C52.365 215.37 52.0047 215.37 51.5243 215.49ZM42.8769 245.995C44.198 246.115 45.0387 246.836 45.2789 247.917C46.7202 247.436 48.1614 247.076 49.6027 246.475C50.6836 246.115 51.7645 245.515 52.9656 245.154C52.6053 245.154 52.2449 245.154 51.7645 245.154C48.7619 245.154 45.8795 245.274 42.8769 245.034C42.8769 245.395 42.8769 245.755 42.8769 245.995ZM43.1171 243.833C45.1588 243.473 47.0805 243.353 49.1222 243.113C50.4434 242.993 51.8846 242.752 53.3259 242.512C53.3259 242.152 53.446 241.792 53.446 241.431C52.8455 241.431 52.1248 241.431 51.5243 241.431C48.7619 241.551 45.9996 242.032 43.3573 242.392C43.2372 242.872 43.1171 243.353 43.1171 243.833ZM50.6836 240.11C49.3625 240.11 48.0413 239.99 46.7202 239.99C45.9996 240.47 45.1588 240.951 44.4382 241.551C46.3599 241.191 48.2815 240.711 50.0831 240.35C50.3233 240.23 50.4434 240.11 50.6836 240.11ZM43.3573 241.671C43.4774 241.671 43.7176 241.551 43.8377 241.551C43.7176 241.431 43.7176 241.311 43.8377 241.191C44.3181 240.711 44.7985 240.23 45.2789 239.87C44.6784 239.87 44.0779 239.75 43.4774 239.75C43.4774 240.35 43.3573 241.071 43.3573 241.671ZM43.4774 239.269C45.8795 238.669 48.1614 237.948 50.5635 237.468C51.6444 237.228 52.7254 236.867 53.8063 236.747C53.8063 236.627 53.8063 236.627 53.8063 236.507C53.2058 236.507 52.7253 236.507 52.1248 236.507C49.2424 236.747 46.48 237.228 43.5975 236.988C43.5975 237.708 43.5975 238.429 43.4774 239.269ZM43.8377 236.027C45.6393 235.306 47.4408 234.826 49.3625 234.345C47.681 234.225 45.8795 233.985 44.198 233.625C44.0779 233.625 44.0779 233.505 44.0779 233.505C43.9578 234.345 43.8377 235.186 43.8377 236.027ZM43.9578 233.264L44.0779 233.144C46.7202 232.424 49.2424 231.823 51.8846 231.703C52.7254 231.583 53.446 231.583 54.2867 231.463C54.2867 230.983 54.4068 230.502 54.4068 230.022C53.9264 230.022 53.3259 230.022 52.8455 230.022C49.963 230.142 46.9604 230.262 44.0779 230.262C44.198 231.223 44.0779 232.304 43.9578 233.264ZM44.198 229.782C46.6001 229.181 49.1223 228.701 51.6444 228.1C52.6053 227.86 53.6862 227.62 54.7671 227.38C54.1666 227.259 53.6862 227.259 53.0857 227.259C50.2032 227.019 47.3207 227.019 44.4382 226.659C44.4382 227.62 44.3181 228.701 44.198 229.782ZM44.5583 225.818C47.0805 225.338 49.7228 224.978 52.2449 224.617C49.8429 224.497 47.4408 224.257 45.0388 224.257C44.7985 224.257 44.6784 223.777 44.9186 223.777C48.1614 223.176 51.2841 222.455 54.5269 221.735C54.8872 221.615 55.2475 221.615 55.6078 221.495C55.6078 221.375 55.6078 221.134 55.7279 221.014C52.1248 221.615 48.5217 222.215 44.9186 222.936C44.6784 223.897 44.5583 224.857 44.5583 225.818ZM45.0388 219.093C45.7594 218.973 46.48 218.732 47.0805 218.612C46.8403 218.012 46.7202 217.411 46.6001 216.811C46.6001 216.571 46.8403 216.33 47.0805 216.571C47.4408 216.931 47.681 217.171 47.9212 217.531C48.0413 216.931 48.2815 216.45 48.4016 215.85C47.3207 215.97 46.2398 216.09 45.1588 216.21C45.2789 217.051 45.1589 218.012 45.0388 219.093ZM45.399 215.61C46.6001 215.249 47.8011 215.009 48.882 214.649C48.882 214.409 49.0022 214.289 49.0022 214.048C47.8011 214.289 46.6001 214.649 45.399 214.889C45.5191 215.129 45.399 215.37 45.399 215.61ZM45.7594 213.208C49.0022 212.247 52.4851 211.526 56.0882 211.166C55.4877 211.166 55.0073 211.046 54.4068 211.046C51.6444 211.046 48.7619 211.166 45.9996 211.166C45.8795 211.887 45.7594 212.487 45.7594 213.208ZM46.9604 183.303C47.0805 181.141 47.2006 178.859 47.3207 176.577C45.2789 179.22 43.2372 181.862 41.1954 184.504C42.0362 185.465 42.7568 186.305 43.5975 187.266C44.7985 185.945 45.8795 184.624 46.9604 183.303ZM43.2372 187.867C42.3965 187.026 41.5557 186.185 40.715 185.225C38.5532 188.107 36.2712 191.109 34.1093 194.112C34.83 194.953 35.5506 195.673 36.2712 196.394C38.5532 193.632 40.9552 190.749 43.2372 187.867ZM29.5454 204.08C29.6655 204.2 29.7856 204.32 29.9057 204.32C31.9475 201.798 34.1093 199.156 36.1511 196.634C35.4305 195.913 34.5898 195.193 33.8691 194.472C31.9475 196.994 30.0258 199.516 28.1042 202.159C28.7047 202.759 29.1851 203.36 29.5454 204.08ZM25.1016 199.396C26.0624 200.117 26.9031 200.958 27.7439 201.798C29.5454 199.156 31.347 196.634 33.2686 193.992C32.0676 192.791 30.7464 191.59 29.5454 190.509C29.3052 190.749 29.065 190.989 28.9449 191.23C27.0232 193.511 25.582 195.673 23.0598 197.114C23.6604 197.835 24.381 198.556 25.1016 199.396ZM17.5351 179.82C15.4933 181.982 13.6918 184.264 11.5299 185.945C13.6918 187.026 15.7335 189.068 17.6552 191.109C18.7361 189.788 19.9371 188.467 21.0181 187.266C19.9371 188.587 18.8562 189.908 17.6552 191.23C19.0964 192.791 20.4176 194.472 21.6186 195.793C22.5794 193.271 24.5011 191.47 26.3026 189.188C26.5428 188.948 26.7831 188.587 27.0233 188.347C23.9006 185.465 20.898 182.462 17.8954 179.34C17.8954 179.46 17.7753 179.7 17.5351 179.82ZM19.2165 178.019C22.2191 181.021 25.1016 184.144 27.9841 187.266C30.266 184.504 32.548 181.742 34.83 179.099C33.6289 177.778 32.4279 176.577 31.1068 175.256C30.6263 175.857 30.1459 176.457 29.6655 176.938C30.1459 176.337 30.6263 175.737 31.1068 175.136C29.5454 173.455 27.9841 171.893 26.3026 170.212C24.0207 172.974 21.6186 175.496 19.2165 178.019ZM27.7439 169.011C29.1851 170.692 30.7465 172.494 32.1877 174.175C34.5898 171.293 36.9918 168.411 39.3939 165.528C37.9527 163.967 36.5114 162.526 35.1903 160.964C32.6681 163.607 30.1459 166.249 27.7439 169.011ZM36.5114 159.403C37.8325 160.964 39.1537 162.526 40.5949 164.087C42.3965 161.925 44.3181 159.643 46.1197 157.481C44.7985 156.16 43.4774 154.839 42.1562 153.398C40.2346 155.44 38.3129 157.361 36.5114 159.403ZM45.399 149.795C44.6784 150.516 43.9578 151.356 43.2372 152.077C44.5583 153.398 45.8795 154.719 47.2006 156.04C47.9212 155.2 48.5217 154.479 49.2424 153.638C49.7228 153.038 50.2032 152.557 50.5635 151.957C50.6836 151.116 50.9238 150.275 51.164 149.435C51.0439 149.435 50.8037 149.555 50.6836 149.555C50.4434 149.675 50.3233 149.195 50.5635 149.074C50.8037 148.954 51.0439 148.834 51.4042 148.834C51.5243 148.474 51.5243 148.114 51.6444 147.753C50.9238 146.913 50.2032 146.192 49.3625 145.351C48.0413 146.913 46.7202 148.354 45.399 149.795ZM48.7619 137.185C49.0022 137.305 49.2424 137.545 49.3625 137.785C49.3625 137.305 49.4826 136.824 49.4826 136.344C49.1223 136.464 48.7619 136.584 48.5217 136.584C48.6418 136.944 48.6418 137.064 48.7619 137.185ZM43.7176 129.859C42.997 131.18 42.2764 132.621 41.5557 133.942C46.3599 131.3 52.4852 130.339 57.6496 129.738C58.8506 129.618 60.0517 129.498 61.2527 129.378C62.5738 128.057 63.8949 126.856 65.2161 125.535C61.7331 126.376 58.13 127.216 54.647 127.937C51.2841 128.778 47.5609 130.099 44.0779 129.859C43.9578 129.979 43.8377 129.979 43.7176 129.859ZM49.1222 119.77C47.5609 122.532 46.1197 125.295 44.6784 128.057C47.2006 127.096 49.963 127.096 52.7253 126.736L65.9367 124.934C66.8975 123.974 67.8584 123.013 68.8192 122.172C62.4537 123.733 55.848 124.814 49.3625 125.655C48.0413 125.895 47.4408 123.854 48.7619 123.613C55.6078 122.653 62.5738 121.692 69.5398 121.452C70.3805 120.611 71.1012 119.89 71.9419 119.05C72.3022 118.569 72.7826 118.209 73.1429 117.728C65.5764 118.809 57.5295 119.77 49.8429 120.01C49.4826 120.01 49.3624 119.89 49.1222 119.77ZM51.0439 116.287C50.8037 116.768 50.4434 117.248 50.2032 117.849C57.7697 117.248 65.6965 117.248 73.3831 117.368C74.4641 116.287 75.4249 115.086 76.5058 113.885C68.0986 114.846 59.8114 115.687 51.4042 116.287C51.2841 116.287 51.164 116.287 51.0439 116.287ZM53.6862 111.723C53.0857 112.684 52.6052 113.645 52.0047 114.726C60.412 113.885 68.9393 113.405 77.3465 112.924C77.5867 112.684 77.7068 112.444 77.947 112.204C78.4275 111.723 78.7878 111.123 79.2682 110.643C70.7408 110.883 62.2135 111.243 53.6862 111.723ZM54.2867 110.643C62.814 110.522 71.2213 110.282 79.7486 109.922C79.8687 109.802 79.8687 109.682 79.9888 109.562C80.1089 109.682 80.229 109.802 80.3491 109.802C84.0723 109.682 87.6754 109.562 91.3986 109.442C91.879 108.961 92.4795 108.481 92.9599 108C92.2393 107.88 91.3986 107.76 90.678 107.64C90.4378 107.64 90.3177 107.28 90.3177 107.16C79.3883 107.28 68.0986 108.481 57.1692 107.52C56.4486 107.52 56.4486 106.559 57.1692 106.439C68.0986 105.598 79.3883 106.679 90.4378 106.919C90.5579 106.799 90.678 106.679 90.7981 106.679C91.9991 106.679 93.2002 106.679 94.4012 106.679C95.2419 105.959 96.2027 105.238 97.0435 104.517C94.0409 104.517 90.9182 104.397 88.0357 103.677C86.5945 103.677 85.2733 103.677 83.8321 103.677L83.712 103.797C82.8713 104.638 82.1507 105.478 81.43 106.319C81.3099 106.199 81.1898 106.079 80.9496 105.959C80.4692 105.959 80.1089 105.598 79.8687 105.118C79.2682 104.638 78.6677 104.157 78.0671 103.677C76.9862 103.677 75.9053 103.677 74.8243 103.677C69.4197 103.797 63.7749 104.397 58.3702 103.797C56.8089 106.199 55.6078 108.361 54.2867 110.643ZM62.2135 97.0713C61.2527 98.7527 60.1718 100.434 59.2109 102.115C64.3754 101.875 69.6599 102.596 74.7043 102.836C75.545 102.836 76.3857 102.956 77.2264 102.956C76.2656 102.115 75.3048 101.275 74.2238 100.434C72.1821 100.674 70.1403 100.914 68.0986 101.155C65.6965 101.395 63.1743 101.995 60.8924 101.275C60.412 101.155 60.0517 100.194 60.7723 99.9537C62.814 99.113 64.8558 99.2331 67.0176 99.2331C69.0594 99.2331 71.1012 99.2331 73.0228 99.2331C72.3022 98.5125 71.4615 97.7919 70.7408 97.1914C69.6599 97.3115 68.579 97.3115 67.6181 97.4316C65.9367 97.5517 64.2553 97.7919 62.6939 97.3115C62.3336 97.3115 62.2135 97.1914 62.2135 97.0713ZM62.6939 96.2306C64.2553 95.7502 65.8166 95.9904 67.3779 96.1105C68.0986 96.1105 68.6991 96.2306 69.4197 96.2306C68.8192 95.7502 68.3388 95.2698 67.7383 94.6693C67.0176 94.6693 66.297 94.5492 65.8166 94.5492C64.6156 94.5492 64.4955 92.8678 65.5764 92.6276L65.096 92.2673C64.3754 93.5884 63.5347 94.9095 62.6939 96.2306ZM63.7749 85.6618C64.4955 84.3407 65.4563 83.0196 66.4171 81.8186C64.2553 79.6568 61.9733 77.495 59.8114 75.3332C58.7305 76.5342 57.6496 77.8553 56.5686 79.0563C58.9707 81.3382 61.3728 83.5 63.7749 85.6618ZM54.8872 77.6151C55.9681 76.4141 57.1692 75.093 58.2501 73.892C56.2084 71.8503 54.1666 69.9287 52.1248 67.887C51.0439 69.3282 49.963 70.7694 48.882 72.2106C51.0439 74.0121 52.9655 75.8136 54.8872 77.6151ZM43.2372 66.9262C44.6784 68.2473 46.2398 69.5684 47.681 71.0096C48.7619 69.5684 49.8429 68.1272 51.0439 66.686C49.6027 65.3649 48.2815 63.9237 46.8403 62.6026C46.1197 61.882 45.2789 61.0413 44.5583 60.3207C43.3573 61.7619 42.0361 63.3232 40.8351 64.7644C41.5557 65.485 42.3965 66.2056 43.2372 66.9262ZM39.3939 63.4433C40.5949 61.882 41.916 60.4408 43.2372 58.8795C41.0753 56.7177 39.0336 54.676 36.8717 52.5142C35.6707 54.1956 34.3495 55.9971 33.1485 57.6785C35.3104 59.7202 37.3521 61.6418 39.3939 63.4433ZM31.5872 56.3574C32.9083 54.676 34.2294 52.9946 35.5506 51.3132C32.7882 48.5509 30.1459 45.9087 27.3836 43.1464C25.9423 45.068 24.6212 46.8695 23.1799 48.7911C25.9423 51.3132 28.8248 53.8353 31.5872 56.3574ZM21.7387 47.47C23.1799 45.6685 24.7413 43.7469 26.1825 41.9454C27.3836 40.5042 28.4645 39.063 29.6655 37.7419C27.0233 35.0998 24.381 32.5777 21.8588 29.9355C19.2165 33.4184 16.4542 36.9012 13.5717 40.264C16.3341 42.666 18.9763 45.068 21.7387 47.47ZM11.7701 38.5826C11.8902 38.7027 12.1304 38.8228 12.2505 39.063C15.0129 35.7002 18.0155 32.3375 20.898 29.0948C20.6578 28.8546 20.2975 28.4943 20.0573 28.2541C17.8954 26.0923 15.8536 24.531 14.5325 21.8888C13.3315 23.4501 12.1304 25.2516 10.8093 26.933C9.00775 29.2149 7.20619 31.4968 4.92424 32.8179C7.44641 34.3792 9.48817 36.661 11.7701 38.5826Z" fill="#B69D86"/>
</svg>
