<svg width="1168" height="677" viewBox="0 0 1168 677" fill="none" xmlns="http://www.w3.org/2000/svg">
<path d="M36.0141 306.058C35.656 308.68 35.3853 311.316 35.2033 313.965L35.4527 313.982C35.3619 315.303 35.2932 316.628 35.2469 317.956C35.2005 319.284 35.1765 320.61 35.1749 321.935L34.9249 321.934C34.9217 324.589 35.0078 327.237 35.1821 329.878L35.4315 329.862C35.6056 332.499 35.8677 335.13 36.2168 337.752L35.9689 337.785C36.318 340.408 36.7537 343.023 37.2749 345.629L37.52 345.58C38.0367 348.164 38.6374 350.739 39.321 353.304L39.0794 353.369C39.7575 355.914 40.5168 358.45 41.3563 360.976L41.5936 360.897C42.4254 363.4 43.336 365.894 44.3242 368.378L44.092 368.47C45.0604 370.904 46.1032 373.328 47.2193 375.742L47.4462 375.637C48.5518 378.028 49.7294 380.409 50.978 382.78L50.7568 382.896C51.9769 385.213 53.2649 387.52 54.6193 389.815L54.8346 389.688C56.1685 391.949 57.5674 394.2 59.0299 396.44L58.8205 396.577C60.256 398.776 61.7528 400.964 63.3099 403.141L63.5132 402.996C65.0363 405.125 66.6172 407.244 68.2552 409.353L68.0578 409.506C69.6725 411.584 71.3424 413.652 73.067 415.709L73.2586 415.549C74.9379 417.552 76.6689 419.544 78.4512 421.526L78.2652 421.693C80.0273 423.653 81.8392 425.602 83.7 427.54L83.8804 427.367C85.6903 429.252 87.5466 431.126 89.4489 432.99L89.2739 433.169C91.156 435.013 93.0829 436.847 95.0539 438.671L95.2237 438.487C97.1448 440.264 99.108 442.031 101.112 443.787L100.948 443.975C102.927 445.71 104.947 447.434 107.006 449.147L107.166 448.955C109.184 450.634 111.24 452.303 113.334 453.962L113.179 454.158C115.237 455.788 117.331 457.408 119.461 459.017L119.611 458.818C121.716 460.409 123.856 461.989 126.03 463.559L125.883 463.762C128.004 465.294 130.158 466.816 132.344 468.328L132.486 468.122C134.67 469.632 136.886 471.132 139.133 472.622L138.995 472.831C141.167 474.27 143.368 475.7 145.599 477.12L145.733 476.909C147.963 478.329 150.221 479.738 152.508 481.138L152.378 481.351C154.618 482.722 156.885 484.082 159.18 485.433L159.307 485.218C161.572 486.552 163.864 487.876 166.181 489.19L166.058 489.407C168.364 490.715 170.695 492.013 173.052 493.301L173.172 493.081C175.465 494.334 177.783 495.578 180.124 496.813L180.007 497.034C182.35 498.269 184.716 499.494 187.106 500.71L187.219 500.487C189.561 501.679 191.926 502.861 194.313 504.034L194.202 504.258C196.563 505.418 198.945 506.569 201.349 507.711L201.457 507.485C203.858 508.625 206.282 509.756 208.726 510.878L208.622 511.105C210.997 512.195 213.392 513.275 215.806 514.347L215.908 514.118C218.321 515.189 220.754 516.251 223.207 517.304L223.108 517.534C225.54 518.578 227.991 519.613 230.461 520.638L230.557 520.407C232.978 521.413 235.418 522.409 237.875 523.397L237.782 523.629C240.24 524.616 242.715 525.595 245.209 526.565L245.299 526.332C247.757 527.287 250.231 528.234 252.722 529.172L252.634 529.406C255.095 530.332 257.572 531.25 260.065 532.158L260.151 531.923C262.643 532.831 265.152 533.731 267.676 534.621L267.593 534.857C270.076 535.732 272.573 536.598 275.086 537.456L275.167 537.22C277.658 538.07 280.165 538.912 282.686 539.745L282.608 539.982C285.129 540.815 287.666 541.64 290.217 542.455L290.293 542.217C292.798 543.017 295.316 543.809 297.848 544.592L297.774 544.831C300.293 545.61 302.824 546.38 305.369 547.141L305.441 546.902C307.985 547.663 310.543 548.415 313.113 549.159L313.044 549.399C315.571 550.13 318.112 550.852 320.664 551.566L320.732 551.326C323.27 552.035 325.821 552.737 328.384 553.429L328.318 553.67C330.882 554.363 333.458 555.047 336.045 555.722L336.108 555.48C338.657 556.146 341.217 556.802 343.789 557.45L343.728 557.693C346.284 558.337 348.851 558.972 351.43 559.599L351.489 559.356C354.067 559.983 356.655 560.601 359.255 561.21L359.198 561.454C361.768 562.056 364.35 562.651 366.942 563.236L366.997 562.992C369.566 563.573 372.145 564.145 374.735 564.708L374.682 564.952C377.272 565.516 379.872 566.071 382.482 566.617L382.533 566.373C385.124 566.915 387.725 567.449 390.335 567.974L390.286 568.219C392.867 568.739 395.457 569.25 398.056 569.752L398.103 569.507C400.702 570.009 403.31 570.503 405.927 570.988L405.881 571.234C408.493 571.718 411.114 572.194 413.743 572.661L413.787 572.415C416.376 572.875 418.973 573.327 421.579 573.77L421.537 574.016C424.143 574.46 426.758 574.894 429.381 575.321L429.421 575.074C432.044 575.5 434.675 575.918 437.313 576.327L437.275 576.574C439.879 576.978 442.491 577.373 445.111 577.76L445.147 577.513C447.758 577.899 450.377 578.276 453.004 578.645L452.969 578.893C455.596 579.262 458.23 579.622 460.872 579.974L460.905 579.726C463.528 580.076 466.158 580.417 468.796 580.75L468.764 580.998C471.38 581.327 474.003 581.649 476.632 581.962L476.662 581.714C479.291 582.027 481.926 582.331 484.569 582.628L484.541 582.876C487.183 583.172 489.831 583.46 492.486 583.739L492.512 583.49C495.13 583.765 497.754 584.032 500.384 584.29L500.36 584.539C502.991 584.797 505.628 585.048 508.271 585.289L508.294 585.04C510.937 585.282 513.586 585.515 516.24 585.739L516.219 585.989C518.854 586.211 521.495 586.426 524.142 586.632L524.161 586.383C526.792 586.588 529.428 586.784 532.07 586.972L532.052 587.222C534.695 587.41 537.343 587.589 539.997 587.761L540.013 587.511C542.664 587.682 545.32 587.845 547.982 587.999L547.967 588.248C550.598 588.401 553.234 588.545 555.875 588.68L555.888 588.43C558.528 588.566 561.174 588.693 563.824 588.812L563.813 589.061C566.464 589.18 569.12 589.29 571.78 589.392L571.79 589.142C573.12 589.193 574.451 589.241 575.784 589.288C576.464 589.312 577.144 589.335 577.824 589.358C578.475 589.379 579.126 589.4 579.777 589.421L579.77 589.671C582.431 589.755 585.088 589.83 587.741 589.897L587.747 589.647C590.399 589.714 593.047 589.772 595.69 589.821L595.686 590.071C598.33 590.12 600.969 590.16 603.604 590.192L603.607 589.942C606.273 589.974 608.934 589.997 611.591 590.011L611.59 590.261C614.249 590.276 616.903 590.281 619.552 590.278L619.552 590.028C622.2 590.025 624.844 590.013 627.483 589.992L627.485 590.242C630.139 590.221 632.789 590.191 635.433 590.153L635.429 589.903C638.093 589.864 640.752 589.816 643.405 589.759L643.41 590.009C646.064 589.953 648.712 589.887 651.355 589.813L651.348 589.563C653.99 589.489 656.626 589.406 659.256 589.314L659.265 589.564C661.933 589.471 664.595 589.369 667.251 589.258L667.24 589.008C669.897 588.897 672.548 588.777 675.192 588.648L675.204 588.898C677.849 588.769 680.488 588.631 683.12 588.485L683.106 588.235C685.76 588.087 688.408 587.931 691.049 587.765L691.064 588.015C693.724 587.848 696.378 587.672 699.024 587.487L699.007 587.238C701.652 587.053 704.291 586.859 706.923 586.657L706.942 586.906C709.582 586.703 712.216 586.49 714.841 586.269L714.82 586.02C717.481 585.796 720.135 585.563 722.781 585.321L722.803 585.57C725.45 585.327 728.089 585.076 730.72 584.816L730.695 584.567C733.325 584.306 735.948 584.037 738.563 583.759L738.589 584.008C741.245 583.725 743.892 583.433 746.531 583.132L746.503 582.884C749.147 582.582 751.783 582.272 754.411 581.952L754.441 582.2C757.069 581.88 759.688 581.551 762.299 581.213L762.267 580.965C764.908 580.623 767.539 580.272 770.162 579.912L770.196 580.16C772.838 579.797 775.47 579.424 778.093 579.043L778.057 578.796C780.68 578.414 783.293 578.024 785.896 577.624L785.934 577.871C788.56 577.468 791.177 577.055 793.784 576.633L793.744 576.386C796.379 575.96 799.005 575.524 801.62 575.079L801.662 575.325C804.278 574.88 806.883 574.425 809.478 573.961L809.434 573.715C812.045 573.248 814.645 572.771 817.234 572.286L817.28 572.531C819.908 572.038 822.525 571.536 825.131 571.023L825.082 570.778C827.687 570.266 830.281 569.745 832.862 569.214L832.913 569.458C835.509 568.925 838.094 568.381 840.666 567.828L840.614 567.584C843.23 567.021 845.834 566.449 848.425 565.868L848.479 566.111C851.071 565.53 853.651 564.938 856.217 564.337L856.16 564.093C858.741 563.489 861.308 562.875 863.863 562.251L863.922 562.494C866.523 561.858 869.111 561.213 871.685 560.558L871.623 560.316C874.196 559.661 876.756 558.996 879.301 558.321L879.365 558.563C881.931 557.883 884.483 557.192 887.02 556.492L886.954 556.251C889.534 555.539 892.1 554.817 894.649 554.085L894.718 554.326C897.269 553.593 899.804 552.851 902.324 552.099L902.252 551.859C904.803 551.097 907.337 550.326 909.855 549.544L909.929 549.783C912.484 548.989 915.022 548.186 917.543 547.372L917.466 547.134C919.986 546.32 922.489 545.496 924.975 544.662L925.054 544.899C927.59 544.049 930.107 543.187 932.606 542.316L932.524 542.08C935.044 541.201 937.545 540.311 940.027 539.411L940.112 539.646C942.596 538.746 945.06 537.835 947.505 536.913L947.417 536.679C949.934 535.731 952.43 534.772 954.906 533.802L954.997 534.034C957.475 533.064 959.932 532.082 962.367 531.089L962.273 530.858C964.736 529.854 967.177 528.84 969.597 527.815L969.695 528.045C972.163 526.999 974.609 525.941 977.032 524.873L976.931 524.644C979.353 523.576 981.751 522.497 984.126 521.407L984.231 521.634C986.672 520.514 989.088 519.382 991.48 518.238L991.372 518.013C993.775 516.863 996.154 515.702 998.506 514.53L998.618 514.754C1001 513.566 1003.36 512.367 1005.69 511.156L1005.57 510.934C1007.95 509.698 1010.3 508.449 1012.63 507.189L1012.75 507.409C1015.07 506.148 1017.37 504.875 1019.63 503.59L1019.51 503.373C1021.86 502.043 1024.17 500.701 1026.45 499.347L1026.58 499.562C1028.87 498.207 1031.12 496.839 1033.35 495.459L1033.21 495.246C1035.49 493.832 1037.74 492.404 1039.95 490.964L1040.08 491.174C1042.32 489.717 1044.52 488.247 1046.69 486.764L1046.55 486.558C1048.75 485.049 1050.92 483.528 1053.05 481.994L1053.2 482.196C1055.37 480.631 1057.51 479.052 1059.6 477.46L1059.45 477.261C1061.57 475.649 1063.65 474.023 1065.69 472.384L1065.85 472.579C1067.94 470.898 1069.99 469.203 1072 467.495L1071.84 467.304C1073.87 465.577 1075.85 463.837 1077.79 462.083L1077.95 462.268C1079.94 460.464 1081.89 458.647 1083.78 456.815L1083.61 456.635C1085.52 454.782 1087.39 452.915 1089.21 451.034L1089.39 451.208C1091.25 449.277 1093.06 447.33 1094.82 445.37L1094.63 445.203C1096.41 443.214 1098.14 441.21 1099.8 439.192L1100 439.351C1101.7 437.288 1103.35 435.21 1104.93 433.117L1104.73 432.966C1106.35 430.833 1107.9 428.685 1109.39 426.523L1109.6 426.665C1111.11 424.469 1112.55 422.258 1113.93 420.032L1113.72 419.9C1115.13 417.623 1116.47 415.33 1117.74 413.022L1117.96 413.142C1119.24 410.812 1120.45 408.466 1121.59 406.106L1121.36 405.998C1122.52 403.589 1123.6 401.165 1124.61 398.726L1124.84 398.821C1125.85 396.359 1126.79 393.883 1127.64 391.391L1127.4 391.31C1128.26 388.798 1129.04 386.271 1129.74 383.73L1129.98 383.796C1130.68 381.233 1131.3 378.655 1131.83 376.062L1131.59 376.012C1132.12 373.421 1132.56 370.815 1132.92 368.196L1133.17 368.23C1133.53 365.608 1133.8 362.972 1133.98 360.323L1133.73 360.306C1133.82 358.985 1133.89 357.66 1133.93 356.332C1133.98 355.004 1134 353.678 1134.01 352.353L1134.26 352.354C1134.26 349.699 1134.17 347.051 1134 344.41L1133.75 344.426C1133.58 341.789 1133.31 339.158 1132.96 336.536L1133.21 336.503C1132.86 333.88 1132.43 331.265 1131.91 328.659L1131.66 328.708C1131.14 326.124 1130.54 323.55 1129.86 320.984L1130.1 320.919C1129.42 318.374 1128.66 315.838 1127.82 313.312L1127.59 313.391C1126.76 310.888 1125.85 308.394 1124.86 305.91L1125.09 305.818C1124.12 303.384 1123.08 300.96 1121.96 298.546L1121.74 298.651C1120.63 296.26 1119.45 293.879 1118.2 291.508L1118.42 291.392C1117.2 289.075 1115.92 286.768 1114.56 284.473L1114.35 284.6C1113.01 282.339 1111.61 280.088 1110.15 277.848L1110.36 277.711C1108.93 275.512 1107.43 273.324 1105.87 271.147L1105.67 271.292C1104.15 269.163 1102.56 267.044 1100.93 264.935L1101.12 264.782C1099.51 262.704 1097.84 260.636 1096.11 258.579L1095.92 258.739C1094.24 256.737 1092.51 254.744 1090.73 252.762L1090.92 252.595C1089.15 250.635 1087.34 248.686 1085.48 246.748L1085.3 246.921C1083.49 245.036 1081.63 243.162 1079.73 241.298L1079.91 241.119C1078.03 239.275 1076.1 237.441 1074.13 235.617L1073.96 235.801C1072.04 234.024 1070.07 232.257 1068.07 230.501L1068.23 230.313C1066.25 228.578 1064.23 226.854 1062.18 225.141L1062.02 225.333C1060 223.654 1057.94 221.985 1055.85 220.326L1056 220.13C1053.94 218.5 1051.85 216.88 1049.72 215.271L1049.57 215.47C1047.47 213.879 1045.33 212.299 1043.15 210.729L1043.3 210.526C1041.18 208.994 1039.02 207.472 1036.84 205.96L1036.69 206.166C1034.51 204.656 1032.3 203.156 1030.05 201.666L1030.19 201.457C1028.01 200.018 1025.81 198.588 1023.58 197.168L1023.45 197.379C1021.22 195.959 1018.96 194.55 1016.67 193.15L1016.8 192.937C1014.56 191.566 1012.3 190.206 1010 188.855L1009.87 189.07C1007.61 187.736 1005.32 186.412 1003 185.098L1003.12 184.881C1000.82 183.573 998.486 182.275 996.129 180.987L996.009 181.207C993.716 179.954 991.398 178.71 989.057 177.475L989.174 177.254C986.831 176.019 984.465 174.794 982.076 173.578L981.962 173.801C979.62 172.609 977.256 171.427 974.869 170.254L974.979 170.03C972.618 168.87 970.236 167.719 967.832 166.578L967.725 166.803C965.323 165.663 962.9 164.532 960.455 163.41L960.559 163.183C958.184 162.093 955.79 161.013 953.375 159.941L953.274 160.17C950.86 159.099 948.427 158.037 945.975 156.984L946.073 156.754C943.641 155.71 941.19 154.675 938.72 153.65L938.624 153.881C936.203 152.875 933.764 151.879 931.306 150.891L931.4 150.659C928.942 149.672 926.466 148.693 923.973 147.723L923.882 147.956C921.425 147.001 918.95 146.054 916.459 145.116L916.548 144.882C914.087 143.956 911.609 143.039 909.116 142.13L909.03 142.365C906.538 141.457 904.029 140.557 901.505 139.667L901.588 139.431C899.106 138.556 896.608 137.69 894.095 136.832L894.015 137.068C891.523 136.218 889.016 135.376 886.495 134.543L886.574 134.306C884.052 133.473 881.515 132.648 878.964 131.833L878.888 132.071C876.384 131.271 873.865 130.479 871.333 129.696L871.407 129.457C868.889 128.678 866.357 127.908 863.812 127.147L863.74 127.386C861.196 126.625 858.639 125.873 856.068 125.129L856.138 124.889C853.61 124.158 851.07 123.436 848.517 122.722L848.449 122.962C845.911 122.253 843.36 121.551 840.798 120.859L840.863 120.618C838.299 119.925 835.724 119.241 833.136 118.566L833.073 118.808C830.524 118.142 827.964 117.486 825.392 116.838L825.453 116.595C822.897 115.951 820.33 115.316 817.751 114.689L817.692 114.932C815.115 114.305 812.526 113.687 809.927 113.078L809.984 112.834C807.413 112.232 804.831 111.637 802.239 111.052L802.184 111.296C799.615 110.715 797.036 110.143 794.446 109.58L794.5 109.336C791.909 108.772 789.309 108.217 786.699 107.671L786.648 107.915C784.057 107.373 781.456 106.839 778.846 106.314L778.895 106.069C776.315 105.549 773.725 105.038 771.125 104.536L771.078 104.781C768.479 104.279 765.871 103.785 763.254 103.3L763.3 103.054C760.688 102.57 758.068 102.094 755.438 101.627L755.394 101.873C752.806 101.413 750.208 100.961 747.602 100.518L747.644 100.272C745.038 99.8285 742.423 99.3937 739.8 98.9673L739.76 99.2141C737.137 98.7878 734.507 98.37 731.868 97.9609L731.906 97.7138C729.302 97.31 726.69 96.9146 724.071 96.5276L724.034 96.7749C721.423 96.3892 718.804 96.0118 716.178 95.6429L716.212 95.3953C713.585 95.0263 710.951 94.6658 708.309 94.3138L708.276 94.5616C705.653 94.2121 703.023 93.8711 700.386 93.5385L700.417 93.2905C697.801 92.9606 695.179 92.6391 692.549 92.326L692.52 92.5743C689.891 92.2612 687.255 91.9566 684.612 91.6605L684.64 91.4121C681.998 91.116 679.35 90.8285 676.695 90.5495L676.669 90.7981C674.051 90.523 671.427 90.2562 668.797 89.9978L668.821 89.749C666.19 89.4906 663.553 89.2405 660.91 88.9989L660.887 89.2479C658.245 89.0063 655.596 88.7732 652.941 88.5486L652.962 88.2994C650.327 88.0765 647.686 87.862 645.04 87.6559L645.02 87.9051C642.389 87.7003 639.753 87.5038 637.111 87.3157L637.129 87.0664C634.486 86.8783 631.838 86.6986 629.185 86.5274L629.169 86.7768C626.518 86.6058 623.861 86.4432 621.199 86.2892L621.214 86.0396C618.583 85.8874 615.947 85.7435 613.306 85.608L613.293 85.8576C610.653 85.7222 608.008 85.5951 605.357 85.4765L605.368 85.2267C602.717 85.1081 600.062 84.9979 597.401 84.8963L597.391 85.1461C596.061 85.0953 594.73 85.0466 593.398 85.0001C592.065 84.9535 590.734 84.9092 589.404 84.8671L589.412 84.6172C586.75 84.533 584.093 84.4576 581.441 84.391L581.434 84.6409C578.782 84.5743 576.134 84.5165 573.491 84.4674L573.495 84.2174C570.852 84.1683 568.212 84.128 565.577 84.0963L565.574 84.3463C562.908 84.3142 560.247 84.291 557.59 84.2767L557.592 84.0267C554.933 84.0123 552.278 84.0068 549.629 84.0101L549.629 84.2601C546.981 84.2634 544.337 84.2755 541.699 84.2963L541.697 84.0463C539.042 84.0672 536.393 84.0969 533.749 84.1355L533.752 84.3855C531.088 84.4243 528.43 84.472 525.776 84.5286L525.771 84.2787C523.117 84.3353 520.469 84.4007 517.827 84.475L517.834 84.7249C515.192 84.7991 512.555 84.8822 509.925 84.974L509.916 84.7241C507.248 84.8172 504.586 84.9193 501.93 85.0302L501.941 85.28C499.284 85.3911 496.633 85.511 493.989 85.6399L493.977 85.3901C491.332 85.519 488.693 85.6567 486.061 85.8033L486.075 86.0529C483.421 86.2007 480.773 86.3574 478.132 86.523L478.117 86.2735C475.457 86.4403 472.803 86.6162 470.157 86.801L470.175 87.0504C467.529 87.2351 464.89 87.4288 462.258 87.6315L462.239 87.3822C459.599 87.5855 456.966 87.7977 454.34 88.0188L454.361 88.2679C451.7 88.492 449.046 88.7252 446.401 88.9674L446.378 88.7184C443.731 88.9607 441.093 89.2121 438.462 89.4725L438.486 89.7213C435.856 89.9816 433.233 90.2508 430.619 90.5291L430.592 90.2805C427.936 90.563 425.289 90.8548 422.65 91.1557L422.678 91.4041C420.034 91.7056 417.398 92.0163 414.771 92.3361L414.74 92.088C412.112 92.4078 409.493 92.7368 406.882 93.0748L406.914 93.3228C404.274 93.6646 401.642 94.0158 399.02 94.3761L398.985 94.1284C396.344 94.4913 393.711 94.8636 391.088 95.245L391.124 95.4925C388.502 95.8738 385.889 96.2644 383.285 96.6642L383.247 96.4171C380.621 96.8204 378.004 97.233 375.398 97.6548L375.438 97.9016C372.802 98.3282 370.176 98.7641 367.561 99.2095L367.519 98.963C364.904 99.4085 362.298 99.8633 359.703 100.327L359.747 100.574C357.137 101.04 354.537 101.517 351.948 102.003L351.902 101.757C349.273 102.25 346.656 102.752 344.051 103.265L344.099 103.51C341.494 104.022 338.901 104.543 336.319 105.074L336.268 104.83C333.672 105.364 331.088 105.907 328.515 106.46L328.568 106.704C325.951 107.267 323.348 107.839 320.757 108.42L320.702 108.177C318.11 108.758 315.531 109.35 312.964 109.951L313.021 110.195C310.441 110.799 307.873 111.413 305.319 112.037L305.259 111.794C302.658 112.43 300.07 113.075 297.496 113.73L297.558 113.972C294.985 114.627 292.426 115.292 289.881 115.967L289.817 115.725C287.25 116.405 284.698 117.096 282.161 117.796L282.227 118.037C279.647 118.749 277.082 119.471 274.532 120.203L274.463 119.962C271.912 120.695 269.377 121.437 266.857 122.19L266.929 122.429C264.379 123.191 261.844 123.962 259.326 124.744L259.252 124.505C256.697 125.299 254.159 126.102 251.638 126.916L251.715 127.154C249.195 127.968 246.692 128.792 244.206 129.626L244.127 129.389C241.592 130.239 239.074 131.101 236.575 131.972L236.658 132.208C234.138 133.087 231.636 133.977 229.154 134.877L229.069 134.642C226.586 135.543 224.121 136.453 221.676 137.375L221.764 137.609C219.247 138.557 216.751 139.516 214.275 140.486L214.184 140.254C211.707 141.224 209.25 142.206 206.814 143.199L206.908 143.43C204.445 144.434 202.004 145.448 199.584 146.473L199.487 146.243C197.018 147.289 194.572 148.347 192.149 149.415L192.25 149.644C189.829 150.712 187.43 151.791 185.055 152.881L184.951 152.654C182.509 153.774 180.093 154.906 177.702 156.05L177.81 156.275C175.406 157.425 173.028 158.586 170.675 159.758L170.564 159.534C168.18 160.722 165.823 161.921 163.493 163.132L163.608 163.354C161.229 164.59 158.878 165.839 156.555 167.099L156.435 166.879C154.111 168.14 151.815 169.413 149.548 170.698L149.672 170.915C147.326 172.245 145.01 173.587 142.727 174.941L142.599 174.726C140.313 176.081 138.059 177.449 135.836 178.829L135.968 179.042C133.689 180.456 131.445 181.884 129.234 183.324L129.098 183.114C126.861 184.571 124.659 186.041 122.492 187.524L122.634 187.73C120.429 189.239 118.261 190.76 116.131 192.294L115.985 192.092C113.811 193.657 111.676 195.236 109.58 196.828L109.732 197.027C107.61 198.639 105.528 200.265 103.487 201.904L103.331 201.709C101.238 203.39 99.1873 205.085 97.1811 206.794L97.3433 206.984C95.3156 208.711 93.3329 210.451 91.3959 212.205L91.2281 212.02C89.2364 213.824 87.2931 215.641 85.3985 217.473L85.5723 217.653C83.6562 219.506 81.7904 221.373 79.9754 223.254L79.7955 223.08C77.9316 225.011 76.1215 226.958 74.3657 228.918L74.5519 229.085C72.7708 231.074 71.0459 233.078 69.378 235.096L69.1853 234.937C67.48 237 65.8342 239.078 64.2488 241.171L64.4482 241.322C62.8328 243.455 61.2805 245.603 59.7919 247.765L59.5861 247.623C58.0748 249.819 56.6291 252.03 55.2502 254.256L55.4627 254.388C54.0517 256.665 52.7109 258.958 51.4412 261.267L51.2222 261.146C49.9404 263.476 48.731 265.822 47.595 268.182L47.8204 268.29C46.6611 270.699 45.5788 273.123 44.5743 275.562L44.3431 275.467C43.3295 277.929 42.395 280.405 41.541 282.897L41.7775 282.978C40.9166 285.49 40.1377 288.017 39.442 290.558L39.2009 290.492C38.4992 293.055 37.8821 295.633 37.3508 298.226L37.5957 298.276C37.0646 300.867 36.6195 303.473 36.2618 306.092L36.0141 306.058Z" stroke="#A28276" stroke-width="0.5" stroke-dasharray="8 8"/>
<path d="M40.0462 415.027C40.2086 417.669 40.4594 420.306 40.7997 422.939L41.0477 422.907C41.2174 424.221 41.4096 425.533 41.6243 426.845C41.8389 428.156 42.0751 429.461 42.333 430.76L42.0878 430.809C42.6047 433.413 43.2078 435.993 43.896 438.548L44.1373 438.483C44.8247 441.036 45.597 443.564 46.453 446.067L46.2164 446.148C47.0724 448.652 48.0119 451.131 49.0335 453.584L49.2643 453.488C50.277 455.921 51.3704 458.328 52.5433 460.71L52.319 460.82C53.4825 463.183 54.7238 465.522 56.0419 467.835L56.2591 467.711C57.5651 470.003 58.9465 472.27 60.4021 474.512L60.1925 474.648C61.6189 476.845 63.1163 479.018 64.6836 481.166L64.8856 481.019C66.4381 483.147 68.0593 485.251 69.748 487.331L69.5539 487.489C71.2042 489.522 72.919 491.531 74.6968 493.517L74.8831 493.351C76.6341 495.307 78.4467 497.24 80.3196 499.15L80.1411 499.325C81.9794 501.2 83.8758 503.053 85.8293 504.883L86.0002 504.7C87.9108 506.49 89.8762 508.259 91.8954 510.005L91.7319 510.194C93.7225 511.916 95.7651 513.617 97.8591 515.296L98.0156 515.101C100.055 516.736 102.142 518.351 104.278 519.946L104.129 520.146C106.241 521.722 108.399 523.279 110.604 524.815L110.746 524.61C112.891 526.104 115.078 527.578 117.309 529.034L117.172 529.243C119.379 530.683 121.628 532.104 123.918 533.506L124.048 533.293C126.28 534.659 128.551 536.007 130.861 537.337L130.736 537.554C133.017 538.867 135.335 540.162 137.69 541.439L137.809 541.219C140.117 542.47 142.461 543.704 144.839 544.921L144.725 545.143C147.062 546.339 149.433 547.517 151.837 548.678L151.946 548.453C154.321 549.601 156.729 550.731 159.169 551.845L159.065 552.073C161.445 553.16 163.855 554.23 166.295 555.284L166.394 555.055C168.831 556.108 171.298 557.145 173.793 558.166L173.699 558.397C176.11 559.384 178.549 560.355 181.015 561.311L181.105 561.077C183.569 562.033 186.06 562.972 188.578 563.897L188.491 564.131C190.956 565.037 193.447 565.927 195.961 566.802L196.044 566.566C198.526 567.43 201.032 568.28 203.563 569.115L203.484 569.352C206.001 570.183 208.542 570.999 211.106 571.8L211.18 571.561C213.675 572.341 216.191 573.107 218.729 573.859L218.658 574.098C221.196 574.851 223.757 575.589 226.338 576.313L226.406 576.072C228.936 576.782 231.486 577.478 234.057 578.161L233.993 578.403C236.535 579.078 239.096 579.74 241.677 580.388L241.738 580.146C244.317 580.793 246.915 581.428 249.532 582.049L249.474 582.292C252.016 582.896 254.576 583.486 257.154 584.064L257.209 583.82C259.785 584.398 262.379 584.963 264.99 585.514L264.939 585.759C267.528 586.306 270.134 586.841 272.757 587.363L272.806 587.118C275.377 587.629 277.965 588.129 280.568 588.616L280.522 588.862C283.126 589.349 285.745 589.824 288.38 590.286L288.423 590.04C291.02 590.496 293.632 590.939 296.258 591.371L296.218 591.618C298.812 592.044 301.421 592.458 304.045 592.861L304.082 592.614C306.705 593.016 309.341 593.407 311.991 593.785L311.955 594.033C314.561 594.405 317.18 594.765 319.812 595.114L319.845 594.866C322.455 595.212 325.078 595.547 327.713 595.87L327.683 596.118C330.319 596.441 332.968 596.753 335.629 597.052L335.657 596.804C338.27 597.098 340.895 597.382 343.531 597.654L343.505 597.902C346.127 598.173 348.761 598.432 351.406 598.68L351.429 598.431C354.073 598.679 356.728 598.916 359.395 599.142L359.374 599.391C361.996 599.613 364.628 599.823 367.271 600.023L367.29 599.774C369.919 599.973 372.557 600.161 375.206 600.338L375.189 600.588C377.839 600.765 380.499 600.931 383.168 601.086L383.183 600.837C385.812 600.99 388.452 601.132 391.101 601.264L391.088 601.513C393.721 601.644 396.363 601.765 399.014 601.874L399.024 601.625C401.675 601.734 404.335 601.833 407.003 601.922L406.995 602.172C409.634 602.259 412.282 602.336 414.938 602.403L414.944 602.153C417.577 602.219 420.219 602.274 422.868 602.32L422.864 602.57C425.514 602.615 428.173 602.65 430.839 602.674L430.842 602.424C433.489 602.449 436.144 602.463 438.806 602.467L438.806 602.717C441.438 602.72 444.078 602.714 446.726 602.698L446.724 602.448C449.371 602.431 452.025 602.405 454.686 602.368L454.69 602.618C457.346 602.582 460.009 602.535 462.679 602.478L462.674 602.228C465.302 602.172 467.938 602.106 470.58 602.03L470.587 602.28C473.23 602.204 475.879 602.119 478.535 602.023L478.526 601.773C481.181 601.677 483.843 601.572 486.511 601.456L486.522 601.706C489.154 601.592 491.793 601.468 494.438 601.334L494.425 601.085C497.061 600.951 499.703 600.808 502.351 600.656L502.365 600.905C505.014 600.753 507.668 600.59 510.328 600.418L510.311 600.168C512.952 599.997 515.598 599.817 518.249 599.626L518.267 599.876C520.897 599.687 523.532 599.488 526.171 599.28L526.152 599.031C528.791 598.823 531.436 598.605 534.085 598.378L534.106 598.627C536.755 598.4 539.408 598.163 542.066 597.917L542.043 597.668C544.664 597.425 547.29 597.173 549.92 596.911L549.944 597.16C552.575 596.898 555.21 596.626 557.849 596.346L557.823 596.097C560.462 595.816 563.105 595.526 565.752 595.226L565.781 595.475C568.408 595.177 571.04 594.87 573.676 594.554L573.646 594.306C576.266 593.991 578.889 593.668 581.517 593.335L581.549 593.583C584.177 593.249 586.809 592.907 589.444 592.555L589.411 592.307C592.044 591.956 594.681 591.595 597.322 591.224L597.356 591.472C599.966 591.106 602.579 590.731 605.195 590.346L605.159 590.099C607.775 589.715 610.394 589.321 613.016 588.918L613.054 589.165C615.677 588.763 618.303 588.35 620.932 587.929L620.892 587.682C622.207 587.471 623.522 587.258 624.837 587.043C625.509 586.933 626.181 586.823 626.852 586.712C627.495 586.605 628.137 586.498 628.78 586.391L628.821 586.638C631.447 586.199 634.068 585.752 636.682 585.298L636.639 585.052C639.253 584.598 641.861 584.136 644.463 583.666L644.507 583.912C647.11 583.442 649.706 582.965 652.296 582.48L652.25 582.234C654.871 581.743 657.485 581.245 660.093 580.739L660.14 580.984C662.751 580.477 665.355 579.963 667.952 579.441L667.903 579.196C670.499 578.673 673.089 578.144 675.673 577.607L675.724 577.851C678.323 577.311 680.915 576.763 683.5 576.207L683.448 575.963C686.053 575.403 688.65 574.835 691.241 574.26L691.295 574.504C693.886 573.929 696.47 573.346 699.047 572.755L698.991 572.512C701.568 571.921 704.137 571.324 706.698 570.718L706.756 570.962C709.354 570.348 711.944 569.726 714.527 569.097L714.468 568.854C717.051 568.225 719.627 567.588 722.195 566.944L722.256 567.186C724.824 566.542 727.385 565.89 729.937 565.231L729.875 564.989C732.449 564.324 735.014 563.652 737.571 562.972L737.636 563.214C740.211 562.529 742.779 561.837 745.338 561.137L745.272 560.896C747.83 560.197 750.38 559.49 752.921 558.776L752.989 559.016C755.538 558.3 758.078 557.576 760.61 556.845L760.541 556.605C763.106 555.864 765.663 555.115 768.21 554.359L768.281 554.599C770.829 553.843 773.367 553.08 775.896 552.309L775.823 552.07C778.352 551.3 780.871 550.522 783.38 549.737L783.455 549.975C786.004 549.178 788.543 548.373 791.072 547.561L790.995 547.323C793.529 546.51 796.053 545.689 798.567 544.86L798.645 545.098C801.16 544.269 803.664 543.434 806.158 542.591L806.078 542.354C808.601 541.502 811.112 540.642 813.614 539.775L813.695 540.011C816.215 539.138 818.724 538.257 821.221 537.369L821.137 537.134C823.634 536.246 826.12 535.351 828.595 534.449L828.68 534.684C831.177 533.774 833.662 532.857 836.136 531.933L836.048 531.698C838.549 530.764 841.038 529.822 843.516 528.873L843.605 529.107C846.083 528.157 848.549 527.201 851.002 526.238L850.911 526.005C853.38 525.036 855.836 524.059 858.28 523.076L858.373 523.308C860.854 522.31 863.322 521.304 865.777 520.291L865.681 520.06C868.135 519.048 870.576 518.029 873.004 517.002L873.101 517.232C875.543 516.2 877.971 515.161 880.385 514.115L880.286 513.886C882.741 512.822 885.183 511.751 887.61 510.673L887.711 510.901C890.139 509.823 892.552 508.738 894.951 507.645L894.848 507.418C897.26 506.319 899.657 505.214 902.04 504.102L902.146 504.329C904.572 503.196 906.984 502.056 909.379 500.91L909.271 500.684C911.666 499.538 914.046 498.385 916.409 497.225L916.519 497.449C918.903 496.279 921.27 495.103 923.621 493.919L923.509 493.696C925.9 492.492 928.274 491.282 930.631 490.065L930.746 490.287C933.103 489.069 935.444 487.844 937.768 486.613L937.651 486.392C940.002 485.146 942.336 483.893 944.652 482.633L944.772 482.852C947.122 481.574 949.453 480.289 951.766 478.997L951.644 478.779C953.956 477.487 956.249 476.189 958.523 474.884L958.648 475.101C960.967 473.77 963.267 472.432 965.547 471.088L965.42 470.873C967.719 469.517 969.997 468.155 972.255 466.786L972.385 467C974.644 465.63 976.882 464.254 979.1 462.872L978.967 462.66C981.249 461.237 983.509 459.807 985.747 458.371L985.882 458.581C988.122 457.144 990.339 455.7 992.533 454.25L992.395 454.041C994.614 452.575 996.809 451.102 998.981 449.622L999.122 449.829C1001.34 448.32 1003.53 446.804 1005.7 445.281L1005.55 445.077C1007.72 443.555 1009.86 442.027 1011.97 440.493L1012.12 440.695C1014.29 439.118 1016.44 437.535 1018.56 435.945L1018.41 435.745C1020.55 434.147 1022.65 432.543 1024.73 430.933L1024.88 431.13C1026.99 429.499 1029.06 427.861 1031.11 426.217L1030.95 426.022C1033.04 424.344 1035.11 422.659 1037.14 420.968L1037.3 421.16C1039.33 419.468 1041.33 417.77 1043.3 416.066L1043.14 415.877C1045.18 414.114 1047.19 412.345 1049.16 410.57L1049.33 410.755C1051.3 408.978 1053.25 407.195 1055.16 405.407L1054.99 405.224C1056.94 403.39 1058.86 401.551 1060.75 399.706L1060.93 399.885C1062.83 398.018 1064.7 396.145 1066.54 394.267L1066.36 394.092C1068.23 392.181 1070.05 390.264 1071.84 388.343L1072.03 388.513C1073.85 386.552 1075.64 384.585 1077.38 382.614L1077.19 382.448C1078.96 380.451 1080.68 378.45 1082.36 376.443L1082.55 376.603C1084.27 374.545 1085.95 372.481 1087.59 370.413L1087.39 370.258C1089.04 368.167 1090.64 366.072 1092.2 363.972L1092.4 364.121C1094 361.962 1095.55 359.799 1097.05 357.632L1096.84 357.489C1098.36 355.297 1099.82 353.101 1101.23 350.901L1101.44 351.036C1102.89 348.777 1104.29 346.514 1105.63 344.247L1105.41 344.12C1106.77 341.821 1108.07 339.518 1109.31 337.212L1109.53 337.331C1110.79 334.973 1112 332.613 1113.15 330.25L1112.92 330.141C1114.09 327.733 1115.19 325.323 1116.22 322.911L1116.45 323.01C1117.51 320.56 1118.49 318.109 1119.41 315.656L1119.17 315.569C1120.11 313.059 1120.98 310.547 1121.77 308.035L1122.01 308.111C1122.81 305.575 1123.53 303.038 1124.19 300.501L1123.94 300.438C1124.61 297.849 1125.2 295.26 1125.7 292.672L1125.95 292.72C1126.46 290.107 1126.89 287.495 1127.24 284.885L1126.99 284.852C1127.35 282.22 1127.61 279.589 1127.8 276.961L1128.05 276.979C1128.23 274.328 1128.33 271.678 1128.35 269.032L1128.1 269.031C1128.11 266.386 1128.04 263.743 1127.87 261.105L1128.12 261.089C1127.96 258.448 1127.71 255.81 1127.37 253.177L1127.12 253.209C1126.95 251.896 1126.76 250.583 1126.55 249.272C1126.33 247.961 1126.09 246.655 1125.84 245.356L1126.08 245.308C1125.57 242.703 1124.96 240.124 1124.27 237.568L1124.03 237.633C1123.35 235.081 1122.57 232.552 1121.72 230.049L1121.95 229.968C1121.1 227.465 1120.16 224.986 1119.14 222.532L1118.91 222.628C1117.89 220.196 1116.8 217.789 1115.63 215.406L1115.85 215.296C1114.69 212.933 1113.45 210.595 1112.13 208.282L1111.91 208.406C1110.61 206.114 1109.22 203.847 1107.77 201.605L1107.98 201.469C1106.55 199.272 1105.05 197.099 1103.49 194.95L1103.28 195.098C1101.73 192.969 1100.11 190.865 1098.42 188.785L1098.62 188.628C1096.97 186.595 1095.25 184.585 1093.47 182.599L1093.29 182.766C1091.54 180.81 1089.72 178.877 1087.85 176.966L1088.03 176.791C1086.19 174.917 1084.29 173.064 1082.34 171.234L1082.17 171.416C1080.26 169.626 1078.29 167.858 1076.27 166.111L1076.44 165.922C1074.45 164.2 1072.4 162.5 1070.31 160.82L1070.15 161.015C1068.12 159.38 1066.03 157.765 1063.89 156.171L1064.04 155.971C1061.93 154.394 1059.77 152.838 1057.57 151.302L1057.42 151.507C1055.28 150.013 1053.09 148.538 1050.86 147.083L1051 146.873C1048.79 145.433 1046.54 144.012 1044.25 142.611L1044.12 142.824C1041.89 141.457 1039.62 140.109 1037.31 138.78L1037.43 138.563C1035.15 137.25 1032.83 135.955 1030.48 134.678L1030.36 134.898C1028.05 133.646 1025.71 132.412 1023.33 131.196L1023.44 130.973C1021.11 129.778 1018.74 128.6 1016.33 127.438L1016.22 127.663C1013.85 126.516 1011.44 125.385 1009 124.271L1009.11 124.044C1006.73 122.957 1004.32 121.886 1001.88 120.832L1001.78 121.062C999.339 120.008 996.873 118.971 994.377 117.95L994.471 117.719C992.06 116.733 989.621 115.762 987.155 114.806L987.065 115.039C984.601 114.084 982.11 113.144 979.593 112.22L979.679 111.985C977.214 111.08 974.724 110.19 972.209 109.314L972.126 109.55C969.644 108.686 967.138 107.837 964.608 107.002L964.686 106.764C962.169 105.934 959.628 105.118 957.064 104.317L956.99 104.555C954.495 103.776 951.979 103.01 949.442 102.258L949.513 102.018C946.974 101.266 944.413 100.528 941.832 99.8035L941.764 100.044C939.234 99.3344 936.684 98.6382 934.113 97.9555L934.178 97.7139C931.635 97.0387 929.074 96.3769 926.493 95.7285L926.432 95.971C923.853 95.3231 921.255 94.6886 918.639 94.0676L918.696 93.8243C916.154 93.2209 913.594 92.6303 911.016 92.0524L910.962 92.2964C908.385 91.7188 905.791 91.154 903.18 90.6021L903.232 90.3575C900.642 89.8102 898.036 89.2755 895.413 88.7536L895.364 88.9988C892.793 88.4871 890.205 87.9877 887.602 87.5007L887.648 87.2549C885.044 86.7677 882.425 86.2928 879.79 85.8304L879.747 86.0766C877.15 85.6208 874.538 85.1772 871.912 84.7456L871.952 84.4989C869.358 84.0726 866.749 83.6581 864.126 83.2556L864.088 83.5027C861.466 83.1003 858.829 82.7098 856.18 82.3313L856.215 82.0838C853.609 81.7117 850.99 81.3511 848.358 81.0022L848.325 81.2501C845.715 80.9041 843.092 80.5696 840.457 80.2466L840.487 79.9985C837.851 79.6755 835.202 79.364 832.541 79.0641L832.513 79.3125C829.9 79.0181 827.276 78.7349 824.639 78.4629L824.665 78.2142C822.043 77.9438 819.409 77.6845 816.765 77.4364L816.741 77.6853C814.097 77.4372 811.442 77.2004 808.775 76.9749L808.796 76.7257C806.175 76.5039 803.542 76.293 800.899 76.0931L800.88 76.3424C798.252 76.1435 795.613 75.9555 792.964 75.7784L792.981 75.529C790.331 75.3518 787.672 75.1855 785.002 75.0302L784.988 75.2798C782.358 75.1268 779.718 74.9844 777.07 74.8528L777.082 74.6031C774.449 74.4722 771.807 74.3519 769.156 74.2422L769.146 74.492C766.495 74.3823 763.836 74.2832 761.167 74.1948L761.175 73.9449C758.536 73.8575 755.888 73.7805 753.232 73.7139L753.226 73.9638C750.593 73.8979 747.951 73.8422 745.302 73.7969L745.306 73.547C742.656 73.5017 739.997 73.4667 737.331 73.4421L737.328 73.6921C734.681 73.6677 732.026 73.6536 729.364 73.6498L729.364 73.3998C726.732 73.396 724.092 73.4023 721.444 73.4187L721.446 73.6687C718.799 73.6851 716.145 73.7117 713.484 73.7484L713.48 73.4984C710.824 73.535 708.161 73.5817 705.491 73.6387L705.497 73.8886C702.868 73.9446 700.232 74.0105 697.59 74.0863L697.583 73.8364C694.94 73.9123 692.291 73.998 689.635 74.0937L689.644 74.3435C686.989 74.4392 684.327 74.5448 681.659 74.6605L681.649 74.4107C679.016 74.5248 676.377 74.6486 673.732 74.7823L673.745 75.0319C671.109 75.1651 668.467 75.3081 665.819 75.4607L665.805 75.2111C663.156 75.3639 660.502 75.5263 657.843 75.6986L657.859 75.9481C655.218 76.1192 652.572 76.2999 649.921 76.4903L649.903 76.241C647.273 76.4298 644.639 76.6283 641.999 76.8363L642.018 77.0855C639.379 77.2935 636.735 77.5111 634.085 77.7383L634.064 77.4892C631.415 77.7164 628.762 77.9531 626.104 78.1996L626.127 78.4485C623.506 78.6915 620.881 78.9439 618.251 79.2057L618.226 78.9569C615.595 79.2188 612.96 79.4901 610.321 79.7709L610.347 80.0195C607.708 80.3003 605.065 80.5905 602.418 80.8903L602.39 80.6419C599.762 80.9394 597.13 81.2463 594.495 81.5626L594.524 81.8108C591.905 82.1252 589.281 82.4489 586.653 82.782L586.622 82.534C583.993 82.8671 581.361 83.2096 578.726 83.5615L578.759 83.8093C576.126 84.1608 573.489 84.5217 570.848 84.892L570.814 84.6445C568.204 85.0105 565.591 85.3857 562.975 85.7701L563.011 86.0174C560.395 86.4018 557.776 86.7953 555.154 87.1982L555.116 86.9511C552.493 87.354 549.867 87.7662 547.238 88.1876L547.278 88.4345C545.964 88.6452 544.649 88.8582 543.333 89.0736C542.017 89.2889 540.703 89.5062 539.39 89.7255L539.349 89.4789C536.723 89.9175 534.103 90.364 531.488 90.8183L531.531 91.0646C528.917 91.5188 526.309 91.9808 523.707 92.4504L523.663 92.2044C521.061 92.6741 518.464 93.1516 515.874 93.6366L515.92 93.8823C513.3 94.3731 510.685 94.8717 508.077 95.378L508.03 95.1325C505.419 95.6393 502.816 96.1538 500.218 96.6759L500.268 96.921C497.671 97.443 495.081 97.9727 492.497 98.5099L492.446 98.2652C489.847 98.8056 487.255 99.3538 484.67 99.9094L484.722 100.154C482.118 100.714 479.52 101.281 476.929 101.857L476.875 101.612C474.284 102.188 471.7 102.771 469.123 103.361L469.179 103.605C466.603 104.195 464.034 104.793 461.472 105.398L461.415 105.155C458.816 105.769 456.226 106.39 453.643 107.019L453.703 107.262C451.119 107.891 448.543 108.528 445.975 109.173L445.914 108.93C443.346 109.575 440.785 110.226 438.233 110.886L438.295 111.128C435.721 111.793 433.156 112.465 430.599 113.145L430.535 112.903C427.959 113.588 425.391 114.28 422.832 114.979L422.898 115.22C420.34 115.92 417.79 116.627 415.249 117.341L415.182 117.1C412.632 117.817 410.092 118.541 407.56 119.272L407.629 119.512C405.064 120.253 402.508 121.001 399.96 121.757L399.889 121.517C397.342 122.273 394.803 123.037 392.274 123.807L392.347 124.047C389.818 124.817 387.299 125.595 384.79 126.38L384.715 126.141C382.166 126.938 379.627 127.743 377.098 128.555L377.175 128.793C374.641 129.607 372.117 130.428 369.603 131.256L369.525 131.019C367.01 131.847 364.506 132.683 362.012 133.526L362.092 133.762C359.57 134.615 357.058 135.475 354.557 136.342L354.475 136.105C351.955 136.979 349.446 137.86 346.949 138.747L347.033 138.983C344.536 139.871 342.05 140.765 339.575 141.667L339.49 141.433C336.993 142.342 334.508 143.26 332.034 144.184L332.122 144.418C329.621 145.353 327.132 146.294 324.654 147.243L324.565 147.01C322.087 147.959 319.621 148.915 317.168 149.879L317.259 150.112C314.79 151.081 312.334 152.057 309.89 153.041L309.797 152.809C307.316 153.807 304.848 154.812 302.394 155.825L302.489 156.056C300.035 157.068 297.594 158.088 295.166 159.114L295.069 158.884C292.627 159.916 290.199 160.955 287.785 162.002L287.884 162.231C285.429 163.295 282.988 164.366 280.561 165.444L280.459 165.215C278.031 166.294 275.618 167.379 273.219 168.471L273.323 168.699C270.91 169.797 268.513 170.902 266.13 172.014L266.024 171.788C263.598 172.92 261.187 174.06 258.791 175.207L258.899 175.432C256.504 176.579 254.124 177.732 251.761 178.892L251.651 178.667C249.267 179.837 246.9 181.014 244.549 182.197L244.661 182.421C242.27 183.624 239.896 184.835 237.539 186.052L237.425 185.83C235.067 187.048 232.726 188.272 230.402 189.504L230.52 189.724C228.168 190.971 225.834 192.224 223.518 193.484L223.398 193.264C221.048 194.543 218.717 195.828 216.404 197.12L216.526 197.338C214.214 198.629 211.921 199.928 209.647 201.233L209.522 201.016C207.203 202.346 204.903 203.684 202.623 205.028L202.75 205.244C200.451 206.599 198.173 207.962 195.915 209.331L195.785 209.117C193.526 210.486 191.288 211.862 189.071 213.245L189.203 213.457C186.921 214.88 184.661 216.309 182.423 217.745L182.288 217.535C180.049 218.972 177.831 220.416 175.637 221.867L175.775 222.075C173.556 223.542 171.361 225.015 169.189 226.494L169.048 226.288C166.833 227.797 164.641 229.313 162.475 230.835L162.618 231.04C160.453 232.562 158.312 234.09 156.196 235.624L156.05 235.421C153.875 236.998 151.727 238.582 149.606 240.171L149.756 240.371C147.624 241.969 145.519 243.573 143.442 245.184L143.289 244.986C141.184 246.618 139.108 248.256 137.06 249.899L137.217 250.094C135.125 251.773 133.064 253.458 131.033 255.149L130.873 254.957C128.841 256.648 126.839 258.346 124.867 260.05L125.031 260.239C122.991 262.002 120.983 263.772 119.009 265.547L118.842 265.361C116.866 267.138 114.923 268.921 113.013 270.71L113.184 270.892C111.227 272.726 109.306 274.565 107.42 276.411L107.245 276.232C105.337 278.099 103.465 279.972 101.631 281.85L101.81 282.024C99.9438 283.935 98.1161 285.852 96.3275 287.774L96.1445 287.604C94.3194 289.565 92.5351 291.531 90.792 293.503L90.9793 293.668C89.2141 295.665 87.4911 297.667 85.8112 299.674L85.6196 299.513C83.896 301.572 82.2175 303.636 80.5848 305.704L80.7811 305.859C79.1309 307.949 77.5277 310.045 75.9717 312.144L75.7708 311.995C74.171 314.154 72.6214 316.317 71.1224 318.485L71.328 318.627C69.8119 320.819 68.3479 323.015 66.9366 325.215L66.7261 325.08C65.2767 327.34 63.8828 329.603 62.5451 331.869L62.7603 331.996C61.4033 334.296 60.1043 336.598 58.864 338.904L58.6439 338.786C57.3758 341.143 56.1689 343.503 55.0242 345.867L55.2493 345.976C54.0829 348.383 52.9813 350.793 51.9453 353.206L51.7156 353.107C50.6637 355.556 49.679 358.008 48.7629 360.46L48.997 360.548C48.0596 363.058 47.1938 365.569 46.4008 368.081L46.1625 368.006C45.3619 370.542 44.6353 373.079 43.9837 375.616L44.2259 375.678C43.5609 378.267 42.9744 380.856 42.4671 383.445L42.2218 383.397C41.7099 386.009 41.2787 388.621 40.9293 391.232L41.1771 391.265C40.8248 393.897 40.556 396.527 40.3715 399.155L40.1221 399.138C39.9361 401.789 39.8359 404.438 39.8227 407.084L40.0727 407.085C40.0595 409.731 40.1334 412.373 40.2957 415.012L40.0462 415.027Z" stroke="#A28276" stroke-width="0.5" stroke-dasharray="8 8"/>
</svg>
