<svg width="24" height="24" viewBox="0 0 24 24" fill="#FD9F32" xmlns="http://www.w3.org/2000/svg">
<path d="M4.57199 4.57498C4.85328 4.29378 5.23475 4.1358 5.63249 4.1358C6.03024 4.1358 6.4117 4.29378 6.69299 4.57498L11.997 9.87898L17.301 4.57498C17.5839 4.30175 17.9628 4.15055 18.3561 4.15397C18.7494 4.15739 19.1256 4.31514 19.4037 4.59326C19.6818 4.87137 19.8396 5.24759 19.843 5.64088C19.8464 6.03418 19.6952 6.41308 19.422 6.69598L14.118 12L19.422 17.304C19.6952 17.5869 19.8464 17.9658 19.843 18.3591C19.8396 18.7524 19.6818 19.1286 19.4037 19.4067C19.1256 19.6848 18.7494 19.8426 18.3561 19.846C17.9628 19.8494 17.5839 19.6982 17.301 19.425L11.997 14.121L6.69299 19.425C6.41009 19.6982 6.03119 19.8494 5.63789 19.846C5.2446 19.8426 4.86838 19.6848 4.59026 19.4067C4.31215 19.1286 4.1544 18.7524 4.15098 18.3591C4.14756 17.9658 4.29875 17.5869 4.57199 17.304L9.87599 12L4.57199 6.69598C4.29079 6.41469 4.13281 6.03323 4.13281 5.63548C4.13281 5.23774 4.29079 4.85627 4.57199 4.57498V4.57498Z"/>
</svg>
