<svg width="32" height="32" viewBox="0 0 32 32" fill="none" xmlns="http://www.w3.org/2000/svg">
<path fill-rule="evenodd" clip-rule="evenodd" d="M0 13.5C0 11.568 1.568 10 3.5 10H6.5C6.89782 10 7.27936 10.158 7.56066 10.4393C7.84196 10.7206 8 11.1022 8 11.5C8 11.8978 7.84196 12.2794 7.56066 12.5607C7.27936 12.842 6.89782 13 6.5 13H3.5C3.36739 13 3.24021 13.0527 3.14645 13.1464C3.05268 13.2402 3 13.3674 3 13.5V28.5C3 28.776 3.224 29 3.5 29H18.5C18.6326 29 18.7598 28.9473 18.8536 28.8536C18.9473 28.7598 19 28.6326 19 28.5V25.5C19 25.1022 19.158 24.7206 19.4393 24.4393C19.7206 24.158 20.1022 24 20.5 24C20.8978 24 21.2794 24.158 21.5607 24.4393C21.842 24.7206 22 25.1022 22 25.5V28.5C22 29.4283 21.6313 30.3185 20.9749 30.9749C20.3185 31.6313 19.4283 32 18.5 32H3.5C2.57174 32 1.6815 31.6313 1.02513 30.9749C0.368749 30.3185 0 29.4283 0 28.5L0 13.5Z" fill="#FD9F32"/>
<path fill-rule="evenodd" clip-rule="evenodd" d="M10 3.5C10 1.568 11.568 0 13.5 0H28.5C30.432 0 32 1.568 32 3.5V18.5C32 19.4283 31.6313 20.3185 30.9749 20.9749C30.3185 21.6313 29.4283 22 28.5 22H13.5C12.5717 22 11.6815 21.6313 11.0251 20.9749C10.3687 20.3185 10 19.4283 10 18.5V3.5ZM13.5 3C13.3674 3 13.2402 3.05268 13.1464 3.14645C13.0527 3.24021 13 3.36739 13 3.5V18.5C13 18.776 13.224 19 13.5 19H28.5C28.6326 19 28.7598 18.9473 28.8536 18.8536C28.9473 18.7598 29 18.6326 29 18.5V3.5C29 3.36739 28.9473 3.24021 28.8536 3.14645C28.7598 3.05268 28.6326 3 28.5 3H13.5Z" fill="#FD9F32"/>
</svg>
