<svg width="51" height="50" viewBox="0 0 51 50" fill="none" xmlns="http://www.w3.org/2000/svg">
<circle cx="25.5" cy="25" r="25" fill="#FD9F32"/>
<path d="M15.6012 16.1C15.9763 15.725 16.4849 15.5144 17.0152 15.5144C17.5455 15.5144 18.0541 15.725 18.4292 16.1L25.5012 23.172L32.5732 16.1C32.9504 15.7357 33.4556 15.5341 33.98 15.5386C34.5044 15.5432 35.006 15.7535 35.3768 16.1243C35.7477 16.4952 35.958 16.9968 35.9625 17.5212C35.9671 18.0456 35.7655 18.5508 35.4012 18.928L28.3292 26L35.4012 33.072C35.7655 33.4492 35.9671 33.9544 35.9625 34.4788C35.958 35.0032 35.7477 35.5048 35.3768 35.8756C35.006 36.2464 34.5044 36.4568 33.98 36.4613C33.4556 36.4659 32.9504 36.2643 32.5732 35.9L25.5012 28.828L18.4292 35.9C18.052 36.2643 17.5468 36.4659 17.0224 36.4613C16.498 36.4568 15.9964 36.2464 15.6256 35.8756C15.2547 35.5048 15.0444 35.0032 15.0398 34.4788C15.0353 33.9544 15.2369 33.4492 15.6012 33.072L22.6732 26L15.6012 18.928C15.2263 18.5529 15.0156 18.0443 15.0156 17.514C15.0156 16.9836 15.2263 16.475 15.6012 16.1Z" fill="white"/>
</svg>
