<svg width="40" height="40" viewBox="0 0 40 40" fill="none" xmlns="http://www.w3.org/2000/svg">
<path d="M29.3553 25.8603C31.776 22.557 32.8602 18.4615 32.391 14.3931C31.9218 10.3248 29.9338 6.5836 26.8247 3.91808C23.7156 1.25255 19.7147 -0.14074 15.6224 0.016943C11.5301 0.174626 7.64825 1.87166 4.75346 4.76852C1.85867 7.66538 0.164418 11.5484 0.00966321 15.6408C-0.145091 19.7332 1.25106 23.7332 3.91881 26.8404C6.58656 29.9476 10.3292 31.9329 14.3978 32.3992C18.4665 32.8655 22.5612 31.7784 25.8628 29.3553H25.8603C25.9353 29.4553 26.0153 29.5503 26.1053 29.6428L35.7303 39.2678C36.1991 39.7369 36.835 40.0005 37.4981 40.0008C38.1613 40.001 38.7974 39.7378 39.2665 39.269C39.7356 38.8002 39.9993 38.1643 39.9995 37.5011C39.9998 36.838 39.7366 36.2019 39.2678 35.7328L29.6428 26.1078C29.5534 26.0173 29.4573 25.9337 29.3553 25.8578V25.8603ZM30.0003 16.2503C30.0003 18.0559 29.6446 19.8439 28.9536 21.5121C28.2626 23.1804 27.2498 24.6962 25.973 25.973C24.6962 27.2498 23.1804 28.2626 21.5122 28.9536C19.844 29.6446 18.056 30.0003 16.2503 30.0003C14.4446 30.0003 12.6566 29.6446 10.9884 28.9536C9.32017 28.2626 7.80438 27.2498 6.52757 25.973C5.25077 24.6962 4.23795 23.1804 3.54695 21.5121C2.85595 19.8439 2.50029 18.0559 2.50029 16.2503C2.50029 12.6035 3.94895 9.10616 6.52757 6.52753C9.1062 3.94891 12.6036 2.50025 16.2503 2.50025C19.897 2.50025 23.3944 3.94891 25.973 6.52753C28.5516 9.10616 30.0003 12.6035 30.0003 16.2503Z" fill="white"/>
</svg>
