<svg width="28" height="24" viewBox="0 0 28 24" fill="none" xmlns="http://www.w3.org/2000/svg">
<path fill-rule="evenodd" clip-rule="evenodd" d="M6 18.5C6 17.9477 6.44772 17.5 7 17.5H10C10.5523 17.5 11 17.9477 11 18.5V23H10V18.5L7 18.5V23H6V18.5Z" fill="#FD9F32"/>
<path fill-rule="evenodd" clip-rule="evenodd" d="M12.4717 1.43762C12.5046 0.910588 12.9417 0.5 13.4697 0.5H18.0375C18.5596 0.5 18.9938 0.901622 19.0345 1.42211L20.2485 16.9611L19.2515 17.0389L18.0375 1.5L13.4697 1.5L12.749 13.0312L11.751 12.9688L12.4717 1.43762Z" fill="#664B42"/>
<path fill-rule="evenodd" clip-rule="evenodd" d="M27 17.5H15.5V16.5H27C27.5523 16.5 28 16.9477 28 17.5V22.5C28 23.0523 27.5523 23.5 27 23.5H14V22.5H27V17.5Z" fill="#664B42"/>
<path fill-rule="evenodd" clip-rule="evenodd" d="M21.9591 6.90519C22.008 6.39195 22.439 6 22.9546 6H26.0424C26.5604 6 26.9926 6.39552 27.0385 6.91146L27.998 17.7057L27.0019 17.7943L26.0424 7L22.9546 7L21.9977 17.0474L21.0022 16.9526L21.9591 6.90519Z" fill="#664B42"/>
<path fill-rule="evenodd" clip-rule="evenodd" d="M7.64561 9.83075C8.00294 9.55967 8.49706 9.55967 8.85439 9.83075L8.25 10.6274L1.5 15.7481L1.5 22.4998H15V15.7481L8.25 10.6274L8.85439 9.83075L15.6044 14.9514C15.8536 15.1405 16 15.4353 16 15.7481V22.4998C16 23.0521 15.5523 23.4998 15 23.4998H1.5C0.947715 23.4998 0.5 23.0521 0.5 22.4998V15.7481C0.5 15.4353 0.64639 15.1405 0.895614 14.9514L7.64561 9.83075Z" fill="#FD9F32"/>
</svg>

