<svg width="20" height="20" viewBox="0 0 20 20" fill="none" xmlns="http://www.w3.org/2000/svg">
<g clip-path="url(#clip0_1171_14094)">
<path d="M18.8302 0.969941C18.1493 0.317441 17.3982 -0.0131836 16.5963 -0.0131836C15.3425 -0.0131836 14.4278 0.796816 14.1775 1.04494C13.8253 1.39369 1.81126 13.4121 1.81126 13.4121C1.73252 13.4912 1.67568 13.5894 1.64628 13.6971C1.37534 14.6984 0.018154 19.1409 0.00467745 19.1856C-0.0649905 19.4131 -0.00282255 19.6609 0.16499 19.8287C0.283367 19.9467 0.443724 20.0131 0.610908 20.0131C0.675595 20.0131 0.740888 20.0034 0.804638 19.9824C0.850576 19.9674 5.4362 18.4853 6.19087 18.26C6.29044 18.2299 6.38119 18.1761 6.45524 18.1031C6.93212 17.6318 18.1374 6.55119 18.8812 5.78307C19.6506 4.99025 20.0327 4.16463 20.0181 3.32963C20.0027 2.50525 19.6031 1.7115 18.8302 0.969941ZM13.9785 3.04369C14.2969 3.12088 15.0479 3.37303 15.8147 4.1468C16.5897 4.92867 16.7994 5.82242 16.8385 6.02586C14.381 8.47055 8.72411 14.0674 6.49411 16.2734C6.28817 15.7937 5.95536 15.2159 5.42003 14.6765C4.7663 14.0177 4.10097 13.6456 3.58784 13.4362C5.79472 11.229 11.5582 5.46307 13.9785 3.04369ZM2.73911 14.4912C3.08255 14.5824 3.79597 14.8471 4.52317 15.5802C5.08317 16.1449 5.34755 16.7677 5.4663 17.1474C4.59755 17.4268 2.69536 18.0833 1.48661 18.473C1.84474 17.2946 2.44972 15.4593 2.73911 14.4912ZM17.9741 4.8899C17.9347 4.9301 17.8952 4.97021 17.8556 5.01021C17.6581 4.50145 17.3116 3.84771 16.7116 3.24271C16.0984 2.62459 15.4766 2.2599 14.9782 2.04428C15.0206 2.00209 15.0534 1.96895 15.0663 1.95646C15.1378 1.88582 15.7869 1.26553 16.5959 1.26553C17.0616 1.26553 17.5188 1.47803 17.9557 1.89678C18.4734 2.39334 18.7403 2.88334 18.7491 3.35365C18.7575 3.83365 18.4969 4.35053 17.9741 4.8899Z" fill="#664B42"/>
</g>
<defs>
<clipPath id="clip0_1171_14094">
<rect width="20" height="20" fill="white"/>
</clipPath>
</defs>
</svg>
