<svg width="32" height="32" viewBox="0 0 32 32" fill="none" xmlns="http://www.w3.org/2000/svg">
<path d="M24 13H22C21.9992 12.2046 21.6829 11.442 21.1204 10.8796C20.558 10.3171 19.7954 10.0008 19 10V8C20.3256 8.00159 21.5964 8.52888 22.5338 9.46622C23.4711 10.4036 23.9984 11.6744 24 13V13Z" fill="#FD9F32"/>
<path d="M28.001 13H26.001C25.9989 11.1441 25.2607 9.36489 23.9484 8.05259C22.6361 6.7403 20.8569 6.00212 19.001 6V4C21.3871 4.00265 23.6748 4.95171 25.3621 6.63896C27.0493 8.32622 27.9984 10.6139 28.001 13V13ZM26.001 29H25.831C6.18101 27.87 3.39101 11.29 3.00101 6.23C2.94006 5.43675 3.1967 4.65177 3.71447 4.04772C4.23225 3.44368 4.96877 3.07004 5.76201 3.009C5.84135 3.003 5.92101 3 6.00101 3H11.271C11.6716 2.99961 12.063 3.11951 12.3946 3.34416C12.7263 3.56881 12.9828 3.88787 13.131 4.26L14.651 8C14.7974 8.36355 14.8337 8.76208 14.7555 9.14609C14.6772 9.5301 14.4879 9.88267 14.211 10.16L12.081 12.31C12.4124 14.2013 13.3174 15.945 14.6733 17.3045C16.0293 18.664 17.7706 19.5737 19.661 19.91L21.831 17.76C22.1125 17.4862 22.4684 17.3013 22.8543 17.2283C23.2402 17.1554 23.639 17.1977 24.001 17.35L27.771 18.86C28.1375 19.0129 28.4502 19.2714 28.6693 19.6027C28.8883 19.9339 29.0038 20.3229 29.001 20.72V26C29.001 26.7956 28.6849 27.5587 28.1223 28.1213C27.5597 28.6839 26.7967 29 26.001 29ZM6.00101 5C5.86969 4.99961 5.73958 5.02508 5.6181 5.07497C5.49662 5.12486 5.38616 5.19819 5.29303 5.29077C5.19989 5.38335 5.1259 5.49337 5.07528 5.61455C5.02466 5.73572 4.99841 5.86568 4.99801 5.997C4.99801 6.025 4.99901 6.05267 5.00101 6.08C5.46101 12 8.41101 26 25.941 27C26.2057 27.0159 26.4658 26.926 26.6642 26.7501C26.8626 26.5742 26.983 26.3267 26.999 26.062L27.001 26V20.72L23.231 19.21L20.361 22.06L19.881 22C11.181 20.91 10.001 12.21 10.001 12.12L9.94101 11.64L12.781 8.77L11.281 5H6.00101Z" fill="#FD9F32"/>
</svg>
