<svg width="33" height="32" viewBox="0 0 33 32" fill="none" xmlns="http://www.w3.org/2000/svg">
<g clip-path="url(#clip0_1700_6146)">
<path d="M16.4981 0.100098C7.7311 0.100098 0.600098 7.2341 0.600098 16.0031C0.600098 24.7691 7.7311 31.9001 16.4981 31.9001C25.2671 31.9001 32.4001 24.7681 32.4001 16.0031C32.4001 7.2341 25.2661 0.100098 16.4981 0.100098ZM16.4981 31.1001C8.1731 31.1001 1.4001 24.3271 1.4001 16.0031C1.4001 7.6751 8.1731 0.900098 16.4981 0.900098C24.8251 0.900098 31.6001 7.6751 31.6001 16.0031C31.6001 24.3271 24.8251 31.1001 16.4981 31.1001Z" fill="#664B42"/>
<path d="M23.232 17.212C23.9135 16.648 24.36 15.7785 24.36 14.815C24.36 13.1935 23.044 11.76 21.54 11.76C20.036 11.76 18.72 13.1935 18.72 14.815C18.72 15.7785 19.1665 16.648 19.848 17.212C19.5425 17.3295 19.2605 17.447 18.9785 17.6115C18.0855 16.554 16.9105 15.7315 15.5475 15.332C16.5815 14.6035 17.31 13.358 17.31 11.995C17.31 9.8565 15.5475 8 13.55 8C11.5525 8 9.79 9.8565 9.79 11.995C9.79 13.358 10.5185 14.6035 11.5525 15.332C8.6385 16.2015 6.5 18.904 6.5 22.1C6.5 22.3585 6.7115 22.57 6.97 22.57H26.24C26.4985 22.57 26.71 22.3585 26.71 22.1C26.71 19.844 25.253 17.917 23.232 17.212ZM19.66 14.815C19.66 13.828 20.4825 12.7 21.54 12.7C22.5975 12.7 23.42 13.828 23.42 14.815C23.42 15.802 22.5975 16.93 21.54 16.93C20.4825 16.93 19.66 15.802 19.66 14.815ZM10.73 11.995C10.73 10.5615 11.9285 8.94 13.55 8.94C15.1715 8.94 16.37 10.5615 16.37 11.995C16.37 13.4285 15.1715 15.05 13.55 15.05C11.9285 15.05 10.73 13.4285 10.73 11.995ZM7.4635 21.63C7.6985 18.481 10.354 15.99 13.55 15.99C16.7695 15.99 19.4015 18.481 19.6365 21.63H7.4635ZM20.5765 21.63C20.506 20.455 20.13 19.327 19.519 18.387C20.13 18.058 20.8115 17.87 21.54 17.87C23.7255 17.87 25.5115 19.515 25.7465 21.63H20.5765Z" fill="#FD9F32"/>
</g>
<defs>
<clipPath id="clip0_1700_6146">
<rect width="32" height="32" fill="white" transform="translate(0.5)"/>
</clipPath>
</defs>
</svg>
