<svg width="120" height="120" viewBox="0 0 120 120" fill="none" xmlns="http://www.w3.org/2000/svg">
<path d="M31.0945 37.0491C18.921 42.0378 0.681178 60.0042 5.77151 72.4257C10.8618 84.8473 36.3752 84.6298 48.5487 79.6411C60.7222 74.6525 80.3541 56.3694 75.2637 43.9479C70.1734 31.5264 43.268 32.0605 31.0945 37.0491Z" fill="#F5EFE6" stroke="#B69D86" stroke-width="2"/>
<path d="M66.7193 46.7293C67.2303 46.5199 67.8143 46.7644 68.0238 47.2755C68.2332 47.7865 67.9887 48.3706 67.4776 48.58L66.7193 46.7293ZM56.4886 53.0833C55.9776 53.2927 55.3935 53.0482 55.1841 52.5371C54.9747 52.0261 55.2192 51.4421 55.7302 51.2326L56.4886 53.0833ZM67.4776 48.58L56.4886 53.0833L55.7302 51.2326L66.7193 46.7293L67.4776 48.58Z" fill="#B69D86"/>
<path d="M50.2341 53.4838C50.7452 53.2744 51.3292 53.5189 51.5386 54.0299C51.7481 54.541 51.5035 55.125 50.9925 55.3344L50.2341 53.4838ZM18.0254 68.8443C17.5144 69.0537 16.9303 68.8092 16.7209 68.2982C16.5115 67.7872 16.756 67.2031 17.267 66.9937L18.0254 68.8443ZM50.9925 55.3344L18.0254 68.8443L17.267 66.9937L50.2341 53.4838L50.9925 55.3344Z" fill="#B69D86"/>
<g clip-path="url(#clip0_2_1322)">
<path d="M33.1249 32.2217C18.6721 38.1444 -2.98279 59.4746 3.06061 74.2219C9.10401 88.9691 39.3942 88.711 53.847 82.7882C68.2997 76.8655 91.6073 55.1594 85.5639 40.4121C79.5205 25.6649 47.5776 26.299 33.1249 32.2217Z" fill="#F5EFE6" stroke="#B69D86" stroke-width="2"/>
<path d="M75.4908 43.8874C76.0019 43.678 76.5859 43.9225 76.7953 44.4336C77.0048 44.9446 76.7603 45.5286 76.2492 45.7381L75.4908 43.8874ZM63.2027 51.0845C62.6917 51.2939 62.1076 51.0494 61.8982 50.5384C61.6888 50.0273 61.9333 49.4433 62.4443 49.2339L63.2027 51.0845ZM76.2492 45.7381L63.2027 51.0845L62.4443 49.2339L75.4908 43.8874L76.2492 45.7381Z" fill="#B69D86"/>
<path d="M55.9189 51.9068C56.43 51.6974 57.014 51.9419 57.2234 52.4529C57.4329 52.9639 57.1884 53.548 56.6773 53.7574L55.9189 51.9068ZM17.5378 69.7967C17.0267 70.0062 16.4427 69.7617 16.2333 69.2506C16.0238 68.7396 16.2684 68.1555 16.7794 67.9461L17.5378 69.7967ZM56.6773 53.7574L17.5378 69.7967L16.7794 67.9461L55.9189 51.9068L56.6773 53.7574Z" fill="#B69D86"/>
</g>
<path fill-rule="evenodd" clip-rule="evenodd" d="M71.307 17.4829C61.8577 17.4829 52.7953 21.2613 46.1136 27.987C39.4319 34.7126 35.6782 43.8346 35.6782 53.3461C35.6782 62.8576 39.4319 71.9795 46.1136 78.7052C52.7953 85.4308 61.8577 89.2092 71.307 89.2092C80.7564 89.2092 89.8187 85.4308 96.5004 78.7052C103.182 71.9795 106.936 62.8576 106.936 53.3461C106.936 43.8346 103.182 34.7126 96.5004 27.987C89.8187 21.2613 80.7564 17.4829 71.307 17.4829ZM42.9645 24.8171C50.4814 17.2507 60.6765 13 71.307 13C81.9375 13 92.1327 17.2507 99.6496 24.8171C107.166 32.3834 111.389 42.6456 111.389 53.3461C111.389 62.6572 108.192 71.6365 102.409 78.7965C101.746 79.6175 101.774 80.8119 102.517 81.5612L118.247 97.4221C119.021 98.2028 119.02 99.462 118.244 100.241L117.914 100.573C117.131 101.36 115.858 101.359 115.076 100.571L99.3915 84.7545C98.6397 83.9964 97.4283 83.9669 96.6023 84.6433C89.4873 90.4702 80.5622 93.6921 71.307 93.6921C60.6765 93.6921 50.4814 89.4414 42.9645 81.875C35.4476 74.3087 31.2246 64.0465 31.2246 53.3461C31.2246 42.6456 35.4476 32.3834 42.9645 24.8171Z" fill="#FD9F32"/>
<defs>
<clipPath id="clip0_2_1322">
<rect x="33.6465" y="17" width="74" height="74" rx="37" fill="white"/>
</clipPath>
</defs>
</svg>
