<svg width="120" height="120" viewBox="0 0 120 120" fill="none" xmlns="http://www.w3.org/2000/svg">
<path d="M104.705 79.7713L40.6191 108.626C36.532 110.466 31.7564 108.314 29.988 104.386L5.84443 50.7636C3.99067 46.6464 6.22606 42.3146 9.99797 40.6163L24.4931 34.0899C22.7325 24.7084 27.7229 14.7569 36.4386 10.8326C45.1543 6.90843 55.9132 9.76883 61.7715 17.3054L74.0838 11.7618C77.9564 10.0182 82.4926 11.3798 84.3169 15.4316L108.46 69.0544C110.387 73.3325 108.453 78.0836 104.705 79.7713ZM11.7646 44.5399C9.93093 45.3655 9.00547 47.3033 9.76805 48.997L33.9116 102.62C34.6954 104.361 36.9639 105.552 38.8525 104.702L102.938 75.8476C104.68 75.0633 105.338 72.601 104.537 70.821L80.3933 17.1982C79.9928 16.3088 78.2451 14.6072 75.8504 15.6854L61.9202 21.9575C60.9459 22.3962 59.7985 22.0523 59.2233 21.152C54.8917 14.3579 45.4639 11.4881 38.2052 14.7563C30.9478 18.0239 26.8456 26.9856 29.0624 34.7319C29.3551 35.7594 28.8506 36.847 27.8763 37.2857L11.7646 44.5399Z" fill="#FD9F32"/>
<path d="M52.2731 46.0014C44.3775 49.5564 35.0607 46.0247 31.5057 38.129C27.9501 30.2321 31.4819 20.9153 39.3775 17.3603C47.2745 13.8047 56.5913 17.3365 60.1469 25.2334C63.7019 33.129 60.1701 42.4458 52.2731 46.0014ZM41.1441 21.2839C35.4117 23.8649 32.8477 30.6287 35.4293 36.3624C38.0103 42.0948 44.7741 44.6588 50.5065 42.0778C56.2403 39.4962 58.8042 32.7324 56.2232 27C53.6416 21.2663 46.8779 18.7023 41.1441 21.2839Z" fill="#FD9F32"/>
<path d="M45.14 34.5951L37.5742 26.9764L47.5241 31.0128C48.6469 31.4699 49.1888 32.7502 48.7336 33.8738C48.277 34.9979 46.9981 35.5392 45.8739 35.0827C45.5921 34.9704 45.3418 34.7953 45.14 34.5951Z" fill="#FD9F32"/>
<path d="M71.0322 32.1478C63.8768 38.0476 55.3456 53.9518 61.3656 61.253C67.3857 68.5542 84.5189 63.0826 91.6743 57.1827C98.8297 51.2828 108.232 34.8749 102.212 27.5738C96.192 20.2726 78.1876 26.2479 71.0322 32.1478Z" fill="#F5EFE6"/>
<path fill-rule="evenodd" clip-rule="evenodd" d="M101.238 42.6235C98.7821 48.2911 94.7045 53.7713 91.2267 56.6388C87.7514 59.5044 81.7902 62.3038 75.956 63.4772C73.0442 64.0628 70.2048 64.2348 67.75 63.8313C65.2985 63.4283 63.2758 62.4606 61.9103 60.8046C60.5445 59.148 59.9734 56.9691 60.0356 54.4724C60.0979 51.9728 60.7955 49.2018 61.9125 46.4391C64.1507 40.9032 68.0087 35.5551 71.4815 32.6917C74.9569 29.8261 81.1379 26.8992 87.1965 25.5997C90.2205 24.9511 93.171 24.7176 95.7088 25.0766C98.2455 25.4354 100.312 26.3759 101.669 28.0222C103.026 29.668 103.549 31.8666 103.408 34.4118C103.268 36.9588 102.464 39.7944 101.238 42.6235ZM104.816 34.4896C104.969 31.7205 104.41 29.1302 102.757 27.1253C101.104 25.121 98.6622 24.0705 95.9063 23.6806C93.1516 23.2909 90.025 23.5511 86.9009 24.2212C80.6634 25.559 74.2646 28.5696 70.5846 31.6039C66.902 34.6403 62.9166 40.1943 60.6054 45.9107C59.4477 48.7742 58.694 51.7169 58.6262 54.4372C58.5583 57.1603 59.1784 59.7074 60.8226 61.7015C62.4671 63.696 64.8436 64.7823 67.5213 65.2225C70.1958 65.6621 73.2156 65.4664 76.234 64.8593C82.2604 63.6473 88.4435 60.7609 92.1236 57.7266C95.8012 54.6943 100.002 49.0206 102.532 43.184C103.798 40.261 104.663 37.2569 104.816 34.4896Z" fill="#B69D86"/>
<path fill-rule="evenodd" clip-rule="evenodd" d="M98.032 31.3255C97.7843 31.0251 97.3401 30.9824 97.0397 31.2301L90.5805 36.5559C90.2801 36.8035 90.2374 37.2478 90.4851 37.5482C90.7327 37.8486 91.177 37.8913 91.4774 37.6436L97.9366 32.3178C98.237 32.0702 98.2797 31.6259 98.032 31.3255Z" fill="#B69D86"/>
<path fill-rule="evenodd" clip-rule="evenodd" d="M88.3426 39.3143C88.0949 39.0139 87.6506 38.9712 87.3502 39.2188L67.9727 55.1963C67.6723 55.4439 67.6296 55.8882 67.8772 56.1886C68.1249 56.489 68.5692 56.5317 68.8696 56.284L88.2471 40.3066C88.5475 40.0589 88.5902 39.6146 88.3426 39.3143Z" fill="#B69D86"/>
<path d="M42.5913 60.2757C36.1686 55.6956 21.2234 52.1875 16.5499 58.7411C11.8765 65.2946 20.144 78.1669 26.5666 82.7471C32.9893 87.3272 48.5403 91.4401 53.2137 84.8866C57.8872 78.3331 49.014 64.8558 42.5913 60.2757Z" fill="#F5EFE6"/>
<path fill-rule="evenodd" clip-rule="evenodd" d="M40.6336 87.3992C35.4364 86.6291 30.0361 84.4853 26.9144 82.2592C23.7949 80.0347 20.1825 75.7532 17.934 71.2181C16.8118 68.9546 16.0454 66.6596 15.8365 64.5538C15.6279 62.4509 15.9777 60.576 17.0377 59.0895C18.0981 57.6026 19.7625 56.6537 21.8276 56.1552C23.895 55.6561 26.3253 55.6192 28.841 55.9287C33.8822 56.549 39.1256 58.5413 42.2428 60.7642C45.3623 62.9888 49.1279 67.4229 51.5294 72.1147C52.728 74.4564 53.5694 76.8291 53.8331 78.9933C54.0968 81.1565 53.7789 83.0611 52.7251 84.5388C51.6717 86.016 49.9804 86.9298 47.8583 87.3746C45.7347 87.8198 43.2279 87.7836 40.6336 87.3992ZM48.1043 88.5483C50.4131 88.0643 52.4182 87.0346 53.7015 85.2351C54.9844 83.436 55.31 81.1984 55.0236 78.8483C54.7373 76.4991 53.8352 73.9876 52.5969 71.5683C50.1245 66.738 46.2422 62.1434 42.9391 59.7879C39.6336 57.4307 34.193 55.3789 28.9875 54.7385C26.3799 54.4177 23.7962 54.4463 21.5462 54.9895C19.2939 55.5332 17.3377 56.6034 16.0613 58.3933C14.7846 60.1836 14.4153 62.3753 14.6432 64.6722C14.8707 66.9664 15.6963 69.4045 16.8596 71.7508C19.1822 76.4353 22.9149 80.88 26.2181 83.2356C29.5191 85.5896 35.1056 87.7924 40.4578 88.5854C43.1383 88.9826 45.797 89.032 48.1043 88.5483Z" fill="#B69D86"/>
<path fill-rule="evenodd" clip-rule="evenodd" d="M49.2105 82.2782C49.4028 82.0085 49.3401 81.6341 49.0704 81.4418L43.2727 77.3074C43.0031 77.1151 42.6286 77.1778 42.4364 77.4474C42.2441 77.717 42.3068 78.0915 42.5764 78.2837L48.3742 82.4182C48.6438 82.6105 49.0182 82.5478 49.2105 82.2782Z" fill="#B69D86"/>
<path fill-rule="evenodd" clip-rule="evenodd" d="M40.5142 76.0753C40.7065 75.8057 40.6438 75.4312 40.3742 75.239L22.9809 62.8355C22.7113 62.6432 22.3368 62.7059 22.1445 62.9756C21.9523 63.2452 22.015 63.6196 22.2846 63.8119L39.6779 76.2153C39.9475 76.4076 40.3219 76.3449 40.5142 76.0753Z" fill="#B69D86"/>
</svg>
