<svg width="38" height="52" viewBox="0 0 38 52" fill="none" xmlns="http://www.w3.org/2000/svg">
<path fill-rule="evenodd" clip-rule="evenodd" d="M0.293457 49.4279V2.57135C0.293457 1.37241 1.26626 0.399612 2.46519 0.399612H21.4504L37.7064 16.6556V49.4279C37.7064 50.6268 36.7336 51.5996 35.5347 51.5996H2.46519C1.26626 51.5996 0.293457 50.6268 0.293457 49.4279Z" fill="#B69D86"/>
<path fill-rule="evenodd" clip-rule="evenodd" d="M21.4502 0.400249L37.7062 16.6562H23.6219C22.423 16.6562 21.4502 15.6834 21.4502 14.4845V0.400249Z" fill="#FD9F32"/>
<path d="M6.02344 45.201V37.1797H9.76673C10.6694 37.1797 11.352 37.3997 11.8147 37.8396C12.285 38.272 12.5201 38.8674 12.5201 39.6259C12.5201 40.3768 12.285 40.9761 11.8147 41.4236C11.352 41.8635 10.6694 42.0835 9.76673 42.0835H7.79837V45.201H6.02344ZM7.79837 40.7068H9.53917C9.96394 40.7068 10.2787 40.612 10.4835 40.4224C10.6959 40.2327 10.8021 39.9672 10.8021 39.6259C10.8021 39.2846 10.6959 39.0229 10.4835 38.8408C10.2787 38.6512 9.96394 38.5564 9.53917 38.5564H7.79837V40.7068Z" fill="white"/>
<path d="M13.7012 45.201V37.1797H16.7618C17.6948 37.1797 18.4837 37.339 19.1284 37.6576C19.7732 37.9761 20.2586 38.435 20.5848 39.0343C20.9185 39.6259 21.0854 40.3427 21.0854 41.1847C21.0854 42.019 20.9185 42.7358 20.5848 43.3351C20.2586 43.9343 19.7732 44.397 19.1284 44.7232C18.4837 45.0417 17.6948 45.201 16.7618 45.201H13.7012ZM15.4761 43.7447H16.6594C17.5545 43.7447 18.2182 43.5361 18.6505 43.1189C19.0905 42.6941 19.3105 42.0494 19.3105 41.1847C19.3105 40.3124 19.0905 39.6676 18.6505 39.2504C18.2182 38.8333 17.5545 38.6247 16.6594 38.6247H15.4761V43.7447Z" fill="white"/>
<path d="M22.479 45.201V37.1797H27.9289V38.5564H24.2539V40.5134H27.6673V41.8787H24.2539V45.201H22.479Z" fill="white"/>
</svg>
