<svg width="197" height="207" viewBox="0 0 197 207" fill="none" xmlns="http://www.w3.org/2000/svg">
<path d="M91.5184 107.489C90.9552 106.082 90.9955 104.514 90.9955 102.906C90.9955 102.183 90.392 101.741 89.869 101.339C88.0184 100.012 86.2483 98.6452 84.5586 97.1578C84.0356 96.6754 83.6333 96.7558 83.1908 97.2382C82.2253 98.2432 81.1391 99.208 80.2138 100.253C79.6103 100.977 78.7655 101.339 78.0816 101.982C77.3977 102.625 76.6735 102.102 76.0701 101.66C72.4091 98.8462 69.0298 95.7508 65.6103 92.6555C61.7079 89.1582 57.7251 85.6608 54.0642 81.8821C51.932 79.6711 49.9607 77.2592 47.7883 75.0884C43.6848 71.0283 39.5009 67.0486 35.5181 62.908C27.3112 54.3858 18.0583 46.9489 9.56971 38.7483C6.55245 35.7735 3.57542 32.7988 0.55816 29.824C-0.045292 29.2612 -0.125752 28.7386 0.155859 27.9347C0.51793 26.9699 1.00069 26.1257 1.64437 25.3619C3.85703 22.7489 6.06968 20.136 8.28234 17.4828C11.0582 14.1463 13.7939 10.7696 16.5295 7.43301C17.495 6.26723 17.495 6.26723 18.5813 7.35261C20.6732 9.48318 22.7652 11.5735 24.8571 13.6639C39.5814 28.618 54.3458 43.5722 68.9493 58.6871C76.754 66.7672 84.5989 74.8472 92.4035 82.9273C93.0472 83.5705 93.8116 84.1735 94.0932 85.0578C94.4552 86.1834 93.1276 86.304 92.7253 87.0276C91.8805 88.515 90.5932 89.721 89.4265 90.9269C88.9839 91.3691 88.7828 91.7309 89.346 92.2535C90.8748 93.6203 92.323 95.0273 93.8116 96.4744C94.4955 97.1176 95.1794 97.3588 96.0644 96.9568C97.03 96.5548 98.1162 96.394 99.1622 96.5548C100.45 96.7156 101.375 96.193 102.139 95.3087C103.225 93.9821 104.271 92.6153 105.358 91.2887C105.76 90.8063 105.76 90.4445 105.277 90.0023C103.587 88.3944 101.898 86.7864 100.208 85.2186C99.8461 84.8568 99.9265 84.495 100.087 84.2137C100.409 83.6509 100.812 83.0881 101.214 82.5655C116.34 64.1944 131.346 45.7831 146.674 27.5729C151.421 21.9048 156.128 16.1965 160.875 10.4882C163.651 7.15162 166.507 3.81508 169.283 0.478535C169.806 -0.124454 170.128 -0.164653 170.691 0.398137C172.301 2.08651 173.95 3.77488 175.559 5.46325C179.461 9.44298 183.364 13.3825 187.226 17.322C187.95 18.0858 188.553 18.8898 188.996 19.8546C189.398 20.6988 189.197 21.2214 188.674 21.8646C181.151 30.7888 173.266 39.3512 165.18 47.7529C160.392 52.7376 156.168 58.1645 151.662 63.3904C148.806 66.727 145.708 69.8625 143.134 73.4C137.582 81.1987 130.743 87.7914 124.306 94.7459C122.697 96.4744 120.886 98.0824 119.157 99.7306C118.473 100.414 117.869 100.374 116.944 99.8512C115.093 98.7256 113.725 97.0774 112.036 95.8313C111.352 95.3087 110.909 95.3489 110.346 95.9519C109.179 97.198 107.932 98.3638 106.725 99.61C106.082 100.253 105.881 100.977 106.323 101.861C106.806 102.866 106.967 103.951 106.886 105.037C106.766 106.363 107.248 107.328 108.254 108.092C109.783 109.258 111.231 110.504 112.639 111.871C113.202 112.434 113.645 112.474 114.208 111.911C115.375 110.665 117.024 109.941 118.07 108.574C118.432 108.132 118.875 108.414 119.197 108.655C119.76 109.057 120.283 109.539 120.806 110.062C134.323 123.287 147.881 136.513 161.398 149.779C169.887 158.14 178.335 166.542 186.783 174.903C190.042 178.159 193.301 181.456 196.6 184.672C197.203 185.275 197.082 185.596 196.519 186.038C194.749 187.445 193.019 188.893 191.289 190.3C186.904 193.917 182.519 197.535 178.134 201.113C177.732 201.435 177.329 201.716 176.927 201.998C174.996 203.123 174.634 203.083 173.065 201.515C165.099 193.596 157.496 185.275 150.134 176.833C145.749 171.808 140.921 167.265 136.254 162.562C132.835 159.065 129.657 155.326 125.955 152.15C118.473 145.719 112.317 138.04 105.72 130.764C104.392 129.317 103.266 127.709 102.019 126.182C101.415 125.418 101.536 124.815 102.139 123.971C103.708 121.84 105.881 120.313 107.61 118.343C108.214 117.659 108.415 117.217 107.651 116.494C106.323 115.207 105.116 113.841 103.869 112.474C103.266 111.831 102.622 111.589 101.737 111.951C100.852 112.313 99.8863 112.514 98.9208 112.393C97.1507 112.152 95.9438 113.077 94.938 114.323C93.5299 116.132 92.0817 117.941 90.5127 119.589C89.9897 120.152 89.9897 120.514 90.5529 121.036C91.8805 122.282 93.369 123.368 94.5357 124.775C95.3805 125.78 95.2196 126.383 94.6162 127.267C92.2024 130.764 89.4667 134.061 86.7713 137.357C83.2713 141.618 79.8919 145.96 76.1103 150.02C73.9781 152.311 71.6045 154.361 69.5126 156.733C65.4896 161.356 61.4263 165.979 57.2022 170.441C49.3975 178.722 42.7595 188.008 35.2365 196.49C32.34 199.787 29.3629 203.043 26.4664 206.299C26.0238 206.781 25.5813 206.902 24.8974 206.741C23.9319 206.46 23.0066 206.017 22.202 205.415C15.8858 200.671 9.56971 195.927 3.21335 191.224C2.36851 190.621 2.32828 190.179 3.09266 189.415C5.22485 187.244 7.23636 184.953 9.28809 182.702C18.6617 172.491 28.0353 162.281 37.4492 152.15C48.9148 139.809 60.4206 127.508 71.9264 115.207C73.3344 113.72 74.7425 112.233 76.1505 110.745C76.8344 110.062 77.277 109.7 78.3632 110.625C80.254 112.192 82.3057 113.599 84.1161 115.247C84.5184 115.609 84.8402 115.489 85.2023 115.127C86.892 113.398 88.6621 111.71 90.3518 109.981C90.9955 109.298 91.438 108.574 91.5184 107.489ZM179.421 168.833C178.898 169.517 178.295 170.079 177.611 170.522C176.806 171.044 176.766 171.486 177.49 172.17C179.14 173.737 180.749 175.426 182.358 177.034C184.49 179.164 184.49 179.164 186.663 177.074C187.145 176.632 187.186 176.31 186.703 175.868C184.289 173.536 181.835 171.205 179.421 168.833C176.806 166.381 174.232 163.889 171.657 161.436C170.088 159.909 170.088 159.989 168.398 161.396C167.634 161.999 167.674 162.401 168.358 163.044C170.651 165.255 172.944 167.547 175.197 169.838C175.841 170.481 176.364 170.481 177.007 169.959C177.691 169.396 178.496 168.914 179.421 168.833ZM19.4261 173.134C20.3111 173.255 21.0755 173.697 21.7997 174.18C22.5238 174.702 23.0468 174.541 23.61 173.898C25.4204 171.848 27.3112 169.838 29.202 167.828C30.771 166.14 30.8112 166.14 29.0411 164.532C29.0008 164.492 28.9606 164.492 28.9606 164.451C28.4779 163.567 28.0353 163.969 27.5526 164.492C25.6215 166.542 23.61 168.552 21.679 170.642C20.8744 171.446 19.9491 172.089 19.4261 173.134C18.9433 173.416 18.5813 173.778 18.2192 174.18C16.6502 175.868 15.0812 177.516 13.5123 179.205C11.5008 181.375 11.5008 181.375 14.0755 182.983C14.6387 183.345 15.041 183.305 15.4835 182.823C17.495 180.612 19.5065 178.36 21.5583 176.19C22.041 175.707 21.9606 175.345 21.4376 174.984C20.6732 174.421 19.8284 174.019 19.4261 173.134ZM33.748 24.5177C33.8285 23.8745 33.3457 23.5529 32.9836 23.1509C31.4147 21.5028 29.8457 19.8144 28.2365 18.2064C25.9031 15.8749 26.7077 15.7141 24.3744 18.4878C23.9319 19.0104 23.9319 19.4124 24.4146 19.8948C26.5468 22.0254 28.6388 24.1157 30.7307 26.2865C31.2537 26.8493 31.5756 26.7287 32.0181 26.2061C32.5813 25.5629 32.9032 24.7187 33.748 24.5177C33.748 25.3217 33.2652 25.9649 32.7825 26.6081C32.2193 27.3719 32.2997 27.8945 32.9836 28.5376C34.9147 30.3868 36.7653 32.3164 38.6158 34.2459C40.386 36.0549 40.3457 36.0147 42.1561 34.3263C42.7596 33.7635 42.6791 33.4822 42.1963 32.9596C39.7021 30.3466 37.2883 27.7337 34.794 25.1207C34.5124 24.7589 34.2308 24.4373 33.748 24.5177ZM10.6961 36.7785C10.8168 35.9343 11.2191 35.2107 11.6617 34.4871C13.472 31.4722 15.4835 28.618 17.495 25.7237C17.9778 25.0001 17.9778 24.5177 17.3341 23.9147C15.8456 22.5077 14.3973 21.0606 12.949 19.6134C11.1387 17.8044 11.1789 17.8446 9.81109 20.0556C7.75935 23.2715 6.06969 26.8091 2.93174 29.221C2.20759 29.7838 2.89151 29.9848 3.13289 30.226C5.26508 32.236 7.39728 34.2057 9.52948 36.2157C9.85132 36.5373 10.2134 36.8589 10.6961 36.7785C10.6559 37.3815 11.1387 37.7031 11.5008 38.0649C18.3399 44.6174 25.6215 50.7276 32.2997 57.4811C38.5756 63.7924 45.2136 69.7017 51.8516 75.6512C57.001 80.2339 62.1102 84.8568 67.0183 89.721C67.5011 90.2034 68.1045 90.6053 68.6677 91.0475C69.07 91.4093 69.3114 91.2485 69.5528 90.8063C70.0758 89.8818 70.5988 88.9974 71.162 88.113C71.5241 87.5502 71.4838 87.1482 71.0413 86.6658C68.6677 84.2539 66.2942 81.8419 63.9206 79.4299C63.4781 78.9475 63.116 78.9475 62.6735 79.4701C62.2309 79.9927 61.7884 80.5153 60.9033 80.8369C61.0642 79.9123 61.4263 79.3093 61.8286 78.7868C62.3114 78.1838 62.2711 77.7416 61.7079 77.1788C60.0183 75.4904 58.3286 73.802 56.7194 72.0735C56.1562 71.4705 55.8343 71.5509 55.3516 72.1539C54.7481 72.998 54.0642 73.8422 52.8171 74.4452C53.4205 73.1991 53.9033 72.2745 54.5872 71.4303C55.0297 70.9077 55.07 70.4655 54.547 69.9027C52.7768 68.1339 51.0067 66.325 49.2768 64.516C48.7136 63.913 48.3918 64.0336 47.9492 64.6768C47.2653 65.6416 46.6619 66.727 45.3745 67.4908C45.7366 66.0034 46.4205 64.9984 47.1446 63.9934C47.6676 63.31 47.6274 62.7874 46.9837 62.1442C45.294 60.4961 43.6848 58.8077 42.0756 57.1193C40.7883 55.7928 40.7883 55.7928 39.2193 56.5163C39.2998 55.7124 40.1848 55.029 39.2193 54.1446C37.3687 52.416 35.6388 50.5266 33.8687 48.6775C33.3055 48.0745 32.9434 47.9941 32.4204 48.7177C31.8974 49.4011 31.3744 50.1247 30.3687 50.5266C30.6101 49.4413 31.0526 48.6373 31.5756 47.9137C32.1388 47.1901 31.9779 46.6675 31.3744 46.1047C30.5296 45.3007 29.8055 44.4566 29.0009 43.6124C29.1215 43.4918 29.2422 43.3712 29.3629 43.2908C30.1675 44.1752 30.9721 45.0997 31.7767 45.9841C32.2193 46.4665 32.5813 46.4263 32.9836 45.8635C33.6273 44.9389 34.271 44.0144 35.0354 43.1702C35.5986 42.4868 35.5986 42.0044 34.9549 41.3612C32.7825 39.2709 30.6503 37.1805 28.5181 35.0097C27.8744 34.3665 27.5123 34.3665 26.9893 35.1303C25.6215 37.2207 24.1732 39.2708 22.725 41.321C22.2422 42.0044 21.7192 42.6074 20.8341 43.1702C20.9146 42.2054 21.3169 41.5622 21.7192 40.9592C23.1675 38.7081 24.656 36.4971 26.1847 34.2861C26.6675 33.5625 26.6675 33.0802 26.0238 32.4772C23.9721 30.5074 21.9606 28.4974 19.9893 26.4473C19.2652 25.7237 18.8629 25.7237 18.2594 26.6081C16.7709 28.819 15.2422 31.03 13.7134 33.2008C12.7881 34.5675 11.9835 35.8941 10.6961 36.7785ZM166.749 191.988C166.668 192.39 166.829 192.712 167.111 192.993C169.163 195.244 171.255 197.455 173.306 199.746C173.749 200.229 173.95 200.189 174.352 199.666C175.841 197.857 177.611 196.45 179.622 195.284C181.312 194.32 182.962 193.234 184.651 192.229C185.416 191.787 185.456 191.425 184.852 190.822C183.122 189.094 181.352 187.325 179.703 185.516C179.019 184.792 178.536 184.712 177.732 185.275C175.921 186.561 174.111 187.807 172.22 189.013C170.45 190.139 168.76 191.465 166.749 191.988C167.272 190.983 168.237 190.38 169.163 189.737C171.657 188.008 174.151 186.239 176.726 184.551C177.651 183.948 177.812 183.546 176.927 182.702C174.915 180.813 172.984 178.843 171.094 176.833C170.369 176.029 169.806 176.069 169.002 176.672C166.668 178.36 164.295 180.009 161.76 181.375C161.358 181.617 160.956 181.898 160.272 181.737C160.915 180.893 161.599 180.29 162.364 179.767C164.335 178.441 166.306 177.074 168.277 175.747C169.042 175.265 169.243 174.903 168.519 174.139C166.789 172.451 165.14 170.682 163.41 168.954C161.398 166.904 161.358 166.904 159.105 168.592C158.703 168.873 158.3 169.235 157.898 169.476C157.094 169.959 157.134 170.401 157.777 171.004C158.783 171.969 159.708 173.014 160.714 174.019C160.594 174.139 160.433 174.3 160.312 174.421C159.387 173.376 158.502 172.33 157.576 171.285C156.973 170.562 156.369 170.401 155.565 171.004C154.881 171.527 154.117 171.928 152.99 172.089C153.513 171.165 154.076 170.642 154.72 170.2C155.685 169.597 155.444 169.115 154.76 168.471C153.312 167.105 151.904 165.657 150.456 164.291C149.53 163.406 148.806 161.999 146.996 163.527C147.8 161.718 147.8 161.718 146.513 160.472C144.904 158.904 143.254 157.336 141.685 155.688C140.881 154.844 140.237 154.804 139.352 155.487C138.467 156.17 137.542 156.773 136.214 157.015C136.898 155.728 138.024 155.165 138.99 154.522C139.674 154.08 139.674 153.718 139.111 153.196C137.381 151.507 135.611 149.819 133.961 148.09C133.277 147.367 132.754 147.447 132.07 148.01C131.306 148.653 130.501 149.256 129.295 149.457C129.978 148.412 130.783 147.729 131.588 147.085C132.191 146.643 132.151 146.281 131.628 145.799C129.898 144.111 128.168 142.422 126.438 140.694C125.955 140.211 125.553 140.171 125.03 140.573C124.427 141.015 123.743 141.417 122.817 141.538C123.099 140.814 123.501 140.332 123.984 140.01C124.99 139.367 124.708 138.885 123.984 138.201C121.892 136.312 119.881 134.262 117.869 132.292C116.099 130.563 116.501 130.724 114.731 131.97C114.007 132.493 112.559 132.453 112.679 133.578C112.8 134.423 113.685 135.146 114.369 135.83C117.708 139.206 120.886 142.744 124.065 146.322C129.093 151.949 134.203 157.537 139.272 163.125C142.852 167.024 146.634 170.763 150.295 174.582C155.444 180.009 160.352 185.636 165.381 191.184C165.783 191.586 166.145 191.988 166.749 191.988ZM179.341 29.5426C178.214 29.1406 177.53 28.216 176.806 27.3719C174.795 24.9599 172.783 22.5479 170.812 20.136C170.209 19.3722 169.806 19.332 169.163 20.0958C167.312 22.3067 165.461 24.5177 163.571 26.6885C163.007 27.3317 163.007 27.7739 163.571 28.417C165.019 30.1456 166.427 31.9144 167.835 33.6831C168.559 34.6077 169.323 35.5323 169.726 36.9393C168.72 36.4569 168.117 35.8137 167.553 35.1705C165.944 33.241 164.375 31.2712 162.806 29.3416C162.364 28.7788 162.042 28.5778 161.438 29.2612C159.427 31.6732 157.375 34.0449 155.283 36.3765C154.8 36.9393 154.841 37.3815 155.323 37.8639C156.088 38.6679 156.852 39.512 157.576 40.3964C158.099 41.0798 158.502 41.0798 159.065 40.4366C159.749 39.6326 160.473 38.8287 161.157 38.0247C160.714 38.9493 160.151 39.7532 159.467 40.4768C158.783 41.2004 158.622 41.8034 159.387 42.6074C159.95 43.2104 160.392 44.0144 160.714 45.0595C159.749 44.5772 159.105 44.0144 158.582 43.4114C158.019 42.6878 157.576 42.728 157.013 43.4516C155.806 44.9791 154.519 46.4665 153.272 47.9941C152.427 49.0393 150.898 49.9237 152.548 51.813C150.777 51.0492 150.777 51.0492 149.731 52.3356C148.243 54.1446 146.795 55.9938 145.226 57.7223C144.461 58.5665 144.542 59.1695 145.226 59.9735C145.99 60.8177 146.674 61.7422 147.076 63.109C145.829 62.4256 145.145 61.5413 144.502 60.6569C143.898 59.8529 143.496 59.7725 142.812 60.6167C141.364 62.4658 139.875 64.2748 138.306 66.0034C137.622 66.7672 137.743 67.2897 138.387 67.9329C139.111 68.6565 139.674 69.5007 140.197 70.6665C138.95 70.0635 138.185 69.2997 137.501 68.4957C137.019 67.9329 136.697 67.9731 136.214 68.5359C134.685 70.4253 133.157 72.2745 131.547 74.1236C131.065 74.6864 131.105 75.0884 131.588 75.611C132.07 76.1336 132.513 76.7366 132.674 77.5808C131.909 77.4602 131.467 77.0984 131.105 76.6562C130.381 75.7718 129.898 76.013 129.295 76.817C127.726 78.827 126.036 80.7565 124.427 82.7263C122.616 84.897 122.616 84.897 124.226 87.1884C125.513 88.9572 125.513 88.9572 127.042 87.309C127.082 87.2688 127.082 87.2286 127.122 87.2286C132.03 81.5203 137.22 76.0934 142.369 70.6263C145.95 66.8476 149.49 62.9884 152.99 59.1293C156.208 55.5516 159.306 51.8934 162.484 48.2755C167.634 42.4064 173.065 36.7785 178.375 31.0702C178.898 30.5476 179.26 30.1456 179.341 29.5426C179.663 29.5828 179.944 29.3818 180.186 29.1406C182.278 26.8493 184.37 24.5579 186.462 22.3067C186.864 21.8646 186.783 21.6636 186.301 21.3822C184.53 20.1762 183.042 18.6486 181.795 16.92C180.628 15.3121 179.421 13.7041 178.255 12.0559C177.329 10.7696 177.329 10.7696 176.324 11.9353C174.915 13.5835 173.507 15.2317 172.059 16.8798C170.852 18.2466 170.892 18.2064 171.979 19.6134C174.513 22.8293 177.41 25.8041 179.341 29.5426ZM39.0182 185.194C38.2538 185.275 37.8112 184.993 37.3687 184.792C34.794 183.506 32.34 181.978 29.9261 180.411C29.1618 179.928 28.6388 179.888 28.0353 180.652C26.3859 182.541 24.656 184.35 23.0066 186.239C21.4376 188.008 21.1157 187.646 23.4491 189.174C26.587 191.184 29.8859 192.872 32.7423 195.284C33.4262 195.847 33.7882 195.365 34.1503 194.882C36.0009 192.671 37.8515 190.46 39.7021 188.249C43.1618 184.109 46.4205 179.808 50.0814 175.828C53.2596 172.33 56.3976 168.793 59.4148 165.175C64.8459 158.703 70.1562 152.07 75.5873 145.558C78.1218 142.503 80.777 139.568 83.3517 136.513C84.8805 134.744 84.8402 134.704 82.9092 133.619C82.3862 133.337 81.9034 133.056 81.4207 132.734C80.8575 132.372 80.4552 132.413 80.0126 132.935C77.7195 135.428 75.4264 137.92 73.1333 140.372C72.6103 140.935 72.731 141.256 73.2942 141.658C73.8574 142.06 74.3804 142.503 74.7425 143.307C73.8574 143.186 73.2137 142.905 72.6505 142.503C71.9666 141.98 71.5241 142.101 70.9609 142.744C69.3919 144.472 67.8229 146.201 66.2137 147.889C65.6907 148.452 65.6907 148.814 66.3344 149.256C67.1792 149.819 68.0241 150.422 68.708 151.588C67.5011 151.226 66.616 150.784 65.8516 150.14C65.1275 149.578 64.6045 149.618 63.9608 150.341C62.593 151.909 61.1045 153.397 59.6964 154.924C58.1677 156.613 58.2079 156.291 59.978 157.417C60.7424 157.899 61.5872 158.341 62.1505 159.386C60.8229 159.105 59.8171 158.582 58.9321 157.939C57.9263 157.216 57.2826 157.417 56.5182 158.301C55.07 159.989 53.501 161.557 52.0125 163.165C51.6102 163.607 51.1274 164.009 50.886 164.492C50.5642 165.135 51.6504 165.296 51.5297 166.18C49.9607 164.773 49.2366 166.14 48.3515 167.064C46.9032 168.592 45.5354 170.12 44.0469 171.647C43.4032 172.29 43.3228 172.732 44.1676 173.295C44.8515 173.737 45.5757 174.22 45.978 175.144C44.8917 174.984 44.0469 174.582 43.3228 174.059C42.5584 173.577 42.0354 173.737 41.5124 174.381C40.5469 175.426 39.5411 176.471 38.5756 177.476C39.3802 176.23 40.3457 175.104 41.3113 174.059C41.794 173.536 41.794 173.175 41.1503 172.773C40.2251 172.21 39.2998 171.607 38.4549 170.924C37.7308 170.361 37.2078 170.361 36.5641 171.125C34.6331 173.376 32.6618 175.587 30.6101 177.757C29.8457 178.602 30.0871 178.923 30.9319 179.406C33.0239 180.652 35.0756 181.938 37.1273 183.225C37.6906 183.868 38.3745 184.39 39.0182 185.194ZM20.8341 189.053C20.3111 189.094 20.11 189.455 19.8686 189.697C18.4203 191.305 16.972 192.913 15.5238 194.561C14.1157 196.209 13.6329 195.927 15.9663 197.254C19.4261 199.224 23.2077 200.751 25.8629 203.927C26.225 204.329 26.4261 204.088 26.6675 203.807C28.679 201.395 30.6905 199.023 32.702 196.611C33.0239 196.209 33.0641 195.847 32.5009 195.646C28.5583 194.038 25.0985 191.506 21.3974 189.375C21.2364 189.254 20.9951 189.134 20.8341 189.053ZM19.6272 15.6337C19.7077 15.5935 19.7479 15.5131 19.8284 15.4729C20.1905 15.7945 20.5525 16.1161 20.9146 16.4779C23.3686 18.8496 22.6847 18.4878 24.7767 16.3171C25.3801 15.7141 25.3801 15.3121 24.7767 14.6689C22.6847 12.5383 20.6732 10.4078 18.6617 8.1968C17.9376 7.39281 17.495 7.51341 16.972 8.3576C15.4031 10.9706 13.7939 13.5433 12.1847 16.1161C11.8628 16.6386 11.9031 17.0004 12.3456 17.4426C14.3169 19.2516 16.2479 21.1008 18.1387 22.9499C18.7019 23.4725 19.0238 23.5127 19.5065 22.8695C20.3111 21.744 21.156 20.6586 22.0008 19.5732C22.4433 19.0104 22.4433 18.5682 21.9204 18.0456C21.156 17.2818 20.3916 16.4377 19.6272 15.6337ZM167.915 9.60377C167.996 9.68417 168.036 9.76457 168.117 9.84497C167.553 10.5284 167.03 11.2117 166.467 11.8951C166.025 12.4177 166.025 12.8197 166.507 13.3021C167.473 14.3473 168.438 15.3925 169.323 16.4779C169.806 17.0406 170.168 16.9602 170.611 16.4377C172.381 14.4277 174.151 12.4579 175.961 10.448C176.324 10.046 176.484 9.68417 176.163 9.24198C174.232 6.66923 172.542 3.93567 170.49 1.48352C170.048 0.960927 169.645 0.880528 169.203 1.48352C167.232 3.97587 165.22 6.42803 163.249 8.88019C163.048 9.16158 162.806 9.44298 163.088 9.76457C163.812 10.4882 164.496 11.1715 165.26 11.8147C165.703 12.1765 166.025 11.6941 166.306 11.4127C166.829 10.85 167.392 10.247 167.915 9.60377ZM188.433 182.702C188.272 182.863 188.111 183.064 187.95 183.225C187.145 182.501 186.341 181.818 185.617 181.014C184.973 180.29 184.41 180.33 183.726 180.933C182.76 181.737 181.755 182.501 180.709 183.184C180.025 183.667 179.944 183.988 180.548 184.631C182.398 186.521 184.168 188.45 185.979 190.38C186.421 190.862 186.824 190.943 187.387 190.581C189.962 189.013 192.536 187.445 195.111 185.918C196.036 185.355 196.117 184.873 195.272 184.109C193.502 182.541 191.772 180.853 190.082 179.205C187.99 177.195 188.03 177.195 185.898 179.205C185.375 179.687 185.295 180.089 185.818 180.571C186.663 181.295 187.588 181.978 188.433 182.702ZM11.2191 187.888C11.1789 187.847 11.1387 187.807 11.1387 187.767C11.5008 187.365 11.8226 186.923 12.1847 186.521C14.0352 184.39 13.995 184.43 11.8226 182.581C11.2191 182.059 10.8571 182.059 10.2938 182.662C8.24211 184.873 6.19038 187.043 4.05818 189.174C3.33404 189.898 3.45473 190.34 4.25933 190.782C6.95475 192.269 9.6904 193.717 12.3858 195.204C12.8686 195.445 13.2306 195.445 13.5927 195.003C15.3628 192.953 17.133 190.862 18.9031 188.812C19.3859 188.29 19.3456 187.928 18.7422 187.526C17.5755 186.762 16.4491 185.998 15.3226 185.194C14.6789 184.712 14.2364 184.873 13.7134 185.395C12.9088 186.28 12.064 187.084 11.2191 187.888ZM130.3 134.825C130.26 134.744 130.22 134.624 130.099 134.543C127.645 131.97 125.191 129.438 122.737 126.905C122.415 126.584 122.134 126.624 121.731 126.865C120.363 127.91 118.996 128.915 117.628 129.92C117.105 130.322 117.024 130.604 117.507 131.086C119.921 133.458 122.335 135.83 124.708 138.201C125.191 138.684 125.593 138.724 126.116 138.282C127.323 137.317 128.57 136.433 129.818 135.468C130.059 135.347 130.34 135.186 130.3 134.825ZM79.731 131.729C79.731 131.729 79.5299 131.649 79.3287 131.568C77.8804 130.604 76.4322 129.599 74.9839 128.634C74.4609 128.272 74.139 128.513 73.8172 128.915C71.6045 131.408 69.3919 133.94 67.1792 136.433C66.6965 136.995 66.7367 137.317 67.3804 137.719C68.6275 138.523 69.8344 139.327 71.0011 140.211C71.685 140.734 72.1275 140.613 72.6908 140.01C74.8632 137.598 77.1161 135.227 79.3287 132.815C79.4494 132.533 79.6908 132.332 79.731 131.729ZM129.616 75.1688C129.576 75.0884 129.496 74.9276 129.375 74.807C128.249 73.5206 127.082 72.2745 125.955 70.9881C125.473 70.4655 125.151 70.8273 124.829 71.1891C122.616 73.6814 120.444 76.214 118.231 78.7064C117.829 79.1485 117.748 79.5103 118.191 79.9927C119.317 81.1987 120.444 82.4449 121.53 83.7313C122.013 84.3343 122.335 84.2137 122.777 83.6911C124.909 81.1183 127.042 78.5456 129.174 76.013C129.415 75.7718 129.657 75.5708 129.616 75.1688ZM75.9092 81.4801C75.7482 81.2791 75.6275 81.0379 75.4264 80.8771C73.0126 78.5054 70.5586 76.1738 68.1447 73.7618C67.6217 73.2794 67.2999 73.4 66.9378 73.9226C66.0126 75.1688 65.0873 76.415 64.162 77.621C63.7194 78.1838 63.8401 78.5456 64.2827 79.0279C66.616 81.3997 68.9896 83.7715 71.3229 86.1834C71.7655 86.6256 72.0873 86.7462 72.4896 86.1432C73.4551 84.7764 74.5011 83.4901 75.5069 82.1635C75.6678 81.9625 75.7482 81.7213 75.9092 81.4801ZM80.6965 130.925C80.9782 130.925 81.1391 130.724 81.3402 130.563C83.0299 128.714 84.7196 126.865 86.4494 125.056C86.9322 124.534 86.7311 124.172 86.3288 123.77C85.0012 122.443 83.6736 121.117 82.346 119.79C81.8632 119.308 81.5816 119.388 81.3 119.951C80.8172 121.036 79.9322 121.84 79.1678 122.725C78.0414 124.011 76.9149 125.297 75.8287 126.624C75.5873 126.905 75.185 127.267 75.5873 127.589C77.1563 128.835 78.846 129.92 80.5759 130.925C80.5759 130.925 80.6563 130.925 80.6965 130.925ZM114.45 118.021C114.369 118.102 114.208 118.182 114.088 118.303C112.76 119.75 111.473 121.197 110.105 122.644C109.622 123.167 109.823 123.488 110.225 123.89C111.955 125.579 113.685 127.267 115.375 128.996C115.898 129.518 116.3 129.518 116.863 129.076C118.03 128.151 119.237 127.227 120.484 126.423C121.369 125.82 121.248 125.418 120.605 124.694C118.714 122.564 116.461 120.835 114.932 118.383C114.892 118.182 114.731 118.021 114.45 118.021ZM115.455 92.1329C115.817 92.0927 115.978 91.8917 116.139 91.6907C117.748 89.7612 119.317 87.8316 120.967 85.9422C121.369 85.4598 121.289 85.098 120.886 84.6558C119.881 83.5303 118.875 82.4449 117.95 81.2791C117.225 80.3947 116.783 80.4349 116.059 81.2791C114.369 83.2087 112.8 85.299 110.829 86.9874C110.145 87.5502 110.105 87.912 110.748 88.4346C112.156 89.6004 113.605 90.7259 115.013 91.8917C115.174 92.0123 115.375 92.0927 115.455 92.1329ZM84.3977 89.6004C84.4379 88.9572 84.1161 88.8366 83.8747 88.716C83.0299 88.2738 82.4264 87.6306 81.7425 86.9874C80.3345 85.6608 78.9264 84.3745 77.5988 83.0077C76.9954 82.3645 76.6333 82.4851 76.1505 83.1283C75.2655 84.3745 74.3402 85.6206 73.3747 86.8266C72.8919 87.4296 72.8919 87.8718 73.4551 88.4346C75.1046 90.0827 76.754 91.7309 78.3632 93.4595C78.9667 94.1027 79.4092 94.0223 80.0126 93.4595C81.3 92.2133 82.6276 91.0475 83.9954 89.8416C84.1966 89.6808 84.3977 89.6004 84.3977 89.6004ZM162.042 26.0855C162.122 26.0051 162.323 25.8845 162.444 25.7237C164.536 23.3921 166.588 21.0204 168.64 18.6888C169.042 18.2466 168.961 17.925 168.599 17.4828C167.634 16.4377 166.709 15.3925 165.783 14.2669C165.26 13.6237 164.898 13.7041 164.415 14.3071C162.565 16.5984 160.674 18.8898 158.743 21.141C158.341 21.6234 158.26 22.0656 158.743 22.5479C159.628 23.5529 160.473 24.5981 161.318 25.6031C161.519 25.8443 161.64 26.0855 162.042 26.0855ZM30.8514 27.6131C30.8514 27.1709 30.5698 26.9297 30.3284 26.7287C28.2767 24.6383 26.225 22.5479 24.2135 20.4174C23.61 19.7742 23.2077 19.8948 22.725 20.538C21.9606 21.6234 21.1962 22.7087 20.3514 23.7539C19.8686 24.3569 20.0295 24.7589 20.5123 25.2413C22.6847 27.3317 24.8571 29.3818 26.9491 31.4722C27.4319 31.9546 27.7939 32.035 28.2365 31.3918C28.9204 30.3466 29.6848 29.3416 30.4089 28.3366C30.6101 28.0954 30.7307 27.8141 30.8514 27.6131ZM20.0698 186.963C20.5525 187.003 20.7537 186.802 20.9548 186.561C22.9663 184.229 25.0181 181.898 27.0296 179.566C27.3916 179.164 27.3514 178.843 26.9089 178.521C25.7422 177.757 24.5755 177.034 23.4491 176.27C22.9261 175.908 22.564 176.029 22.1215 176.471C20.0698 178.682 18.018 180.893 15.9663 183.064C15.4835 183.586 15.4835 183.948 16.087 184.35C17.0123 184.913 17.8973 185.556 18.7824 186.159C19.2652 186.44 19.7077 186.722 20.0698 186.963ZM175.921 171.928C175.841 171.969 175.72 172.009 175.599 172.049C174.352 172.893 173.145 173.778 171.938 174.662C171.415 175.024 171.737 175.386 172.059 175.707C174.151 177.878 176.203 180.049 178.295 182.22C178.778 182.742 179.22 182.782 179.783 182.34C180.87 181.496 181.996 180.692 183.122 179.888C183.726 179.446 183.686 179.084 183.203 178.602C181.071 176.551 178.979 174.461 176.847 172.371C176.565 172.13 176.364 171.888 175.921 171.928ZM157.617 22.9499C157.174 23.0705 156.973 23.4323 156.731 23.7137C155.283 25.4825 153.795 27.2513 152.346 29.02C149.852 32.0752 149.852 32.0752 152.708 34.9293C153.272 35.4921 153.634 35.5725 154.197 34.9293C156.249 32.5978 158.381 30.2662 160.473 27.9748C160.956 27.4523 160.996 27.0101 160.553 26.4875C159.708 25.5227 158.944 24.4775 158.14 23.4725C157.979 23.2715 157.777 23.1107 157.617 22.9499ZM39.9032 36.7785C39.7825 36.5775 39.7021 36.3765 39.5411 36.2157C37.1273 33.7233 34.7135 31.2712 32.2997 28.7788C31.8974 28.3768 31.5756 28.4572 31.294 28.8994C30.5296 30.025 29.8055 31.1104 29.0411 32.1958C28.679 32.7184 28.7192 33.1606 29.202 33.6027C31.5353 35.7735 33.8285 37.9443 36.1216 40.115C36.6043 40.5974 37.0066 40.6778 37.4492 40.0748C38.1331 39.1904 38.8572 38.3061 39.5411 37.4217C39.7021 37.2207 39.7825 37.0197 39.9032 36.7785ZM28.0756 177.838C28.5986 177.838 28.7997 177.516 29.0411 177.235C30.4491 175.587 31.8572 173.938 33.225 172.25C33.9894 171.285 35.5584 170.481 35.3572 169.356C35.1561 168.27 33.5066 167.828 32.5411 167.024C31.817 166.421 31.3744 166.582 30.771 167.225C28.7192 169.476 26.587 171.687 24.5353 173.898C23.4491 175.064 23.4491 175.064 24.8571 175.908C25.6618 176.391 26.4664 176.953 27.3112 177.436C27.5123 177.597 27.8342 177.717 28.0756 177.838ZM175.076 170.763C174.875 170.562 174.674 170.28 174.392 169.999C172.783 168.431 171.174 166.863 169.565 165.255C166.789 162.522 166.789 162.562 163.732 165.014C162.967 165.617 162.927 165.979 163.611 166.662C165.743 168.873 167.795 171.084 169.846 173.335C170.369 173.898 170.772 174.059 171.456 173.577C172.502 172.813 173.588 172.129 174.674 171.406C174.835 171.285 175.076 171.165 175.076 170.763ZM63.7999 149.417C63.7999 149.095 63.6792 148.935 63.4781 148.814C62.1505 147.93 60.8631 147.045 59.5355 146.161C59.0527 145.839 58.6907 146.04 58.3688 146.402C56.6389 148.372 54.909 150.341 53.1389 152.311C52.6562 152.834 52.6562 153.196 53.2998 153.598C54.4263 154.241 55.5527 154.884 56.5987 155.648C57.3631 156.17 57.8056 156.05 58.4091 155.407C60.0585 153.557 61.7482 151.789 63.3976 149.98C63.5585 149.738 63.7194 149.537 63.7999 149.417ZM145.065 150.181C144.984 150.06 144.944 149.939 144.823 149.819C142.892 147.809 140.961 145.799 138.99 143.789C138.668 143.467 138.346 143.427 137.984 143.709C136.697 144.673 135.45 145.598 134.162 146.523C133.68 146.844 133.76 147.166 134.122 147.528C136.013 149.377 137.864 151.226 139.714 153.075C140.157 153.517 140.559 153.517 141.042 153.155C142.168 152.351 143.335 151.628 144.461 150.824C144.703 150.663 145.025 150.542 145.065 150.181ZM143.093 59.0489C143.053 58.9685 143.053 58.8479 142.973 58.7273C141.967 57.4409 140.921 56.1948 139.915 54.9486C139.473 54.426 139.191 54.828 138.91 55.1496C137.139 57.1595 135.41 59.1695 133.639 61.1795C133.237 61.6619 133.237 62.0236 133.639 62.4658C134.605 63.5512 135.611 64.6366 136.536 65.722C137.019 66.2848 137.341 66.2848 137.783 65.6818C139.392 63.712 141.042 61.7825 142.651 59.8127C142.892 59.6117 143.134 59.4107 143.093 59.0489ZM59.1332 65.2396C58.9723 65.0386 58.8516 64.7974 58.6907 64.6366C56.7596 62.7472 54.8286 60.8579 52.8975 58.9685C52.455 58.5263 52.1332 58.6469 51.8113 59.1293C51.0067 60.3353 50.1619 61.5413 49.3573 62.7472C49.0354 63.2296 49.1561 63.5914 49.5182 63.9532C51.3286 65.8024 53.1389 67.6114 54.9493 69.5007C55.3918 69.9831 55.7539 69.9831 56.1562 69.4605C57.0412 68.2545 57.9665 67.0486 58.8516 65.8828C58.9321 65.6416 59.0125 65.4406 59.1332 65.2396ZM132.272 62.908C132.191 62.9884 132.03 63.0688 131.95 63.1894C130.22 65.1592 128.49 67.129 126.76 69.0987C126.398 69.5409 126.639 69.8625 126.921 70.1841C127.967 71.3499 129.013 72.4755 129.978 73.6412C130.461 74.204 130.783 74.204 131.266 73.6412C132.835 71.7519 134.404 69.8625 135.973 67.9731C136.375 67.4908 136.375 67.129 135.932 66.6868C134.927 65.6014 133.921 64.4356 132.955 63.31C132.754 63.109 132.634 62.908 132.272 62.908ZM60.0183 66.2044C59.8976 66.2848 59.7367 66.4054 59.616 66.5662C58.6907 67.8123 57.7654 69.0585 56.7999 70.2645C56.3976 70.7871 56.5585 71.1489 56.9608 71.5509C58.6504 73.2794 60.3803 75.008 62.0298 76.7366C62.5125 77.219 62.8344 77.3396 63.3171 76.6964C64.2022 75.4904 65.0873 74.2844 66.0528 73.0785C66.5355 72.5157 66.4551 72.0735 65.9321 71.5911C64.2022 69.9429 62.5125 68.2947 60.7826 66.6064C60.6217 66.4858 60.4608 66.2044 60.0183 66.2044ZM70.7597 141.9C70.7999 141.498 70.5988 141.337 70.3976 141.216C69.07 140.292 67.7022 139.407 66.3746 138.483C65.8919 138.161 65.5298 138.322 65.1677 138.684C63.5585 140.533 61.9091 142.382 60.2596 144.191C59.7367 144.754 59.8976 145.075 60.501 145.477C61.7079 146.241 62.8746 147.045 64.0413 147.849C64.6447 148.291 65.047 148.211 65.5298 147.648C67.0988 145.879 68.7482 144.151 70.3574 142.382C70.5183 142.221 70.6792 142.02 70.7597 141.9ZM51.2883 57.6419C51.1676 57.4409 51.1274 57.2399 50.9665 57.1193C49.0354 55.23 47.1044 53.3406 45.1331 51.411C44.7711 51.0492 44.4894 51.21 44.1676 51.5316C43.2825 52.5768 42.3975 53.622 41.4722 54.6672C41.0699 55.1094 41.1101 55.431 41.5124 55.833C43.4837 57.8027 45.455 59.8127 47.386 61.8227C47.9492 62.3854 48.2308 62.2246 48.5929 61.6217C49.3171 60.4961 50.0814 59.4107 50.8458 58.2851C51.047 58.1243 51.1676 57.9233 51.2883 57.6419ZM137.501 142.261C137.421 142.181 137.341 142.02 137.26 141.9C135.49 140.05 133.68 138.201 131.869 136.312C131.427 135.87 131.065 136.071 130.662 136.352C129.455 137.277 128.289 138.161 127.042 139.045C126.398 139.488 126.358 139.849 126.921 140.412C128.651 142.101 130.381 143.789 132.07 145.518C132.473 145.92 132.835 146.08 133.358 145.678C134.565 144.754 135.812 143.829 137.059 142.905C137.3 142.784 137.542 142.623 137.501 142.261ZM152.387 157.738C152.306 157.618 152.226 157.497 152.105 157.376C150.254 155.447 148.404 153.557 146.553 151.628C146.111 151.186 145.749 151.346 145.346 151.628C144.22 152.392 143.093 153.196 141.927 153.919C141.364 154.281 141.243 154.562 141.766 155.085C143.777 157.055 145.749 159.025 147.72 160.994C148.162 161.436 148.525 161.436 149.007 161.034C149.973 160.19 150.979 159.346 151.944 158.502C152.145 158.301 152.387 158.14 152.387 157.738ZM150.335 50.4061C150.214 50.2453 150.053 50.0443 149.892 49.8835C148.967 48.9589 148.042 48.0745 147.157 47.1499C146.634 46.6273 146.272 46.7479 145.829 47.2303C144.22 49.1197 142.57 51.009 140.881 52.8984C140.438 53.421 140.479 53.823 140.881 54.3054C141.726 55.3104 142.57 56.3555 143.375 57.4409C143.858 58.0841 144.18 58.0841 144.703 57.4811C146.433 55.3908 148.162 53.3004 149.892 51.21C150.093 50.9688 150.335 50.7678 150.335 50.4061ZM51.8516 154.08C51.6504 154.201 51.4493 154.281 51.3286 154.442C49.5584 156.452 47.7883 158.462 46.0182 160.432C45.5757 160.914 45.817 161.235 46.2193 161.557C47.2653 162.361 48.2711 163.125 49.2768 163.929C49.7596 164.291 50.0814 164.371 50.524 163.889C52.4148 161.798 54.3056 159.748 56.1964 157.698C56.6389 157.216 56.6389 156.894 56.0355 156.532C54.7884 155.809 53.6217 155.045 52.3745 154.321C52.2539 154.241 52.0527 154.201 51.8516 154.08ZM160.191 165.818C160.111 165.738 160.03 165.577 159.95 165.456C157.938 163.406 155.967 161.316 153.956 159.266C153.553 158.864 153.231 158.984 152.869 159.266C151.823 160.11 150.818 160.954 149.772 161.758C149.208 162.2 149.329 162.562 149.772 162.964C151.662 164.853 153.553 166.743 155.404 168.632C155.887 169.115 156.329 169.115 156.812 168.713C157.777 167.949 158.743 167.265 159.708 166.502C159.91 166.341 160.191 166.22 160.191 165.818ZM153.835 38.2257C153.594 38.4267 153.392 38.5473 153.231 38.7483C151.421 40.8386 149.611 42.8888 147.8 44.9791C147.318 45.5419 147.438 45.9037 147.921 46.3459C148.806 47.2303 149.691 48.1147 150.536 49.0393C150.979 49.5217 151.3 49.6021 151.743 49.0795C153.473 46.9891 155.243 44.9389 156.973 42.8486C157.375 42.3662 157.335 41.9642 156.933 41.522C156.088 40.5974 155.283 39.6326 154.438 38.7081C154.277 38.5071 154.076 38.3865 153.835 38.2257ZM48.9952 165.456C49.0757 165.095 48.8745 164.974 48.7136 164.853C47.5872 164.009 46.4205 163.165 45.294 162.321C44.8113 161.959 44.4492 162.16 44.1274 162.562C42.317 164.612 40.5469 166.662 38.7365 168.672C38.2538 169.195 38.2538 169.557 38.8975 169.959C39.863 170.602 40.8285 171.245 41.794 171.928C42.4377 172.411 42.8802 172.29 43.4032 171.687C45.1331 169.758 46.9033 167.868 48.6331 165.939C48.7941 165.818 48.9148 165.577 48.9952 165.456ZM36.7653 43.3712C36.6043 43.4918 36.4434 43.532 36.363 43.6526C35.4779 44.8184 34.5928 45.9841 33.7078 47.1499C33.4262 47.5117 33.6273 47.8735 33.9089 48.1549C35.84 50.0845 37.771 52.0542 39.7423 54.024C40.1848 54.4662 40.5067 54.3456 40.8687 53.9034C41.6733 52.8984 42.4779 51.8934 43.3228 50.9286C43.8055 50.4061 43.6848 50.0041 43.2021 49.5619C41.271 47.7127 39.3802 45.8233 37.4894 43.9742C37.248 43.733 37.0066 43.5722 36.7653 43.3712ZM145.668 44.0144C146.111 44.0144 146.312 43.7732 146.513 43.5722C148.364 41.522 150.174 39.4316 152.025 37.4217C152.467 36.9393 152.507 36.4971 152.065 36.0147C151.341 35.2107 150.576 34.4469 149.892 33.6027C149.41 32.9998 149.088 33.0802 148.645 33.6429C147.277 35.3313 145.869 36.9795 144.502 38.6679C142.53 41.0396 142.53 41.0396 144.783 43.2104C145.024 43.4516 145.387 43.7732 145.668 44.0144ZM36.4434 168.15C36.725 168.11 36.9262 167.949 37.0871 167.748C38.9779 165.577 40.8285 163.406 42.7193 161.235C43.1216 160.753 42.9607 160.432 42.5584 160.11C41.9549 159.668 41.3515 159.226 40.7883 158.703C39.9032 157.859 39.2595 157.859 38.4549 158.864C37.248 160.351 35.8802 161.678 34.5526 163.085C32.3802 165.416 32.34 165.416 34.9951 167.265C35.4377 167.587 35.8802 168.029 36.4434 168.15ZM158.622 154.603C158.26 154.562 158.059 154.763 157.858 154.924C157.134 155.527 156.41 156.211 155.685 156.773C155.082 157.256 155.082 157.658 155.605 158.18C156.812 159.427 157.979 160.753 159.226 161.999C160.111 162.884 160.795 164.331 161.921 164.492C163.128 164.612 163.973 163.125 165.059 162.482C165.864 161.999 165.864 161.597 165.18 160.954C163.168 159.025 161.197 157.055 159.186 155.085C159.025 154.884 158.783 154.723 158.622 154.603ZM41.1101 37.9041C40.7883 37.8639 40.6274 37.9845 40.5067 38.1855C39.7825 39.1503 39.0584 40.115 38.294 41.0798C37.8917 41.6024 38.0929 41.9642 38.4952 42.3662C40.4664 44.2556 42.4377 46.1047 44.3688 47.9941C44.9722 48.5971 45.4147 48.4765 45.8975 47.8735C46.4205 47.2303 46.9435 46.5871 47.5469 45.9841C48.0699 45.4213 48.1504 45.0193 47.5469 44.4164C45.5757 42.4466 43.6446 40.4366 41.6733 38.4267C41.4722 38.2257 41.271 38.0649 41.1101 37.9041ZM155.122 19.2114C154.519 19.4124 154.318 19.7742 154.076 20.0556C152.185 22.3871 150.335 24.7589 148.444 27.1307C146.956 29.02 146.996 28.9798 148.726 30.6682C149.249 31.1506 149.53 31.231 150.013 30.6682C152.185 28.0552 154.358 25.4825 156.53 22.8695C156.852 22.4675 157.013 22.1058 156.651 21.6234C156.168 20.94 155.685 20.2566 155.203 19.5732C155.162 19.4526 155.122 19.2918 155.122 19.2114ZM70.7999 68.6967C70.7597 68.7369 70.6792 68.9781 70.5183 69.1791C70.1563 69.7017 69.7942 70.2243 69.3919 70.6665C68.7884 71.3097 68.9896 71.7921 69.5528 72.3549C71.6045 74.2844 73.5758 76.2542 75.5873 78.1838C77.4379 79.9525 77.4379 79.9525 78.8862 77.8622C79.2885 77.2592 79.2885 76.8572 78.7655 76.3346C76.3919 73.9628 74.0988 71.5509 71.7252 69.1791C71.6045 68.9781 71.4436 68.7369 70.7999 68.6967ZM123.984 68.9781C123.622 68.0937 122.858 67.6114 122.375 66.8878C121.852 66.124 121.369 66.2446 120.806 66.928C119.036 69.1389 117.185 71.2695 115.375 73.4804C113.645 75.611 113.725 75.008 115.455 77.0582C116.019 77.7416 116.461 77.7014 117.024 77.018C119.157 74.5658 121.289 72.1137 123.421 69.6615C123.662 69.4605 123.823 69.2193 123.984 68.9781ZM72.5298 127.066C72.1275 126.423 71.4034 126.182 70.8804 125.74C70.1562 125.056 69.593 125.137 68.9091 125.9C67.139 127.91 65.2884 129.84 63.5183 131.81C61.3861 134.181 61.2654 133.498 64.001 135.428C64.6045 135.83 65.0068 135.83 65.4896 135.267C67.662 132.774 69.8344 130.322 72.0068 127.83C72.1678 127.589 72.3287 127.347 72.5298 127.066ZM135.047 131.247C134.887 131.046 134.685 130.805 134.444 130.563C132.473 128.594 130.501 126.624 128.49 124.654C126.478 122.684 127.082 122.845 124.829 124.453C124.145 124.936 124.105 125.338 124.708 125.941C126.639 127.91 128.53 129.88 130.421 131.89C132.392 133.9 132.593 133.94 134.645 131.97C134.846 131.769 135.047 131.649 135.047 131.247ZM55.9953 53.1798C55.6332 53.22 55.5125 53.4612 55.3516 53.6622C54.909 54.3456 54.4665 55.0692 53.9837 55.7526C53.4608 56.3957 53.5412 56.8781 54.1447 57.4409C55.5527 58.7273 56.9205 60.0941 58.2884 61.4207C60.6217 63.6718 60.6217 63.6718 62.4723 60.9785C62.8746 60.4157 62.7941 60.0137 62.3516 59.5715C60.3803 57.6017 58.4493 55.5918 56.478 53.5818C56.3573 53.421 56.1562 53.3004 55.9953 53.1798ZM57.0412 144.754C57.001 144.633 57.001 144.513 56.9205 144.472C56.0355 143.709 55.07 143.025 54.0642 142.503C53.7826 142.342 53.501 142.663 53.3401 142.864C51.3688 144.955 49.4377 147.085 47.5067 149.216C47.1446 149.618 47.1849 149.939 47.6274 150.221C48.3515 150.623 49.0757 151.025 49.7596 151.507C50.524 152.03 51.0067 151.829 51.5699 151.186C53.2194 149.256 54.909 147.367 56.5987 145.437C56.7194 145.196 56.8803 144.955 57.0412 144.754ZM138.065 52.617C137.461 51.8532 136.777 50.9688 136.134 50.0845C135.691 49.4815 135.369 49.4815 134.887 50.0845C133.599 51.6924 132.231 53.3004 130.904 54.9084C128.852 57.3605 128.892 57.3605 131.145 59.6117C131.668 60.1343 131.95 60.1343 132.432 59.5715C134.162 57.6017 135.892 55.632 137.622 53.6622C137.783 53.3808 138.065 53.1798 138.065 52.617ZM147.277 149.015C148.002 148.533 148.846 147.93 149.772 147.407C150.536 146.965 150.657 146.563 149.933 145.92C148.404 144.513 146.956 142.985 145.467 141.538C143.295 139.407 143.295 139.407 140.921 141.457C140.398 141.9 140.277 142.221 140.8 142.744C142.651 144.633 144.502 146.603 146.352 148.533C146.593 148.693 146.795 148.935 147.277 149.015ZM164.496 13.0609C164.134 12.2569 163.329 11.7343 162.766 11.0509C162.203 10.3676 161.8 10.4882 161.318 11.1313C159.829 12.9805 158.341 14.8297 156.812 16.6386C155.082 18.729 155.122 18.729 157.013 20.6586C157.617 21.3018 157.979 21.1812 158.502 20.5782C160.352 18.3672 162.203 16.1965 164.053 13.9855C164.295 13.7443 164.496 13.5031 164.496 13.0609ZM144.904 45.1399C144.703 44.8988 144.542 44.6174 144.381 44.4164C143.777 43.7732 143.134 43.2104 142.53 42.5672C141.967 41.9642 141.565 41.9642 141.042 42.6074C140.157 43.7732 139.191 44.8586 138.266 45.9841C136.134 48.5971 136.134 48.5971 138.346 51.1698C138.869 51.7728 139.191 51.813 139.714 51.21C141.243 49.4011 142.852 47.6323 144.421 45.8635C144.582 45.6625 144.743 45.4213 144.904 45.1399ZM151.22 147.729C150.456 148.211 149.611 148.854 148.685 149.417C148.042 149.819 147.921 150.181 148.484 150.743C150.134 152.432 151.783 154.16 153.392 155.889C153.875 156.412 154.318 156.492 154.881 155.969C155.525 155.366 156.208 154.804 156.892 154.281C157.536 153.799 157.576 153.397 156.973 152.794C155.364 151.266 153.835 149.698 152.266 148.171C152.025 147.97 151.823 147.688 151.22 147.729ZM49.7998 153.035C49.7194 152.874 49.6791 152.753 49.5987 152.673C48.5929 152.03 47.5469 151.387 46.5009 150.784C46.0182 150.542 45.7366 151.025 45.455 151.306C44.4894 152.311 43.5642 153.316 42.6389 154.321C40.2251 156.934 40.2251 156.894 43.1216 159.065C43.8055 159.587 44.2481 159.547 44.7711 158.904C46.2596 157.135 47.7883 155.447 49.2768 153.678C49.478 153.517 49.5987 153.276 49.7998 153.035ZM49.1159 46.1449C48.9148 46.2655 48.7136 46.3459 48.5929 46.5067C47.8688 47.3107 47.1849 48.1549 46.5009 48.9589C46.0986 49.4413 46.2998 49.7629 46.6619 50.1247C48.432 51.813 50.2021 53.5416 51.9722 55.23C52.2136 55.4712 52.4952 55.833 52.8171 55.4712C53.6217 54.5064 54.3458 53.5014 54.909 52.3758C55.07 52.014 54.7884 51.7728 54.547 51.4914C52.9378 49.8433 51.3688 48.2353 49.7596 46.5871C49.5584 46.4665 49.3171 46.3459 49.1159 46.1449ZM88.3403 86.1834C88.1793 85.9824 88.0989 85.7814 87.9782 85.6608C85.5644 83.2087 83.1908 80.7967 80.777 78.3446C80.6161 78.1838 80.3747 77.9024 80.1333 78.1034C79.4092 78.7466 78.7655 79.5103 78.4034 80.3545C78.1218 80.9575 78.8862 81.2389 79.208 81.6007C81.1391 83.7313 83.5529 85.3794 85.0816 87.8718C85.4035 88.3542 85.7253 88.4346 86.2081 88.0326C86.7713 87.5502 87.3747 87.108 87.9782 86.6256C88.0989 86.5452 88.2196 86.3844 88.3403 86.1834ZM90.4322 127.87C90.4725 127.508 90.2713 127.347 90.1104 127.187C89.4667 126.624 88.7426 126.061 88.1391 125.458C87.6161 124.936 87.2541 125.096 86.8115 125.579C85.2425 127.307 83.6736 129.036 82.0644 130.724C81.5414 131.287 81.5011 131.649 82.2253 132.091C83.0299 132.573 83.7943 133.056 84.4782 133.659C85.0414 134.141 85.4035 134.021 85.8058 133.498C87.2541 131.729 88.7426 130.001 90.1908 128.232C90.2713 128.111 90.3518 127.95 90.4322 127.87ZM108.656 87.0276C108.978 86.9874 109.139 86.706 109.26 86.4648C110.427 84.1735 112.398 82.4851 114.007 80.5153C115.616 78.5456 115.657 78.5858 113.886 76.7768C113.363 76.214 113.042 76.2944 112.599 76.817C110.507 79.3495 108.375 81.8821 106.283 84.3745C106.082 84.6156 105.8 84.8568 105.961 85.2588C106.042 85.5 108.415 87.0276 108.656 87.0276ZM124.829 89.1582C124.708 89.0376 124.547 88.8366 124.386 88.6758C123.783 87.9924 123.099 87.3492 122.536 86.6256C121.973 85.8618 121.611 86.0628 121.088 86.6658C119.639 88.4346 118.191 90.2033 116.662 91.9721C116.18 92.5349 116.139 92.9369 116.783 93.4193C117.427 93.9419 118.07 94.5047 118.634 95.0675C119.076 95.5097 119.398 95.3891 119.76 94.9871C121.208 93.3791 122.697 91.8113 124.145 90.2033C124.507 89.922 124.829 89.6808 124.829 89.1582ZM125.754 122.323C125.634 121.88 125.352 121.639 125.07 121.358C123.22 119.549 121.409 117.74 119.599 115.891C117.547 113.8 117.588 113.8 115.817 116.092C115.335 116.735 115.455 117.137 116.059 117.458C117.065 118.021 117.869 118.785 118.634 119.589C119.881 120.875 121.128 122.162 122.375 123.448C122.697 123.77 123.019 124.333 123.622 123.931C124.386 123.488 125.191 123.006 125.754 122.323ZM115.294 130.081C115.214 129.639 114.932 129.438 114.731 129.197C113.685 128.151 112.599 127.106 111.513 126.021C109.099 123.609 109.099 123.609 106.685 126.021C106.645 126.061 106.565 126.142 106.484 126.182C106.202 126.463 106.162 126.744 106.444 127.066C108.053 128.795 109.501 130.684 111.231 132.332C111.553 132.654 111.875 132.815 112.317 132.453C113.162 131.769 114.047 131.126 114.892 130.483C115.093 130.362 115.214 130.161 115.294 130.081ZM78.5241 94.7459C78.4437 94.2635 78.1218 94.0223 77.8804 93.7811C76.3517 92.2133 74.8229 90.7259 73.3344 89.118C72.5701 88.2738 72.1275 88.3944 71.5643 89.319C71.2022 89.9622 70.7195 90.5651 70.1965 91.0877C69.6333 91.6907 69.6333 92.0927 70.2367 92.6153C71.5643 93.7409 72.731 95.0675 74.0988 96.1528C75.8287 97.4794 75.7885 97.5598 77.3172 95.992C77.7597 95.59 78.1218 95.1479 78.5241 94.7459ZM73.2137 125.981C73.7367 125.941 73.9781 125.539 74.2195 125.217C75.8287 123.408 77.3574 121.519 79.0873 119.83C80.9379 118.021 81.0184 118.102 79.1678 116.212C79.1276 116.172 79.0873 116.172 79.0873 116.132C78.685 115.569 78.2827 115.69 77.8804 116.132C75.6275 118.584 73.3747 121.076 71.162 123.529C70.9609 123.73 70.5988 124.011 70.8402 124.252C71.5241 125.016 72.3689 125.539 73.2137 125.981ZM128.289 58.2449C127.967 58.3253 127.766 58.6067 127.565 58.8881C126.398 60.2549 125.272 61.6618 124.105 63.0286C122.294 65.1994 122.294 65.1994 124.266 67.2898C124.829 67.8927 125.151 67.8123 125.634 67.2495C126.8 65.8828 128.007 64.5562 129.174 63.1894C131.306 60.6569 131.306 61.6217 129.093 58.9685C128.892 58.6871 128.731 58.2851 128.289 58.2449ZM142.49 138.603C142.329 138.402 142.088 138.161 141.887 137.92C140.639 136.674 139.433 135.428 138.145 134.222C135.812 132.011 136.737 131.93 133.8 134.101C133.237 134.503 133.277 134.865 133.72 135.307C135.45 137.076 137.139 138.844 138.829 140.653C139.151 140.975 139.473 141.216 139.915 140.895C140.68 140.332 141.484 139.769 142.249 139.206C142.369 139.086 142.53 138.925 142.49 138.603ZM63.7597 137.116C63.7999 136.714 63.5585 136.593 63.3574 136.433C62.8746 136.111 62.3516 135.83 61.9091 135.428C61.1045 134.664 60.501 134.865 59.8573 135.669C58.8114 136.915 57.6849 138.121 56.5987 139.287C54.4263 141.618 54.4263 141.618 57.2022 143.266C57.7654 143.628 58.1274 143.628 58.6102 143.106C60.1792 141.256 61.7884 139.447 63.3976 137.639C63.5585 137.438 63.6792 137.237 63.7597 137.116ZM161.318 151.909C161.076 152.07 160.754 152.271 160.513 152.552C158.944 154 158.864 153.638 160.392 155.125C161.881 156.613 163.41 158.14 164.938 159.628C166.99 161.597 166.186 161.637 168.72 159.949C169.323 159.547 169.444 159.306 168.881 158.743C166.628 156.613 164.415 154.482 162.163 152.351C161.961 152.11 161.76 151.869 161.318 151.909ZM70.0758 67.7721C70.0758 67.2898 69.7942 67.0888 69.5528 66.8878C68.3459 65.6818 67.1792 64.4356 65.9723 63.2296C63.2769 60.5765 64.2424 60.6167 61.8689 63.5914C61.5068 64.0336 61.4665 64.4356 61.9091 64.918C63.7194 66.6466 65.5298 68.3751 67.2999 70.1439C67.5011 70.3449 67.7827 70.6665 68.0643 70.3851C68.8689 69.5811 69.5126 68.6565 70.0758 67.7721ZM148.484 32.1958C148.364 31.7536 147.961 31.3918 147.599 30.9898C146.433 29.623 146.433 29.623 145.306 31.0702C143.777 32.9596 142.249 34.8087 140.76 36.6981C139.513 38.2659 139.553 38.2257 140.921 39.6326C141.645 40.3562 142.047 40.2758 142.691 39.512C144.421 37.3815 146.191 35.2911 147.961 33.1606C148.162 32.8792 148.444 32.6782 148.484 32.1958ZM50.8056 42.0848C50.5642 41.8034 50.3228 41.4818 50.0814 41.2406C48.3515 39.3914 46.5814 37.5825 44.8113 35.7333C43.3228 34.1655 43.363 34.1655 42.0354 35.9745C41.4722 36.6981 41.4722 37.2207 42.1561 37.8639C44.0871 39.7532 45.9377 41.723 47.8688 43.6526C48.1906 43.9742 48.5125 44.6978 49.0354 44.2556C49.7596 43.6526 50.4033 43.0094 50.8056 42.0848ZM38.7365 157.296C38.4952 156.733 38.0124 156.572 37.6503 156.211C36.8457 155.326 36.1618 155.326 35.317 156.331C33.748 158.14 32.0583 159.829 30.4491 161.517C28.5583 163.487 28.5583 163.487 31.0124 164.733C31.4951 164.974 31.8572 164.974 32.2193 164.532C34.2308 162.321 36.2825 160.11 38.3342 157.899C38.4952 157.698 38.6158 157.457 38.7365 157.296ZM89.2253 85.5402C89.7483 85.4196 90.0702 84.9372 90.5529 84.696C91.2368 84.2941 91.2368 83.9323 90.6736 83.3293C88.0587 80.6359 85.4437 77.9426 82.8287 75.209C82.6276 75.008 82.4667 74.6864 82.1046 74.807C81.3 75.0482 80.8172 77.219 81.4609 77.8622C83.754 80.2339 86.0874 82.5655 88.3805 84.9372C88.6219 85.2186 88.823 85.5 89.2253 85.5402ZM104.714 84.5352C105.317 84.5352 105.519 84.1333 105.76 83.8117C107.691 81.4801 109.582 79.0681 111.634 76.817C112.559 75.7718 112.599 75.0482 111.754 73.9628C111.07 73.0784 110.789 73.2392 110.225 73.9628C108.053 76.6562 105.84 79.3093 103.668 82.0027C103.346 82.4047 102.622 82.8067 102.984 83.3293C103.386 83.8921 104.151 84.1735 104.714 84.5352ZM69.5528 123.569C70.1562 123.529 70.4379 123.127 70.7195 122.805C72.7712 120.594 74.8632 118.343 76.9149 116.092C78.0414 114.846 78.0011 114.444 76.754 113.278C76.3919 112.956 76.1505 112.916 75.7885 113.278C73.093 116.132 70.3976 118.986 67.7424 121.84C67.5815 122.041 67.2597 122.323 67.6218 122.564C68.2252 122.966 68.9493 123.287 69.5528 123.569ZM119.72 111.308C119.157 111.75 118.794 112.353 118.432 112.916C118.111 113.398 118.513 113.68 118.794 113.961C121.007 116.132 123.18 118.303 125.392 120.473C126.72 121.76 126.68 121.72 128.329 120.835C129.134 120.393 129.134 120.112 128.49 119.509C125.795 116.936 123.139 114.323 120.484 111.75C120.283 111.589 120.082 111.348 119.72 111.308ZM68.8689 124.614C68.5068 123.931 67.8229 123.77 67.2597 123.448C66.7367 123.127 66.3344 123.328 65.9321 123.77C63.639 126.222 61.3459 128.634 59.0527 131.086C58.8516 131.287 58.4895 131.568 58.6907 131.81C59.1332 132.453 59.8976 132.694 60.501 133.056C60.9838 133.337 61.2654 133.016 61.547 132.694C63.8401 130.202 66.1332 127.709 68.4264 125.217C68.6275 125.056 68.7482 124.855 68.8689 124.614ZM79.8919 76.1738C80.5356 75.812 80.7368 75.1688 81.0988 74.606C81.4207 74.1236 81.4207 73.7216 80.9782 73.2794C78.6046 70.8675 76.2712 68.4555 73.9379 66.0034C73.7367 65.8024 73.5356 65.4406 73.2137 65.6014C72.5298 65.9632 72.2885 66.727 71.8459 67.3299C71.5241 67.7721 71.8861 68.0937 72.1678 68.4153C74.5413 70.8273 76.8747 73.2393 79.2483 75.6512C79.4494 75.8522 79.6506 75.9728 79.8919 76.1738ZM120.886 65.4808C120.806 64.8778 120.363 64.5964 120.082 64.1542C119.478 63.1492 118.996 63.1492 118.271 64.114C116.461 66.4456 114.611 68.7771 112.639 70.9479C111.714 71.9931 111.794 72.7167 112.599 73.7216C113.162 74.405 113.524 74.4854 114.128 73.7618C116.22 71.2293 118.312 68.6967 120.444 66.1642C120.645 65.9632 120.766 65.6818 120.886 65.4808ZM138.306 129.197C138.065 128.915 137.864 128.674 137.622 128.433C135.49 126.342 133.318 124.252 131.145 122.162C129.898 120.956 129.455 120.956 128.088 122.081C127.645 122.443 127.605 122.684 128.007 123.086C130.501 125.539 132.996 127.991 135.49 130.483C135.852 130.845 136.174 130.925 136.576 130.604C137.139 130.121 137.904 129.92 138.306 129.197ZM58.0068 49.6021C57.3631 50.0845 57.1619 50.808 56.7596 51.411C56.3976 51.9336 56.4378 52.3758 56.9205 52.818C58.8516 54.7476 60.7826 56.7575 62.7137 58.6871C63.116 59.0891 63.5585 59.7725 64.0413 58.8881C64.4436 58.1645 66.0126 57.7223 64.8459 56.4761C62.7941 54.3456 60.7424 52.215 58.6907 50.0845C58.4895 50.0041 58.2884 49.8433 58.0068 49.6021ZM128.45 56.4359C128.651 56.2752 128.812 56.1545 128.932 55.9938C130.783 53.7426 132.674 51.4914 134.524 49.2805C134.887 48.8785 134.927 48.5167 134.605 48.0745C134.323 47.7127 134.042 47.3509 133.841 46.9489C133.398 46.2253 133.036 46.1449 132.473 46.8685C130.662 49.1599 128.772 51.3708 126.961 53.6622C126.72 53.9436 126.237 54.2652 126.639 54.7476C127.162 55.3104 127.685 55.9536 128.45 56.4359ZM53.0182 141.859C52.5355 141.176 51.8113 140.814 51.2079 140.332C50.7251 139.97 50.4435 140.332 50.1619 140.613C48.1102 142.784 46.0584 144.995 44.0067 147.166C43.8055 147.367 43.5239 147.568 43.6446 147.889C43.9262 148.734 46.34 149.216 46.9435 148.573C48.7941 146.603 50.6044 144.593 52.455 142.583C52.6159 142.382 52.7768 142.141 53.0182 141.859ZM153.996 144.714C154.036 144.352 153.795 144.231 153.634 144.03C151.461 141.94 149.329 139.849 147.157 137.719C146.674 137.237 146.272 137.156 145.789 137.679C145.467 138 145.105 138.282 144.743 138.563C144.3 138.925 144.341 139.246 144.703 139.608C146.795 141.658 148.887 143.709 150.938 145.759C151.3 146.08 151.622 146.201 152.065 145.92C152.708 145.518 153.513 145.317 153.996 144.714ZM121.852 64.315C122.093 64.114 122.294 63.9532 122.455 63.7924C124.065 61.8629 125.634 59.9333 127.243 58.0439C127.645 57.5615 127.605 57.1595 127.243 56.7173C126.921 56.3957 126.639 56.034 126.358 55.6722C125.996 55.1898 125.674 55.1496 125.272 55.632C123.662 57.6419 122.013 59.6117 120.363 61.6217C120.122 61.9432 119.881 62.2648 120.203 62.6266C120.766 63.1492 121.128 63.913 121.852 64.315ZM143.496 138.161C144.099 138.04 144.461 137.558 144.944 137.277C145.708 136.835 145.789 136.433 145.105 135.789C143.536 134.342 142.047 132.815 140.519 131.327C139.191 130.041 139.191 130.041 137.662 131.126C136.978 131.609 136.938 131.97 137.542 132.573C139.272 134.222 140.921 135.91 142.611 137.598C142.892 137.84 143.134 138.081 143.496 138.161ZM59.978 134.302C59.5757 133.578 58.8114 133.377 58.2079 132.975C57.7251 132.614 57.3631 132.895 57.0412 133.257C55.3516 135.066 53.6619 136.835 52.0125 138.643C51.8113 138.844 51.4493 139.086 51.6102 139.367C52.0125 140.091 52.8171 140.332 53.4608 140.774C53.9435 141.096 54.2251 140.694 54.5067 140.412C56.1562 138.603 57.8458 136.794 59.4953 134.985C59.6562 134.784 59.7769 134.543 59.978 134.302ZM72.3689 64.5964C72.208 64.3552 72.1275 64.1542 71.9666 63.9532C70.1965 62.104 68.3861 60.2147 66.616 58.3655C66.4551 58.2047 66.2137 57.8831 66.0126 58.0439C65.3286 58.5665 64.9263 59.2901 64.524 60.0137C64.2424 60.5363 64.8056 60.8177 65.0873 61.1393C66.5758 62.707 68.1045 64.2346 69.6333 65.7622C69.9953 66.124 70.2769 66.8878 70.8804 66.526C71.5643 66.124 71.9264 65.32 72.3689 64.5964ZM45.3745 150.1C44.6504 149.658 44.0067 149.296 43.3228 148.854C42.84 148.533 42.4779 148.693 42.1159 149.055C40.8687 150.382 39.6216 151.708 38.3342 153.075C36.9262 154.562 36.9262 154.562 38.6561 155.768C39.1791 156.13 39.6618 156.492 40.2653 155.809C41.7538 154.12 43.3228 152.472 44.8113 150.824C44.9722 150.663 45.1331 150.462 45.3745 150.1ZM154.68 145.477C154.237 145.759 153.674 146.121 153.111 146.442C152.306 146.884 152.387 147.286 152.99 147.849C154.277 149.055 155.484 150.341 156.731 151.547C158.582 153.316 157.898 153.276 160.111 151.748C160.795 151.266 160.714 150.904 160.191 150.382C158.663 148.935 157.134 147.407 155.605 145.96C155.364 145.719 155.162 145.518 154.68 145.477ZM57.1619 48.9589C57.1619 48.5167 56.8803 48.3157 56.6792 48.0745C55.5125 46.8283 54.3056 45.5821 53.1389 44.3762C51.3286 42.5672 51.9722 42.3662 50.0814 44.6978C49.7596 45.1399 49.7194 45.5017 50.1217 45.9037C51.7711 47.5519 53.3803 49.2403 55.0297 50.8884C55.2309 51.0894 55.4723 51.411 55.7539 51.0894C56.3171 50.4463 56.7999 49.7227 57.1619 48.9589ZM135.57 47.5921C136.053 47.5519 136.214 47.2303 136.415 46.9891C137.501 45.6625 138.628 44.3762 139.714 43.0496C141.323 41.0396 141.484 41.6828 139.674 39.5522C139.191 38.9895 138.869 38.9895 138.427 39.5522C137.059 41.2406 135.691 42.929 134.323 44.6174C134.042 44.9389 133.76 45.2605 134.082 45.7027C134.524 46.3861 134.967 47.0695 135.57 47.5921Z" fill="#B69D86"/>
</svg>
