<svg width="197" height="252" viewBox="0 0 197 252" fill="none" xmlns="http://www.w3.org/2000/svg">
<path d="M122.972 237.809C121.564 236.361 121.403 234.593 121.202 232.864C120.84 230.171 120.88 230.171 118.265 229.769C117.018 229.568 115.811 229.367 114.564 229.126C114.242 229.085 113.84 229.005 113.88 228.563C113.92 228.121 114.363 228.121 114.685 228.161C116.213 228.281 117.782 228.362 119.311 228.563C120.317 228.683 120.8 228.563 120.598 227.357C120.196 224.985 120.277 224.985 117.863 224.623C116.656 224.462 115.449 224.262 114.282 224.061C113.96 224.02 113.558 223.98 113.598 223.498C113.639 223.056 114.041 223.056 114.363 223.056C115.891 223.176 117.46 223.257 118.989 223.458C119.834 223.578 120.116 223.337 120.035 222.493C119.914 220.644 119.955 220.644 118.144 220.523C116.334 220.402 114.564 220.322 112.754 220.242C112.271 220.201 111.748 220.242 111.265 219.92C111.667 219.357 112.231 219.357 112.713 219.317C114.725 219.076 116.736 219.116 118.708 219.277C119.15 219.317 119.794 219.397 119.633 218.674C119.472 217.99 120.035 216.985 118.868 216.704C118.708 216.664 118.547 216.704 118.386 216.704C103.943 216.744 89.5408 215.94 75.1384 216.141C68.8223 216.222 62.5061 216.382 56.2302 217.146C55.2245 217.267 54.2187 217.468 52.9716 217.709C53.575 218.191 54.0176 217.99 54.4199 217.95C62.5464 217.267 70.6728 216.744 78.8395 217.066C80.6499 217.146 82.0177 217.428 83.2246 218.111C81.8568 218.392 80.7304 218.513 79.6039 218.473C73.3683 218.272 67.1326 218.473 60.9371 218.875C58.5233 219.036 56.1095 219.237 53.6957 219.478C52.8107 219.558 51.8451 221.93 52.4084 222.613C52.7704 223.015 53.2934 222.814 53.6957 222.774C57.5176 222.453 61.3395 222.091 65.2015 221.809C71.8797 221.327 78.5579 221.005 85.2361 220.965C86.8453 220.965 87.489 221.086 88.4948 221.608C88.1327 222.091 87.6097 222.01 87.1269 222.01C80.6499 222.372 74.1729 222.654 67.736 223.056C62.8682 223.337 57.9601 223.779 53.0923 224.141C52.6497 224.181 52.0865 224.141 52.0061 224.744C51.8854 225.508 51.5233 226.312 51.8451 227.075C52.0061 227.477 52.5291 227.196 52.8911 227.156C58.4831 226.513 64.1153 225.99 69.7878 226.151C72.9257 226.231 76.0637 226.472 79.1614 226.995C80.1671 227.156 81.1729 227.357 82.2189 228.201C81.0522 228.362 80.0867 228.362 79.1614 228.241C70.351 227.075 61.5406 227.437 52.7704 228.442C51.5233 228.603 51.0003 229.367 51.2417 230.613C51.4026 231.417 52.0061 231.095 52.4486 231.055C55.8279 230.734 59.167 230.372 62.5464 230.09C68.3797 229.608 74.2533 229.688 80.0867 230.05C81.2936 230.131 82.5005 230.251 83.7878 230.894C82.3798 231.417 81.1327 231.337 79.8453 231.337C74.9775 231.216 70.1498 231.095 65.282 231.337C60.8567 231.538 56.4314 231.94 52.0463 232.422C51.0405 232.543 50.4773 233.387 50.7187 234.352C50.8796 234.955 51.3222 234.794 51.7245 234.754C58.4027 234.03 65.1211 233.668 71.8395 233.186C73.4487 233.065 75.0579 232.945 76.6671 233.467C76.3855 234.11 75.8625 234.03 75.4602 234.11C70.7533 234.914 65.9659 234.995 61.2188 235.437C58.0004 235.718 54.8222 235.96 51.6038 236.16C50.6382 236.201 50.2359 236.603 50.2762 237.527C50.3164 238.532 49.552 239.778 50.1957 240.422C50.7992 241.025 51.9256 240.14 52.8509 239.939C58.282 238.854 63.7533 237.809 69.2648 237.125C70.8338 236.924 72.4027 236.763 74.0522 237.527C72.966 238.412 71.7993 238.532 70.7131 238.653C64.1153 239.457 57.5578 240.582 51.0003 241.587C50.4371 241.668 49.9543 241.708 49.7934 242.432C49.5118 243.678 49.7129 243.959 50.9601 243.638C56.4716 242.19 62.0234 240.984 67.736 240.743C68.9429 240.703 70.1096 240.944 71.3567 241.668C69.9487 242.271 68.7016 242.633 67.374 242.713C61.8222 243.155 56.3911 244.241 50.9199 245.406C48.3049 245.969 45.8106 246.934 43.1152 247.135C40.2991 247.376 37.4428 247.698 34.6267 247.818C34.1037 247.858 33.46 247.698 33.4198 248.542C33.3795 249.386 34.0232 249.265 34.5462 249.386C35.8738 249.708 37.3221 249.708 38.7301 250.351C35.7933 251.597 32.9772 252.16 30.0002 251.557C29.3967 251.476 29.0347 251.115 28.9944 250.552C28.6324 247.336 28.7128 244.12 28.9542 240.904C29.3967 234.995 30.322 229.126 31.4485 223.297C31.6094 222.412 31.3278 222.252 30.5634 222.453C29.8393 222.654 29.1151 222.814 28.3508 222.935C27.0634 223.176 26.1381 222.252 26.7416 221.126C28.0692 218.754 28.5519 216.262 28.4312 213.568C28.391 212.765 29.0347 212.363 29.799 212.202C30.8853 212.001 31.9715 211.679 33.0979 211.398C33.7416 211.237 34.0634 210.875 34.1841 210.232C35.2301 205.046 36.1152 199.82 36.6784 194.514C37.2416 189.087 37.8853 183.66 38.529 178.193C39.1324 173.208 39.6152 168.264 40.3796 163.319C41.4255 156.526 41.9083 149.692 42.8336 142.938C42.9945 141.813 43.7589 140.808 43.075 139.562C42.8738 139.16 42.6727 138.959 42.3106 138.758C39.4945 137.27 36.437 136.627 33.3795 135.984C32.1726 135.743 30.9657 135.26 29.7588 135.019C28.5519 134.778 28.4312 134.135 28.7531 133.17C29.5174 130.919 30.322 128.668 31.7301 126.698C32.9772 124.929 33.9427 123.08 34.868 121.15C36.96 116.889 39.5347 112.869 42.1899 108.93C46.8566 102.096 50.7589 94.7394 55.4256 87.9457C59.6096 81.8354 63.9142 75.8055 68.0981 69.7354C70.5521 66.1979 72.8453 62.5398 75.5809 59.2032C76.3855 58.2384 77.3913 57.4747 78.2763 56.5903C78.6384 56.1883 79.0407 55.6255 79.6844 56.3491C80.1671 56.9119 80.8511 57.1933 80.2074 58.1982C79.4028 59.4444 78.8798 60.8916 78.2361 62.2584C77.7936 63.183 77.3108 64.1075 76.5062 64.8713C76.1039 64.1879 76.7074 63.5849 76.466 62.9016C75.9027 63.0624 75.7016 63.6251 75.3395 63.9467C75.0981 64.1477 74.897 64.6703 74.4545 64.1075C74.2131 63.8261 74.0119 64.1075 73.851 64.3085C73.2878 65.0723 72.6441 65.7557 72.1614 66.8009C74.2131 66.5195 76.0234 65.9567 77.9545 66.0773C79.8051 66.1577 81.6959 65.8361 83.5465 66.9215C82.9028 67.4441 82.2591 67.3637 81.6556 67.3235C78.5177 67.2029 75.3798 67.4441 72.282 67.8863C71.7188 67.9667 71.0349 68.0069 70.6728 68.4893C69.5464 69.9766 68.5004 71.5042 67.4947 73.1524C74.0522 71.866 80.5292 70.7404 87.0465 72.9916C87.489 73.1524 88.012 73.3132 88.2132 73.9966C87.4086 74.2378 86.6442 74.1172 85.8798 73.9564C79.7246 72.7906 73.6499 73.474 67.5349 74.278C66.851 74.3584 66.2878 74.5995 65.8452 75.2025C64.6383 76.9713 63.3912 78.6999 62.1843 80.4284C62.0234 80.6696 61.7015 80.9108 61.8624 81.1922C62.0636 81.554 62.4659 81.3128 62.7877 81.2726C68.5004 80.2274 74.2935 80.3882 80.0464 80.75C81.6556 80.8304 83.3051 80.8706 84.8741 81.353C85.2764 81.4736 85.7189 81.5138 86.0005 81.9962C85.1959 82.358 84.3511 82.3178 83.5465 82.2776C80.7706 82.1972 78.0349 82.0364 75.2591 81.956C70.9142 81.8756 66.4487 82.1168 61.9831 82.6394C61.0176 82.76 60.3739 83.2022 59.8912 84.0062C59.2073 85.172 58.4027 86.2573 57.5176 87.6241C67.4142 85.0112 77.1096 84.4484 86.8856 85.8151C87.3281 85.8955 87.8913 85.8554 88.2534 86.4985C86.8856 86.8201 85.5982 86.8603 84.2706 86.8603C78.2763 86.6995 72.3223 86.6995 66.3682 87.3427C63.351 87.7045 60.3739 88.1467 57.4774 88.9507C55.8682 89.3929 55.4659 90.8803 54.7417 92.0058C54.4601 92.4882 55.0636 92.4078 55.3452 92.3676C56.5923 92.2068 57.8394 92.0058 59.0463 91.8048C65.9659 90.8401 72.8855 90.9607 79.8051 91.5234C81.535 91.644 83.2246 91.9656 84.9143 92.7294C84.3913 93.2118 83.9085 93.0912 83.466 93.0912C80.9717 93.252 78.4372 93.051 75.943 92.9304C68.782 92.4882 61.6613 92.9706 54.5406 93.6138C54.0176 93.654 53.4946 93.7746 53.213 94.2168C52.0865 95.9454 50.9601 97.7141 49.6727 99.7643C56.6728 98.2367 63.3912 97.9151 70.1498 98.0759C76.828 98.1965 83.5867 97.7543 90.104 99.6035C90.104 99.8045 90.104 99.9653 90.104 100.166C88.8568 100.247 87.6499 100.407 86.4028 100.367C78.397 100.086 70.351 99.6437 62.3452 99.8849C58.0808 100.005 53.8164 100.247 49.5923 100.93C48.9486 101.051 48.3854 101.292 48.0233 101.814C44.7244 106.236 42.3508 111.141 39.6957 115.924C39.6554 115.965 39.6957 116.085 39.7359 116.286C48.2244 114.397 56.713 112.588 65.4027 112.226C83.5867 111.422 88.8971 111.703 91.4718 113.392C89.7017 113.633 88.2132 113.914 86.6442 113.874C80.0464 113.673 73.4487 113.553 66.851 113.914C61.0981 114.236 55.3854 114.96 49.6727 115.844C46.575 116.326 43.4773 116.849 40.3796 117.251C39.2531 117.412 38.529 117.854 37.9658 118.899C37.0405 120.588 36.5175 122.477 35.5117 124.085C35.391 124.286 35.2301 124.567 35.391 124.768C35.6324 125.05 35.914 124.808 36.1956 124.728C40.3796 123.562 44.5635 122.437 48.8681 121.633C57.3969 120.025 66.0061 119.542 74.6958 119.904C79.8453 120.105 84.9545 120.387 90.0637 120.909C92.8396 121.191 95.173 121.753 96.5408 122.678C96.2189 123.12 95.7362 122.999 95.3339 123.04C92.3166 123.281 89.3396 122.758 86.3223 122.477C79.1614 121.874 71.9602 121.593 64.759 121.713C56.5521 121.834 48.5463 123.12 40.5807 124.889C38.9715 125.251 37.4025 125.572 35.7933 125.894C33.7416 126.256 32.0519 128.266 32.0519 130.316C32.0519 131.843 32.937 132.848 34.4255 133.009C35.7933 133.17 37.0807 132.808 38.3278 132.326C42.8336 130.678 47.3394 128.909 52.0061 127.864C54.8222 127.22 57.7187 127.1 60.5751 126.738C67.213 125.974 73.851 126.296 80.489 126.376C92.5178 126.497 104.426 127.582 116.254 129.713C116.777 129.793 117.3 129.994 117.823 130.075C118.225 130.155 118.627 130.597 118.949 130.195C119.19 129.914 118.828 129.472 118.788 129.11C118.506 126.577 116.777 126.135 114.644 125.974C111.426 125.733 108.248 125.411 105.029 125.09C104.345 125.009 103.098 125.17 103.139 124.406C103.179 123.602 104.386 123.924 105.07 123.964C108.65 124.045 112.271 124.165 115.811 124.688C117.098 124.889 117.058 124.808 116.616 123.562C116.294 122.678 115.771 122.316 114.805 122.155C111.064 121.512 107.322 120.829 103.501 120.588C103.219 120.588 102.937 120.547 102.656 120.226C103.38 119.743 104.144 119.663 104.949 119.663C108.087 119.663 111.185 120.025 114.242 120.789C114.564 120.869 114.926 121.11 115.208 120.829C115.489 120.547 115.167 120.226 115.047 119.904C113.96 117.372 112.834 114.839 111.828 112.306C111.466 111.342 110.822 111.06 109.897 111.06C107.162 111.02 104.506 110.498 101.771 110.578C101.288 110.578 100.805 110.618 100.322 110.297C100.684 109.694 101.288 109.734 101.771 109.653C104.386 109.171 107.041 109.412 109.656 109.774C110.541 109.895 110.621 109.734 110.38 108.89C109.857 107.201 108.972 106.277 107.081 106.156C104.466 105.995 101.851 105.553 99.196 105.513C98.7937 105.513 98.1098 105.674 98.0695 105.071C98.0695 104.628 98.7132 104.669 99.1155 104.588C101.932 104.146 104.708 104.508 107.483 104.87C107.805 104.91 108.167 105.191 108.409 104.87C108.65 104.548 108.368 104.226 108.208 103.945C107.363 102.056 106.437 100.166 105.633 98.2367C105.311 97.4729 104.828 97.1514 103.983 97.1514C102.616 97.1916 101.207 97.1514 99.8397 97.1112C99.3569 97.1112 98.8339 97.2318 98.3914 96.5484C99.5983 96.1062 100.805 95.9454 102.052 95.9052C102.334 95.9052 102.656 95.9454 102.937 95.865C103.34 95.7444 104.144 96.2268 104.104 95.4228C104.104 94.7394 103.702 94.0158 102.776 94.0158C101.328 93.9756 99.8397 93.9354 98.3914 93.9354C98.0293 93.9354 97.627 93.9354 97.2649 93.855C96.9833 93.8148 96.6213 93.8148 96.6213 93.4128C96.6213 93.051 96.9833 93.0108 97.3052 92.9706C98.7534 92.85 100.242 92.7294 101.69 92.85C102.616 92.9304 102.817 92.7294 102.374 91.845C100.644 88.4281 100.644 88.4281 96.8224 87.7849C96.3799 87.7045 95.8971 87.7045 95.4546 87.6643C95.012 87.5839 94.2477 87.8251 94.2879 87.1015C94.3281 86.4985 95.0523 86.5789 95.535 86.5387C96.5006 86.4583 97.4661 86.5789 98.3914 86.6995C98.673 86.7397 98.9948 86.9005 99.196 86.5789C99.3569 86.3377 99.1155 86.1367 98.9948 85.8955C98.4316 84.4484 97.4259 83.6444 95.8167 83.564C94.6097 83.4836 93.4028 83.2424 92.2362 83.0414C91.9948 83.0012 91.5523 83.0012 91.6327 82.5992C91.6729 82.3178 91.9948 82.2776 92.2362 82.2776C93.4833 82.157 94.7304 82.3178 95.9776 82.5992C96.2592 82.6796 96.581 82.8404 96.7822 82.559C96.9833 82.2776 96.6615 82.0364 96.5408 81.755C96.5408 81.7148 96.5006 81.6746 96.4603 81.6344C95.6155 79.3833 93.9258 78.6195 91.6327 78.9009C91.1902 78.9411 90.3454 79.3029 90.3051 78.4989C90.2649 77.8557 91.0293 77.8557 91.5523 77.6949C91.6327 77.6547 91.7132 77.6547 91.7936 77.6547C93.7649 77.3733 93.8051 77.3733 92.7189 75.6849C91.512 73.7956 90.2247 71.9062 88.9775 70.057C88.6155 69.4942 88.2534 68.9314 87.4086 69.0922C87.0867 69.1726 86.7246 68.8912 87.0867 68.6099C87.8109 68.0471 87.3281 67.6853 87.0465 67.2833C86.2017 65.9969 85.3568 64.6301 83.5062 64.7909C83.3855 64.7909 83.2649 64.7105 83.1844 64.6703C83.1442 64.6301 83.1039 64.5497 83.0637 64.4693C84.4315 63.5849 84.4315 63.5849 83.3855 62.0574C82.9028 61.374 82.4603 60.6504 81.8568 60.0876C81.4947 59.766 81.2936 59.364 81.4143 58.8414C81.8166 58.6806 81.897 59.0424 82.0982 59.2434C83.8281 61.173 85.5177 63.1026 86.8453 65.3537C87.5695 66.5597 88.8166 67.4843 89.6212 68.7305C94.7707 76.8105 100.041 84.77 105.07 92.9304C108.167 97.9553 110.299 103.463 112.673 108.849C115.047 114.196 117.179 119.663 119.633 124.929C120.598 126.979 121.162 129.15 121.846 131.281C122.409 133.09 122.006 133.974 120.277 134.657C118.144 135.501 115.972 136.265 113.8 136.989C112.955 137.27 112.713 137.712 112.874 138.557C113.92 143.823 114.845 149.129 115.529 154.476C115.932 157.45 116.254 160.465 116.495 163.44C117.018 170.756 118.024 178.073 118.949 185.349C119.713 191.62 120.437 197.891 120.759 204.162C120.88 206.172 120.84 206.212 122.811 206.252C125.466 206.292 128.162 206.292 130.817 206.172C137.294 205.931 143.771 206.292 150.248 206.212C150.771 206.212 151.254 206.292 151.656 206.614C154.593 208.905 157.449 211.277 159.943 214.051C160.547 214.734 161.633 215.578 161.11 216.382C160.829 216.784 159.622 215.659 158.978 215.056C156.685 212.925 154.432 210.755 152.179 208.584C151.978 208.423 151.817 208.222 151.616 208.061C151.254 207.78 150.811 207.579 150.489 207.941C150.127 208.343 150.65 208.624 150.851 208.865C152.823 211.036 154.834 213.166 156.805 215.297C157.65 216.222 158.455 217.186 159.018 218.513C157.892 218.352 157.208 217.669 156.604 217.026C153.949 214.372 151.294 211.719 148.92 208.785C148.639 208.463 148.397 208.061 147.955 208.021C147.432 207.941 146.748 207.699 146.426 208.182C146.185 208.584 146.828 208.905 147.11 209.227C149.524 211.88 152.018 214.493 154.432 217.146C154.995 217.749 156.122 218.754 155.518 219.237C154.834 219.799 153.949 218.674 153.346 218.031C150.449 215.056 147.673 212.001 145.018 208.825C144.495 208.182 143.932 207.86 143.127 207.86C142.001 207.86 140.874 207.78 139.748 207.74C139.466 207.74 139.104 207.579 138.943 207.9C138.782 208.222 139.104 208.423 139.265 208.664C140.915 210.755 142.604 212.845 144.294 214.935C144.857 215.659 145.34 216.423 145.622 217.468C144.656 217.468 144.213 216.825 143.731 216.302C141.8 214.051 139.869 211.8 138.259 209.307C137.415 207.981 136.489 207.418 135.001 207.699C134.438 207.82 133.673 207.418 133.392 208.021C133.11 208.584 133.834 209.026 134.196 209.468C136.047 211.92 137.978 214.372 139.869 216.825C140.432 217.548 141.076 218.272 141.317 219.156C141.558 220.121 142.122 220.282 142.966 220.282C146.346 220.282 149.725 220.282 153.145 220.322C154.15 220.322 155.156 220.443 156.122 220.563C156.966 220.684 157.731 220.925 158.616 220.362C159.501 219.799 160.346 220.483 160.306 221.528C160.185 224.663 159.38 227.719 159.018 230.814C158.938 231.417 158.495 231.739 157.932 231.859C157.489 231.94 157.007 231.98 156.564 231.98C154.593 231.98 154.11 231.337 154.754 229.528C155.558 227.196 156.403 224.864 157.489 222.654C157.811 222.01 158.053 221.448 156.886 221.528C151.415 221.93 145.943 221.528 140.472 221.689C139.667 221.729 138.903 221.689 138.259 222.372C138.139 222.533 137.897 222.654 137.696 222.654C136.208 222.774 135.202 223.377 134.961 224.985C134.92 225.266 134.679 225.548 134.317 225.467C133.874 225.387 133.915 224.985 133.834 224.704C133.713 224.221 134.317 223.337 133.311 223.377C132.386 223.417 131.219 223.056 130.736 224.342C130.656 224.623 130.575 224.945 130.213 224.985C129.771 225.025 129.811 224.663 129.771 224.382C129.731 223.86 129.409 223.779 129.006 223.779C127.075 223.94 125.185 224.221 123.254 224.141C122.69 224.141 122.61 224.462 122.65 224.985C122.892 227.437 123.133 229.849 123.374 232.301C123.656 234.191 123.897 235.959 122.972 237.809ZM88.9373 208.302C88.4948 208.503 88.2936 208.905 88.0522 209.307C87.8511 209.629 87.8913 209.951 88.1729 210.192C88.3741 210.393 88.5752 210.513 88.8166 210.312C89.1385 210.111 89.4201 209.83 89.2994 209.428C89.1787 209.026 89.0178 208.624 88.9373 208.302C89.3396 208.423 89.7419 208.624 90.1442 208.745C90.5063 208.825 90.7879 208.624 90.9488 208.302C91.0293 208.142 90.9488 207.941 90.7879 207.941C90.1442 207.9 89.3798 207.418 88.9373 208.302ZM106.196 171.962C106.88 171.44 107.483 171.48 108.047 171.52C109.535 171.6 111.064 171.721 112.552 171.882C115.127 172.163 115.087 172.203 114.886 169.631C114.805 168.626 114.443 168.143 113.397 168.063C111.104 167.902 108.811 167.661 106.518 167.38C105.753 167.299 104.949 167.299 104.265 166.777C104.667 166.214 105.23 166.375 105.673 166.375C108.208 166.375 110.782 166.495 113.317 166.817C114.202 166.937 114.564 166.696 114.483 165.772C114.363 164.726 114.282 163.681 114.242 162.636C114.202 161.711 113.8 161.309 112.874 161.269C110.581 161.149 108.288 160.948 105.995 160.787C105.633 160.747 105.11 160.867 105.11 160.345C105.11 159.862 105.633 159.902 105.995 159.862C107.765 159.661 109.495 159.742 111.265 159.862C114.242 160.063 114.202 160.063 113.8 157.129C113.679 156.244 113.317 155.923 112.472 155.802C110.34 155.44 108.167 155.28 105.995 155.079C105.633 155.038 104.989 155.199 105.029 154.636C105.029 154.154 105.633 154.275 105.955 154.234C108.127 153.993 110.299 154.194 112.432 154.556C113.156 154.677 113.558 154.556 113.397 153.672C113.196 152.667 113.035 151.621 112.995 150.576C112.955 149.37 112.311 149.049 111.225 149.008C109.334 148.968 107.483 148.848 105.593 148.687C105.15 148.647 104.386 148.687 104.386 148.084C104.426 147.561 105.15 147.722 105.552 147.722C107.483 147.601 109.414 147.601 111.305 147.802C111.667 147.843 112.15 148.044 112.391 147.521C112.834 146.476 112.029 144.788 110.903 144.587C109.133 144.265 107.363 144.024 105.593 143.783C105.19 143.702 104.667 143.823 104.386 143.18C106.276 142.697 108.047 143.019 109.817 143.22C111.868 143.461 111.708 143.501 111.627 141.491C111.587 139.883 110.742 139.521 109.455 139.361C108.047 139.16 106.639 139.039 105.19 139.119C104.949 139.119 104.627 139.16 104.627 138.838C104.627 138.717 104.868 138.516 105.029 138.436C105.391 138.315 105.753 138.235 106.116 138.155C107.483 137.954 108.851 137.994 110.219 138.275C110.903 138.436 111.144 138.275 111.064 137.552C110.903 136.426 110.983 135.3 110.742 134.175C110.581 133.451 110.179 132.969 109.575 132.647C106.558 130.919 103.219 129.954 99.9201 129.351C94.5293 128.386 89.0178 128.266 83.5465 128.105C78.1959 127.944 72.805 127.743 67.4544 128.426C64.6785 128.788 61.9429 129.23 59.2073 129.874C58.5233 130.034 58.2417 130.316 58.4027 131.12C58.6038 132.004 58.6843 132.969 58.644 133.853C58.5636 135.059 59.0866 135.26 60.1325 135.059C63.0693 134.577 66.0061 134.295 68.9832 134.175C71.5981 134.054 74.1729 134.215 76.7074 134.697C77.3108 134.818 77.9545 134.979 78.5177 135.582C78.1959 135.662 78.0349 135.743 77.874 135.743C77.1097 135.743 76.3855 135.783 75.6211 135.702C70.3912 135.26 65.1613 135.582 59.9716 136.346C58.644 136.547 58.5636 136.748 58.805 138.717C58.9659 139.964 59.7705 139.481 60.3739 139.401C65.1613 138.677 69.9487 138.396 74.7361 139.28C75.5407 139.441 76.305 139.642 76.9085 140.325C76.1039 140.406 75.3395 140.406 74.5752 140.285C70.2303 139.682 65.8855 139.843 61.5808 140.486C58.282 140.969 58.9659 140.567 58.805 143.541C58.6843 145.953 58.3624 145.792 60.9371 145.632C67.4544 145.31 73.9717 144.747 80.489 144.908C81.535 144.948 82.5407 145.029 83.5867 145.471C82.943 145.953 82.2993 145.873 81.6959 145.873C74.8568 145.833 68.0981 146.395 61.259 146.757C58.2417 146.918 58.6843 146.355 58.5636 149.531C58.4831 151.782 58.121 151.822 60.736 151.501C66.4487 150.817 72.2016 150.214 77.9947 150.536C79.0005 150.576 80.0867 150.576 81.1729 151.26C80.2074 151.621 79.4028 151.581 78.5982 151.581C72.6441 151.541 66.7303 151.983 60.8165 152.667C58.121 152.988 58.4429 152.626 58.3624 155.28C58.282 157.812 57.9601 157.531 60.5751 157.37C65.7648 157.048 70.9142 156.646 76.1039 157.209C76.5867 157.249 77.1097 157.249 77.5924 157.772C76.2648 158.053 75.0981 158.134 73.8912 158.134C69.4659 158.134 65.0406 158.335 60.6153 158.576C57.6785 158.737 58.3222 158.656 58.2015 161.028C58.121 162.636 58.1613 162.636 59.8509 162.556C65.4429 162.314 71.0349 162.073 76.6671 162.435C77.7131 162.515 78.7993 162.515 79.8453 163.239C78.5982 163.641 77.512 163.641 76.3855 163.641C71.397 163.561 66.4487 163.52 61.4601 163.762C58.1613 163.922 58.1613 163.922 57.9601 167.259C57.8394 169.349 57.8394 169.309 59.8912 169.108C64.7992 168.585 69.7073 168.183 74.6556 168.425C76.0234 168.465 77.351 168.626 78.6384 169.309C77.3108 169.711 75.9832 169.751 74.6154 169.751C69.7475 169.671 64.9199 169.952 60.0923 170.435C57.8394 170.676 57.9199 170.716 57.6383 172.967C57.4774 174.254 57.9199 174.414 59.0463 174.294C63.9142 173.771 68.782 173.57 73.6901 173.771C75.6211 173.852 77.5522 173.892 79.4028 174.334C79.8453 174.455 80.3683 174.414 80.6901 175.138C79.4028 175.339 78.2361 175.299 77.0694 175.259C71.5579 175.058 66.0464 174.977 60.5348 175.5C57.4371 175.781 57.4371 175.741 57.1555 178.836C56.9946 180.484 56.9946 180.525 58.6843 180.364C63.9142 179.962 69.1039 179.56 74.3338 179.439C75.7418 179.399 77.1096 179.52 78.5982 180.002C78.1556 180.484 77.6729 180.444 77.2303 180.484C71.5177 180.846 65.805 181.208 60.0923 181.61C56.9544 181.851 56.9544 181.891 56.6325 185.027C56.4716 186.796 56.4716 186.756 58.1613 186.715C65.4027 186.434 72.6441 186.434 79.8051 187.56C80.9315 187.72 82.058 187.962 83.3051 188.846C81.5752 189.007 80.2074 188.926 78.8395 188.766C71.7188 187.921 64.5579 187.881 57.4371 188.122C56.6325 188.163 56.3107 188.484 56.2705 189.248C56.1498 190.896 56.0291 192.584 55.8279 194.233C55.7072 195.238 55.8682 195.599 56.9946 195.479C59.2475 195.238 61.5004 195.157 63.7533 195.037C68.5809 194.755 73.4487 194.474 78.2763 194.795C79.6039 194.876 80.9717 194.996 82.5005 195.76C80.8913 196.162 79.5637 196.122 78.2361 196.122C71.8395 195.961 65.4429 196.323 59.0463 196.725C55.4659 196.966 55.5463 197.006 55.1038 200.544C54.9831 201.629 55.3452 201.83 56.3107 201.75C61.8624 201.308 67.4142 201.388 72.966 201.71C76.8683 201.951 80.8108 202.192 84.6729 203.076C85.5177 203.277 86.443 203.318 87.2476 204.081C85.4775 204.242 83.8683 204.122 82.2993 203.961C74.3338 203.076 66.3682 202.634 58.4027 202.996C54.6613 203.157 54.7015 203.197 54.2187 206.855C54.098 207.74 54.2589 208.101 55.2245 207.941C57.1957 207.659 59.2073 207.498 61.2188 207.257C65.9659 206.735 70.7131 206.493 75.4602 206.373C80.2476 206.292 85.035 206.775 89.8224 206.855C98.9546 207.056 108.127 207.418 117.219 208.262C117.782 208.302 118.627 208.624 118.547 207.539C118.506 206.694 118.828 205.609 117.34 205.529C115.891 205.448 114.443 205.247 112.995 205.046C112.271 204.966 111.506 204.765 110.782 204.604C110.541 204.564 110.299 204.443 110.299 204.122C110.299 203.8 110.581 203.72 110.822 203.679C111.185 203.639 111.587 203.639 111.949 203.679C113.719 203.8 115.449 203.961 117.219 204.081C117.581 204.122 118.024 204.242 118.265 203.88C118.828 203.076 117.823 200.866 116.857 200.785C114.363 200.504 111.868 200.263 109.374 199.981C108.972 199.941 108.368 200.062 108.368 199.499C108.368 198.976 108.972 199.016 109.374 199.016C111.426 198.896 113.478 199.016 115.529 199.177C118.064 199.378 118.064 199.418 117.782 196.926C117.541 194.715 117.541 194.715 115.368 194.474C113.88 194.313 112.391 194.152 110.863 193.991C110.501 193.951 109.978 193.991 109.978 193.549C109.978 192.986 110.541 193.067 110.943 193.027C111.386 192.986 111.868 192.946 112.311 192.986C113.639 193.067 114.966 193.187 116.294 193.268C116.696 193.308 117.259 193.509 117.3 192.866C117.34 191.338 117.42 189.65 116.696 188.323C116.254 187.439 114.845 187.801 113.88 187.64C112.512 187.439 111.144 187.318 109.776 187.158C109.575 187.117 109.374 187.117 109.173 187.077C108.932 187.037 108.61 187.037 108.57 186.715C108.529 186.313 108.932 186.313 109.173 186.273C109.495 186.233 109.857 186.233 110.179 186.233C111.989 186.193 113.759 186.313 115.57 186.555C116.414 186.675 116.696 186.434 116.575 185.55C116.334 183.901 116.133 182.253 115.972 180.565C115.891 179.721 115.529 179.319 114.685 179.198C112.472 178.836 110.219 178.595 107.966 178.394C107.483 178.354 106.96 178.434 106.518 177.952C107.041 177.51 107.644 177.51 108.208 177.47C110.34 177.349 112.472 177.47 114.564 177.831C115.368 177.992 115.65 177.711 115.529 176.907C115.409 176.143 115.248 175.339 115.208 174.535C115.167 173.811 114.845 173.49 114.162 173.409C112.512 173.168 110.863 172.927 109.213 172.646C108.328 172.485 107.282 172.565 106.196 171.962ZM45.4083 148.325C46.0118 147.682 46.575 147.642 47.0578 147.481C48.8681 146.878 50.7187 146.596 52.5693 146.315C53.6153 146.154 54.9831 146.516 55.667 145.712C56.3107 144.948 55.9084 143.622 56.1498 142.536C56.3107 141.652 56.1095 141.29 55.1038 141.531C51.8049 142.215 48.506 142.979 45.2072 143.863C44.5635 144.024 44.2417 144.386 44.2014 145.069C44.0003 147.843 43.7991 150.657 43.5577 153.43C43.5175 154.074 43.6784 154.395 44.4026 154.234C47.7417 153.39 51.121 152.868 54.5003 152.385C55.0233 152.305 55.4659 152.184 55.5061 151.501C55.5865 150.335 55.667 149.169 55.7877 148.003C55.8682 147.32 55.5865 147.079 54.9429 147.159C53.7762 147.28 52.6095 147.32 51.4428 147.481C49.5118 147.682 47.5808 148.003 45.4083 148.325ZM43.96 160.103C44.6842 159.541 45.2072 159.42 45.7302 159.34C47.7819 159.018 49.8336 158.656 51.9256 158.335C55.4256 157.812 55.4256 157.852 55.4256 154.355C55.4256 154.315 55.4256 154.275 55.4256 154.234C55.5061 153.551 55.2245 153.35 54.5406 153.43C51.121 153.953 47.6612 154.435 44.2417 154.958C43.7187 155.038 43.4773 155.28 43.3968 155.842C43.075 158.616 42.7531 161.39 42.3911 164.164C42.3106 164.887 42.4715 165.088 43.1957 164.847C46.6957 163.762 50.3164 163.36 53.9371 162.958C54.259 162.917 54.7417 162.998 54.8624 162.676C55.2647 161.631 55.3049 160.505 55.0233 159.5C54.7819 158.696 53.8567 159.219 53.2532 159.259C50.2359 159.5 47.2589 160.103 43.96 160.103ZM38.7704 196.484C38.6899 197.73 38.7301 197.77 39.7359 197.569C43.5577 196.765 47.4198 196.323 51.2819 195.921C52.0463 195.841 52.3681 195.479 52.4486 194.755C52.6095 192.906 52.7704 191.097 52.9716 189.288C53.052 188.524 52.7704 188.323 52.0463 188.404C48.144 188.766 44.2417 189.248 40.4198 190.092C39.7359 190.253 39.3336 190.655 39.2934 191.378C39.1324 192.986 38.9715 194.594 38.7704 196.484ZM39.1324 241.628C39.1324 241.587 39.1324 241.587 39.1324 241.547C40.46 241.467 41.7876 241.467 43.1152 241.306C44.1612 241.185 45.4888 242.311 46.1325 241.467C46.6957 240.703 46.4543 239.296 46.575 238.17C46.7359 236.763 46.7359 236.723 45.2876 236.924C42.0692 237.407 38.8508 237.929 35.6726 238.613C35.3106 238.693 34.6669 239.015 34.5462 238.532C34.3853 237.969 35.1094 237.929 35.5117 237.809C37.0002 237.366 38.4887 236.964 39.9773 236.643C41.9485 236.201 43.9198 235.839 45.8911 235.517C47.098 235.316 47.0578 234.432 47.0175 233.628C46.9773 232.623 46.1727 233.065 45.6899 233.105C42.2301 233.427 38.8106 233.869 35.3508 234.191C34.4657 234.271 33.983 234.593 33.983 235.558C33.9427 237.206 33.8623 238.894 33.7818 240.542C33.7416 241.266 33.9025 241.628 34.7473 241.587C36.1956 241.587 37.6841 241.628 39.1324 241.628ZM54.7819 166.777C54.7819 166.495 54.8222 166.174 54.8222 165.892C54.9429 164.123 54.9429 164.123 53.213 164.284C49.8336 164.566 46.4945 165.008 43.1152 165.45C42.4313 165.53 42.1497 165.812 42.1095 166.455C41.9485 167.902 41.8278 169.349 41.5865 170.796C41.4255 171.842 41.7876 172.043 42.7129 171.761C45.6497 170.957 48.667 170.515 51.6842 170.073C54.621 169.631 54.621 169.671 54.7819 166.777ZM39.6152 188.082C39.5347 189.771 39.5347 189.771 41.1037 189.168C41.4658 189.047 41.8278 188.926 42.1899 188.806C45.4083 187.881 48.7072 187.399 52.0463 187.077C52.8509 186.997 53.2934 186.715 53.3337 185.871C53.3739 184.866 53.4543 183.861 53.575 182.896C53.6555 182.213 53.3739 182.012 52.7302 182.052C48.9083 182.253 45.0463 182.494 41.2244 182.655C40.5003 182.695 40.1784 182.977 40.098 183.7C39.937 185.188 39.7761 186.635 39.6152 188.082ZM124.742 211.237C123.736 212.925 123.696 213.93 124.42 215.498C124.863 216.463 125.305 217.387 125.708 218.352C125.828 218.674 126.029 219.196 125.667 219.397C125.225 219.679 124.903 219.196 124.702 218.875C124.179 217.99 123.696 217.066 123.173 216.141C123.012 215.82 122.811 215.578 122.409 215.659C122.047 215.739 121.805 215.98 121.846 216.382C121.926 217.588 122.047 218.794 122.127 220C122.167 220.523 122.409 220.845 123.012 220.764C126.552 220.282 130.093 220.644 133.633 220.523C133.955 220.523 134.397 220.603 134.558 220.282C134.719 219.96 134.357 219.679 134.156 219.438C131.742 216.181 129.57 212.765 127.639 209.227C127.075 208.182 126.472 207.86 125.426 207.941C125.144 207.981 124.782 207.82 124.621 208.142C124.46 208.463 124.782 208.664 124.943 208.905C126.271 210.875 127.598 212.845 128.926 214.815C129.449 215.578 129.932 216.423 129.932 217.709C127.518 215.86 126.552 213.207 124.742 211.237ZM50.2359 203.519C47.2589 203.88 44.2819 204.242 41.3049 204.644C37.7646 205.086 37.7646 205.127 37.0002 208.584C36.9198 208.865 36.8795 209.147 36.7991 209.428C36.5979 210.353 36.6784 210.835 37.8853 210.594C40.8221 210.031 43.7991 209.589 46.7761 209.147C50.7589 208.544 50.7589 208.544 51.2015 204.524C51.2819 203.599 50.9601 203.398 50.2359 203.519ZM37.8853 203.157C37.4428 204.282 38.1669 204.162 39.1324 203.921C42.029 203.237 44.9658 202.875 47.9026 202.473C52.4888 201.87 51.2417 202.795 52.0061 198.253C52.0061 198.212 52.0061 198.172 52.0061 198.132C52.1268 197.529 51.9256 197.167 51.2015 197.248C47.2187 197.609 43.2359 198.011 39.2531 198.614C38.6899 198.695 38.3681 198.976 38.3278 199.579C38.2474 200.705 38.0864 201.79 37.8853 203.157ZM51.2819 176.344C48.7877 176.585 46.2934 176.786 43.7991 177.027C40.5807 177.309 40.5807 177.309 40.4198 180.605C40.3796 181.53 40.5807 181.891 41.5865 181.731C45.006 181.208 48.4658 181.087 51.9256 180.846C53.736 180.726 53.736 180.726 53.8567 178.957C54.098 176.063 54.098 176.063 51.2819 176.344ZM54.5406 171.801C54.7417 170.957 54.098 171.038 53.4141 171.118C50.2359 171.52 47.0578 171.922 43.8796 172.364C41.4658 172.686 41.5462 172.726 41.1037 175.017C40.9026 176.143 41.3049 176.304 42.2704 176.143C45.4083 175.741 48.5463 175.379 51.6842 174.977C54.7417 174.656 54.098 175.259 54.5406 171.801ZM138.662 220.402C138.662 220.362 138.662 220.362 138.662 220.322C139.346 220.322 139.989 220.322 140.673 220.322C140.834 220.322 141.035 220.242 141.116 220.161C141.277 219.92 141.035 219.799 140.874 219.679C137.656 216.784 135.242 213.207 132.949 209.589C132.104 208.262 131.34 207.74 129.851 207.941C128.564 208.101 128.524 208.101 129.248 209.227C131.501 212.765 133.794 216.302 136.047 219.88C136.288 220.282 136.61 220.443 137.053 220.443C137.576 220.402 138.139 220.402 138.662 220.402ZM56.6728 132.728C56.6728 132.366 56.6728 131.964 56.7532 131.602C56.9544 130.678 56.713 130.557 55.7877 130.758C52.4486 131.522 49.3509 132.728 46.5348 134.697C45.6497 135.3 45.2474 136.024 45.0865 137.029C44.9658 137.954 45.2072 138.275 46.1727 137.913C48.667 137.029 51.2417 136.506 53.8164 135.984C56.7532 135.461 56.5521 136.225 56.6728 132.728ZM34.5462 228.121C34.3853 229.93 34.3853 229.93 36.1554 229.648C39.4543 229.126 42.7531 228.603 46.052 228.04C48.2647 227.678 47.7819 227.92 48.1842 225.869C48.3854 224.784 48.0233 224.583 47.0175 224.704C43.6784 225.106 40.2991 225.467 36.9198 225.749C34.7473 225.95 34.7473 225.869 34.5462 228.121ZM48.8279 221.005C49.029 219.92 48.3049 220.041 47.621 220.161C44.2417 220.684 40.8623 221.166 37.483 221.769C34.5462 222.292 35.3106 221.769 34.8278 224.704C34.7071 225.548 35.0692 225.749 35.8336 225.548C39.2934 224.543 42.8738 224.141 46.4141 223.659C48.667 223.337 48.7072 223.337 48.8279 221.005ZM44.6037 141.531C44.483 143.26 44.483 143.26 46.0922 142.737C48.7877 141.853 51.5233 141.129 54.2992 140.526C56.3107 140.084 56.2705 140.084 56.3509 138.074C56.3911 137.029 55.9486 136.908 55.0636 137.069C52.3279 137.592 49.552 138.114 46.8566 138.838C44.7646 139.361 44.7646 139.361 44.6037 141.531ZM34.2646 232.221C33.9427 233.427 34.4255 233.668 35.552 233.427C36.5577 233.186 37.6037 233.065 38.6497 232.904C41.1842 232.543 43.6784 232.181 46.2129 231.819C47.2991 231.658 47.8624 230.854 47.621 229.648C47.3796 228.643 46.575 229.206 46.0922 229.246C42.6727 229.608 39.2129 230.09 35.7933 230.452C34.6267 230.653 33.983 230.975 34.2646 232.221ZM72.3625 213.93C72.3625 213.89 72.3625 213.85 72.3625 213.81C73.0866 213.81 73.7706 213.81 74.4947 213.81C75.2188 213.81 75.9027 213.81 76.6269 213.81C77.3913 213.81 79.3223 211.518 79.2016 210.755C79.2016 210.634 79.1212 210.513 79.0407 210.433C78.3166 209.669 77.6729 208.865 76.9085 208.182C76.3855 207.699 75.7016 207.78 75.2188 208.302C74.6556 208.905 75.2188 209.267 75.5809 209.669C76.0637 210.232 76.6671 210.714 76.989 211.438C77.0694 211.639 77.2303 211.8 77.0292 212.001C76.8683 212.202 76.6269 212.081 76.466 212.001C75.7418 211.719 75.1786 211.237 74.6154 210.714C74.3338 210.473 74.0522 210.111 73.6499 210.513C73.0866 211.116 72.282 211.679 72.0809 212.403C71.6384 214.051 70.7935 213.166 70.351 212.684C69.305 211.478 68.5004 211.88 67.6556 212.845C67.4544 213.086 67.0521 213.287 67.213 213.649C67.374 214.011 67.7763 213.93 68.0981 213.93C69.5464 213.93 70.9544 213.93 72.3625 213.93ZM38.4887 243.316C37.2014 243.316 35.914 243.276 34.6267 243.316C33.1381 243.356 33.6611 244.643 33.5404 245.406C33.3795 246.371 34.2244 246.13 34.7473 246.09C38.0462 245.768 41.3853 245.406 44.6842 245.125C46.4141 244.964 46.4141 244.964 46.2532 243.236C46.2129 242.633 46.0118 242.391 45.4083 242.592C43.1554 243.396 40.8221 243.276 38.4887 243.316ZM82.6212 213.769C82.8626 213.769 83.1039 213.769 83.3855 213.769C84.7131 213.729 86.2017 214.212 86.8856 212.443C87.0465 212.081 87.4488 211.8 87.0867 211.358C86.6844 210.915 86.3626 211.317 86.0005 211.518C85.7189 211.719 85.3971 212.162 85.035 211.84C84.7131 211.559 84.9948 211.157 85.1154 210.795C85.1959 210.594 85.3166 210.433 85.3568 210.232C85.5982 209.348 84.7534 209.147 84.3108 208.704C84.0292 208.423 83.6672 208.222 83.3453 208.624C82.8223 209.227 82.2591 209.79 81.8568 210.473C81.535 210.996 82.1384 211.398 82.2189 211.84C82.2591 212.081 82.3798 212.322 82.1786 212.564C81.9775 212.805 81.6959 212.684 81.4947 212.564C81.2936 212.483 81.1327 212.363 80.9717 212.242C80.4487 211.92 80.2074 212.322 79.966 212.644C79.7246 212.925 79.2418 213.126 79.4028 213.528C79.5637 213.93 80.0867 213.729 80.4085 213.729C81.1327 213.81 81.897 213.769 82.6212 213.769ZM63.3912 208.664C60.2532 208.262 59.1268 208.785 57.759 211.277C57.6383 211.478 57.5578 211.639 57.4371 211.84C56.9544 212.724 57.6383 214.292 58.6038 214.533C58.8452 214.614 59.167 214.614 59.2877 214.372C59.8107 213.488 60.4142 212.604 60.7762 211.639C61.0578 210.875 60.1325 210.674 59.8107 210.192C59.6498 209.951 59.4486 209.669 59.6498 209.388C59.8912 209.106 60.213 209.187 60.4544 209.388C61.7015 210.433 62.5464 209.79 63.3912 208.664ZM97.3856 213.769C98.8741 214.292 99.8799 213.408 100.805 212.282C101.127 211.88 101.127 211.599 100.765 211.197C100.001 210.353 98.7534 209.951 98.6328 208.544C98.5925 208.222 98.2305 208.463 98.0695 208.624C96.9431 209.669 96.9029 210.513 97.9086 211.719C98.1098 211.961 98.2707 212.162 98.4316 212.443C98.5523 212.644 98.7132 212.925 98.5121 213.126C98.3109 213.367 98.0293 213.247 97.8282 213.126C97.4259 212.925 97.0236 212.684 96.6615 212.403C96.2994 212.121 95.9373 211.76 95.4546 212.242C95.173 212.483 94.8109 212.724 94.9316 213.167C95.0925 213.769 95.6557 213.769 96.1787 213.769C96.5006 213.769 96.8626 213.769 97.3856 213.769ZM114.725 214.212C112.914 213.046 111.466 211.679 110.34 209.951C110.179 209.709 110.058 209.589 109.736 209.709C108.489 210.152 108.208 211.398 109.093 212.282C109.495 212.684 109.857 213.046 109.978 213.609C110.058 213.93 110.219 214.171 110.541 214.171C111.949 214.212 113.357 214.212 114.725 214.212ZM46.0922 210.554C44.8049 210.594 44.4026 210.996 43.8394 212.162C43.4773 212.965 44.0003 213.367 44.483 213.689C45.1267 214.091 45.2072 215.418 46.0118 215.176C46.6152 214.975 46.9371 213.97 47.4198 213.327C47.6612 213.006 47.9026 212.644 48.144 212.322C48.3451 212.041 48.3451 211.76 48.0635 211.559C47.3394 211.076 46.6957 210.554 46.0922 210.554ZM65.4429 208.343C64.4372 208.343 63.1498 209.669 63.19 210.634C63.19 210.915 65.5636 212.483 66.0061 212.523C66.4084 212.564 67.8567 210.956 67.8567 210.513C67.897 209.87 66.2073 208.383 65.4429 208.343ZM39.0117 211.8C38.4083 211.92 37.7646 212.041 37.0807 212.162C36.5979 212.242 36.2359 212.483 36.1152 213.006C36.0749 213.287 36.1554 213.528 36.3968 213.649C37.0405 213.97 37.1209 213.287 37.4025 213.006C37.7244 212.724 38.0462 212.282 38.4485 212.483C38.9715 212.764 38.6497 213.287 38.5692 213.689C38.4485 214.212 38.1669 214.654 38.7704 215.136C39.8566 215.98 40.0577 215.94 40.7819 214.533C41.3853 213.327 40.4198 211.8 39.0117 211.8ZM100.121 208.423C100.966 209.106 101.529 209.508 102.052 209.991C102.455 210.353 102.857 210.353 103.098 209.91C103.903 208.544 104.788 209.026 105.794 209.709C107.121 210.594 107.564 210.433 108.368 208.825C105.713 208.785 103.139 208.302 100.121 208.423ZM42.2704 217.468C43.1554 217.267 44.0405 217.066 44.9256 216.865C45.1669 216.825 45.4486 216.704 45.4083 216.423C45.4083 216.302 45.2474 216.101 45.1267 216.061C44.3221 215.82 43.6784 215.297 43.0347 214.734C42.7129 214.453 42.4313 214.493 42.1899 214.815C41.9083 215.136 41.6669 215.458 41.3853 215.779C41.1842 216.061 40.7416 216.262 41.0635 216.704C41.4255 217.106 41.6669 217.588 42.2704 217.468ZM114.966 209.267C114.282 209.147 113.84 209.428 113.518 209.991C113.116 210.674 113.639 210.956 114.001 211.358C114.323 211.76 114.644 212.121 114.926 212.523C115.288 213.006 115.529 212.965 115.65 212.403C115.731 212.081 115.771 211.719 115.731 211.398C115.61 210.795 115.449 210.232 116.294 210.031C116.414 209.991 116.535 209.79 116.535 209.669C116.535 209.388 116.254 209.388 116.093 209.348C115.69 209.388 115.328 209.348 114.966 209.267ZM63.0693 214.171V214.131C63.6728 214.131 64.3165 214.131 64.9199 214.131C65.1211 214.131 65.3625 214.131 65.4027 213.85C65.4429 213.609 65.2418 213.488 65.0406 213.408C64.4372 213.126 63.8337 212.885 63.2303 212.604C62.7877 212.443 62.3854 211.88 61.9429 212.483C61.5808 212.965 60.8969 213.488 61.1383 214.051C61.3395 214.573 62.1038 214.131 62.5866 214.212C62.7475 214.212 62.9084 214.212 63.0693 214.171ZM56.1095 209.147C55.4256 209.549 54.098 208.745 54.098 210.111C54.098 210.835 54.9831 211.237 55.667 211.518C55.9084 211.599 57.3567 209.75 57.2762 209.428C57.0348 208.785 56.5118 209.348 56.1095 209.147ZM40.46 217.83C39.4945 217.307 38.8106 216.905 38.1267 216.543C37.6841 216.302 37.3623 216.423 37.2416 216.865C37.0405 217.468 36.4772 217.99 36.7589 218.714C36.8393 218.915 37.1209 218.835 37.3221 218.754C38.2876 218.473 39.2531 218.191 40.46 217.83ZM93.6845 211.88C93.9661 211.92 94.4891 211.358 94.5293 210.956C94.5695 210.594 93.4028 208.905 93.0408 208.946C92.3971 208.986 92.035 209.468 91.7936 209.991C91.673 210.192 93.3626 211.84 93.6845 211.88ZM92.9603 213.609C92.2362 212.805 91.6327 212.162 91.0293 211.478C90.7879 211.197 90.5063 211.036 90.1844 211.317C89.8626 211.559 89.7017 211.84 89.8626 212.282C90.3454 213.769 90.7074 213.97 92.9603 213.609ZM72.9257 208.825C72.9257 208.101 72.5234 207.82 72.0407 208.182C71.3567 208.664 70.9544 209.428 70.5119 210.111C70.3108 210.433 70.5924 210.755 70.8338 210.956C70.9947 211.116 71.2763 211.358 71.4774 211.116C72.0407 210.353 72.6843 209.629 72.9257 208.825ZM32.3738 217.99C31.6094 218.995 30.2416 218.714 29.9197 219.96C29.8393 220.201 29.6381 220.443 29.799 220.644C29.96 220.885 30.2416 220.724 30.483 220.684C31.8508 220.523 32.4945 219.719 32.3738 217.99ZM109.012 214.212C109.012 214.131 109.052 214.011 109.052 213.93C108.57 213.568 108.047 213.207 107.604 212.845C107.202 212.523 106.84 212.604 106.518 212.965C106.236 213.247 105.794 213.528 105.955 213.97C106.116 214.372 106.598 214.252 106.96 214.252C107.644 214.212 108.328 214.212 109.012 214.212ZM49.7129 213.448C49.4716 213.568 49.3509 213.609 49.2704 213.689C48.7474 214.292 48.2244 214.895 47.7417 215.498C47.621 215.659 47.4198 215.82 47.5003 216.021C47.621 216.302 47.9428 216.181 48.1842 216.181C49.552 216.101 49.8336 215.578 49.7129 213.448ZM33.46 213.247C33.5404 212.885 33.3795 212.644 33.0979 212.765C32.414 213.046 31.3278 212.684 31.0864 213.609C30.9657 214.051 31.7301 214.734 32.2531 214.734C33.0979 214.734 33.0979 213.769 33.46 213.247ZM53.3739 214.332C53.3739 214.614 53.2532 214.935 53.5348 215.136C53.7762 215.297 54.0578 215.176 54.2187 215.016C54.7015 214.493 54.9429 213.81 54.7417 213.086C54.6613 212.764 54.2992 212.403 53.9371 212.403C53.5348 212.443 53.6153 212.885 53.5348 213.207C53.4543 213.609 53.4141 213.97 53.3739 214.332ZM118.748 210.232C118.144 210.152 117.782 210.393 117.823 210.875C117.863 211.518 118.386 212.162 118.949 212.162C119.472 212.162 119.834 211.358 119.834 210.795C119.874 210.111 119.11 210.393 118.748 210.232ZM104.587 210.393C104.185 210.554 103.742 210.795 103.782 211.237C103.863 211.84 104.345 212.322 104.909 212.403C105.391 212.483 105.794 211.92 105.753 211.518C105.753 210.875 105.15 210.594 104.587 210.393ZM103.742 213.97C103.42 213.367 102.897 213.086 102.455 212.765C101.932 212.403 101.61 212.885 101.288 213.167C101.087 213.327 100.765 213.528 100.926 213.89C101.127 214.252 101.529 214.131 101.851 214.131C102.455 214.131 103.058 214.252 103.742 213.97ZM79.0407 207.981C79.2016 208.544 79.6844 208.704 80.0062 209.026C80.2878 209.348 80.6499 209.468 80.9717 209.066C81.2533 208.745 81.8166 208.463 81.6556 207.981C81.535 207.619 80.9717 207.82 80.6097 207.82C80.0867 207.82 79.6039 207.699 79.0407 207.981ZM116.656 214.292C117.058 214.091 117.823 214.573 117.823 213.85C117.823 213.367 117.259 212.684 116.656 212.765C116.173 212.845 115.409 213.207 115.449 213.81C115.489 214.533 116.254 214.091 116.656 214.292ZM121.805 213.367C121.604 212.965 121.644 212.242 121.162 212.242C120.518 212.202 120.357 213.006 120.035 213.448C119.874 213.689 120.196 213.93 120.478 213.89C120.96 213.85 121.524 213.93 121.805 213.367ZM94.4891 208.222C94.8914 208.584 95.012 209.388 95.7764 209.106C96.058 208.986 96.3799 208.503 96.219 208.302C95.7764 207.74 95.0925 208.061 94.4891 208.222ZM122.208 208.624C122.489 208.584 122.972 208.745 122.932 208.262C122.892 207.699 122.369 207.659 121.886 207.579C121.564 207.539 121.162 207.498 121.162 207.981C121.202 208.624 121.765 208.544 122.208 208.624ZM85.2361 207.78C85.6787 208.061 85.9603 208.664 86.5637 208.343C86.7649 208.262 86.9258 207.981 86.7649 207.82C86.3223 207.418 85.7591 207.659 85.2361 207.78Z" fill="#B69D86"/>
<path d="M96.9415 231.86C96.4185 229.327 97.0622 226.875 96.4588 224.181C95.3726 226.151 94.8093 228 94.6082 229.89C94.4473 231.337 94.5277 232.824 94.4473 234.272C94.3668 235.236 94.7691 235.478 95.6944 235.437C99.9588 235.277 104.183 234.875 108.488 234.955C110.338 234.995 112.149 235.116 113.878 235.96C114.281 236.161 114.683 236.161 115.085 236C116.493 235.397 118.022 235.397 119.511 235.277C120.074 235.236 120.838 235.116 120.959 235.88C121.12 236.643 120.355 236.804 119.792 236.925C118.062 237.246 116.292 237.367 114.562 236.885C114.08 236.764 113.557 236.643 113.074 236.724C108.689 237.488 104.223 237.126 99.8381 237.367C93.8036 237.729 87.7288 238.211 81.6943 237.97C80.0046 237.89 78.3552 237.608 76.7058 237.488C76.3839 237.447 75.9414 237.447 75.9414 237.005C75.9414 236.563 76.3437 236.563 76.6655 236.442C77.4299 236.241 78.2345 236.201 79.0391 236.161C81.5736 236.121 84.1483 236.081 86.6828 236.04C87.7288 236.04 88.1311 235.638 88.2518 234.513C88.7346 230.131 90.384 226.232 93.2404 222.815C96.2174 219.317 99.7174 220.443 102.011 222.855C104.062 224.985 103.861 227.679 103.74 230.292C103.74 230.573 103.579 230.774 103.258 230.734C102.976 230.694 102.896 230.453 102.855 230.171C102.694 229.247 102.574 228.362 102.453 227.438C102.171 225.548 101.206 224.101 99.5163 223.136C99.1944 222.975 98.8726 222.614 98.4703 222.855C98.1484 223.056 98.3898 223.458 98.3898 223.779C98.3898 225.91 98.3898 228.041 97.9473 230.131C97.7864 230.814 97.6657 231.377 96.9415 231.86Z" fill="#B69D86"/>
<path d="M45.6113 109.292C47.5021 108.287 49.5539 107.965 51.6056 107.684C59.2091 106.638 66.8931 106.96 74.4966 106.678C79.5655 106.477 84.5943 106.598 89.6633 106.879C91.4334 106.96 93.0426 107.563 94.6921 108.126C94.6921 108.246 94.6921 108.407 94.6518 108.528C93.0024 108.608 91.3932 108.769 89.784 108.729C77.9966 108.327 66.2091 108.608 54.4217 108.689C52.4102 108.689 50.4389 109.091 48.4274 109.292C47.5021 109.372 46.5769 109.573 45.6113 109.292Z" fill="#B69D86"/>
<path d="M63.712 248.864C63.0281 249.306 62.3844 249.467 61.7809 249.467C58.8844 249.587 55.9476 249.989 53.051 249.949C52.9303 249.949 52.8096 249.949 52.6889 249.909C52.1659 249.829 51.4016 249.909 51.3613 249.266C51.3613 248.542 52.1257 248.703 52.6487 248.623C55.2637 248.261 57.8786 248.1 60.4936 248.019C61.5798 247.979 62.666 248.019 63.712 248.864Z" fill="#B69D86"/>
<path d="M83.4661 77.7754C83.9891 77.8156 84.8339 77.896 85.719 78.0166C86.0006 78.0568 86.3224 78.1372 86.3224 78.5393C86.2822 78.8207 86.0006 78.9413 85.7592 78.9815C84.1902 79.1423 82.6213 79.2227 81.0523 78.8207C80.8109 78.7805 80.5293 78.6599 80.5293 78.3785C80.5293 77.9764 80.8511 77.9362 81.1327 77.896C81.7764 77.8558 82.4201 77.8156 83.4661 77.7754Z" fill="#B69D86"/>
<path d="M41.3438 250.15C43.7576 249.466 46.1714 248.703 48.7461 249.185C46.3323 249.868 43.838 250.029 41.3438 250.15Z" fill="#B69D86"/>
<path d="M130.777 227.478C130.777 228.483 130.697 229.126 130.415 229.769C130.295 230.051 130.134 230.332 129.772 230.252C129.45 230.211 129.329 229.89 129.289 229.608C129.168 228.724 129.45 227.88 129.651 227.035C129.731 226.714 129.852 226.231 130.335 226.312C130.818 226.392 130.737 226.874 130.777 227.236C130.777 227.397 130.777 227.598 130.777 227.478Z" fill="#B69D86"/>
<path d="M134.478 229.688C134.478 230.372 134.519 231.095 134.156 231.739C134.076 231.899 133.915 232.1 133.754 232.141C133.473 232.181 133.312 231.899 133.271 231.658C133.03 230.492 133.231 229.367 133.593 228.241C133.674 228.04 133.794 227.879 134.036 227.879C134.358 227.92 134.438 228.161 134.438 228.402C134.519 228.884 134.478 229.286 134.478 229.688Z" fill="#B69D86"/>
</svg>
