<svg width="22" height="24" viewBox="0 0 22 24" fill="none" xmlns="http://www.w3.org/2000/svg">
<path d="M21.4557 21.9766C21.143 20.4911 21.0035 18.9743 21.0399 17.4567C21.0399 6.94391 16.9501 4.82529 15.8692 4.44932L15.5505 3.81017L16.1531 1.69498C16.2088 1.50194 16.2052 1.2966 16.1426 1.10568C16.08 0.914753 15.9614 0.747076 15.8023 0.624456C15.6431 0.501837 15.4508 0.42995 15.2502 0.418148C15.0496 0.406345 14.8501 0.455172 14.6777 0.558278L14.3447 0.758468L13.4388 0.214288C13.2063 0.0740501 12.9399 -4.31566e-05 12.6684 1.88585e-08C12.3968 4.31943e-05 12.1304 0.0742212 11.898 0.214533L10.9951 0.758213L10.0929 0.215023C9.8602 0.0745478 9.59353 0.000322978 9.3217 0.000366157C9.04988 0.000409336 8.78323 0.0747188 8.55057 0.215268L7.64914 0.757983L7.32296 0.561453C7.15057 0.458051 6.95104 0.408955 6.75035 0.42056C6.54967 0.432164 6.35713 0.503932 6.1978 0.626515C6.03848 0.749098 5.91976 0.916816 5.85711 1.10783C5.79446 1.29884 5.79078 1.50429 5.84655 1.69742L6.44839 3.81017L6.12977 4.44932C5.04889 4.82529 0.959017 6.94391 0.959017 17.4567C0.995429 18.9743 0.855899 20.4911 0.543217 21.9766C0.485942 22.2104 0.485591 22.4545 0.542196 22.6885C0.5988 22.9225 0.710707 23.1394 0.868523 23.3212C1.02634 23.503 1.22546 23.6442 1.44916 23.7331C1.67287 23.822 1.91463 23.8559 2.15416 23.832L5.47836 23.499L10.9541 23.998C10.9692 23.9995 10.9843 24 10.9995 24C11.0146 24 11.0298 23.9995 11.0449 23.998L16.5206 23.499L19.8448 23.832C20.0843 23.8559 20.3261 23.822 20.5498 23.7331C20.7735 23.6442 20.9726 23.503 21.1304 23.3212C21.2882 23.1394 21.4002 22.9225 21.4568 22.6885C21.5134 22.4545 21.513 22.2104 21.4557 21.9766H21.4557ZM20.3766 22.6641C20.3241 22.726 20.2573 22.7742 20.182 22.8043C20.1066 22.8344 20.0251 22.8457 19.9444 22.8369L16.5726 22.4991C16.5409 22.4957 16.509 22.4956 16.4774 22.4986L10.9995 22.9981L5.52156 22.4986C5.50642 22.4971 5.49128 22.4966 5.47615 22.4966C5.45954 22.4966 5.44294 22.4976 5.42634 22.499L2.05453 22.8369C1.97441 22.8449 1.89355 22.8335 1.81871 22.8038C1.74386 22.7742 1.6772 22.727 1.6243 22.6663C1.57139 22.6056 1.53377 22.5332 1.51457 22.455C1.49538 22.3768 1.49517 22.2951 1.51396 22.2168C1.84658 20.6528 1.99595 19.0553 1.95906 17.4567C1.95906 6.51276 6.53749 5.3663 6.57875 5.35702C6.65346 5.34207 6.72376 5.31023 6.78428 5.26394C6.84479 5.21765 6.89392 5.15813 6.9279 5.08994L7.2218 4.50035H13.4996V3.50035H7.39996L6.80678 1.41785L7.39105 1.76989C7.46894 1.81685 7.55817 1.84167 7.64912 1.84167C7.74008 1.84167 7.8293 1.81685 7.9072 1.76989L9.06645 1.07189C9.14357 1.02553 9.23186 1.00103 9.32184 1.00103C9.41182 1.00103 9.50011 1.02553 9.57723 1.07189L10.7372 1.77012C10.8151 1.81685 10.9042 1.84153 10.9951 1.84153C11.0859 1.84153 11.175 1.81685 11.2529 1.77012L12.4136 1.0714C12.4905 1.0249 12.5787 1.0003 12.6686 1.00026C12.7585 1.00023 12.8467 1.02476 12.9237 1.07121L14.0871 1.77018C14.1648 1.81702 14.2539 1.84177 14.3447 1.84177C14.4354 1.84177 14.5245 1.81702 14.6022 1.77018L15.1911 1.42106L14.5356 3.72277C14.5014 3.84278 14.5134 3.97121 14.569 4.08287L15.071 5.08994C15.1053 5.15684 15.1539 5.21537 15.2134 5.26136C15.2728 5.30735 15.3417 5.33968 15.415 5.35604C15.4614 5.3663 20.0399 6.51276 20.0399 17.4567C20.003 19.0553 20.1523 20.6528 20.485 22.2168C20.5046 22.2946 20.505 22.3759 20.4861 22.4539C20.4672 22.5318 20.4296 22.604 20.3766 22.6641V22.6641Z" fill="#A28276"/>
<path d="M10.9995 17.9999C9.93865 17.9999 8.92125 17.5784 8.17112 16.8283C7.42098 16.0782 6.99956 15.0608 6.99956 13.9999C6.99956 12.9391 7.42098 11.9217 8.17112 11.1716C8.92125 10.4214 9.93865 10 10.9995 10V9C10.0106 9.00008 9.04398 9.29339 8.22181 9.84284C7.39963 10.3923 6.75884 11.1732 6.38048 12.0868C6.00211 13.0004 5.90316 14.0057 6.09613 14.9756C6.2891 15.9455 6.76532 16.8363 7.46459 17.5355C8.16386 18.2347 9.05476 18.7109 10.0246 18.9038C10.9945 19.0967 11.9998 18.9976 12.9134 18.6192C13.827 18.2407 14.6078 17.5999 15.1572 16.7777C15.7066 15.9554 15.9998 14.9888 15.9998 13.9999H14.9998C14.9985 15.0604 14.5766 16.0772 13.8267 16.827C13.0768 17.5769 12.06 17.9987 10.9995 17.9999Z" fill="#A28276"/>
<path d="M13 9H12V10H13V9Z" fill="#A28276"/>
<path d="M16 12H15V13H16V12Z" fill="#A28276"/>
<path d="M15 10H14V11H15V10Z" fill="#A28276"/>
</svg>
