<svg width="24" height="20" viewBox="0 0 24 20" fill="none" xmlns="http://www.w3.org/2000/svg">
<path fill-rule="evenodd" clip-rule="evenodd" d="M4.5 1C3.11929 1 2 2.11929 2 3.5V12H22V3.5C22 2.11929 20.8807 1 19.5 1H4.5ZM23 12.0854V3.5C23 1.567 21.433 0 19.5 0H4.5C2.567 0 1 1.567 1 3.5V12.0854C0.417404 12.2913 0 12.8469 0 13.5V14.5C0 15.3284 0.671572 16 1.5 16H22.5C23.3284 16 24 15.3284 24 14.5V13.5C24 12.8469 23.5826 12.2913 23 12.0854ZM1.5 13C1.22386 13 1 13.2239 1 13.5V14.5C1 14.7761 1.22386 15 1.5 15H22.5C22.7761 15 23 14.7761 23 14.5V13.5C23 13.2239 22.7761 13 22.5 13H1.5Z" fill="#A28276"/>
<path fill-rule="evenodd" clip-rule="evenodd" d="M5 13V1H6V13H5Z" fill="#A28276"/>
<path fill-rule="evenodd" clip-rule="evenodd" d="M18 12V0H19V12H18Z" fill="#A28276"/>
<path fill-rule="evenodd" clip-rule="evenodd" d="M15 12V0H16V12H15Z" fill="#A28276"/>
<path fill-rule="evenodd" clip-rule="evenodd" d="M8 13V1H9V13H8Z" fill="#A28276"/>
<path fill-rule="evenodd" clip-rule="evenodd" d="M3.5 19C4.32843 19 5 18.3284 5 17.5C5 16.6716 4.32843 16 3.5 16C2.67157 16 2 16.6716 2 17.5C2 18.3284 2.67157 19 3.5 19ZM3.5 20C4.88071 20 6 18.8807 6 17.5C6 16.1193 4.88071 15 3.5 15C2.11929 15 1 16.1193 1 17.5C1 18.8807 2.11929 20 3.5 20Z" fill="#A28276"/>
<path fill-rule="evenodd" clip-rule="evenodd" d="M16.5 19C17.3284 19 18 18.3284 18 17.5C18 16.6716 17.3284 16 16.5 16C15.6716 16 15 16.6716 15 17.5C15 18.3284 15.6716 19 16.5 19ZM16.5 20C17.8807 20 19 18.8807 19 17.5C19 16.1193 17.8807 15 16.5 15C15.1193 15 14 16.1193 14 17.5C14 18.8807 15.1193 20 16.5 20Z" fill="#A28276"/>
<path fill-rule="evenodd" clip-rule="evenodd" d="M7.5 19C8.32843 19 9 18.3284 9 17.5C9 16.6716 8.32843 16 7.5 16C6.67157 16 6 16.6716 6 17.5C6 18.3284 6.67157 19 7.5 19ZM7.5 20C8.88071 20 10 18.8807 10 17.5C10 16.1193 8.88071 15 7.5 15C6.11929 15 5 16.1193 5 17.5C5 18.8807 6.11929 20 7.5 20Z" fill="#A28276"/>
<path fill-rule="evenodd" clip-rule="evenodd" d="M20.5 19C21.3284 19 22 18.3284 22 17.5C22 16.6716 21.3284 16 20.5 16C19.6716 16 19 16.6716 19 17.5C19 18.3284 19.6716 19 20.5 19ZM20.5 20C21.8807 20 23 18.8807 23 17.5C23 16.1193 21.8807 15 20.5 15C19.1193 15 18 16.1193 18 17.5C18 18.8807 19.1193 20 20.5 20Z" fill="#A28276"/>
</svg>
