<svg width="22" height="22" viewBox="0 0 22 22" fill="none" xmlns="http://www.w3.org/2000/svg">
<path d="M4.53779 0.441417C3.54044 0.441417 2.64322 1.06144 2.29154 1.99485L0.950918 5.55173C0.916782 5.64206 0.910681 5.74058 0.933412 5.83443C0.956143 5.92828 1.00665 6.0131 1.07833 6.0778C1.15002 6.1425 1.23955 6.18407 1.33523 6.19709C1.43091 6.21012 1.5283 6.19398 1.61467 6.15079L4.18529 4.86548L5.38061 6.06079C5.45184 6.13203 5.54367 6.17906 5.64311 6.19521C5.74255 6.21137 5.84455 6.19582 5.93467 6.15079L8.50529 4.86548L9.70061 6.06079C9.77184 6.13203 9.86367 6.17906 9.96311 6.19521C10.0626 6.21137 10.1646 6.19582 10.2547 6.15079L12.8253 4.86548L14.0206 6.06079C14.0773 6.1175 14.1474 6.1591 14.2243 6.18178C14.3012 6.20446 14.3826 6.2075 14.461 6.19062C14.5394 6.17374 14.6124 6.13749 14.6732 6.08517C14.734 6.03285 14.7807 5.96613 14.809 5.8911L16.324 1.8711C16.3244 1.87048 16.3247 1.86986 16.325 1.86923C16.4267 1.59716 16.6865 1.40142 17 1.40142C17.4036 1.40142 17.72 1.71783 17.72 2.12142V4.18485L15.3565 9.85673C15.3321 9.91529 15.32 9.97806 15.32 10.0414V20.6014H1.87998V10.138L3.49529 6.28392L2.17811 6.94204L0.957481 9.85579C0.932521 9.91435 0.919981 9.97758 0.919981 10.0414V21.0814C0.919981 21.3469 1.13502 21.5614 1.39998 21.5614H15.8H20.6C20.7273 21.5614 20.8494 21.5108 20.9394 21.4208C21.0294 21.3308 21.08 21.2087 21.08 21.0814V10.0414C21.0801 9.97804 21.0677 9.91527 21.0434 9.85673L18.68 4.18485V2.12142C18.68 1.22623 17.9641 0.492412 17.0787 0.449855C17.0706 0.448083 17.0625 0.44652 17.0544 0.445167C17.0385 0.443122 17.0225 0.44187 17.0065 0.441417C17.0044 0.441403 17.0022 0.441403 17 0.441417H4.53779ZM4.53779 1.40142H15.5281C15.5028 1.45237 15.446 1.47986 15.4259 1.5336V1.53173L14.1734 4.8561L13.2594 3.94204C13.1881 3.8708 13.0963 3.82377 12.9969 3.80762C12.8974 3.79147 12.7954 3.80701 12.7053 3.85204L10.1347 5.13735L8.93936 3.94204C8.86813 3.8708 8.77629 3.82377 8.67685 3.80762C8.57741 3.79147 8.47541 3.80701 8.38529 3.85204L5.81467 5.13735L4.61936 3.94204C4.54813 3.8708 4.45629 3.82377 4.35685 3.80762C4.25741 3.79147 4.15541 3.80701 4.06529 3.85204L2.28123 4.7436L3.19061 2.33329C3.40245 1.77102 3.93674 1.40142 4.53779 1.40142ZM18.2 5.53017L20.12 10.137V20.6014H16.28V10.137L18.2 5.53017ZM5.23998 12.4414C5.11268 12.4414 4.9906 12.492 4.90058 12.582C4.81057 12.672 4.75999 12.7941 4.75998 12.9214V17.7214C4.75999 17.8487 4.81057 17.9708 4.90058 18.0608C4.9906 18.1508 5.11268 18.2014 5.23998 18.2014H11.96C12.0873 18.2014 12.2094 18.1508 12.2994 18.0608C12.3894 17.9708 12.44 17.8487 12.44 17.7214V12.9214C12.44 12.7941 12.3894 12.672 12.2994 12.582C12.2094 12.492 12.0873 12.4414 11.96 12.4414H5.23998ZM5.71998 13.4014H11.48V17.2414H5.71998V13.4014Z" fill="#A28276"/>
</svg>
