<svg width="14" height="17" viewBox="0 0 14 17" fill="none" xmlns="http://www.w3.org/2000/svg">
<path fill-rule="evenodd" clip-rule="evenodd" d="M6.99999 0C4.44031 0 2.36528 2.0902 2.36528 4.6686C2.36528 6.79732 3.77965 8.59328 5.71343 9.15497C4.18681 9.34236 2.87742 9.88627 1.89103 10.8655C0.635614 12.1118 0 13.9672 0 16.3883C0 16.7262 0.271908 17 0.607307 17C0.94272 17 1.21461 16.7262 1.21461 16.3883C1.21461 14.1731 1.79359 12.68 2.74361 11.7369C3.69542 10.792 5.11636 10.3031 6.99992 10.3031C8.8835 10.3031 10.3045 10.792 11.2564 11.7369C12.2063 12.68 12.7854 14.1731 12.7854 16.3883C12.7854 16.7262 13.0572 17 13.3927 17C13.7281 17.0001 14 16.7262 14 16.3884C14 13.9672 13.3643 12.1118 12.1089 10.8655C11.1225 9.88628 9.8131 9.34238 8.28652 9.15498C10.2202 8.59331 11.6347 6.79733 11.6347 4.6686C11.6347 2.0902 9.55966 0 6.99999 0ZM3.57989 4.6686C3.57989 2.76592 5.11112 1.22349 6.99999 1.22349C8.88885 1.22349 10.4201 2.76592 10.4201 4.6686C10.4201 6.57127 8.88885 8.1137 6.99999 8.1137C5.11112 8.1137 3.57989 6.57127 3.57989 4.6686Z" fill="#A28276"/>
</svg>
