<svg width="24" height="15" viewBox="0 0 24 15" fill="none" xmlns="http://www.w3.org/2000/svg">
<path d="M23.2852 6.47658L21.7243 5.80766L20.4096 3.26844C20.2437 2.94656 19.9915 2.67674 19.681 2.48894C19.3704 2.30114 19.0136 2.20272 18.6503 2.2046H15.9329C15.8426 2.20555 15.7551 2.23571 15.6836 2.29053C15.612 2.34535 15.5603 2.42184 15.5363 2.50847C15.2349 1.76735 14.7181 1.13269 14.0521 0.685791C13.3861 0.238889 12.6012 9.93797e-05 11.798 1.15699e-05H4.01143C3.48424 -0.00125323 2.962 0.101193 2.47471 0.301465C1.98741 0.501737 1.54468 0.795887 1.17193 1.16702C0.799183 1.53814 0.503775 1.97893 0.302677 2.46406C0.101579 2.94919 -0.00124423 3.46909 0.000114282 3.9939V4.55341C-0.0047222 5.18682 0.144019 5.81204 0.433715 6.37601C0.723411 6.93998 1.14551 7.42605 1.66419 7.79297H0.567199C0.339459 7.79297 0.154619 7.99759 0.154619 8.22409V11.898C0.154726 11.9517 0.165494 12.0048 0.186303 12.0544C0.207111 12.1039 0.237551 12.1489 0.275872 12.1867C0.314193 12.2245 0.35964 12.2543 0.409601 12.2746C0.459561 12.2948 0.51305 12.3051 0.566993 12.3047H1.36527C1.36069 12.356 1.35754 12.4297 1.35754 12.4923C1.35607 12.8211 1.41986 13.147 1.54525 13.4512C1.67064 13.7554 1.85515 14.0319 2.08819 14.2649C2.32123 14.4979 2.59822 14.6828 2.90324 14.809C3.20826 14.9351 3.5353 15 3.8656 15C4.19589 15 4.52293 14.935 4.82793 14.8088C5.13293 14.6826 5.40988 14.4977 5.64289 14.2646C5.87589 14.0316 6.06036 13.755 6.18569 13.4508C6.31103 13.1466 6.37476 12.8207 6.37324 12.4919C6.37324 12.4293 6.37015 12.356 6.36557 12.3047H6.55612C6.55154 12.356 6.5484 12.4297 6.5484 12.4923C6.54693 12.8211 6.61072 13.147 6.7361 13.4512C6.86149 13.7554 7.046 14.0319 7.27904 14.2649C7.51209 14.4979 7.78907 14.6828 8.09409 14.809C8.39911 14.9351 8.72616 15 9.05645 15C9.38675 15 9.71378 14.935 10.0188 14.8088C10.3238 14.6826 10.6007 14.4977 10.8337 14.2646C11.0667 14.0316 11.2512 13.755 11.3765 13.4508C11.5019 13.1466 11.5656 12.8207 11.5641 12.4919C11.5641 12.4293 11.561 12.356 11.5564 12.3047H17.0801C17.0755 12.356 17.0724 12.4297 17.0724 12.4923C17.0709 12.8211 17.1347 13.147 17.2601 13.4512C17.3854 13.7554 17.57 14.0319 17.803 14.2649C18.036 14.4979 18.313 14.6828 18.618 14.809C18.9231 14.9351 19.2501 15 19.5804 15C19.9107 15 20.2377 14.935 20.5427 14.8088C20.8477 14.6826 21.1247 14.4977 21.3577 14.2646C21.5907 14.0316 21.7752 13.755 21.9005 13.4508C22.0258 13.1466 22.0896 12.8207 22.0881 12.4919C22.0881 12.4293 22.0849 12.356 22.0804 12.3047H22.8235C22.9794 12.3045 23.1337 12.2735 23.2775 12.2135C23.4213 12.1535 23.5516 12.0657 23.661 11.9552C23.7705 11.8447 23.8568 11.7136 23.9149 11.5696C23.9731 11.4257 24.002 11.2716 23.9999 11.1165V7.57164C24.0021 7.33938 23.9355 7.11162 23.8084 6.91685C23.6813 6.72207 23.4993 6.56893 23.2852 6.47658ZM8.24038 0.820323H11.798C12.2171 0.818928 12.6323 0.900055 13.0198 1.05903C13.4073 1.21801 13.7594 1.45171 14.0558 1.74666C14.3522 2.04162 14.587 2.39202 14.7469 2.77769C14.9067 3.16337 14.9884 3.5767 14.9871 3.9939V4.55341C14.9886 4.97139 14.9073 5.38556 14.7478 5.77219C14.5882 6.15882 14.3536 6.5103 14.0573 6.80649C13.7611 7.10268 13.409 7.33775 13.0213 7.49824C12.6336 7.65872 12.2179 7.74145 11.798 7.7417H8.24038V0.820323ZM6.59233 0.820323H7.41636V7.7417H6.59233V0.820323ZM4.99578 0.820323H5.7683V7.7417H4.99578V0.820323ZM0.824141 4.55346V3.9939C0.822685 3.57679 0.904128 3.16352 1.06378 2.77787C1.22343 2.39222 1.45814 2.04182 1.75439 1.74685C2.05064 1.45187 2.40257 1.21815 2.78993 1.05914C3.17729 0.900124 3.59243 0.818961 4.01143 0.820323H4.17175V7.7417H4.01143C3.59165 7.74142 3.17605 7.65865 2.78848 7.49814C2.4009 7.33763 2.04896 7.10253 1.75285 6.80633C1.45674 6.51013 1.22228 6.15865 1.06291 5.77205C0.903539 5.38545 0.822399 4.97134 0.824141 4.55346ZM3.86552 14.1703C3.5325 14.1703 3.20695 14.072 2.93005 13.8878C2.65316 13.7036 2.43734 13.4418 2.3099 13.1355C2.18245 12.8292 2.14911 12.4922 2.21408 12.1671C2.27905 11.8419 2.43941 11.5432 2.6749 11.3088C2.91038 11.0744 3.2104 10.9148 3.53703 10.8501C3.86365 10.7854 4.20221 10.8186 4.50988 10.9455C4.81756 11.0723 5.08053 11.2872 5.26555 11.5628C5.45056 11.8385 5.54932 12.1625 5.54932 12.4941C5.54881 12.9385 5.37125 13.3645 5.05559 13.6788C4.73992 13.993 4.31194 14.1698 3.86552 14.1703ZM9.05622 14.1703C8.7232 14.1703 8.39765 14.072 8.12075 13.8878C7.84385 13.7036 7.62804 13.4418 7.5006 13.1355C7.37315 12.8292 7.33981 12.4922 7.40478 12.1671C7.46975 11.8419 7.63011 11.5432 7.8656 11.3088C8.10108 11.0744 8.4011 10.9148 8.72773 10.8501C9.05435 10.7854 9.39291 10.8186 9.70058 10.9455C10.0083 11.0723 10.2712 11.2872 10.4562 11.5628C10.6413 11.8385 10.74 12.1625 10.74 12.4941C10.7395 12.9385 10.562 13.3645 10.2463 13.6788C9.93062 13.993 9.50264 14.1698 9.05622 14.1703ZM15.5021 11.4844H11.3506C11.1547 11.0411 10.8334 10.6641 10.426 10.3995C10.0186 10.1348 9.54264 9.99392 9.05617 9.99392C8.56969 9.99392 8.09373 10.1348 7.68633 10.3995C7.27892 10.6641 6.95767 11.0411 6.76177 11.4844H6.15972C5.96381 11.0411 5.64256 10.6641 5.23516 10.3995C4.82775 10.1348 4.35179 9.99392 3.86532 9.99392C3.37884 9.99392 2.90288 10.1348 2.49547 10.3995C2.08807 10.6641 1.76682 11.0411 1.57092 11.4844H0.978646V8.61328H15.5021V11.4844ZM15.5021 7.79297H14.1453C14.7624 7.37901 15.2362 6.7856 15.5021 6.09369V7.79297ZM16.3261 3.02491H18.6503C18.8615 3.02084 19.0697 3.07544 19.2516 3.18259C19.4334 3.28974 19.5816 3.4452 19.6797 3.63153L20.7553 5.69092H16.3261V3.02491ZM19.5802 14.1703C19.2472 14.1703 18.9217 14.072 18.6448 13.8878C18.3679 13.7036 18.152 13.4418 18.0246 13.1355C17.8972 12.8292 17.8638 12.4922 17.9288 12.1671C17.9938 11.8419 18.1541 11.5432 18.3896 11.3088C18.6251 11.0744 18.9251 10.9148 19.2517 10.8501C19.5784 10.7854 19.9169 10.8186 20.2246 10.9455C20.5323 11.0723 20.7952 11.2872 20.9803 11.5628C21.1653 11.8385 21.264 12.1625 21.264 12.4941C21.2635 12.9385 21.086 13.3645 20.7703 13.6788C20.4546 13.993 20.0266 14.1698 19.5802 14.1703ZM23.1759 11.1165C23.1781 11.1639 23.1706 11.2113 23.1539 11.2558C23.1372 11.3003 23.1116 11.341 23.0786 11.3753C23.0457 11.4097 23.0061 11.4371 22.9623 11.4558C22.9185 11.4746 22.8713 11.4843 22.8235 11.4844H21.8745C21.6786 11.0411 21.3574 10.6641 20.95 10.3995C20.5426 10.1348 20.0666 9.99392 19.5801 9.99392C19.0937 9.99392 18.6177 10.1348 18.2103 10.3995C17.8029 10.6641 17.4816 11.0411 17.2857 11.4844H16.3261V6.51123H21.3464L22.9602 7.21773C23.0267 7.24966 23.0825 7.3001 23.1207 7.36293C23.159 7.42576 23.1782 7.49829 23.1759 7.57174V11.1165Z" fill="#A28276"/>
</svg>
