<svg width="31" height="30" viewBox="0 0 31 30" fill="none" xmlns="http://www.w3.org/2000/svg">
<g clip-path="url(#clip0_1942_13136)">
<path d="M1.43567 1.66654C0.921053 1.66654 0.5 2.09154 0.5 2.61098C0.5 3.13043 0.921053 3.55543 1.43567 3.55543H3.51193L5.96807 13.4721C6.17579 14.3126 6.92246 14.8887 7.78047 14.8887H18.5117C19.3557 14.8887 20.0724 14.324 20.2951 13.5014L22.7222 4.49987H7.04971L7.51754 6.38876H20.2951L18.5117 12.9999H7.78047L5.32433 3.08321C5.22313 2.67644 4.98961 2.31574 4.66116 2.05887C4.33271 1.80201 3.92835 1.66385 3.51287 1.66654H1.43567ZM17.3421 14.8887C15.8029 14.8887 14.5351 16.1685 14.5351 17.7221C14.5351 19.2757 15.8029 20.5554 17.3421 20.5554C18.8813 20.5554 20.1491 19.2757 20.1491 17.7221C20.1491 16.1685 18.8813 14.8887 17.3421 14.8887ZM8.92105 14.8887C7.38187 14.8887 6.11403 16.1685 6.11403 17.7221C6.11403 19.2757 7.38187 20.5554 8.92105 20.5554C10.4602 20.5554 11.7281 19.2757 11.7281 17.7221C11.7281 16.1685 10.4602 14.8887 8.92105 14.8887ZM8.92105 16.7776C9.44784 16.7776 9.85672 17.1913 9.85672 17.7221C9.85672 18.2538 9.4469 18.6665 8.92105 18.6665C8.39427 18.6665 7.98538 18.2528 7.98538 17.7221C7.98538 17.1903 8.3952 16.7776 8.92105 16.7776ZM17.3421 16.7776C17.8689 16.7776 18.2778 17.1913 18.2778 17.7221C18.2778 18.2538 17.868 18.6665 17.3421 18.6665C16.8153 18.6665 16.4064 18.2528 16.4064 17.7221C16.4064 17.1903 16.8163 16.7776 17.3421 16.7776Z" fill="#664B42"/>
<circle cx="21.0558" cy="20.5558" r="9.44444" fill="#FD9F32"/>
<path d="M16.6113 20.5557H25.5002" stroke="white" stroke-width="2" stroke-linecap="round" stroke-linejoin="round"/>
<path d="M21.0566 25L21.0566 16.1111" stroke="white" stroke-width="2" stroke-linecap="round" stroke-linejoin="round"/>
</g>
<defs>
<clipPath id="clip0_1942_13136">
<rect width="30" height="30" fill="white" transform="translate(0.5)"/>
</clipPath>
</defs>
</svg>
