<?xml version="1.0" standalone="no"?>
<!DOCTYPE svg PUBLIC "-//W3C//DTD SVG 20010904//EN"
 "http://www.w3.org/TR/2001/REC-SVG-20010904/DTD/svg10.dtd">
<svg version="1.0" xmlns="http://www.w3.org/2000/svg"
 width="1012.000000pt" height="1012.000000pt" viewBox="0 0 1012.000000 1012.000000"
 preserveAspectRatio="xMidYMid meet">
<metadata>
Created by potrace 1.14, written by Peter Selinger 2001-2017
</metadata>
<g transform="translate(0.000000,1012.000000) scale(0.100000,-0.100000)"
fill="#000000" stroke="none">
<path d="M7960 10075 c-8 -8 -63 -62 -122 -120 -59 -58 -133 -138 -165 -178
-32 -39 -60 -74 -63 -77 -3 -3 -59 -75 -125 -160 -105 -136 -390 -495 -419
-527 -6 -6 -22 -25 -35 -42 -23 -31 -206 -257 -239 -296 -9 -11 -73 -90 -141
-175 -69 -85 -127 -157 -130 -160 -3 -3 -24 -27 -46 -55 -22 -27 -47 -59 -56
-70 -54 -65 -236 -288 -308 -376 -47 -57 -91 -111 -98 -119 -7 -8 -39 -47 -71
-86 -31 -39 -105 -129 -163 -200 -58 -71 -132 -163 -165 -204 -32 -41 -61 -77
-64 -80 -3 -3 -50 -61 -104 -130 -54 -69 -104 -131 -111 -138 -10 -11 -29 10
-99 118 -48 72 -91 137 -97 143 -5 7 -60 89 -121 182 -61 94 -113 172 -117
175 -3 3 -18 21 -33 40 -38 50 -105 120 -115 120 -16 0 -102 125 -100 145 2
15 -4 20 -23 20 -18 0 -25 -6 -25 -21 -1 -11 -6 -27 -13 -35 -7 -8 -42 -54
-78 -104 -35 -49 -70 -97 -78 -106 -7 -9 -15 -20 -17 -25 -2 -6 -29 -45 -59
-88 l-55 -78 -210 215 c-115 118 -325 333 -465 478 -140 144 -334 344 -431
443 -97 100 -207 213 -245 253 -38 39 -118 122 -179 185 -60 63 -148 157 -195
209 -145 161 -361 372 -455 444 -49 38 -96 76 -104 83 -17 17 -50 9 -106 -24
-33 -19 -64 -57 -141 -172 -54 -81 -101 -149 -104 -152 -3 -3 -32 -39 -65 -80
-32 -41 -61 -77 -65 -80 -3 -3 -18 -23 -35 -45 -16 -22 -44 -56 -61 -75 -18
-19 -42 -46 -54 -60 -76 -90 -175 -179 -203 -185 -70 -14 -69 -13 -50 -48 50
-97 183 -242 353 -383 52 -43 100 -83 107 -89 7 -5 18 -14 25 -20 40 -31 126
-103 144 -120 11 -11 54 -49 94 -85 41 -36 98 -87 129 -115 84 -76 93 -85 177
-160 42 -38 92 -83 110 -100 17 -16 67 -61 109 -100 43 -38 83 -74 89 -80 7
-5 34 -30 62 -55 27 -25 94 -85 149 -135 172 -157 288 -261 319 -288 12 -10
50 -45 86 -77 36 -32 74 -67 86 -77 25 -21 144 -127 183 -163 16 -14 61 -54
101 -90 40 -36 93 -84 118 -107 l46 -41 -59 -99 c-158 -265 -216 -353 -236
-353 -24 0 -35 -25 -20 -43 8 -10 2 -27 -23 -68 -18 -30 -63 -106 -100 -169
-37 -63 -71 -122 -76 -130 -29 -49 -118 -203 -143 -250 -16 -30 -51 -93 -77
-140 -195 -351 -290 -538 -290 -567 0 -30 42 -73 71 -73 12 0 39 5 61 12 35
10 40 9 59 -10 42 -45 121 -64 202 -48 l38 7 -5 -37 c-5 -26 -19 -50 -49 -79
-23 -22 -80 -83 -127 -135 -47 -51 -92 -100 -101 -109 -8 -9 -39 -45 -69 -81
-29 -36 -60 -72 -69 -81 -9 -8 -38 -42 -66 -74 -27 -31 -61 -70 -75 -85 -25
-27 -106 -120 -165 -189 -16 -19 -37 -42 -45 -50 -8 -9 -57 -66 -109 -126 -51
-61 -114 -134 -140 -164 -208 -244 -519 -629 -540 -669 -7 -13 -18 -43 -25
-66 -13 -43 -13 -44 18 -78 17 -19 53 -61 81 -94 83 -99 375 -387 460 -454 44
-35 114 -85 155 -112 66 -43 80 -49 117 -45 45 4 46 5 113 87 25 30 49 60 55
66 5 6 26 30 45 54 19 24 40 48 45 54 6 6 28 33 50 61 22 27 45 55 50 61 6 6
28 32 50 59 111 134 201 242 214 255 13 13 14 13 8 -3 -18 -48 -82 -346 -93
-432 -2 -16 -6 -41 -9 -55 -3 -14 -8 -43 -10 -65 -3 -22 -6 -49 -9 -60 -2 -12
-7 -48 -11 -80 -4 -33 -9 -67 -10 -75 -5 -26 -21 -159 -24 -195 0 -8 -18 -24
-40 -34 -45 -23 -50 -37 -65 -178 -2 -18 -9 -39 -15 -47 -13 -16 -20 -42 -28
-102 l-5 -42 55 13 c61 14 65 12 61 -40 -12 -166 -17 -305 -15 -495 3 -317 3
-408 1 -462 -1 -40 3 -52 28 -79 25 -27 37 -32 80 -32 61 -1 96 25 114 85 7
23 18 38 27 39 9 0 30 3 46 6 62 11 70 9 68 -14 -5 -42 26 -44 101 -7 71 35
96 41 96 24 0 -16 42 -33 96 -39 l52 -6 -19 -24 c-25 -31 -66 -31 -90 0 l-17
23 -13 -27 c-16 -35 -6 -45 52 -53 80 -12 282 -6 365 10 12 3 39 7 60 10 49 8
234 43 297 57 49 11 61 31 30 47 -10 5 -144 9 -299 8 -213 -1 -278 2 -269 11
7 6 18 25 25 42 7 17 18 31 24 32 6 0 20 2 31 4 11 3 36 7 55 9 62 9 93 16
250 63 l155 45 130 -5 c71 -4 154 -9 184 -13 75 -10 65 14 -17 42 -34 12 -64
23 -67 26 -2 2 39 15 93 28 53 13 102 25 107 27 6 1 46 11 90 22 87 21 76 27
-20 11 -33 -6 -77 -12 -97 -15 -21 -3 -57 -8 -80 -11 -24 -3 -57 -7 -75 -9
-49 -6 -114 -16 -153 -23 -19 -4 -46 -7 -60 -6 -14 1 -56 2 -94 3 -79 1 -83 6
-11 15 28 4 61 9 75 11 38 6 169 24 225 31 28 4 65 7 83 7 17 1 32 4 32 7 0 3
17 5 38 6 71 2 133 8 137 14 2 3 -31 4 -73 3 -43 -1 -225 -5 -407 -8 -412 -8
-480 -10 -493 -19 -15 -9 -21 4 -20 42 1 29 4 32 32 33 71 3 115 6 181 14 39
4 84 9 100 11 17 1 57 5 90 8 92 10 151 15 250 21 50 3 113 8 140 11 118 11
200 13 178 4 -13 -5 -23 -18 -23 -29 0 -21 23 -29 104 -37 28 -2 76 -7 106
-10 30 -3 120 -7 200 -7 l145 -2 17 -37 c13 -29 25 -39 58 -49 65 -20 124 7
150 68 9 21 42 26 46 7 1 -5 5 -21 8 -36 8 -37 51 -58 92 -47 42 12 57 33 56
74 -1 34 0 35 36 36 20 1 51 2 67 4 17 1 68 6 115 9 47 4 96 9 110 11 42 6
112 14 185 20 39 4 80 13 93 22 20 12 54 18 135 22 9 1 17 6 17 12 0 6 -8 8
-17 5 -19 -5 -216 -19 -268 -19 -28 1 -178 11 -270 18 -22 2 -57 4 -78 4 -21
1 -36 5 -33 9 3 5 8 24 11 43 6 36 12 67 21 109 11 51 5 157 -10 195 -28 66
-74 94 -161 100 -71 4 -138 -24 -191 -80 -67 -69 -135 -218 -150 -324 -2 -19
-6 -36 -8 -38 -2 -2 -52 -6 -112 -9 -60 -3 -136 -7 -169 -9 -59 -4 -950 -5
-1135 -2 l-95 2 0 28 c-1 15 2 27 5 28 3 1 59 2 125 4 66 1 167 5 225 9 183
12 271 16 455 21 180 4 403 14 460 20 17 2 45 3 64 4 19 1 32 4 29 7 -3 3
-133 7 -289 9 -156 3 -408 7 -559 11 -151 3 -325 6 -386 6 l-110 0 0 29 c0 16
2 29 5 30 3 0 132 2 286 4 335 4 672 15 875 30 47 4 106 7 132 8 25 1 44 5 42
9 -3 4 -15 7 -27 7 -12 0 -83 2 -157 5 -230 11 -543 17 -852 18 l-298 0 0 33
0 32 218 2 c119 0 260 3 312 5 131 7 296 16 350 21 45 4 295 18 338 19 12 0
22 4 22 8 0 4 -35 8 -77 9 -43 1 -94 2 -113 4 -39 3 -241 12 -455 21 -198 8
-415 10 -496 4 -81 -6 -89 -4 -89 20 0 16 11 18 93 19 50 1 108 3 127 5 19 2
71 7 115 11 108 10 131 13 195 20 30 3 80 8 110 10 30 1 111 6 180 10 69 4
151 8 183 10 32 3 128 7 215 11 86 3 163 6 170 7 6 0 10 2 9 4 -2 2 -206 5
-453 8 -247 3 -465 7 -484 9 -19 3 -104 7 -189 10 -84 3 -156 8 -159 11 -3 3
4 6 16 6 12 1 25 2 30 3 4 1 41 6 82 10 41 5 86 10 100 11 14 2 63 6 110 10
47 4 101 9 120 11 226 23 928 23 1215 -1 117 -9 204 -17 235 -20 19 -2 69 -6
110 -10 41 -3 93 -7 115 -10 56 -6 155 -17 185 -20 108 -11 156 -18 163 -22 4
-2 7 -18 7 -34 0 -30 -1 -31 -42 -25 -134 18 -288 27 -288 18 0 -5 6 -9 13 -9
6 -1 44 -3 82 -7 39 -3 106 -8 150 -12 44 -3 83 -8 87 -12 3 -4 9 -29 13 -57
3 -27 9 -60 12 -73 6 -25 4 -25 -52 -11 -22 5 -56 12 -75 14 -19 3 -57 10 -85
15 -80 15 -185 21 -185 10 0 -5 10 -12 23 -14 12 -3 36 -8 52 -11 63 -14 143
-25 220 -31 44 -4 87 -8 94 -9 10 -1 21 -29 32 -81 25 -110 25 -107 -18 -100
-21 4 -51 8 -68 11 -132 21 -235 28 -235 16 0 -16 157 -45 298 -55 24 -2 49
-9 55 -15 6 -6 8 -11 5 -11 -4 0 -2 -15 3 -32 6 -18 12 -42 14 -54 10 -44 31
-95 40 -95 11 1 12 9 17 124 2 60 6 77 18 77 13 0 13 2 0 10 -11 7 -15 37 -16
133 -2 122 -2 125 19 125 12 0 82 2 155 5 l132 5 -4 -41 c-3 -23 -8 -57 -11
-74 -12 -73 -12 -91 -4 -104 7 -12 9 -11 10 1 0 8 2 24 3 35 11 79 19 153 18
168 -1 14 8 17 44 18 24 1 62 2 84 3 l41 1 -6 -35 c-3 -19 -7 -57 -10 -85 -4
-40 -3 -44 5 -22 5 16 11 54 15 85 3 31 7 57 9 59 5 5 290 20 541 28 163 5
248 10 270 15 6 1 22 2 38 1 27 -1 27 -2 13 -28 -7 -16 -19 -46 -26 -68 -47
-161 -54 -196 -46 -231 8 -32 59 -41 114 -19 40 17 46 26 45 73 -1 6 2 12 6
12 11 0 20 190 10 237 -7 35 -14 32 85 48 89 14 136 28 136 40 0 7 -117 128
-260 268 -143 140 -260 259 -260 263 0 14 -117 67 -130 59 -6 -3 -167 -8 -358
-9 -192 -1 -353 -6 -359 -9 -7 -4 -14 -3 -18 3 -4 6 -10 8 -15 5 -5 -3 -75 -7
-157 -10 -184 -6 -184 -6 -172 -48 4 -18 10 -50 11 -72 3 -39 4 -40 40 -40 33
0 41 -5 67 -45 16 -25 66 -84 112 -131 154 -158 199 -207 199 -213 0 -4 -85
-5 -189 -4 -124 2 -187 0 -183 -7 3 -5 2 -7 -2 -3 -4 3 -9 33 -11 65 -2 32 -6
75 -10 97 -6 33 -5 36 8 25 8 -8 12 -20 10 -26 -14 -37 34 -92 53 -61 6 10 32
-13 52 -47 6 -11 12 -14 12 -7 0 7 -11 30 -24 51 -21 33 -24 47 -20 98 4 46 2
62 -9 66 -17 6 -30 -2 -44 -26 -8 -16 -13 -13 -38 25 -16 24 -30 50 -31 58 -2
8 -6 35 -10 60 -4 25 -8 59 -10 75 -1 17 -5 49 -8 73 -3 23 -8 61 -11 85 -3
23 -8 53 -10 67 -4 26 -11 81 -20 153 -6 47 -23 174 -31 227 -3 19 -7 54 -9
78 -3 23 -7 55 -9 70 -5 27 -15 108 -21 172 -5 47 -15 127 -20 170 -3 19 -7
68 -11 109 -3 41 -7 89 -10 105 -5 34 -12 110 -19 196 -2 30 -5 55 -5 55 -1 0
-3 20 -5 45 -5 65 -13 139 -19 190 -3 25 -8 74 -11 110 -4 36 -9 85 -11 110
-3 25 -6 61 -8 80 -6 59 -17 160 -31 265 -7 55 -11 102 -9 104 3 4 35 -30 114
-122 14 -16 39 -43 55 -61 17 -18 55 -61 85 -95 30 -35 69 -78 85 -96 17 -18
57 -62 90 -99 32 -37 68 -78 80 -90 11 -13 54 -60 95 -106 41 -46 84 -94 95
-106 37 -41 160 -177 175 -194 30 -34 176 -194 195 -214 11 -12 56 -62 100
-111 44 -50 82 -92 85 -95 26 -25 182 -204 241 -275 41 -49 79 -95 84 -101 6
-7 26 -31 45 -55 37 -48 205 -218 257 -261 18 -15 57 -41 87 -58 l55 -31 74
73 c40 40 104 100 142 133 38 33 89 78 113 100 41 37 195 148 383 275 137 93
175 126 198 172 24 50 28 103 8 95 -8 -3 -18 7 -25 22 -14 31 -117 159 -191
236 -56 59 -182 178 -341 325 -111 103 -291 275 -475 455 -50 50 -183 178
-294 285 -112 107 -251 242 -309 298 -286 277 -614 596 -692 672 -135 132
-595 576 -709 683 -33 32 -61 60 -61 62 0 3 -63 111 -141 240 -137 231 -140
237 -129 271 6 18 16 34 20 34 9 0 202 -182 268 -253 25 -26 41 -35 54 -32 15
5 216 204 315 311 15 17 67 73 115 125 47 52 96 105 108 119 22 26 101 110
395 425 61 65 126 135 145 155 19 20 85 90 145 155 61 64 126 134 145 155 19
21 85 91 145 156 61 65 133 141 160 170 28 29 95 100 150 160 55 59 114 122
130 139 17 18 71 76 120 130 188 205 224 243 370 391 269 272 326 341 392 478
28 56 31 48 -66 140 -147 139 -350 355 -406 431 -16 22 -35 44 -42 48 -7 4
-13 13 -13 18 0 6 -6 16 -12 23 -32 32 -128 163 -128 175 0 13 -104 61 -133
61 -13 0 -29 -7 -37 -15z m48 -126 l22 -36 -63 -84 c-34 -46 -66 -89 -72 -95
-5 -6 -28 -37 -50 -68 -22 -31 -43 -56 -46 -56 -4 0 -25 19 -47 42 -44 45 -44
51 0 98 13 14 34 41 48 60 13 19 27 37 30 40 12 11 90 137 90 146 0 6 5 15 12
22 14 14 42 -10 76 -69z m135 -148 c48 -49 87 -94 87 -99 0 -5 -10 -16 -22
-25 -46 -30 -204 -198 -216 -229 -2 -4 -9 -8 -15 -8 -14 0 -147 131 -147 145
0 5 14 26 30 45 16 19 30 38 30 41 0 5 13 22 50 66 5 7 10 16 10 21 0 5 9 17
20 27 11 10 20 22 20 27 0 5 6 15 13 22 6 8 19 23 27 35 8 11 17 21 20 21 3 0
45 -40 93 -89z m-400 -162 c21 -22 37 -45 37 -51 0 -10 -58 -94 -87 -128 -7
-8 -47 -61 -89 -117 -42 -57 -80 -103 -84 -103 -9 0 -100 101 -100 110 0 3 15
22 33 42 17 20 57 66 87 103 30 37 65 78 77 91 12 13 34 39 49 59 14 19 30 35
34 35 3 0 23 -18 43 -41z m-5633 -100 c19 -26 71 -86 115 -134 44 -49 80 -91
80 -95 0 -9 -73 -90 -80 -90 -3 0 -17 12 -32 28 -32 34 -149 164 -195 216
l-35 39 41 64 c41 64 41 65 56 42 8 -13 31 -44 50 -70z m6262 -4 c38 -49 76
-97 86 -106 9 -10 44 -45 77 -79 33 -33 79 -73 102 -88 l42 -26 -77 -76 c-42
-41 -100 -101 -129 -133 l-52 -58 -93 97 c-51 53 -130 136 -175 183 -46 47
-83 88 -83 91 0 3 25 34 56 70 75 86 134 164 134 178 0 7 5 12 10 12 6 0 10 7
10 16 0 29 24 8 92 -81z m-493 -51 c65 -76 66 -80 31 -114 -3 -3 -28 -32 -55
-65 -28 -33 -52 -62 -55 -65 -3 -3 -32 -36 -64 -75 -32 -38 -64 -73 -71 -77
-8 -5 -22 4 -38 25 -13 17 -37 44 -52 59 -15 15 -25 33 -22 41 8 21 249 347
256 346 3 0 35 -34 70 -75z m-5912 -28 c9 -15 72 -89 163 -192 77 -87 74 -75
34 -119 -85 -96 -103 -115 -107 -115 -3 0 -44 38 -91 85 -47 46 -110 101 -141
121 -30 20 -55 38 -55 38 0 7 59 80 107 132 59 65 76 74 90 50z m5523 -249 c0
-8 -54 -91 -75 -113 -5 -7 -53 -69 -105 -138 -52 -69 -100 -126 -106 -126 -5
0 -26 18 -45 41 -19 22 -42 48 -51 57 -16 16 -14 20 18 57 19 22 37 45 42 50
4 6 56 72 117 148 l109 138 48 -53 c26 -29 47 -57 48 -61z m574 59 c14 -19 31
-40 38 -48 7 -7 40 -45 73 -83 33 -39 79 -90 102 -115 23 -25 53 -58 67 -75
28 -33 30 -28 -39 -100 -47 -49 -95 -104 -157 -177 l-56 -67 -79 87 c-43 47
-101 111 -130 142 -89 95 -123 135 -123 145 0 6 15 26 33 46 17 20 48 56 69
80 20 24 48 58 62 74 15 17 43 51 64 77 20 26 40 47 43 48 4 0 18 -15 33 -34z
m-5653 -59 c46 -45 118 -114 160 -154 l75 -71 -20 -28 c-11 -16 -23 -31 -26
-34 -3 -3 -16 -18 -28 -34 l-21 -28 -28 29 c-39 40 -213 230 -251 274 l-32 36
37 47 c19 25 39 46 43 46 4 0 45 -37 91 -83z m-662 -47 c16 -24 71 -86 121
-136 69 -69 90 -95 84 -107 -8 -13 -82 -102 -109 -131 -6 -6 -51 -58 -100
-116 -50 -58 -97 -113 -106 -122 -14 -17 -17 -16 -45 10 -83 75 -174 153 -216
185 l-48 36 33 20 c36 22 115 102 167 171 19 25 40 49 46 55 6 5 39 50 74 98
34 48 64 86 66 84 2 -2 17 -23 33 -47z m5829 -56 l51 -61 -24 -33 c-14 -19
-28 -36 -33 -39 -7 -6 -90 -102 -128 -150 -10 -13 -36 -42 -56 -64 -21 -22
-38 -44 -38 -48 0 -17 -34 -18 -45 -2 -7 10 -27 33 -44 52 -17 19 -28 39 -24
45 7 13 105 138 113 146 3 3 30 39 60 80 30 41 60 81 67 88 7 8 18 22 24 33 6
11 14 19 19 17 4 -2 31 -30 58 -64z m-5327 18 c56 -64 171 -192 216 -241 23
-25 43 -51 43 -56 0 -9 -60 -88 -95 -124 -11 -11 -38 11 -169 140 -89 88 -154
159 -151 167 7 20 108 152 116 152 3 0 22 -17 40 -38z m537 -299 c224 -238
213 -225 199 -242 -8 -9 -31 -38 -52 -64 l-38 -48 -41 44 c-23 24 -86 92 -141
152 -55 60 -110 120 -123 133 -13 13 -21 31 -18 39 8 19 79 112 87 113 3 0 60
-57 127 -127z m4980 52 c9 -11 32 -39 51 -63 l34 -43 -29 -31 c-43 -46 -54
-59 -109 -123 -27 -32 -60 -70 -73 -84 -13 -14 -35 -41 -49 -58 -14 -18 -29
-33 -34 -33 -7 0 -69 62 -118 119 -24 27 -23 29 41 102 25 30 58 68 73 84 14
17 56 67 93 112 l67 82 18 -22 c10 -12 26 -31 35 -42z m-657 -1 c63 -87 64
-88 46 -110 -9 -10 -54 -66 -101 -124 -46 -58 -97 -120 -113 -138 l-28 -33
-57 58 -57 58 60 75 c34 41 72 89 85 105 14 17 46 58 72 92 26 34 50 62 53 63
3 0 21 -21 40 -46z m-4877 -391 c-43 -54 -81 -100 -84 -103 -3 -3 -37 -44 -74
-92 -38 -49 -72 -88 -76 -88 -6 0 -49 36 -145 122 -17 15 -40 35 -51 45 -104
89 -124 107 -124 113 0 6 34 49 130 163 37 44 60 72 123 155 l71 93 155 -155
155 -155 -80 -98z m362 257 c27 -32 54 -60 173 -188 53 -57 98 -108 99 -113 2
-5 -17 -34 -42 -64 l-46 -54 -165 163 c-91 90 -165 169 -165 175 0 6 21 38 47
71 50 65 51 65 99 10z m5289 -5 c14 -13 25 -28 25 -34 0 -5 3 -11 8 -13 6 -3
59 -66 100 -119 11 -14 8 -22 -20 -52 -83 -88 -218 -234 -237 -257 l-21 -25
-65 70 c-36 39 -74 81 -84 95 -19 26 -19 26 7 57 15 17 47 54 71 83 25 29 50
58 55 64 6 6 29 34 51 61 53 67 78 95 82 95 2 0 15 -11 28 -25z m-636 -34 c23
-27 41 -52 41 -57 0 -7 -85 -110 -119 -145 -9 -8 -32 -34 -51 -58 -19 -23 -45
-54 -57 -67 l-22 -24 -47 45 c-34 32 -44 48 -37 57 5 7 56 69 113 138 57 69
108 133 114 143 6 9 14 17 17 17 4 0 26 -22 48 -49z m-4070 -282 c80 -83 147
-155 149 -159 2 -4 -3 -14 -10 -22 -7 -7 -32 -34 -55 -60 l-41 -46 -112 117
c-62 64 -128 132 -147 152 l-35 37 48 66 c26 36 50 66 52 66 3 0 70 -68 151
-151z m3618 117 c4 -8 25 -32 46 -55 20 -22 37 -43 37 -47 0 -7 -108 -141
-140 -174 -8 -9 -30 -33 -49 -55 l-34 -39 -52 59 c-50 55 -52 60 -35 74 9 9
35 39 56 66 21 28 41 52 44 55 3 3 27 33 54 68 49 65 60 71 73 48z m-4271
-160 l167 -164 -39 -49 c-22 -26 -41 -50 -44 -53 -3 -3 -15 -17 -26 -32 l-20
-26 -65 60 c-35 33 -85 81 -111 106 -27 26 -48 44 -48 40 0 -3 47 -53 105
-110 58 -58 105 -109 105 -112 0 -4 -19 -31 -42 -59 -24 -28 -46 -56 -50 -62
-4 -5 -20 -25 -35 -43 l-28 -33 -24 20 c-59 52 -182 162 -243 219 l-67 62 82
110 c45 61 111 151 145 200 35 50 65 90 67 90 3 0 79 -74 171 -164z m4914 82
c33 -40 60 -78 60 -84 0 -11 -31 -51 -88 -111 -20 -22 -59 -65 -86 -96 l-50
-58 -59 58 c-71 70 -81 87 -64 105 25 27 174 204 192 230 11 15 23 28 27 28 4
0 35 -33 68 -72z m-4292 -403 l-48 -50 -140 140 -139 140 42 57 42 56 146
-146 146 -147 -49 -50z m3794 323 c14 -13 33 -35 43 -50 l17 -27 -54 -63 c-29
-35 -55 -65 -58 -68 -3 -3 -29 -34 -59 -68 l-54 -64 -44 46 c-48 51 -49 53
-28 75 8 9 25 28 37 42 13 15 37 42 53 60 17 19 50 58 73 87 24 28 45 52 46
52 2 0 14 -10 28 -22z m599 -50 c13 -18 26 -35 29 -38 3 -3 24 -27 45 -55 22
-27 44 -53 50 -57 5 -4 6 -10 2 -14 -10 -11 -140 -153 -181 -199 l-35 -40 -58
60 c-95 99 -108 116 -98 123 6 4 44 48 85 97 41 50 85 101 97 115 13 14 23 28
23 32 0 18 20 6 41 -24z m-988 -80 c27 -28 77 -96 77 -105 0 -4 -12 -21 -27
-38 -15 -16 -66 -74 -113 -130 -47 -56 -94 -111 -105 -122 l-20 -21 -47 46
-48 47 56 70 c30 39 63 79 72 90 9 11 43 55 76 98 32 42 61 77 63 77 2 0 10
-6 16 -12z m-3123 -90 c36 -39 92 -97 124 -129 l59 -58 -34 -50 c-53 -77 -62
-79 -113 -29 -24 24 -81 79 -125 122 -75 74 -93 99 -73 108 4 2 25 27 46 56
21 28 41 52 44 52 4 -1 36 -33 72 -72z m3730 -28 l69 -70 -32 -38 c-18 -20
-36 -42 -42 -48 -32 -35 -132 -150 -142 -163 -13 -16 -30 -2 -121 100 l-23 26
48 58 c26 32 61 72 76 89 15 17 42 50 60 73 18 23 33 43 35 43 1 0 34 -32 72
-70z m-4281 -100 l131 -129 -62 -73 c-34 -40 -63 -75 -65 -77 -1 -2 -38 30
-80 71 -43 42 -101 98 -130 125 -51 49 -51 50 -35 75 10 13 23 31 30 39 7 8
26 33 42 57 17 23 32 42 34 42 2 0 63 -58 135 -130z m3820 28 l40 -52 -37 -46
c-20 -25 -46 -56 -58 -70 -13 -14 -50 -58 -85 -97 -34 -40 -65 -73 -68 -73 -4
0 -28 20 -54 44 l-48 44 33 38 c18 22 35 41 38 44 3 3 25 30 50 60 25 30 58
70 75 88 16 18 36 42 45 52 8 11 18 20 22 20 4 0 25 -24 47 -52z m-3217 -243
c-3 -5 -10 -14 -14 -20 -5 -5 -21 -26 -36 -47 l-28 -36 -127 122 c-70 67 -127
126 -127 131 0 4 18 32 41 61 l41 54 128 -127 c71 -70 126 -132 122 -138z
m3851 135 l67 -79 -27 -29 c-65 -67 -179 -195 -186 -208 -13 -23 -33 -16 -60
19 -13 17 -41 50 -61 71 -35 39 -44 61 -27 68 4 2 35 35 67 73 32 39 61 72 64
75 3 3 20 24 39 48 18 23 38 42 44 41 7 0 42 -36 80 -79z m-4591 -97 c62 -63
114 -115 115 -117 1 -1 -14 -20 -33 -41 -20 -22 -52 -61 -72 -87 -20 -27 -39
-48 -43 -48 -11 0 -117 93 -226 198 -13 13 -20 29 -17 35 4 7 36 54 72 104 51
73 68 91 78 82 8 -6 64 -63 126 -126z m945 36 c83 -89 139 -147 195 -205 l50
-51 -43 -47 c-24 -25 -47 -46 -52 -46 -10 0 -35 22 -191 175 l-113 110 46 62
c25 35 47 63 48 63 1 0 28 -28 60 -61z m2643 -99 c0 -4 -10 -18 -22 -32 -13
-13 -41 -46 -63 -72 -22 -27 -51 -60 -65 -75 -14 -14 -39 -43 -56 -64 l-31
-38 -36 42 c-21 23 -37 46 -37 51 0 6 22 36 48 67 26 31 63 76 82 101 19 25
37 47 40 50 3 3 17 20 30 39 l24 34 43 -48 c24 -27 43 -52 43 -55z m555 30
c31 -38 55 -76 53 -84 -4 -17 -187 -232 -205 -239 -13 -6 -133 100 -133 117 0
6 15 27 33 47 17 20 48 55 67 79 19 24 48 57 63 74 16 17 35 41 44 54 8 12 17
22 19 22 2 0 28 -31 59 -70z m-3697 -95 c89 -90 122 -129 115 -138 -58 -74
-108 -132 -114 -132 -3 0 -63 54 -132 121 l-124 120 20 30 c33 46 98 124 104
124 4 0 62 -56 131 -125z m563 -168 l57 -55 -49 -48 -49 -48 -68 66 c-37 36
-97 96 -134 132 -38 35 -68 68 -68 73 0 4 16 32 37 61 l36 53 91 -89 c50 -49
116 -115 147 -145z m862 176 c-10 -7 -26 -20 -36 -29 -23 -18 -34 -12 -14 8 8
7 19 24 26 36 10 19 15 21 28 11 13 -12 13 -14 -4 -26z m1826 -55 c12 -16 5
-28 -60 -105 -41 -49 -78 -93 -84 -99 -5 -6 -26 -29 -45 -52 l-34 -41 -31 33
c-69 74 -67 67 -33 106 16 19 46 55 67 79 20 24 45 53 56 65 11 12 35 40 54
63 l33 41 32 -37 c17 -20 38 -44 45 -53z m553 10 c11 -13 36 -44 56 -70 20
-27 40 -48 44 -48 25 0 5 -28 -105 -144 -26 -28 -58 -63 -70 -78 l-22 -27 -72
71 -71 71 106 123 c59 68 108 124 111 124 2 0 12 -10 23 -22z m-3948 -143
l127 -125 -68 -85 -67 -86 -40 39 c-53 50 -118 110 -180 166 l-50 44 29 39
c16 21 38 47 48 58 10 11 28 32 40 47 12 15 25 28 28 28 4 0 64 -56 133 -125z
m1685 33 c23 -46 52 -101 65 -123 30 -48 32 -56 10 -48 -12 4 -15 2 -12 -8 3
-8 16 -16 31 -19 19 -4 48 -34 105 -110 97 -130 166 -230 161 -235 -3 -2 -26
1 -52 7 -52 11 -63 7 -54 -17 5 -11 22 -15 69 -15 l63 0 50 -82 c63 -102 62
-100 28 -93 -15 3 -43 8 -62 10 -18 3 -37 8 -42 11 -5 3 -9 2 -9 -3 1 -20 18
-30 55 -31 58 -2 104 -7 109 -13 6 -7 72 -113 84 -135 11 -20 11 -20 -76 3
-102 27 -112 28 -112 9 0 -23 8 -26 105 -41 98 -14 99 -14 132 -70 49 -84 49
-85 -9 -125 -29 -19 -57 -33 -62 -32 -34 11 -106 13 -106 3 0 -10 38 -17 64
-12 5 1 16 -1 25 -4 19 -8 -125 -149 -193 -189 l-46 -27 -17 21 c-10 12 -46
50 -81 86 -68 70 -70 78 -27 128 14 16 38 49 53 73 26 42 29 44 70 41 25 -2
41 1 39 7 -2 5 -14 9 -26 9 -11 -1 -21 4 -20 10 3 23 -2 37 -18 54 -56 59 -87
94 -78 89 6 -3 30 -8 53 -12 l43 -6 -15 29 c-15 29 -32 36 -116 49 -21 3 -48
18 -67 37 -39 37 -41 46 -10 41 12 -2 48 -7 80 -10 60 -5 70 3 44 36 -11 14
-122 39 -195 43 -21 2 -132 101 -132 119 0 4 4 6 8 3 16 -10 221 -27 234 -19
12 7 -14 53 -31 54 -9 0 -25 3 -36 5 -11 3 -67 6 -125 8 l-104 3 -56 55 c-30
31 -87 89 -127 129 l-72 74 88 133 c49 73 92 136 96 140 4 4 -15 -37 -42 -90
-39 -77 -48 -104 -45 -133 3 -26 7 -34 15 -26 6 6 18 11 27 11 8 0 29 16 45
36 17 20 35 42 41 48 6 6 18 23 28 38 14 22 22 26 36 18 24 -13 48 14 34 38
-7 11 -5 24 6 46 20 40 30 56 35 56 2 0 22 -37 44 -82z m-540 -285 c-16 -23
-33 -45 -38 -48 -6 -3 -70 54 -144 126 -127 123 -134 132 -119 148 10 10 29
32 45 49 l28 32 128 -132 129 -133 -29 -42z m1847 233 l32 -43 -27 -29 c-14
-16 -51 -58 -81 -94 -30 -35 -65 -76 -78 -90 -12 -14 -39 -46 -60 -72 -20 -26
-42 -47 -48 -48 -5 0 -24 14 -42 31 -25 25 -29 34 -19 45 6 7 71 88 142 178
72 91 135 165 140 165 6 0 24 -20 41 -43z m-2550 -90 c69 -68 125 -128 123
-134 -2 -5 -30 -39 -63 -75 l-58 -67 -65 63 c-36 34 -92 88 -124 120 l-59 58
32 47 c18 26 35 49 38 52 3 3 13 17 23 33 10 15 19 27 22 27 2 0 61 -56 131
-124z m3177 -19 c-14 -23 -226 -257 -232 -257 -4 0 -33 27 -65 59 -67 67 -68
55 21 158 29 33 63 73 75 89 13 16 36 44 52 62 l30 33 63 -66 c37 -40 60 -72
56 -78z m-2673 -83 c81 -80 127 -131 122 -139 -13 -21 -76 -95 -82 -95 -3 0
-65 58 -137 130 l-132 130 27 32 c15 18 34 41 42 50 8 10 18 18 22 18 4 0 66
-57 138 -126z m2148 61 l43 -55 -29 -32 c-28 -31 -136 -156 -207 -239 -16 -20
-36 -39 -42 -43 -16 -9 -105 82 -96 98 6 10 184 220 252 298 13 16 27 28 30
28 4 0 26 -25 49 -55z m687 -135 c0 -8 -38 -53 -115 -137 -30 -32 -72 -79 -93
-103 -20 -23 -39 -41 -40 -39 -2 2 -26 34 -55 71 -29 37 -52 70 -52 74 0 3 11
18 24 32 14 15 65 75 116 134 l91 107 62 -66 c34 -36 62 -69 62 -73z m-3482
-6 c134 -131 130 -110 37 -206 l-55 -57 -70 65 c-38 36 -89 82 -112 102 -24
19 -43 40 -43 47 0 12 111 165 120 165 3 0 58 -52 123 -116z m1036 -90 l95
-95 -83 4 c-69 4 -86 8 -108 28 -49 44 -63 59 -63 65 0 5 61 94 64 94 1 0 43
-43 95 -96z m-560 -54 c139 -136 132 -112 58 -196 -15 -17 -34 -40 -42 -50
-15 -21 5 -37 -197 158 -43 41 -78 78 -78 81 0 4 26 38 57 77 37 45 60 66 68
60 6 -5 66 -63 134 -130z m2519 23 c17 -24 32 -49 32 -56 0 -6 -19 -33 -42
-58 -24 -25 -72 -79 -108 -119 -79 -89 -90 -100 -98 -100 -11 0 -112 104 -112
116 0 6 9 22 21 35 11 13 37 44 57 68 47 55 57 67 112 131 25 29 49 60 54 69
8 13 13 11 30 -13 12 -16 36 -49 54 -73z m-618 -46 c0 -10 -28 -47 -73 -97
-18 -19 -57 -64 -87 -100 -118 -140 -132 -152 -150 -135 -9 8 -22 15 -28 15
-15 0 -20 33 -6 45 6 6 73 86 149 178 l138 168 29 -33 c15 -18 28 -37 28 -41z
m-1596 38 c-9 -14 -18 -25 -21 -25 -5 0 5 18 20 38 17 22 18 13 1 -13z m104
-21 c34 -23 27 -34 -23 -34 l-45 0 16 25 c19 29 22 30 52 9z m-128 -18 c0 -2
-7 -9 -15 -16 -13 -11 -14 -10 -9 4 5 14 24 23 24 12z m-441 -144 l130 -127
-35 -45 c-19 -25 -41 -58 -50 -73 -8 -16 -19 -27 -23 -25 -9 3 -106 90 -219
195 l-66 61 50 57 c27 31 53 63 59 71 5 8 13 14 18 14 4 0 65 -57 136 -128z
m2144 57 c20 -25 37 -49 37 -53 0 -4 -10 -17 -22 -30 -13 -13 -68 -78 -123
-144 -55 -66 -105 -123 -111 -126 -10 -4 -105 66 -111 82 -2 4 9 21 23 37 14
17 47 55 72 85 26 30 67 77 91 105 24 27 55 63 68 79 14 15 28 24 32 20 4 -5
24 -30 44 -55z m-1568 30 l74 0 87 -84 88 -85 -19 -22 c-11 -13 -33 -38 -49
-56 l-30 -32 -133 132 c-101 101 -130 135 -121 145 5 7 14 10 19 7 5 -3 43 -5
84 -5z m2275 -115 c0 -3 -24 -31 -54 -62 -30 -32 -88 -92 -128 -135 l-74 -78
-51 57 -51 57 102 120 c55 66 109 130 120 144 l19 24 58 -60 c33 -33 59 -63
59 -67z m-1971 81 c17 -19 31 -38 31 -42 0 -4 -14 -22 -31 -39 l-32 -33 -50
47 c-64 60 -87 84 -87 91 0 4 31 7 69 8 66 3 69 2 100 -32z m-539 -70 c0 -8
-101 -155 -106 -155 -3 0 7 19 21 43 14 23 36 59 48 79 19 33 37 49 37 33z
m107 -107 c35 -34 63 -65 63 -68 0 -3 -12 -6 -27 -7 -107 -7 -158 -21 -140
-39 5 -5 81 -12 177 -15 51 -2 70 -7 88 -24 l23 -22 -41 -43 c-22 -24 -49 -54
-58 -68 l-18 -24 -50 45 c-27 25 -76 70 -109 101 -33 31 -63 56 -67 56 -17 0
-6 30 38 98 25 40 49 72 52 72 4 0 35 -28 69 -62z m539 52 c15 -6 42 -25 60
-42 29 -29 31 -33 16 -44 -16 -12 -15 -13 3 -20 103 -37 110 -50 24 -50 -60 0
-61 1 -125 61 -62 58 -64 61 -49 83 18 25 31 27 71 12z m1344 -115 c29 -37 39
-58 33 -68 -4 -8 -38 -48 -74 -88 -37 -41 -79 -89 -95 -106 -16 -18 -32 -33
-37 -33 -9 0 -98 59 -107 70 -3 4 -11 9 -18 11 -9 3 -3 17 20 44 18 21 64 75
101 119 38 45 78 91 89 104 23 28 28 25 88 -53z m-1410 6 c22 -21 40 -40 40
-42 0 -7 -130 -2 -137 4 -5 6 43 77 52 77 3 0 23 -17 45 -39z m-731 -58 c-72
-118 -76 -123 -88 -110 -8 10 -4 21 17 43 16 16 41 46 56 67 16 20 30 37 33
37 3 0 -6 -17 -18 -37z m1100 -138 c0 -5 -13 -20 -29 -32 l-28 -23 -88 85
c-48 47 -86 85 -83 86 2 0 24 3 49 6 25 2 47 7 49 9 7 7 131 -118 130 -131z
m-361 114 c9 5 40 6 73 2 13 -2 139 -130 132 -134 -4 -2 -28 -3 -53 -1 -25 1
-70 4 -100 5 -52 2 -58 5 -112 58 -32 31 -58 59 -58 63 0 10 51 14 81 7 15 -4
31 -4 37 0z m-574 -89 l90 -90 -70 -1 c-82 -1 -103 -4 -117 -18 -22 -22 10
-32 102 -34 50 -1 91 -4 91 -7 0 -3 -18 -25 -40 -50 -38 -45 -39 -45 -58 -25
-19 20 -124 113 -169 150 l-24 20 46 73 c26 39 50 72 53 72 4 0 47 -41 96 -90z
m2089 38 c9 -13 27 -36 41 -52 l26 -30 -27 -30 c-16 -16 -32 -35 -38 -41 -5
-7 -39 -45 -75 -84 l-64 -73 -43 48 -43 47 23 31 c12 17 29 38 37 47 8 8 41
48 73 87 32 40 62 72 66 72 5 0 16 -10 24 -22z m-1272 -114 c24 -22 24 -41 -1
-54 -11 -6 -34 -24 -51 -41 l-31 -31 -46 44 c-57 54 -81 81 -77 88 2 3 45 6
95 8 76 3 96 0 111 -14z m-343 -68 l77 -75 -127 2 c-117 1 -130 3 -154 24
l-26 22 32 51 c31 48 34 50 76 50 42 0 49 -5 122 -74z m-752 -72 c-15 -15 -11
-43 8 -56 6 -4 29 -8 51 -8 31 0 48 -7 73 -31 17 -16 32 -32 32 -34 0 -2 -19
-1 -42 2 -24 3 -82 6 -130 6 -74 0 -84 2 -72 14 8 8 14 18 14 23 0 5 6 15 13
22 6 7 21 30 31 50 11 20 24 35 28 32 4 -3 2 -12 -6 -20z m528 -53 c10 -1 45
-28 77 -61 61 -61 69 -73 44 -64 -8 4 -52 7 -98 8 -70 1 -87 5 -112 24 l-29
23 19 32 c23 39 30 44 58 41 12 -1 30 -3 41 -3z m355 -8 c13 -14 12 -18 -14
-40 -45 -36 -48 -38 -77 -57 -26 -17 -27 -17 -61 16 -19 18 -47 44 -63 58
l-29 25 75 5 c135 9 153 8 169 -7z m992 -92 c10 -20 30 -53 44 -73 l25 -37
-23 5 c-39 9 -142 26 -154 27 -19 1 -16 14 5 19 11 3 24 26 35 62 21 64 31 64
68 -3z m-1607 -55 c20 -16 36 -32 36 -35 0 -3 -78 -6 -173 -6 -94 0 -201 -5
-237 -11 -36 -7 -66 -11 -68 -9 -2 1 9 22 23 46 l27 44 123 -1 c68 0 143 2
167 6 49 7 51 6 102 -34z m384 -10 c29 -2 54 -5 56 -7 2 -2 -15 -26 -39 -53
l-43 -50 -63 62 -64 62 50 -5 c28 -4 74 -7 103 -9z m307 -6 c3 -5 -1 -10 -9
-10 -34 0 -15 -28 22 -32 30 -5 129 -67 181 -115 3 -2 -35 -2 -84 0 -103 4
-185 -7 -196 -25 -6 -10 3 -15 34 -20 50 -8 92 -16 92 -18 0 -2 159 -12 218
-13 l59 -1 -48 -43 c-29 -27 -57 -43 -73 -44 -14 0 -54 0 -88 -1 -35 0 -63 -1
-63 -3 0 -21 19 -35 56 -41 24 -3 44 -9 44 -13 0 -4 -14 -17 -30 -29 -27 -20
-45 -23 -183 -28 -144 -5 -214 -8 -387 -19 -201 -12 -930 -29 -930 -22 0 3 18
37 41 76 33 58 43 68 54 58 16 -16 81 -20 395 -20 214 0 332 3 680 18 41 2
115 4 164 4 122 1 101 13 -30 17 -59 1 -175 6 -258 10 -268 12 -297 12 -551
13 -277 0 -378 -3 -396 -15 -7 -4 -2 11 10 32 40 70 48 77 83 75 70 -6 362 -4
551 3 l198 8 37 -28 c20 -16 39 -32 40 -36 2 -5 18 -16 35 -24 l30 -16 43 46
c24 25 48 46 53 46 5 0 8 6 7 14 -1 14 171 206 185 206 4 0 11 -4 14 -10z
m950 -75 c26 -3 52 -9 59 -14 14 -12 50 -80 45 -85 -2 -3 -29 2 -59 10 -30 9
-65 17 -77 20 -12 2 -35 9 -50 15 -16 6 -29 10 -30 10 -18 -5 -33 3 -33 17 0
10 -6 24 -12 31 -11 10 -2 12 48 6 34 -3 82 -8 109 -10z m-1458 -71 c23 -22
22 -27 -7 -26 -24 0 -265 15 -305 19 -64 5 -209 12 -302 12 l-72 1 17 30 c17
29 32 39 32 21 0 -18 58 -28 150 -26 52 1 111 5 130 9 34 6 52 8 190 22 36 4
67 8 69 10 5 4 58 -35 98 -72z m1366 -58 c20 -3 52 -8 70 -11 19 -3 49 -7 68
-9 38 -4 102 -16 105 -19 1 -1 16 -26 33 -54 23 -39 27 -53 16 -53 -8 0 -15
-5 -15 -11 0 -14 -67 -6 -184 21 -45 10 -97 21 -116 23 -38 5 -70 16 -70 24 0
13 45 101 50 98 3 -2 22 -6 43 -9z m77 -170 c14 -2 51 -4 83 -4 l59 -2 -63
-59 c-52 -49 -66 -57 -81 -48 -9 6 -19 21 -23 34 -3 12 -19 38 -35 56 l-30 34
33 -4 c17 -3 43 -6 57 -7z m304 -108 c25 -43 46 -79 46 -81 0 -6 -33 -1 -55 7
-11 4 -35 25 -53 47 l-34 39 22 35 c12 20 23 35 25 33 1 -2 23 -38 49 -80z
m-1184 16 c0 -2 -16 -19 -35 -39 -22 -22 -46 -35 -63 -36 -15 -1 -43 -2 -62
-4 -136 -10 -139 -10 -173 21 -17 16 -34 30 -36 32 -16 9 23 16 107 20 53 2
98 5 99 5 3 3 163 4 163 1z m-460 -26 c0 -4 -17 -25 -37 -46 -41 -42 -41 -42
-225 -46 -32 0 -58 -3 -58 -6 0 -3 -28 -5 -63 -6 -62 0 -239 -11 -332 -19 -49
-5 -99 -9 -260 -21 -44 -3 -83 -8 -87 -11 -15 -8 -8 15 19 63 14 27 28 51 30
54 2 2 30 5 61 7 142 7 255 12 352 17 58 3 190 8 295 11 104 3 190 7 191 8 6
6 114 2 114 -5z m1548 -28 c14 -23 13 -24 -25 -9 -22 8 -24 12 -13 19 21 13
24 13 38 -10z m162 -176 c63 -62 111 -116 108 -119 -3 -4 -63 9 -133 29 l-127
35 -69 70 -69 71 20 20 c18 18 28 19 88 14 l67 -6 115 -114z m10 74 c30 -50
24 -55 -15 -12 -40 43 -40 44 -20 44 8 0 24 -15 35 -32z m-1376 10 c-4 -7 -16
-23 -27 -36 l-21 -22 -24 22 -24 23 39 12 c51 15 66 16 57 1z m684 -19 l47
-29 -65 5 c-68 6 -165 12 -214 14 -28 1 -28 2 -12 20 14 15 32 19 107 19 84 1
94 -1 137 -29z m185 -16 c-4 -11 -11 -9 -29 8 -33 31 -30 44 5 23 17 -10 27
-23 24 -31z m667 -20 c38 -37 70 -70 70 -74 0 -4 -12 -14 -26 -24 -24 -16 -26
-16 -39 2 -28 37 -93 163 -84 163 5 0 40 -30 79 -67z m-1991 40 c-8 -10 -29
-34 -47 -54 -18 -20 -39 -45 -46 -54 -11 -16 -45 -18 -367 -20 -195 -2 -404
-6 -466 -10 l-112 -7 15 31 c9 17 21 31 27 32 55 2 240 16 337 25 36 4 86 7
112 8 27 0 48 3 48 6 0 3 12 5 28 6 35 1 178 14 217 20 17 2 50 6 75 8 99 9
175 19 179 22 12 11 12 2 0 -13z m146 -20 c33 -36 45 -63 27 -63 -5 0 -24 -21
-43 -47 -37 -52 -39 -55 -104 -128 -24 -27 -45 -45 -45 -38 0 6 -6 18 -12 25
-7 8 -25 27 -40 44 l-27 30 25 29 c14 17 53 61 87 99 34 38 64 73 65 77 8 19
35 7 67 -28z m177 -134 l57 -36 -37 -44 c-20 -24 -41 -49 -47 -55 -5 -6 -30
-35 -55 -65 -25 -29 -59 -69 -75 -87 l-31 -34 -52 63 c-29 35 -52 66 -52 69 0
3 17 23 38 46 20 23 68 75 106 117 38 42 74 73 80 70 6 -4 37 -24 68 -44z
m908 43 c0 -4 -19 -22 -41 -41 -45 -37 -41 -37 -279 -25 -47 2 -97 4 -112 4
-33 0 -35 10 -7 36 17 15 40 19 151 21 73 2 133 5 134 6 7 6 154 6 154 -1z
m343 -123 c59 -60 107 -111 107 -114 0 -2 -10 -2 -22 1 -55 12 -107 20 -188
30 -43 6 -59 13 -79 37 -13 16 -31 36 -39 44 -13 13 -12 18 8 46 13 18 31 42
39 54 27 37 58 19 174 -98z m-1769 20 c-56 -56 -78 -72 -105 -74 -19 -2 -77
-6 -129 -9 -112 -8 -190 -14 -245 -21 -77 -9 -125 -15 -167 -20 -24 -3 -54 -7
-68 -10 -14 -3 -41 -7 -60 -9 -156 -19 -172 -27 -151 -72 11 -25 14 -26 74
-20 34 3 73 7 87 10 25 5 93 15 140 21 14 2 41 6 60 10 19 4 49 8 65 11 17 2
53 8 80 14 28 5 61 12 75 14 14 3 35 7 46 10 12 2 37 7 55 10 19 3 55 12 82
20 26 8 47 12 47 9 0 -9 -85 -91 -107 -102 -11 -6 -43 -13 -70 -15 -26 -3 -93
-11 -148 -19 -185 -28 -209 -31 -405 -52 -116 -13 -138 -16 -170 -25 -46 -13
-54 -13 -43 3 6 6 37 64 71 127 100 193 84 175 166 176 39 0 116 4 171 8 55 4
120 9 145 11 25 1 68 6 95 9 28 3 70 8 95 11 25 2 65 7 90 10 25 3 61 8 80 10
19 2 51 6 70 9 19 3 55 7 79 10 24 3 46 8 49 11 3 3 8 3 11 0 3 -3 -27 -38
-65 -76z m2480 -112 l169 -162 -44 -30 c-24 -17 -46 -34 -48 -38 -4 -11 -288
280 -306 315 -14 25 -13 28 16 52 17 14 34 26 38 26 4 0 83 -73 175 -163z
m-449 119 c11 -2 33 -5 49 -5 29 -1 29 -1 10 -19 -11 -10 -31 -26 -44 -35 -24
-15 -26 -15 -69 29 l-45 45 40 -5 c21 -2 48 -7 59 -10z m-725 -14 c0 -14 -96
-92 -109 -88 -9 2 -27 7 -39 11 -13 4 -34 8 -45 10 -47 5 -253 38 -264 41 -7
2 -13 7 -13 11 0 5 75 10 167 11 92 2 169 4 170 5 3 4 133 3 133 -1z m-595
-63 c4 -5 27 -23 51 -38 l45 -27 -38 -44 c-21 -24 -47 -54 -58 -66 -11 -12
-40 -46 -65 -75 -81 -96 -84 -99 -130 -95 -28 2 -50 12 -67 28 l-25 25 59 69
c31 38 62 74 68 80 48 53 111 129 118 140 9 17 33 18 42 3z m1526 -84 c24 -44
58 -107 75 -140 80 -149 81 -147 -31 -35 -102 103 -104 105 -75 108 30 3 39
15 21 27 -6 3 -29 8 -51 11 -43 6 -80 29 -80 49 0 22 79 80 92 67 3 -4 25 -43
49 -87z m-2183 31 l52 -55 -83 -103 -82 -104 -78 1 c-71 0 -81 2 -98 24 l-20
24 64 66 c35 36 93 96 128 134 35 37 64 67 64 67 0 0 24 -25 53 -54z m1509
-18 c119 -113 147 -146 134 -161 -7 -10 -25 -13 -54 -10 -23 2 -59 5 -81 7
-33 3 -48 13 -108 76 l-69 74 46 43 c53 49 49 50 132 -29z m-489 7 l104 0 13
-33 c8 -17 20 -32 26 -32 7 0 10 -2 8 -5 -3 -2 -41 7 -84 21 -44 14 -106 27
-138 29 -32 2 -61 5 -64 8 -9 10 8 28 20 20 6 -4 58 -7 115 -8z m652 -20 c8
-1 38 -6 65 -10 28 -5 53 -9 58 -11 4 -1 13 -2 20 -3 6 0 -14 -17 -46 -36 -32
-19 -61 -35 -65 -34 -4 1 -29 26 -57 57 -49 54 -49 55 -20 48 17 -5 37 -9 45
-11z m-863 -115 c-29 -36 -62 -76 -74 -90 -12 -14 -30 -36 -41 -49 -16 -21
-27 -24 -72 -22 -62 2 -68 5 -49 24 8 8 28 32 46 53 18 22 44 53 58 69 15 17
45 51 67 77 l40 47 38 -21 38 -22 -51 -66z m1592 -23 l64 -66 -24 -20 c-31
-26 -42 -26 -55 2 -6 12 -32 62 -57 110 -26 48 -47 90 -47 92 0 4 7 -3 119
-118z m-2249 15 l62 -58 -27 -32 -27 -33 -102 7 c-55 3 -105 8 -109 11 -4 2 1
14 12 26 11 12 35 40 53 62 52 62 63 73 69 74 3 1 34 -25 69 -57z m1857 -26
c72 -74 73 -74 41 -71 -18 2 -42 6 -53 8 -11 3 -56 10 -100 17 -44 7 -82 15
-85 17 -5 5 102 102 114 103 5 0 42 -33 83 -74z m-2390 -11 c-82 -79 -76 -76
-212 -90 -94 -10 -118 -13 -145 -18 -14 -3 -45 -8 -70 -12 -67 -11 -71 -12
-120 -25 -25 -7 -56 -14 -69 -17 -34 -6 -213 -73 -228 -85 -20 -16 -16 -6 26
73 37 68 42 74 73 76 111 5 137 10 323 56 77 19 212 52 300 72 88 20 165 38
170 40 32 11 22 -3 -48 -70z m1458 50 c33 -3 78 -8 100 -11 22 -3 44 -5 48 -4
5 1 20 -11 33 -27 30 -33 51 -68 36 -59 -5 3 -27 8 -48 11 -22 3 -79 16 -129
29 -52 13 -108 21 -132 19 -48 -4 -48 -4 -31 31 9 20 17 25 37 21 14 -2 53 -7
86 -10z m1613 -99 c42 -41 104 -100 137 -131 l59 -56 -44 -39 c-25 -22 -50
-39 -56 -40 -9 0 -150 138 -234 230 l-32 35 33 25 c18 14 37 30 43 37 6 7 12
12 14 13 2 0 38 -33 80 -74z m-1134 3 c-8 -13 -21 -11 -27 5 -4 10 0 12 14 9
10 -3 16 -9 13 -14z m-491 -35 c39 -1 120 -4 179 -6 75 -2 109 -6 112 -15 4
-9 -14 -12 -72 -12 -42 1 -155 -2 -250 -6 l-172 -7 13 23 c36 68 35 67 78 46
25 -12 66 -20 112 -23z m736 -29 l44 -44 -64 6 c-35 3 -74 6 -86 7 -13 0 -23
2 -23 6 0 6 72 69 80 69 3 1 25 -19 49 -44z m176 29 c39 -4 82 -7 98 -7 20 -1
42 -16 84 -60 l57 -59 -35 6 c-19 3 -56 8 -84 11 -167 21 -173 23 -220 72 -25
25 -45 47 -45 48 0 3 27 1 145 -11z m715 -198 l65 -66 -35 -31 c-77 -67 -71
-67 -139 0 -37 36 -79 94 -110 148 l-49 88 34 33 35 32 67 -69 c37 -37 96 -98
132 -135z m-2746 95 c3 -4 0 -8 -7 -9 -7 -1 -27 -5 -44 -8 -20 -4 -33 -2 -33
4 0 15 76 26 84 13z m127 -8 c-5 -10 -18 -27 -29 -39 -18 -19 -25 -20 -70 -11
-48 10 -62 27 -23 27 10 0 21 3 25 7 3 4 14 8 24 9 9 2 18 8 20 13 2 6 17 11
33 11 25 0 28 -3 20 -17z m326 -6 c9 -9 15 -18 12 -21 -4 -4 -61 -13 -144 -22
-27 -3 -54 -8 -60 -12 -10 -5 43 57 58 69 17 13 118 3 134 -14z m213 13 c0 -3
-15 -23 -33 -44 -28 -32 -35 -36 -40 -21 -8 20 0 38 14 30 5 -4 9 -1 9 4 0 6
-15 11 -34 11 -32 0 -52 11 -41 21 6 7 125 6 125 -1z m-886 -21 c22 -21 19
-27 -15 -35 -113 -23 -187 -44 -241 -67 -21 -9 -38 -14 -38 -12 0 3 25 32 56
64 59 63 62 64 173 67 31 1 51 -5 65 -17z m-369 -57 c-22 -23 -27 -25 -35 -12
-14 22 -12 28 8 32 49 10 52 8 27 -20z m1123 -13 c31 -30 31 -31 14 -57 -36
-58 -57 -70 -121 -70 -34 1 -61 3 -61 5 0 5 46 62 104 130 11 13 22 23 26 23
3 0 20 -14 38 -31z m-108 13 c0 -9 -84 -111 -106 -128 -8 -6 -47 -12 -86 -13
-40 -1 -81 -4 -92 -7 -23 -8 -17 3 37 68 29 35 49 49 76 54 20 4 45 9 56 11
11 2 36 6 55 9 18 3 36 7 39 9 7 8 21 6 21 -3z m2648 -100 c42 -41 107 -103
145 -138 37 -35 67 -66 67 -68 0 -9 -106 -86 -117 -86 -10 0 -54 44 -204 201
-103 108 -98 91 -43 143 37 34 52 42 62 34 7 -6 48 -45 90 -86z m-3778 73 c-7
-9 -15 -13 -18 -11 -3 3 -20 -11 -40 -32 l-35 -37 7 30 c9 38 15 43 48 47 15
2 30 7 34 11 14 13 16 7 4 -8z m2211 -9 c42 -2 81 -6 87 -10 16 -10 15 -26 0
-21 -7 2 -38 7 -68 10 -30 4 -66 9 -80 10 -37 5 -72 14 -79 20 -3 3 10 3 29 0
19 -4 69 -8 111 -9z m348 -27 c-16 -10 -23 -4 -14 10 3 6 11 8 17 5 6 -4 5 -9
-3 -15z m229 -3 c-1 -2 -33 -28 -69 -59 -36 -30 -71 -52 -77 -48 -7 4 -8 12
-2 21 5 8 5 19 0 25 -6 8 3 16 28 25 20 7 48 23 61 36 19 19 27 21 43 13 11
-6 18 -12 16 -13z m-2414 -63 c-21 -25 -52 -61 -69 -79 l-30 -33 -35 33 c-19
18 -46 44 -58 59 l-24 25 54 15 c29 9 69 18 88 21 64 10 95 17 100 22 2 3 6 0
8 -6 2 -6 -13 -31 -34 -57z m134 42 c-1 -14 -5 -25 -8 -25 -3 0 -6 -11 -6 -25
-3 -51 -13 -71 -36 -73 -13 -1 -46 -8 -75 -15 -35 -9 -50 -10 -46 -3 9 16 126
150 138 158 20 15 35 8 33 -17z m159 -31 c2 0 -10 -15 -26 -33 -27 -31 -40
-32 -35 -3 1 6 2 29 3 49 l1 36 28 -24 c15 -13 28 -24 29 -25z m868 27 c75
-24 138 -32 280 -37 256 -8 323 -12 559 -29 29 -2 47 -12 80 -44 31 -32 38
-44 27 -50 -7 -5 -21 -6 -31 -4 -10 3 -27 0 -37 -6 -17 -10 -17 -10 2 -11 81
-5 95 -4 95 4 0 5 9 -2 21 -15 11 -13 34 -39 51 -58 26 -28 31 -42 33 -93 2
-46 0 -58 -11 -54 -13 5 -148 34 -196 42 -14 3 -29 1 -32 -5 -5 -8 27 -18 112
-36 12 -3 32 -7 45 -10 12 -3 35 -8 52 -11 35 -6 44 -18 46 -59 0 -16 3 -49 5
-72 2 -24 1 -43 -3 -43 -5 0 -33 7 -63 16 -60 16 -63 17 -130 33 -25 6 -71 18
-102 25 -32 8 -58 10 -58 6 0 -7 81 -39 115 -46 6 -1 39 -10 75 -19 36 -10 74
-19 85 -20 61 -7 85 -18 86 -39 0 -11 2 -30 3 -41 2 -11 6 -55 10 -99 l8 -78
-39 6 c-21 3 -60 10 -88 16 -77 16 -107 22 -197 35 -16 2 -28 0 -28 -4 0 -8
55 -24 125 -36 195 -33 198 -33 216 -34 13 -1 19 -17 25 -73 5 -40 8 -77 9
-83 0 -6 -67 -9 -187 -8 -116 2 -189 -1 -193 -7 -7 -12 18 -13 231 -10 l151 1
12 -93 c21 -158 21 -167 3 -163 -46 8 -146 17 -219 20 -66 2 -83 0 -83 -11 0
-8 8 -14 18 -15 9 0 26 -2 37 -4 33 -7 126 -16 192 -19 35 -1 65 -5 68 -8 7
-7 19 -92 20 -135 0 -18 3 -33 8 -33 4 0 7 -7 7 -15 0 -13 -19 -20 -43 -16 -4
1 -24 4 -44 7 -19 3 -45 8 -57 10 -11 2 -57 8 -101 14 -44 6 -92 12 -107 15
-16 3 -28 1 -28 -5 0 -5 11 -10 24 -10 14 0 28 -5 31 -10 4 -6 9 -8 13 -6 4 2
32 0 62 -5 30 -5 80 -12 110 -15 30 -4 62 -8 70 -10 8 -1 25 -3 38 -3 27 -1
39 -28 47 -103 4 -29 7 -57 8 -63 1 -5 -9 -9 -23 -9 -193 12 -320 14 -320 5 0
-19 48 -27 230 -37 58 -3 108 -8 112 -12 3 -4 9 -29 12 -57 7 -61 11 -92 21
-175 12 -91 12 -145 0 -144 -158 24 -303 35 -311 23 -8 -14 70 -25 236 -35 52
-4 96 -7 96 -8 1 0 4 -28 7 -61 3 -33 9 -84 13 -112 3 -29 4 -53 1 -53 -3 0
-38 7 -78 15 -149 29 -279 42 -279 28 0 -10 74 -29 140 -37 19 -2 51 -7 70
-10 19 -3 60 -8 89 -11 30 -3 57 -7 59 -9 4 -5 9 -45 17 -142 6 -66 4 -76 -9
-71 -8 3 -41 11 -73 16 -32 6 -74 13 -93 17 -19 3 -48 8 -65 9 -16 2 -59 7
-95 10 -98 11 -131 11 -137 2 -8 -12 2 -18 39 -23 18 -3 44 -7 58 -10 14 -3
37 -8 53 -10 15 -2 42 -6 60 -9 17 -3 73 -8 122 -11 50 -3 99 -7 110 -9 11 -2
25 -4 30 -4 6 -1 11 -9 12 -18 1 -10 4 -53 8 -95 6 -71 5 -77 -12 -73 -10 2
-47 11 -83 20 -129 32 -255 54 -264 45 -5 -5 8 -13 30 -19 42 -11 176 -41 209
-46 63 -11 117 -23 122 -29 8 -8 11 -24 19 -105 6 -58 5 -63 -12 -58 -20 6
-86 18 -119 22 -173 23 -213 26 -220 15 -6 -10 42 -25 115 -35 25 -4 52 -8 60
-10 8 -1 14 -6 12 -10 -4 -14 -139 -3 -166 13 -5 3 -32 6 -60 8 -44 2 -82 6
-147 17 -10 2 -24 9 -33 16 -12 10 -20 11 -29 2 -7 -6 -29 -8 -48 -6 -19 3
-61 7 -94 10 -123 11 -145 14 -167 27 -28 15 -34 16 -123 22 -261 20 -676 24
-1160 12 -153 -4 -282 -8 -285 -8 -22 -2 -29 6 -28 32 1 20 6 30 17 31 61 2
161 8 200 13 25 3 71 8 101 12 30 4 66 8 80 9 25 3 117 12 200 20 25 2 90 7
145 10 98 6 120 7 275 21 125 11 92 14 -72 8 -146 -5 -522 -8 -809 -5 l-127 1
3 38 c2 20 4 47 4 59 1 22 4 23 59 17 114 -13 433 -7 582 11 54 7 161 18 200
20 19 2 67 6 105 9 39 4 89 8 112 10 64 4 60 12 -5 13 -31 0 -122 4 -202 8
-191 10 -654 11 -756 2 l-82 -7 2 29 c1 16 4 32 8 36 9 9 118 11 118 2 0 -5 4
-5 10 -2 5 3 87 8 182 11 95 2 196 6 223 9 73 6 176 13 290 21 55 4 111 8 125
9 14 1 47 3 74 4 27 0 47 4 43 7 -8 9 -390 17 -743 17 l-291 0 -14 26 c-9 15
-12 39 -9 56 l5 30 110 1 c61 1 142 4 180 8 110 9 311 17 480 19 172 1 215 16
53 18 -197 2 -361 9 -578 25 -47 3 -116 7 -153 8 -71 2 -89 12 -80 47 5 17 18
18 162 18 136 0 262 4 406 16 22 1 87 6 145 10 58 4 113 9 123 11 10 1 47 4
82 5 88 3 82 16 -7 19 -40 1 -98 3 -128 5 -30 2 -100 6 -155 10 -84 5 -407 17
-440 16 -5 0 -47 -2 -92 -4 -46 -2 -84 -1 -84 2 -8 31 -3 73 9 80 7 4 33 5 56
1 23 -3 123 -5 222 -4 168 2 247 5 489 20 159 11 177 11 233 13 94 2 55 16
-50 18 -57 1 -103 3 -103 4 0 1 -29 3 -65 5 -36 1 -123 6 -195 10 -71 4 -234
8 -362 8 l-232 1 3 30 c2 17 4 35 5 40 0 6 31 11 69 11 69 2 179 11 222 19 26
5 92 10 245 20 50 4 106 8 125 10 19 2 52 4 73 4 20 1 37 4 37 9 0 5 -260 7
-280 1 -3 -1 -9 0 -15 1 -5 1 -105 2 -222 3 -209 2 -212 2 -222 25 -6 12 -17
22 -26 22 -8 0 -15 5 -15 10 0 6 8 10 18 10 95 0 569 11 607 15 58 4 315 17
392 19 88 2 59 14 -34 14 -49 1 -146 4 -218 7 -287 14 -466 17 -655 11 l-76
-2 11 33 c10 32 11 33 70 34 33 0 80 2 105 3 63 4 218 17 260 21 101 10 167
18 182 20 15 3 169 17 196 18 6 0 12 3 12 7 0 8 -162 12 -517 14 -181 1 -283
5 -283 11 0 6 -3 19 -6 30 -5 19 0 20 158 21 90 0 217 4 283 8 66 5 136 10
155 11 19 1 80 5 135 9 55 4 129 9 163 11 91 5 88 13 -5 14 -43 0 -121 3 -173
6 -283 15 -511 19 -647 12 -62 -4 -63 -4 -63 23 0 26 2 27 132 54 72 16 143
30 157 32 14 3 49 9 77 15 28 5 64 12 80 15 16 2 52 9 81 15 28 5 61 11 72 12
12 1 21 5 21 9 0 5 -10 6 -22 3 -30 -7 -137 -13 -328 -20 -85 -3 -181 -7 -214
-9 -57 -4 -59 -3 -69 25 -6 16 -20 32 -30 35 -53 17 10 25 228 29 132 2 258 6
280 9 58 7 156 16 360 31 22 2 51 3 64 4 55 2 5 15 -67 17 -42 1 -140 5 -217
9 -77 4 -231 8 -342 9 -112 1 -203 4 -203 7 0 11 114 32 180 34 104 3 283 15
311 21 15 3 53 7 85 10 33 2 82 6 109 8 28 3 73 7 100 10 28 3 86 8 129 11
106 7 109 15 5 15 -85 0 -131 2 -364 15 -169 10 -377 12 -437 5 -27 -4 -48 -4
-48 -1 0 3 13 20 28 37 l27 31 135 1 c156 1 326 11 500 27 25 2 74 7 110 10
87 8 88 15 4 16 -294 5 -533 10 -554 13 -14 2 -49 4 -78 5 l-54 1 29 34 c27
33 30 34 78 29 73 -9 305 -8 415 1 52 5 112 9 132 10 41 2 60 11 25 13 -29 1
-182 14 -227 18 -66 7 -295 6 -335 0 l-39 -7 26 34 c25 32 27 33 104 34 72 0
208 11 259 19 11 2 47 7 80 10 33 4 67 11 75 16 16 11 -361 4 -417 -7 -22 -4
-33 -2 -33 5 0 6 15 27 33 47 l32 35 145 4 c136 4 169 6 278 21 52 7 55 19 4
20 -20 0 -82 4 -137 9 -55 4 -130 8 -167 9 -38 0 -68 3 -68 6 0 3 8 15 17 27
14 17 22 19 57 11 54 -12 146 -16 152 -6 3 5 9 6 14 3 11 -7 154 57 164 73 3
6 -18 1 -46 -9 -75 -28 -288 -35 -288 -9 0 4 13 21 28 38 27 29 32 30 142 36
141 7 202 15 214 27 12 11 3 20 -20 20 -51 1 -238 -11 -255 -16 -10 -4 -19 -2
-19 3 0 16 81 112 90 107 5 -3 11 -1 15 5 4 6 9 8 13 6 4 -2 32 0 62 5 30 5
73 12 95 14 22 3 54 10 72 14 17 5 34 6 37 3 3 -3 6 0 6 7 0 10 -13 11 -52 7
-29 -4 -82 -9 -118 -12 -36 -2 -76 -7 -88 -10 -28 -6 -26 -2 32 74 22 28 45
52 51 52 5 0 37 -9 70 -19z m-1705 -28 c0 -26 0 -26 -20 -8 -16 14 -17 20 -8
27 22 13 28 9 28 -19z m3382 -62 l83 -82 -35 -32 c-53 -47 -103 -87 -110 -87
-3 0 -57 52 -119 115 -72 73 -108 117 -99 120 7 2 24 6 38 9 40 6 114 29 123
37 18 14 37 1 119 -80z m618 -240 c0 -8 -97 -71 -108 -71 -5 0 -68 61 -141
135 l-131 136 47 48 48 48 143 -145 c78 -80 142 -147 142 -151z m-834 133
l123 -127 -36 -31 c-19 -17 -52 -46 -72 -63 l-36 -33 -65 69 c-91 97 -184 202
-188 211 -1 4 20 22 47 39 27 18 55 39 61 47 7 7 20 14 28 14 9 0 71 -57 138
-126z m-1836 108 c0 -10 -54 -77 -72 -90 -10 -7 -18 -19 -18 -26 0 -7 -13 -25
-28 -42 -16 -16 -33 -37 -39 -47 -9 -17 -13 -16 -46 20 -37 38 -48 66 -24 62
19 -4 117 12 121 20 3 4 -23 5 -56 3 l-62 -4 33 41 c41 51 38 49 102 57 30 3
55 7 57 9 5 4 32 2 32 -3z m-997 -75 c11 -10 17 -20 16 -21 -8 -6 -75 -28
-101 -32 -26 -5 -26 -4 -18 33 5 21 12 51 15 67 l6 29 32 -29 c18 -16 40 -37
50 -47z m787 45 c0 -4 -13 -23 -29 -42 l-29 -35 -22 20 c-12 11 -26 27 -31 37
-8 14 -4 17 21 16 17 -1 32 1 35 3 8 8 55 9 55 1z m-155 -38 c36 -36 35 -45
-5 -50 -19 -2 -47 -6 -62 -8 -16 -2 -28 -2 -28 1 0 6 60 83 65 83 2 0 16 -12
30 -26z m-331 -61 c-7 -51 -20 -83 -32 -83 -4 0 -30 22 -57 50 -53 53 -52 57
22 63 24 2 46 6 50 10 17 18 24 3 17 -40z m-495 -34 c-14 -50 -13 -44 -23 -86
-9 -40 -15 -41 -49 -5 l-27 28 52 57 c28 31 53 55 55 53 3 -2 -1 -24 -8 -47z
m244 27 c-7 -11 -79 -100 -99 -122 -5 -6 -30 -35 -54 -63 -49 -57 -64 -64 -56
-23 4 15 8 36 10 47 2 11 8 38 14 60 5 22 13 52 16 66 4 21 12 26 38 27 18 1
47 6 63 10 43 13 76 12 68 -2z m637 -15 c-6 -9 -27 -35 -48 -59 l-38 -42 -92
-6 c-51 -3 -92 -3 -92 0 0 7 55 71 81 94 9 7 44 16 79 18 35 3 65 6 67 8 2 2
15 4 28 4 20 0 23 -4 15 -17z m-484 -118 c-2 -2 -12 -5 -22 -7 -11 -2 -39 -10
-64 -17 -25 -7 -49 -13 -55 -15 -5 -1 -37 -12 -69 -23 -93 -33 -93 -35 10 85
88 102 76 99 145 36 32 -30 57 -57 55 -59z m3114 -9 l124 -126 -32 -26 c-17
-15 -52 -42 -77 -61 l-46 -34 -26 24 c-26 24 -109 110 -177 184 l-37 39 63 63
c35 34 68 62 73 63 6 0 67 -57 135 -126z m608 64 c37 -35 97 -93 133 -130 l65
-66 -50 -39 c-28 -21 -58 -43 -67 -50 -18 -14 -22 -11 -173 146 l-99 103 44
39 c24 21 49 43 54 48 17 17 23 13 93 -51z m-3130 -30 c10 -14 3 -16 -69 -16
l-80 0 28 36 c15 21 31 40 37 44 10 7 65 -34 84 -64z m-59 -92 c-24 -31 -48
-56 -54 -57 -5 -1 -26 -3 -45 -5 -19 -1 -54 -5 -77 -8 -24 -2 -43 -3 -43 -1 0
13 94 110 108 111 50 3 136 15 140 19 3 3 7 3 10 1 2 -3 -15 -30 -39 -60z
m3096 -63 l123 -126 -26 -21 c-15 -11 -33 -26 -40 -33 -40 -39 -44 -37 -168
93 -65 69 -120 129 -121 132 -2 8 88 81 101 82 4 0 64 -57 131 -127z m-4123
75 c44 -48 47 -69 16 -91 -18 -13 -20 -18 -10 -25 11 -7 11 -18 4 -46 -6 -20
-8 -36 -6 -36 5 0 -35 -60 -46 -70 -3 -3 -23 -26 -44 -52 -21 -27 -41 -48 -45
-48 -3 0 -41 34 -82 75 l-77 75 52 57 c28 31 62 68 76 83 14 14 43 47 64 73
21 26 43 47 49 47 6 0 28 -19 49 -42z m828 5 c-9 -12 -32 -39 -50 -60 l-33
-37 -23 27 c-14 16 -22 38 -21 54 2 26 6 28 52 33 28 3 60 5 72 6 21 0 21 -1
3 -23z m2604 -100 l114 -117 -62 -46 c-33 -24 -63 -47 -66 -50 -31 -32 -39
-32 -72 2 -50 51 -173 188 -176 197 -2 5 14 24 34 42 20 19 48 46 63 61 14 15
32 27 39 28 7 0 63 -53 126 -117z m-2995 60 c-62 -80 -152 -183 -158 -183 -5
0 -20 15 -34 33 -14 17 -37 45 -51 61 -29 33 -25 42 19 49 27 5 107 23 145 33
8 2 31 8 50 13 19 5 37 9 39 10 2 1 -3 -7 -10 -16z m521 -72 c-1 -15 -71 -85
-88 -87 -11 -2 -34 13 -57 36 l-39 40 29 1 c38 2 98 8 101 12 6 5 54 4 54 -2z
m3673 -182 l120 -116 -65 -46 c-36 -26 -69 -47 -74 -47 -12 0 -294 274 -294
286 0 5 25 33 57 62 l57 52 39 -37 c22 -21 94 -90 160 -154z m-4090 124 c-4
-52 -6 -56 -30 -59 -9 -2 -28 -6 -41 -9 -21 -5 -19 1 23 55 27 33 49 60 50 60
1 0 0 -21 -2 -47z m3452 -238 c-44 -40 -105 -89 -117 -94 -9 -3 -247 238 -248
250 0 4 21 24 47 45 25 22 58 49 72 60 l26 22 126 -127 127 -126 -33 -30z
m-3814 206 c32 -32 59 -66 59 -73 0 -26 -33 -45 -100 -58 -36 -7 -69 -17 -75
-23 -9 -9 20 -7 83 7 12 3 22 3 22 0 0 -2 -33 -45 -72 -95 -65 -81 -74 -88
-79 -67 -3 13 5 64 18 113 14 50 26 97 28 105 2 8 8 30 14 48 5 18 10 35 10
37 -1 21 14 65 22 65 6 0 37 -27 70 -59z m594 19 c18 -19 17 -20 -6 -21 -13 0
-32 -2 -41 -4 -10 -2 -18 -1 -18 3 0 7 33 41 41 41 3 1 14 -8 24 -19z m3655
-207 c77 -75 140 -140 140 -144 0 -9 -97 -79 -109 -79 -5 0 -71 62 -145 138
l-136 137 45 43 c25 23 50 42 55 42 6 0 74 -62 150 -137z m-822 122 c-2 -3 51
-61 120 -130 l124 -125 -28 -24 c-16 -13 -56 -47 -88 -75 l-59 -51 -28 31
c-15 17 -68 74 -116 126 -48 52 -91 101 -95 107 -4 8 12 27 44 52 28 21 56 43
62 49 14 14 59 45 65 45 2 0 2 -2 -1 -5z m-2796 -21 c-5 -13 -52 -72 -80 -101
-13 -12 -32 -23 -43 -23 -19 0 -20 4 -14 57 4 32 8 59 9 61 2 1 23 5 47 8 24
3 45 8 47 9 8 7 37 -3 34 -11z m-1064 -68 c40 -41 72 -78 72 -82 0 -7 -83
-110 -104 -129 -7 -5 -22 -23 -34 -40 -13 -16 -35 -44 -49 -62 l-27 -32 -28
32 c-16 18 -43 50 -61 71 -18 21 -40 46 -49 55 -10 8 -18 21 -18 28 0 7 33 48
73 90 39 42 86 91 102 109 17 18 35 33 41 34 5 0 43 -33 82 -74z m237 37 c-3
-16 -8 -50 -11 -78 -3 -27 -10 -54 -14 -58 -4 -5 -22 6 -39 24 -18 17 -29 34
-26 38 4 3 25 27 48 54 23 26 43 47 44 47 2 0 1 -12 -2 -27z m546 5 c9 -15 -1
-38 -31 -74 -41 -48 -45 -48 -90 8 -44 56 -42 63 18 74 14 3 28 7 31 9 8 8 65
-6 72 -17z m-144 -142 c-9 -9 -14 -23 -11 -30 4 -9 -18 -18 -77 -29 -45 -10
-85 -14 -88 -11 -3 3 6 16 22 29 15 13 27 27 27 30 0 4 16 23 35 43 19 20 35
41 35 47 0 5 16 -7 37 -27 33 -33 35 -38 20 -52z m3824 -108 c71 -72 126 -134
122 -138 -18 -16 -128 -96 -147 -106 -18 -10 -27 -5 -76 47 -32 33 -85 88
-118 123 -34 35 -62 67 -62 71 0 4 26 31 57 59 31 28 61 56 67 63 6 7 15 12
19 13 4 0 66 -59 138 -132z m715 -14 c77 -73 154 -146 173 -163 38 -36 42 -29
-46 -91 -49 -35 -53 -36 -74 -12 -9 9 -53 51 -99 92 -45 41 -116 107 -157 146
l-75 70 53 45 c30 24 56 47 57 52 6 12 25 -3 168 -139z m-5019 59 c33 -29 35
-34 30 -82 -3 -28 -11 -57 -19 -64 -22 -23 -149 -173 -166 -197 -7 -10 -140
145 -134 156 8 14 98 116 164 188 26 28 48 55 48 60 0 9 6 4 77 -61z m588 -14
c16 -14 19 -28 17 -62 -4 -41 -6 -44 -45 -56 -45 -13 -141 -39 -169 -46 -17
-4 -26 10 -10 17 4 2 36 37 72 78 36 41 69 78 73 81 15 11 42 6 62 -12z m-127
-20 c-2 -4 -21 -27 -43 -51 -22 -24 -53 -59 -69 -78 -44 -54 -58 -55 -100 -5
-20 24 -36 47 -36 50 0 4 9 19 20 35 20 28 35 33 130 46 25 3 46 7 47 8 7 6
53 1 51 -5z m4353 -109 c56 -52 112 -104 124 -115 11 -11 44 -41 72 -67 l52
-48 -57 -43 c-31 -24 -63 -47 -70 -51 -9 -5 -66 46 -178 158 -90 92 -164 170
-163 174 0 10 102 91 111 89 3 -1 52 -45 109 -97z m-5321 73 c0 -5 34 -44 75
-87 41 -44 75 -82 75 -85 0 -3 -15 -22 -33 -43 -17 -20 -57 -67 -87 -104 -30
-37 -64 -77 -75 -89 -11 -12 -33 -39 -48 -61 l-28 -39 28 31 c15 17 48 55 73
84 25 29 54 62 65 74 11 12 42 47 69 79 l50 59 68 -69 c37 -37 67 -72 68 -77
0 -7 -89 -117 -115 -141 -6 -5 -21 -23 -34 -40 -20 -27 -45 -57 -117 -141
l-20 -25 -55 63 c-29 35 -67 77 -84 94 -25 25 -127 141 -171 194 -11 13 -8 22
19 52 33 37 222 241 245 265 15 14 32 17 32 6z m4631 -111 c65 -65 119 -123
119 -129 0 -10 -160 -130 -187 -140 -7 -3 -32 17 -55 43 -24 26 -70 77 -103
112 -80 85 -82 90 -53 110 12 9 50 40 83 69 33 28 64 52 68 52 5 1 62 -52 128
-117z m-3901 -44 c0 -5 -9 -8 -19 -8 -11 0 -22 -4 -25 -8 -6 -10 45 -9 61 1
55 34 -43 -108 -195 -282 l-22 -26 5 30 c3 17 7 48 10 70 3 22 7 49 9 60 2 11
7 38 10 61 4 22 19 55 34 71 15 17 38 45 51 62 l24 32 28 -28 c16 -15 29 -31
29 -35z m340 24 c0 -4 -10 -18 -23 -32 -12 -14 -41 -49 -63 -77 l-42 -52 -51
52 c-52 52 -63 77 -36 77 8 0 17 1 20 1 2 1 46 10 97 19 51 10 94 18 96 19 1
1 2 -2 2 -7z m4083 -194 l159 -162 -29 -23 c-34 -28 -34 -28 -103 -77 -30 -22
-56 -43 -58 -48 -2 -4 -10 -8 -17 -8 -7 0 -15 -3 -17 -8 -1 -4 -41 -36 -87
-71 l-84 -64 -71 75 c-39 42 -84 91 -100 109 -16 19 -54 60 -83 92 l-53 58 42
36 c24 20 69 56 101 80 l58 45 85 -86 c103 -103 107 -98 7 9 -40 42 -73 80
-73 84 0 8 147 121 158 121 4 0 78 -73 165 -162z m-4233 2 c0 -3 -15 -22 -34
-42 -32 -35 -46 -41 -176 -74 -77 -19 -103 -24 -106 -21 -3 3 126 168 156 199
8 9 22 25 30 37 14 21 15 20 72 -36 32 -32 58 -60 58 -63z m4994 -47 c85 -86
152 -161 149 -167 -2 -6 -24 -26 -49 -45 l-46 -33 -31 28 c-17 16 -46 43 -64
59 -17 17 -47 43 -65 59 -91 80 -168 155 -167 163 0 10 100 93 111 93 5 0 78
-71 162 -157z m-5419 5 c-4 -35 -9 -67 -12 -71 -3 -5 -16 6 -29 24 -23 32 -23
33 -6 53 10 12 25 29 33 38 8 10 15 17 17 18 2 0 1 -28 -3 -62z m5151 -4 c77
-70 180 -162 214 -190 19 -16 45 -39 57 -51 l22 -21 -79 -61 c-43 -34 -81 -61
-85 -61 -11 0 -305 304 -303 312 4 10 121 107 129 108 4 0 24 -16 45 -36z
m-5762 -244 c39 -41 75 -80 79 -87 5 -8 -24 -50 -75 -111 -88 -105 -143 -171
-169 -204 -14 -19 -21 -13 -160 133 -79 83 -159 166 -176 183 l-33 31 61 65
c107 114 204 221 212 237 9 14 7 16 261 -247z m1177 145 c-20 -65 -22 -66 -84
-89 -27 -10 -53 -27 -60 -37 -6 -10 -17 -19 -24 -19 -7 0 -13 -4 -13 -8 0 -5
-7 -9 -14 -9 -16 0 -8 23 16 49 7 7 33 38 58 68 74 91 82 97 121 99 16 1 16
-3 0 -54z m-620 4 c25 -24 42 -50 42 -63 0 -20 -81 -137 -117 -171 -6 -5 -27
-32 -46 -60 -19 -27 -42 -59 -52 -70 -9 -11 -25 -31 -36 -45 l-20 -25 -34 40
c-18 21 -41 47 -50 57 -10 10 -18 23 -18 29 0 6 33 50 72 98 40 47 80 94 88
105 8 10 24 28 35 40 11 11 35 40 53 64 19 23 35 42 37 42 3 0 23 -18 46 -41z
m288 -89 c-39 -50 -72 -90 -74 -90 -3 0 -27 28 -55 61 -70 84 -64 90 125 114
27 3 51 8 54 10 2 3 8 2 12 -1 5 -3 -23 -45 -62 -94z m4782 -130 c82 -83 147
-155 144 -159 -3 -5 -72 -63 -153 -127 -150 -121 -164 -132 -210 -171 -15 -13
-31 -23 -35 -23 -9 0 -26 18 -102 106 -27 31 -55 62 -60 68 -70 76 -122 144
-117 151 4 6 41 37 82 69 41 33 82 66 90 73 8 7 41 35 73 61 33 26 73 59 90
74 18 15 35 28 40 28 4 0 75 -68 158 -150z m673 46 c27 -25 74 -65 105 -89 31
-23 58 -45 61 -48 3 -3 15 -12 28 -18 23 -12 23 -13 6 -32 -9 -10 -22 -19 -28
-19 -7 0 -27 -13 -45 -28 l-34 -28 -27 25 c-15 14 -59 54 -96 88 -38 34 -91
82 -119 107 l-50 45 50 45 49 46 26 -24 c14 -13 47 -45 74 -70z m-5631 51 c12
-13 35 -37 50 -54 l28 -30 -52 -64 c-29 -35 -57 -65 -61 -67 -4 -2 -8 -8 -8
-14 0 -5 -7 -17 -16 -26 -15 -15 -16 -12 -9 29 3 24 8 55 10 69 2 14 7 45 11
70 7 46 10 76 13 98 2 17 9 15 34 -11z m467 -51 c0 -28 -30 -47 -110 -72 -47
-14 -92 -27 -100 -29 -8 -2 -15 -4 -15 -5 0 -1 -13 -4 -30 -6 l-30 -5 35 38
c19 21 40 41 45 45 11 9 100 37 142 44 15 3 29 7 31 9 8 7 32 -7 32 -19z
m-546 -33 c-5 -63 -13 -174 -13 -195 -1 -12 -82 -119 -128 -168 -5 -6 -92 92
-93 104 0 12 225 306 235 306 2 0 2 -21 -1 -47z m5576 -53 c9 -8 38 -33 65
-55 26 -22 57 -48 69 -59 11 -10 34 -29 50 -43 l29 -25 -49 -45 c-27 -25 -69
-61 -94 -81 -25 -21 -48 -41 -51 -46 -8 -10 -29 1 -29 15 0 20 -53 87 -140
175 l-89 92 81 72 81 71 30 -28 c17 -15 38 -35 47 -43z m-6568 -189 c150 -150
177 -181 166 -192 -7 -8 -33 -39 -58 -69 -25 -30 -55 -66 -67 -80 -13 -14 -30
-38 -38 -55 -8 -16 -22 -39 -30 -50 -17 -22 -7 -31 -95 76 -19 23 -43 49 -52
58 -10 8 -18 19 -18 23 0 23 -194 197 -234 211 -6 2 21 35 59 73 39 38 94 95
123 127 30 31 56 57 59 57 3 0 86 -80 185 -179z m1498 109 c0 -8 -39 -22 -100
-35 -32 -8 -167 -47 -210 -61 -82 -28 -83 -26 -28 41 l53 65 143 0 c84 0 142
-4 142 -10z m-854 -67 c30 -31 53 -61 51 -67 -3 -7 -60 -87 -128 -180 l-123
-168 -55 59 c-94 99 -93 80 -4 185 43 51 83 98 89 103 6 6 32 36 58 68 27 31
50 57 53 57 2 0 29 -25 59 -57z m5687 -119 c57 -56 118 -109 136 -120 17 -10
31 -22 31 -26 0 -4 -50 -44 -112 -88 -151 -109 -227 -175 -275 -237 l-40 -52
-31 42 c-16 23 -39 51 -49 62 -75 79 -163 179 -163 185 0 4 26 28 58 53 31 25
66 53 77 64 11 10 36 31 55 47 45 37 170 148 184 163 6 7 14 11 18 10 3 -1 53
-47 111 -103z m-4856 43 c-1 -5 -7 -9 -12 -9 -14 -1 -195 -51 -295 -82 -46
-15 -90 -24 -96 -22 -11 4 -13 70 -2 81 2 3 43 7 89 10 114 6 197 14 239 23
47 10 81 10 77 -1z m-701 -62 c24 -24 44 -50 44 -57 0 -11 -47 -73 -138 -183
-9 -11 -35 -43 -57 -70 -77 -96 -67 -93 -115 -45 -23 23 -40 45 -38 50 4 12
252 349 257 350 2 0 23 -20 47 -45z m694 -91 c0 -20 -25 -43 -52 -50 -18 -4
-37 -9 -43 -10 -60 -15 -259 -76 -290 -90 -35 -14 -37 -18 -20 -24 11 -4 63
-6 115 -4 93 4 113 6 218 19 59 7 71 -7 20 -24 -27 -8 -122 -33 -173 -46 -5
-1 -17 -5 -25 -8 -32 -12 -182 -57 -190 -57 -8 0 -4 61 6 90 3 8 8 51 10 95 3
44 6 85 8 91 2 6 30 12 62 13 32 1 59 3 60 4 5 5 294 6 294 1z m-1111 -140
l70 -66 -41 -62 c-23 -33 -44 -63 -48 -66 -13 -11 -80 -111 -80 -120 0 -6 -4
-10 -8 -10 -5 0 -15 -11 -22 -25 -7 -14 -16 -25 -20 -25 -9 0 -180 170 -180
179 0 5 12 16 26 26 36 23 133 123 180 185 21 27 41 50 46 50 4 0 39 -30 77
-66z m179 -176 c-2 -4 -55 -73 -118 -152 -101 -127 -140 -166 -140 -138 0 4
-11 20 -25 36 -32 37 -31 48 3 88 15 18 66 83 111 145 l84 112 44 -42 c24 -22
42 -45 41 -49z m897 -11 c-7 -32 -20 -37 -153 -53 -23 -2 -84 -14 -134 -25
-51 -11 -106 -23 -122 -26 -18 -4 -27 -2 -23 4 3 5 7 26 9 46 1 21 5 37 8 38
15 2 74 7 155 13 50 4 106 9 125 12 19 3 50 6 68 8 18 2 36 6 39 9 12 12 31
-6 28 -26z m-67 -148 c-15 -8 -114 -29 -156 -33 -15 -2 -43 -6 -62 -9 -19 -4
-46 -9 -60 -11 -14 -2 -42 -7 -62 -11 l-37 -7 1 35 1 35 139 0 c76 -1 140 1
142 3 3 2 28 4 56 5 28 0 45 -3 38 -7z m46 -98 c6 -9 -9 -24 -29 -27 -5 -1
-28 -5 -50 -9 -22 -4 -60 -8 -85 -10 -43 -4 -98 -11 -165 -21 -31 -5 -45 -8
-84 -19 -22 -7 -23 -5 -18 36 3 24 6 46 6 49 1 11 419 11 425 1z m-196 -126
c68 -1 125 -5 127 -7 2 -2 -62 -21 -143 -42 -81 -21 -154 -40 -162 -43 -20 -8
-41 -13 -65 -16 -20 -2 -22 15 -10 78 2 11 4 26 4 33 1 10 15 12 64 7 34 -4
117 -8 185 -10z m-77 -140 c-29 -8 -70 -16 -90 -19 -20 -3 -53 -9 -73 -12 -37
-6 -46 0 -30 21 4 6 41 12 82 13 41 2 76 5 77 5 1 1 21 3 45 3 l43 2 -54 -13z
m4329 -36 c8 -8 96 -80 195 -159 99 -80 186 -150 193 -157 7 -7 47 -38 88 -69
41 -31 74 -57 74 -59 0 -1 -15 -1 -32 1 -97 11 -159 15 -213 15 -33 0 -94 1
-135 1 -41 0 -194 0 -338 0 l-264 -1 -117 117 c-153 152 -256 240 -267 229
-11 -10 102 -128 269 -282 l66 -60 -87 -5 c-48 -3 -94 -4 -102 -2 -8 2 -34 29
-58 60 -23 31 -55 71 -70 87 -15 17 -46 55 -68 85 -23 30 -52 66 -65 80 -12
14 -33 37 -46 51 l-24 26 83 3 c75 2 121 4 255 11 41 2 46 -1 122 -77 43 -43
116 -113 162 -154 46 -41 102 -92 123 -113 21 -20 40 -36 42 -34 6 5 -366 367
-377 367 -5 0 -9 3 -9 8 0 4 38 8 85 10 84 2 86 2 118 -30 18 -18 57 -53 86
-78 30 -25 65 -55 79 -67 14 -13 28 -23 31 -23 3 0 17 -10 31 -22 25 -23 162
-132 190 -152 35 -24 -193 191 -290 274 -35 30 -78 67 -94 81 l-30 27 44 1
c25 1 60 3 79 4 28 2 42 -6 81 -43 68 -65 117 -109 185 -165 33 -28 65 -54 71
-60 7 -5 20 -17 31 -25 72 -58 129 -106 131 -112 2 -5 9 -8 15 -8 12 0 -143
149 -279 267 -12 10 -48 41 -80 69 -32 29 -70 61 -84 73 -14 11 -23 21 -20 21
3 1 30 4 61 6 31 3 70 9 85 13 29 8 43 3 74 -30z m-4160 -25 c0 -2 -7 -4 -15
-4 -8 0 -15 4 -15 10 0 5 7 7 15 4 8 -4 15 -8 15 -10z m-62 -4 c-15 -4 -45
-11 -65 -13 -39 -6 -118 -23 -195 -43 -43 -11 -53 -9 -52 9 4 60 -12 55 172
55 105 1 157 -2 140 -8z m1327 -10 c17 0 12 -10 -32 -56 l-52 -57 -51 46 c-28
25 -64 48 -80 52 -16 4 -32 10 -34 13 -3 6 65 6 249 2z m-335 -10 c-8 -6 -21
-10 -29 -10 -7 0 -33 -13 -58 -30 -41 -28 -83 -39 -83 -22 0 4 -11 19 -24 34
-14 14 -23 27 -21 29 2 2 54 5 116 6 72 1 108 -2 99 -7z m930 -11 c0 -11 -29
-39 -41 -39 -6 0 -27 11 -47 25 l-37 25 63 -1 c34 -1 62 -5 62 -10z m-1346
-22 c-13 -47 -32 -65 -63 -62 -16 1 -36 9 -44 16 -8 8 -24 21 -36 29 -31 21
-26 26 26 29 26 1 49 3 50 5 1 1 18 2 38 3 32 1 35 -1 29 -20z m1619 10 c61
-2 70 -9 35 -29 -34 -19 -59 -18 -100 3 -47 24 -57 39 -21 33 16 -3 54 -6 86
-7z m-783 -42 l31 -32 -71 -2 c-38 -1 -70 2 -70 7 0 15 48 59 64 59 9 0 29
-15 46 -32z m1485 21 c14 -1 20 -9 21 -24 1 -22 -1 -23 -35 -17 -20 4 -47 9
-61 12 -14 2 -34 13 -45 24 -20 19 -20 19 40 13 33 -3 69 -7 80 -8z m-428 -10
c1 -1 -6 -12 -16 -24 l-17 -23 -27 21 c-35 28 -26 41 21 34 20 -3 38 -7 39 -8z
m-668 -11 c16 -8 31 -21 34 -28 4 -12 -6 -14 -54 -13 -32 1 -62 5 -65 9 -8 7
33 47 48 47 5 0 22 -7 37 -15z m294 -31 c15 -12 27 -24 27 -26 0 -2 -26 -3
-57 -2 -32 2 -68 3 -80 3 -19 1 -20 4 -10 26 23 48 57 48 120 -1z m-2158 27
c-15 -13 -65 -23 -65 -12 0 5 15 12 33 14 17 2 34 5 37 5 2 1 0 -2 -5 -7z
m789 1 c3 -5 -13 -9 -35 -10 -24 -1 -38 2 -34 8 7 12 62 13 69 2z m1661 -52
l30 -31 -50 5 c-28 2 -58 5 -67 5 -24 1 -23 20 3 47 25 27 38 23 84 -26z
m-2575 21 c0 -7 -34 -21 -55 -22 -3 0 -23 -6 -45 -14 -37 -13 -40 -13 -40 4 0
13 12 20 48 28 63 14 92 15 92 4z m2735 -13 c14 -12 32 -32 40 -45 16 -23 15
-23 -17 -18 -96 16 -102 21 -72 63 19 27 18 27 49 0z m367 6 c14 -4 16 -9 8
-25 -15 -28 -42 -23 -76 12 l-29 32 40 -7 c22 -4 48 -9 57 -12z m-2811 -22
c-5 -10 -27 -24 -48 -31 -21 -7 -44 -15 -50 -17 -9 -4 -13 3 -13 20 0 21 6 26
43 34 69 16 79 15 68 -6z m653 10 c3 -5 -1 -9 -9 -9 -8 0 -12 4 -9 9 3 4 7 8
9 8 2 0 6 -4 9 -8z m2064 -19 c30 -30 72 -87 72 -98 0 -3 -9 -4 -19 0 -21 6
-22 6 -124 29 -79 17 -87 21 -55 31 13 4 34 21 47 36 30 36 44 36 79 2z
m-2871 -22 c-1 -15 -4 -17 -14 -9 -17 14 -16 28 1 28 8 0 14 -9 13 -19z m-72
-22 c9 -17 15 -32 13 -33 -2 -1 -16 -8 -32 -14 l-29 -13 8 33 c4 18 7 39 8 46
1 21 16 13 32 -19z m-100 -8 c-9 -36 -12 -37 -33 -10 l-19 23 -8 -23 c-4 -13
-2 -28 4 -34 6 -6 11 -16 11 -22 0 -13 -68 -37 -73 -27 -1 4 0 32 4 62 3 30 6
52 7 48 1 -4 11 -4 22 0 10 4 35 8 55 8 35 1 36 0 30 -25z m-281 -48 c-14 -96
-10 -88 -40 -97 -20 -6 -21 -3 -23 44 0 28 -3 56 -7 61 -5 8 47 38 69 39 5 0
5 -21 1 -47z m586 -141 c0 -5 -6 -9 -12 -10 -28 -2 -76 -11 -133 -25 -33 -8
-111 -25 -172 -38 -62 -12 -113 -27 -113 -33 0 -7 25 -11 63 -12 78 -1 176
-10 183 -16 2 -3 -21 -8 -53 -12 -132 -16 -182 -24 -196 -33 -9 -6 -5 102 4
111 3 3 18 7 34 10 17 3 41 8 55 11 28 6 180 33 224 40 16 2 30 6 32 7 7 8 84
7 84 0z m3037 -44 c-3 -8 -6 -5 -6 6 -1 11 2 17 5 13 3 -3 4 -12 1 -19z
m-3340 -184 c65 -4 144 -8 176 -8 31 0 57 -4 57 -7 0 -3 -28 -12 -62 -19 -35
-6 -76 -16 -93 -21 -16 -4 -43 -11 -60 -14 -16 -2 -46 -9 -65 -15 -19 -6 -52
-13 -72 -16 l-38 -6 4 39 c3 21 5 49 5 62 1 16 5 21 16 18 8 -4 67 -9 132 -13z
m2472 -36 c12 -12 22 -29 22 -37 1 -9 3 -38 5 -66 1 -27 5 -78 7 -113 l4 -63
-34 4 c-42 6 -40 4 -47 52 -7 48 -13 78 -22 120 -4 17 -8 39 -10 50 -1 11 -3
20 -4 20 -1 0 -4 11 -6 25 -4 23 -1 26 30 28 25 2 41 -4 55 -20z m-2222 -107
c-6 -36 -3 -36 -122 -45 -44 -3 -91 -8 -105 -11 -14 -3 -40 -8 -58 -11 -19 -3
-54 -12 -78 -19 -24 -7 -45 -12 -45 -12 -6 8 -4 94 2 102 4 6 90 11 208 13
198 3 201 3 198 -17z m2052 -91 c-1 -49 -6 -70 -15 -70 -7 0 -11 9 -10 23 8
61 19 117 23 117 2 0 3 -31 2 -70z m-2374 -41 c0 -2 29 -6 72 -10 33 -3 36
-11 5 -16 -10 -1 -51 -14 -92 -27 -44 -15 -77 -22 -80 -16 -3 5 -4 25 -2 44
l4 35 47 -4 c25 -2 46 -5 46 -6z m287 -110 c-6 -5 -58 -18 -137 -33 -23 -5
-221 -54 -247 -62 -14 -4 -16 1 -14 31 2 20 7 39 11 43 3 4 37 7 73 8 59 1
214 13 219 18 1 0 24 1 52 1 28 0 47 -2 43 -6z m-332 -125 c0 -1 -16 -18 -35
-38 l-35 -37 0 38 c0 38 1 39 35 39 19 -1 35 -1 35 -2z m197 -17 c4 -5 -64
-23 -119 -32 -16 -2 -44 -8 -63 -14 -56 -15 -40 6 32 44 20 11 139 12 150 2z
m128 -56 c3 -6 1 -19 -4 -28 -6 -10 -11 -15 -11 -12 0 4 -17 3 -37 -2 -42 -9
-106 -17 -198 -24 -69 -5 -137 -15 -147 -22 -5 -2 -8 10 -8 26 0 17 3 31 8 31
4 0 36 5 72 11 36 6 85 12 109 15 25 2 46 6 47 7 9 9 163 7 169 -2z m380 -11
c-2 -3 -18 -7 -35 -8 -17 -1 -29 1 -26 6 3 5 18 8 35 8 16 0 28 -2 26 -6z
m-421 -139 c-3 -3 -9 -6 -12 -7 -4 0 -20 -6 -37 -13 -45 -19 -187 -68 -210
-73 -13 -2 -24 4 -30 17 -6 11 -27 28 -48 38 -20 10 -37 25 -37 32 0 11 35 14
190 13 104 -1 187 -4 184 -7z"/>
<path d="M7920 8845 c-7 -9 -11 -17 -9 -20 3 -2 10 5 17 15 14 24 10 26 -8 5z"/>
<path d="M5190 6531 c0 -13 -3 -12 83 -16 37 -1 67 1 67 4 0 3 -26 7 -57 9
-32 1 -66 5 -75 8 -10 3 -18 1 -18 -5z"/>
<path d="M4975 6330 c3 -5 8 -10 11 -10 2 0 4 5 4 10 0 6 -5 10 -11 10 -5 0
-7 -4 -4 -10z"/>
<path d="M5000 6336 c0 -2 7 -6 15 -10 8 -3 15 -1 15 4 0 6 -7 10 -15 10 -8 0
-15 -2 -15 -4z"/>
<path d="M5045 6330 c3 -5 8 -10 11 -10 2 0 4 5 4 10 0 6 -5 10 -11 10 -5 0
-7 -4 -4 -10z"/>
<path d="M5070 6332 c0 -4 22 -7 49 -7 27 0 48 2 45 4 -8 9 -94 11 -94 3z"/>
<path d="M5188 6333 c7 -3 16 -2 19 1 4 3 -2 6 -13 5 -11 0 -14 -3 -6 -6z"/>
<path d="M4518 5953 c7 -3 16 -2 19 1 4 3 -2 6 -13 5 -11 0 -14 -3 -6 -6z"/>
<path d="M4725 4040 c4 -6 11 -8 16 -5 14 9 11 15 -7 15 -8 0 -12 -5 -9 -10z"/>
<path d="M4750 3528 c0 -4 16 -8 35 -8 19 0 35 2 35 4 0 2 -16 6 -35 8 -19 2
-35 0 -35 -4z"/>
<path d="M4845 2640 c-16 -6 -13 -8 13 -7 17 0 32 1 32 2 0 8 -28 11 -45 5z"/>
<path d="M4740 2482 c0 -5 7 -9 15 -9 8 0 15 4 15 9 0 4 -7 8 -15 8 -8 0 -15
-4 -15 -8z"/>
<path d="M4785 2480 c-3 -6 1 -7 9 -4 18 7 21 14 7 14 -6 0 -13 -4 -16 -10z"/>
<path d="M4670 2320 c0 -4 32 -7 70 -7 39 1 70 4 70 7 0 4 -31 7 -70 7 -38 0
-70 -3 -70 -7z"/>
<path d="M4820 2322 c0 -4 11 -8 25 -8 33 -2 33 11 0 14 -14 1 -25 -2 -25 -6z"/>
<path d="M4886 2319 c4 -8 30 -6 38 2 3 3 -5 5 -19 5 -13 0 -22 -3 -19 -7z"/>
<path d="M4806 2162 c-3 -5 1 -9 9 -9 8 0 12 4 9 9 -3 4 -7 8 -9 8 -2 0 -6 -4
-9 -8z"/>
<path d="M1856 2473 c-6 -14 -5 -15 5 -6 7 7 10 15 7 18 -3 3 -9 -2 -12 -12z"/>
<path d="M5040 1290 c-12 -7 -10 -9 7 -7 12 0 19 5 17 9 -6 10 -6 10 -24 -2z"/>
<path d="M4865 1120 c3 -5 10 -10 16 -10 5 0 9 5 9 10 0 6 -7 10 -16 10 -8 0
-12 -4 -9 -10z"/>
<path d="M4945 1120 c-3 -6 1 -7 9 -4 18 7 21 14 7 14 -6 0 -13 -4 -16 -10z"/>
<path d="M6405 1040 c-3 -5 -1 -10 4 -10 6 0 11 5 11 10 0 6 -2 10 -4 10 -3 0
-8 -4 -11 -10z"/>
<path d="M6405 980 c-3 -5 -1 -10 4 -10 6 0 11 5 11 10 0 6 -2 10 -4 10 -3 0
-8 -4 -11 -10z"/>
</g>
</svg>
