<svg width="138" height="149" viewBox="0 0 138 149" fill="none" xmlns="http://www.w3.org/2000/svg">
<g clip-path="url(#clip0_2_1280)">
<path d="M22.263 113.835L126.063 71.9738L115.598 46.0238L110.732 47.9861L107.488 49.2943L104.244 50.6024L101.001 51.9106L97.7569 53.2188L94.5132 54.527L91.2694 55.8351L88.0257 57.1433L84.7819 58.4515L81.5382 59.7597L78.2944 61.0678L75.0507 62.376L71.8069 63.6842L68.5632 64.9924L65.3194 66.3005L62.0757 67.6087L58.8319 68.9169L55.5882 70.2251L52.3444 71.5332L49.1007 72.8414L45.8569 74.1496L42.6132 75.4578L39.3694 76.7659L36.1257 78.0741L32.8819 79.3823L29.6382 80.6904L26.3944 81.9986L23.1507 83.3068L19.907 84.615L11.7976 87.8854L22.263 113.835ZM21.0618 87.4786L24.2954 86.1451L25.767 89.7943L29.0108 88.4861L27.5493 84.8622L30.7931 83.5541L32.2545 87.1779L35.4983 85.8698L34.0368 82.2459L37.2806 80.9377L38.742 84.5616L41.9858 83.2534L40.5141 79.6042L43.7578 78.296L45.2193 81.9199L48.4631 80.6117L47.0016 76.9879L50.2453 75.6797L53.0252 82.5726L56.269 81.2645L53.4993 74.3968L56.7328 73.0633L58.1943 76.6872L61.4381 75.379L59.9766 71.7552L63.2203 70.447L64.692 74.0962L67.9358 72.788L66.4743 69.1642L69.718 67.856L71.1795 71.4799L74.4233 70.1717L72.9516 66.5225L76.1953 65.2143L77.6568 68.8382L80.9005 67.53L79.4391 63.9061L82.6828 62.5979L85.4627 69.4909L88.7064 68.1827L85.9368 61.3151L89.1703 59.9816L90.6318 63.6055L93.8755 62.2973L92.4141 58.6734L95.6578 57.3652L97.1295 61.0144L100.373 59.7063L98.9118 56.0824L102.156 54.7742L103.617 58.3981L106.861 57.0899L105.389 53.4407L108.633 52.1325L110.105 55.7818L113.348 54.4736L111.887 50.8497L113.905 50.0534L122.041 70.2635L23.9732 109.813L15.8196 89.5957L17.8181 88.7868L20.5877 95.6544L23.8315 94.3462L21.0618 87.4786Z" fill="#FD9F32"/>
<path d="M110.105 55.7828L113.349 54.4747L111.887 50.8514L108.644 52.1595L110.105 55.7828Z" fill="#FFF176"/>
<path d="M103.618 58.3998L106.861 57.0918L105.4 53.4685L102.157 54.7765L103.618 58.3998Z" fill="#FFF176"/>
<path d="M97.1326 61.013L100.376 59.705L98.9147 56.0817L95.6713 57.3897L97.1326 61.013Z" fill="#FFF176"/>
<path d="M90.6443 63.6301L93.8877 62.322L92.4265 58.6987L89.1831 60.0068L90.6443 63.6301Z" fill="#FFF176"/>
<path d="M85.4636 69.4917L88.707 68.1837L85.9378 61.317L82.6943 62.6251L85.4636 69.4917Z" fill="#FFF176"/>
<path d="M77.6687 68.8642L80.9121 67.5562L79.4509 63.9329L76.2075 65.2409L77.6687 68.8642Z" fill="#FFF176"/>
<path d="M71.1814 71.4811L74.4248 70.1731L72.9636 66.5498L69.7202 67.8578L71.1814 71.4811Z" fill="#FFF176"/>
<path d="M64.6931 74.0982L67.9365 72.7902L66.4753 69.1669L63.2319 70.4749L64.6931 74.0982Z" fill="#FFF176"/>
<path d="M58.2067 76.7117L61.4501 75.4036L59.9889 71.7803L56.7455 73.0884L58.2067 76.7117Z" fill="#FFF176"/>
<path d="M53.0261 82.5735L56.2695 81.2655L53.5003 74.3988L50.2568 75.7068L53.0261 82.5735Z" fill="#FFF176"/>
<path d="M45.2302 81.9459L48.4736 80.6378L47.0124 77.0145L43.769 78.3226L45.2302 81.9459Z" fill="#FFF176"/>
<path d="M38.7429 84.5628L41.9863 83.2548L40.5251 79.6315L37.2817 80.9395L38.7429 84.5628Z" fill="#FFF176"/>
<path d="M32.2546 87.1799L35.498 85.8718L34.0368 82.2485L30.7934 83.5566L32.2546 87.1799Z" fill="#FFF176"/>
<path d="M25.7693 89.7934L29.0127 88.4854L27.5515 84.8621L24.3081 86.1701L25.7693 89.7934Z" fill="#FFF176"/>
<path d="M20.5877 95.6551L23.8311 94.347L21.0618 87.4804L17.8184 88.7884L20.5877 95.6551Z" fill="#FFF176"/>
<path d="M110.108 55.7801L113.352 54.472L110.735 47.9853L107.492 49.2933L110.108 55.7801Z" fill="#FD9F32"/>
<path d="M101 51.9107L104.244 50.6025L106.86 57.09L103.617 58.3982L102.155 54.7743L101 51.9107Z" fill="#FD9F32"/>
<path d="M94.513 54.527L97.7567 53.2188L98.9116 56.0825L100.373 59.7063L97.1293 61.0145L94.513 54.527Z" fill="#FD9F32"/>
<path d="M90.6453 63.6312L93.8887 62.3232L91.2727 55.8364L88.0293 57.1444L90.6453 63.6312Z" fill="#FD9F32"/>
<path d="M85.4656 69.4927L88.709 68.1847L84.7849 58.4545L81.5415 59.7625L85.4656 69.4927Z" fill="#FD9F32"/>
<path d="M77.6716 68.8616L80.915 67.5536L78.299 61.0668L75.0556 62.3748L77.6716 68.8616Z" fill="#FD9F32"/>
<path d="M68.5628 64.9925L71.8065 63.6843L74.4229 70.1718L71.1791 71.48L69.7176 67.8561L68.5628 64.9925Z" fill="#FD9F32"/>
<path d="M62.0755 67.6088L65.3192 66.3006L66.4741 69.1643L67.9356 72.7881L64.6918 74.0963L62.0755 67.6088Z" fill="#FD9F32"/>
<path d="M58.2078 76.7127L61.4512 75.4047L58.8351 68.9179L55.5917 70.2259L58.2078 76.7127Z" fill="#FD9F32"/>
<path d="M53.0261 82.5744L56.2695 81.2664L52.3454 71.5361L49.102 72.8442L53.0261 82.5744Z" fill="#FD9F32"/>
<path d="M45.2322 81.9467L48.4756 80.6387L45.8595 74.1519L42.6161 75.4599L45.2322 81.9467Z" fill="#FD9F32"/>
<path d="M36.1253 78.0743L39.369 76.7661L41.9854 83.2536L38.7416 84.5618L37.2801 80.9379L36.1253 78.0743Z" fill="#FD9F32"/>
<path d="M29.638 80.6906L32.8817 79.3824L34.0366 82.246L35.4981 85.8699L32.2543 87.1781L29.638 80.6906Z" fill="#FD9F32"/>
<path d="M25.7693 89.7944L29.0127 88.4863L26.3966 81.9995L23.1532 83.3076L25.7693 89.7944Z" fill="#FD9F32"/>
<path d="M20.5896 95.6561L23.833 94.348L19.9089 84.6178L16.6655 85.9259L20.5896 95.6561Z" fill="#FD9F32"/>
</g>
<path d="M31.4286 28.3363C21.2781 36.7058 9.17581 59.2672 17.7158 69.6245C26.2558 79.9819 50.5607 72.22 60.7112 63.8505C70.8618 55.4811 84.1999 32.205 75.66 21.8477C67.12 11.4903 41.5792 19.9669 31.4286 28.3363Z" fill="#F5EFE6" stroke="#B69D86" stroke-width="2"/>
<path d="M68.3222 27.0343C68.7483 26.683 69.3786 26.7436 69.7299 27.1697C70.0812 27.5958 70.0206 28.2261 69.5945 28.5774L68.3222 27.0343ZM60.4316 36.1325C60.0055 36.4839 59.3752 36.4232 59.0239 35.9971C58.6726 35.571 58.7332 34.9408 59.1593 34.5894L60.4316 36.1325ZM69.5945 28.5774L60.4316 36.1325L59.1593 34.5894L68.3222 27.0343L69.5945 28.5774Z" fill="#B69D86"/>
<path d="M54.5762 38.367C55.0023 38.0157 55.6325 38.0763 55.9839 38.5024C56.3352 38.9285 56.2746 39.5588 55.8485 39.9101L54.5762 38.367ZM28.3598 62.5754C27.9337 62.9268 27.3034 62.8662 26.9521 62.4401C26.6007 62.0139 26.6613 61.3837 27.0875 61.0323L28.3598 62.5754ZM55.8485 39.9101L28.3598 62.5754L27.0875 61.0323L54.5762 38.367L55.8485 39.9101Z" fill="#B69D86"/>
<defs>
<clipPath id="clip0_2_1280">
<rect x="96.7285" y="148.859" width="105.11" height="105.11" transform="rotate(-156.964 96.7285 148.859)" fill="white"/>
</clipPath>
</defs>
</svg>
