<svg width="174" height="174" viewBox="0 0 174 174" fill="none" xmlns="http://www.w3.org/2000/svg">
<ellipse rx="70.9927" ry="70.8981" transform="matrix(0.966025 -0.258447 0.259191 0.965826 86.9569 86.8231)" fill="#FD9F32"/>
<g filter="url(#filter0_d_2_1032)">
<path d="M49.2467 108.622L48.0148 104.032L52.8575 102.736L49.556 90.4343L52.1306 89.7455L46.2857 95.5076L44.8895 90.3052L49.9239 85.3175L53.939 84.2434L58.497 101.228L63.0025 100.022L64.2344 104.613L49.2467 108.622Z" fill="white"/>
<path d="M74.1206 102.329C71.4643 103.039 69.1609 102.617 67.2105 101.061C65.275 99.4799 63.8282 96.9041 62.8701 93.3338C61.901 89.7227 61.8695 86.7901 62.7757 84.536C63.7023 82.2764 65.4938 80.7912 68.1501 80.0806C70.8268 79.3645 73.122 79.7563 75.0355 81.256C76.9491 82.7558 78.3877 85.301 79.3513 88.8917C80.3149 92.4824 80.3444 95.4483 79.4397 97.7895C78.5499 100.105 76.7769 101.618 74.1206 102.329ZM72.9133 97.83C73.8941 97.5676 74.4772 96.8431 74.6624 95.6565C74.8681 94.4644 74.6561 92.6952 74.0265 90.3491C73.3914 87.9825 72.6945 86.3649 71.9359 85.4965C71.1921 84.6021 70.3299 84.2861 69.3491 84.5485C68.3683 84.8109 67.7696 85.5178 67.553 86.669C67.3513 87.7945 67.5653 89.5303 68.1949 91.8764C68.83 94.243 69.5249 95.8939 70.2795 96.829C71.0546 97.7587 71.9326 98.0924 72.9133 97.83Z" fill="white"/>
<path d="M92.4984 97.4118C89.8421 98.1225 87.5387 97.7 85.5882 96.1446C83.6528 94.5632 82.206 91.9874 81.2478 88.4171C80.2788 84.806 80.2473 81.8734 81.1535 79.6193C82.0801 77.3596 83.8716 75.8745 86.5278 75.1638C89.2046 74.4477 91.4997 74.8395 93.4133 76.3393C95.3269 77.839 96.7655 80.3843 97.7291 83.9749C98.6927 87.5656 98.7221 90.5316 97.8174 92.8728C96.9277 95.1881 95.1547 96.7011 92.4984 97.4118ZM91.2911 92.9132C92.2719 92.6509 92.8549 91.9263 93.0402 90.7397C93.2459 89.5477 93.0339 87.7785 92.4043 85.4323C91.7692 83.0657 91.0723 81.4482 90.3136 80.5797C89.5699 79.6854 88.7077 79.3694 87.7269 79.6318C86.7461 79.8942 86.1474 80.601 85.9307 81.7523C85.7291 82.8777 85.943 84.6135 86.5726 86.9597C87.2077 89.3263 87.9026 90.9772 88.6573 91.9123C89.4324 92.842 90.3103 93.1756 91.2911 92.9132Z" fill="white"/>
<path d="M112.349 91.7403L107.813 92.9538L114.651 68.0008L119.187 66.7872L112.349 91.7403ZM105.932 84.1091C104.093 84.6011 102.501 84.382 101.156 83.4516C99.8063 82.5008 98.863 81.0258 98.3264 79.0264C97.7844 77.0066 97.8682 75.2787 98.5777 73.8424C99.3023 72.3803 100.574 71.406 102.392 70.9195C104.211 70.433 105.792 70.6549 107.137 71.5853C108.482 72.5156 109.417 73.9601 109.943 75.9186C110.479 77.918 110.401 79.6664 109.708 81.1638C109.009 82.6408 107.75 83.6226 105.932 84.1091ZM105.045 80.8041C105.515 80.6784 105.807 80.3379 105.921 79.7826C106.049 79.2015 105.95 78.2989 105.621 77.0748C105.293 75.8507 104.932 75.0396 104.541 74.6414C104.149 74.2433 103.729 74.1043 103.279 74.2246C102.789 74.3558 102.481 74.6786 102.357 75.193C102.232 75.7075 102.339 76.5971 102.679 77.862C103.018 79.1269 103.376 79.9714 103.753 80.3954C104.124 80.7991 104.555 80.9353 105.045 80.8041ZM124.607 88.8215C122.789 89.3081 121.207 89.0861 119.862 88.1558C118.512 87.205 117.569 85.7299 117.032 83.7306C116.49 81.7108 116.574 79.9828 117.284 78.5466C118.008 77.0845 119.269 76.1129 121.068 75.6319C122.907 75.1399 124.488 75.3618 125.812 76.2976C127.157 77.228 128.092 78.6725 128.618 80.631C129.154 82.6304 129.076 84.3788 128.383 85.8762C127.705 87.3478 126.446 88.3295 124.607 88.8215ZM123.72 85.5165C124.211 85.3853 124.513 85.042 124.626 84.4868C124.735 83.9112 124.625 83.0113 124.296 81.7872C123.968 80.5631 123.608 79.752 123.216 79.3538C122.845 78.9502 122.424 78.8112 121.954 78.9369C121.485 79.0627 121.18 79.3957 121.04 79.936C120.915 80.4504 121.02 81.3299 121.354 82.5744C121.693 83.8393 122.051 84.6838 122.428 85.1078C122.819 85.506 123.25 85.6422 123.72 85.5165Z" fill="white"/>
<path d="M53.9149 121.06C53.737 121.405 53.7307 121.814 53.8981 122.166C55.657 125.693 59.1325 128.407 63.4159 129.606C67.606 130.778 71.8329 130.34 75.1098 128.417C75.4286 128.443 75.9212 128.47 76.5591 128.489C73.6375 130.146 70.9576 132.441 69.6532 135.626C69.5175 135.957 69.5336 136.333 69.6993 136.651C69.8598 136.971 70.1545 137.203 70.5028 137.284C76.2966 138.684 82.2587 137.532 86.4462 134.233C88.832 132.334 90.3185 129.916 90.6579 127.437C91.7911 127.221 92.9693 126.995 94.1764 126.704C91.6108 129.181 89.4169 132.338 89.0284 136.059C88.9873 136.413 89.1085 136.768 89.3573 137.025C89.5994 137.287 89.9438 137.429 90.2991 137.415C96.185 137.152 101.547 134.407 104.651 130.076C106.398 127.625 107.151 124.919 106.826 122.464C107.843 122 108.852 121.512 109.882 120.991C108.196 123.728 107.01 126.88 107.339 130.181C107.374 130.535 107.564 130.857 107.858 131.06C108.149 131.267 108.515 131.337 108.86 131.252C114.546 129.843 119.43 125.915 121.628 121.008C122.899 118.132 123.082 115.203 122.171 112.814C124.913 110.507 127.465 107.983 129.801 105.266C130.218 104.782 130.191 104.057 129.737 103.602C129.718 103.58 129.694 103.562 129.667 103.55C129.422 103.339 129.104 103.234 128.782 103.258C128.46 103.283 128.162 103.435 127.955 103.681C125.747 106.24 123.343 108.623 120.765 110.808C120.709 110.753 120.644 110.706 120.574 110.67C115.076 107.28 107.655 107.297 101.197 110.687C100.907 110.839 100.693 111.103 100.604 111.417C100.501 111.73 100.536 112.071 100.7 112.358C102.387 115.389 106.193 117.532 110.216 118.058C108.726 118.874 107.243 119.611 105.768 120.271C100.778 115.806 93.133 113.942 86.9081 115.765C86.6004 115.862 86.3437 116.074 86.1923 116.359C86.0327 116.644 85.9989 116.984 86.0998 117.297C87.0474 120.324 89.8875 122.987 93.2969 124.431C92.3134 124.653 91.3641 124.841 90.4323 125.011L90.4064 124.916C90.3812 124.817 90.3431 124.721 90.2934 124.632C89.5646 123.361 88.6678 122.194 87.6272 121.162C84.0979 117.638 78.9401 115.566 73.3051 115.579C72.9795 115.575 72.6671 115.706 72.4431 115.94C72.2114 116.17 72.0841 116.483 72.0909 116.81C72.1584 120.196 74.4365 123.76 77.6351 126.111C76.5565 126.083 75.7576 126.033 75.3386 126.003C68.2031 119.776 62.6016 119.235 54.8118 120.433C54.4304 120.49 54.0985 120.722 53.9149 121.06Z" fill="white"/>
<path d="M120.004 53.1118C120.182 52.7666 120.189 52.3576 120.021 52.006C118.262 48.4785 114.787 45.7645 110.503 44.566C106.313 43.3933 102.086 43.8315 98.8095 45.755C98.4907 45.7286 97.998 45.7018 97.3601 45.6823C100.282 44.0257 102.962 41.7308 104.266 38.5453C104.402 38.2141 104.386 37.8388 104.22 37.5202C104.059 37.2004 103.765 36.9687 103.416 36.8879C97.6226 35.4874 91.6606 36.6391 87.473 39.9383C85.0872 41.838 83.6008 44.2557 83.2613 46.7346C82.1281 46.9502 80.9499 47.177 79.7428 47.4674C82.3085 44.991 84.5024 41.8332 84.8908 38.1125C84.9319 37.7582 84.8108 37.4039 84.5619 37.1466C84.3199 36.8848 83.9755 36.7422 83.6201 36.7563C77.7342 37.02 72.3718 39.7645 69.2681 44.0951C67.5214 46.5471 66.768 49.2524 67.0935 51.708C66.076 52.1714 65.0674 52.6598 64.0375 53.1806C65.7236 50.4436 66.909 47.2916 66.5805 43.991C66.5451 43.6365 66.3552 43.3147 66.061 43.1115C65.7703 42.9047 65.4044 42.8344 65.0589 42.9192C59.3735 44.3286 54.4891 48.2567 52.2912 53.1638C51.0199 56.0392 50.8368 58.9685 51.748 61.3578C49.0058 63.6649 46.4547 66.1887 44.1186 68.9054C43.7011 69.3899 43.7285 70.1148 44.1818 70.5699C44.2012 70.5916 44.225 70.6098 44.252 70.6215C44.4967 70.833 44.8153 70.9378 45.1376 70.9132C45.4591 70.8886 45.7569 70.7362 45.9645 70.4903C48.1721 67.9316 50.5758 65.5485 53.1546 63.3636C53.2106 63.4188 53.2751 63.4655 53.3452 63.5019C58.8429 66.8917 66.2638 66.8747 72.7223 63.4844C73.0121 63.3328 73.2264 63.0688 73.3154 62.7544C73.4186 62.442 73.3832 62.1004 73.2188 61.8136C71.5318 58.7821 67.7264 56.6391 63.7035 56.1138C65.1936 55.2978 66.6765 54.5606 68.1516 53.9005C73.1409 58.3658 80.7863 60.2292 87.0112 58.4068C87.3188 58.3099 87.5755 58.0971 87.727 57.8129C87.8865 57.5272 87.9204 57.1873 87.8195 56.8749C86.8719 53.8471 84.0318 51.1846 80.6224 49.7402C81.6058 49.5186 82.5551 49.3303 83.4869 49.1604L83.5129 49.256C83.538 49.355 83.5761 49.4507 83.6258 49.5396C84.3546 50.8102 85.2514 51.9774 86.2921 53.01C89.8213 56.5338 94.9791 58.6055 100.614 58.5923C100.94 58.5967 101.252 58.4659 101.476 58.2318C101.708 58.0021 101.835 57.6881 101.828 57.3614C101.761 53.976 99.4827 50.412 96.2841 48.0602C97.3627 48.0883 98.1617 48.1387 98.5807 48.1689C105.716 54.3953 111.318 54.9367 119.107 53.7385C119.489 53.6814 119.821 53.4497 120.004 53.1118Z" fill="white"/>
</g>
<defs>
<filter id="filter0_d_2_1032" x="33.8228" y="27.3029" width="114.274" height="129.566" filterUnits="userSpaceOnUse" color-interpolation-filters="sRGB">
<feFlood flood-opacity="0" result="BackgroundImageFix"/>
<feColorMatrix in="SourceAlpha" type="matrix" values="0 0 0 0 0 0 0 0 0 0 0 0 0 0 0 0 0 0 127 0" result="hardAlpha"/>
<feOffset dx="4" dy="5"/>
<feGaussianBlur stdDeviation="7"/>
<feComposite in2="hardAlpha" operator="out"/>
<feColorMatrix type="matrix" values="0 0 0 0 0.8625 0 0 0 0 0.3128 0 0 0 0 0.00359374 0 0 0 0.3 0"/>
<feBlend mode="normal" in2="BackgroundImageFix" result="effect1_dropShadow_2_1032"/>
<feBlend mode="normal" in="SourceGraphic" in2="effect1_dropShadow_2_1032" result="shape"/>
</filter>
</defs>
</svg>
