<svg width="140" height="140" viewBox="0 0 140 140" fill="none" xmlns="http://www.w3.org/2000/svg">
<circle cx="70" cy="70" r="70" fill="#FD9F32"/>
<g filter="url(#filter0_d_1971_8960)">
<path d="M27.6914 81.1103V76.3507H32.7049V63.595H35.3703L28.2308 67.6565V62.2623L34.3866 58.7402H38.5433V76.3507H43.2078V81.1103H27.6914Z" fill="white"/>
<path d="M53.3492 81.4594C50.5992 81.4594 48.4838 80.4546 47.003 78.445C45.5434 76.4142 44.8136 73.5478 44.8136 69.8459C44.8136 66.1017 45.5434 63.2565 47.003 61.3103C48.4838 59.3642 50.5992 58.3911 53.3492 58.3911C56.1204 58.3911 58.2357 59.3642 59.6954 61.3103C61.155 63.2565 61.8848 66.0911 61.8848 69.8142C61.8848 73.5373 61.1444 76.4142 59.6636 78.445C58.204 80.4546 56.0992 81.4594 53.3492 81.4594ZM53.3492 76.795C54.3646 76.795 55.1155 76.245 55.6021 75.145C56.1098 74.045 56.3636 72.2786 56.3636 69.8459C56.3636 67.3921 56.1098 65.6469 55.6021 64.6103C55.1155 63.5527 54.3646 63.0238 53.3492 63.0238C52.3338 63.0238 51.5723 63.5527 51.0646 64.6103C50.578 65.6469 50.3348 67.3815 50.3348 69.8142C50.3348 72.268 50.578 74.045 51.0646 75.145C51.5723 76.245 52.3338 76.795 53.3492 76.795Z" fill="white"/>
<path d="M72.3753 81.4594C69.6253 81.4594 67.5099 80.4546 66.0291 78.445C64.5695 76.4142 63.8397 73.5478 63.8397 69.8459C63.8397 66.1017 64.5695 63.2565 66.0291 61.3103C67.5099 59.3642 69.6253 58.3911 72.3753 58.3911C75.1464 58.3911 77.2618 59.3642 78.7214 61.3103C80.181 63.2565 80.9108 66.0911 80.9108 69.8142C80.9108 73.5373 80.1705 76.4142 78.6897 78.445C77.2301 80.4546 75.1253 81.4594 72.3753 81.4594ZM72.3753 76.795C73.3907 76.795 74.1416 76.245 74.6281 75.145C75.1358 74.045 75.3897 72.2786 75.3897 69.8459C75.3897 67.3921 75.1358 65.6469 74.6281 64.6103C74.1416 63.5527 73.3907 63.0238 72.3753 63.0238C71.3599 63.0238 70.5983 63.5527 70.0907 64.6103C69.6041 65.6469 69.3608 67.3815 69.3608 69.8142C69.3608 72.268 69.6041 74.045 70.0907 75.145C70.5983 76.245 71.3599 76.795 72.3753 76.795Z" fill="white"/>
<path d="M93.0196 81.1103H88.3234L101.397 58.7402H106.093L93.0196 81.1103ZM88.7994 72.0671C86.8956 72.0671 85.4148 71.443 84.3571 70.195C83.2994 68.9257 82.7706 67.2546 82.7706 65.1815C82.7706 63.0873 83.2994 61.4373 84.3571 60.2315C85.4359 59.0046 86.9167 58.3911 88.7994 58.3911C90.6821 58.3911 92.1523 59.0152 93.21 60.2632C94.2677 61.5113 94.7965 63.1507 94.7965 65.1815C94.7965 67.2546 94.2677 68.9257 93.21 70.195C92.1523 71.443 90.6821 72.0671 88.7994 72.0671ZM88.7994 68.6402C89.2859 68.6402 89.6561 68.3863 89.91 67.8786C90.185 67.3498 90.3225 66.4507 90.3225 65.1815C90.3225 63.9123 90.185 63.0344 89.91 62.5478C89.635 62.0613 89.2648 61.818 88.7994 61.818C88.2917 61.818 87.9109 62.0507 87.6571 62.5161C87.4033 62.9815 87.2763 63.87 87.2763 65.1815C87.2763 66.493 87.4033 67.4027 87.6571 67.9103C87.9109 68.3969 88.2917 68.6402 88.7994 68.6402ZM105.617 81.4594C103.734 81.4594 102.264 80.8353 101.206 79.5873C100.148 78.318 99.6196 76.6469 99.6196 74.5738C99.6196 72.4796 100.148 70.8296 101.206 69.6238C102.285 68.3969 103.755 67.7834 105.617 67.7834C107.521 67.7834 108.991 68.4075 110.027 69.6555C111.085 70.9036 111.614 72.543 111.614 74.5738C111.614 76.6469 111.085 78.318 110.027 79.5873C108.991 80.8353 107.521 81.4594 105.617 81.4594ZM105.617 78.0325C106.124 78.0325 106.505 77.7786 106.759 77.2709C107.013 76.7421 107.14 75.843 107.14 74.5738C107.14 73.3046 107.002 72.4267 106.727 71.9402C106.473 71.4536 106.103 71.2103 105.617 71.2103C105.13 71.2103 104.749 71.4536 104.474 71.9402C104.221 72.4055 104.094 73.2834 104.094 74.5738C104.094 75.8853 104.221 76.795 104.474 77.3027C104.749 77.7892 105.13 78.0325 105.617 78.0325Z" fill="white"/>
<g filter="url(#filter1_d_1971_8960)">
<path d="M28.9759 94.3507C28.7146 94.6385 28.6025 95.0326 28.673 95.416C29.4576 99.2838 32.1112 102.809 35.938 105.077C39.6813 107.296 43.8778 107.966 47.5416 106.953C47.8427 107.061 48.3116 107.215 48.9227 107.399C45.6712 108.245 42.4877 109.772 40.402 112.516C40.1851 112.801 40.1034 113.168 40.1809 113.519C40.253 113.87 40.4776 114.171 40.7931 114.339C46.0265 117.193 52.0839 117.622 56.984 115.515C59.7809 114.294 61.8434 112.34 62.8139 110.03C63.9643 110.115 65.1612 110.2 66.4024 110.232C63.2823 111.963 60.3446 114.45 59.0049 117.949C58.8734 118.281 58.8985 118.655 59.0722 118.969C59.2382 119.285 59.5339 119.512 59.8808 119.59C65.6345 120.858 71.5256 119.591 75.6461 116.205C77.9688 114.285 79.3978 111.863 79.72 109.403C80.823 109.218 81.9238 109.007 83.0536 108.769C80.7155 110.981 78.7534 113.723 78.2152 117.001C78.1575 117.353 78.2574 117.714 78.489 117.987C78.7161 118.262 79.0514 118.425 79.4071 118.432C85.2641 118.54 91.0003 116.004 94.3953 111.826C96.3686 109.373 97.3048 106.587 97.044 104.039C100.291 102.517 103.409 100.736 106.37 98.7123C106.899 98.3517 107.06 97.6433 106.74 97.0857C106.727 97.0597 106.709 97.036 106.686 97.0177C106.504 96.7497 106.224 96.5659 105.906 96.5063C105.589 96.4468 105.262 96.5172 104.998 96.7013C102.202 98.6053 99.2625 100.289 96.2053 101.735C96.1655 101.667 96.1153 101.605 96.057 101.552C91.6254 96.8495 84.4529 94.9453 77.3357 96.5535C77.0164 96.6252 76.741 96.8251 76.5735 97.1062C76.3929 97.3817 76.3385 97.7214 76.423 98.0414C77.2667 101.411 80.3869 104.469 84.1365 106.018C82.4857 106.422 80.8623 106.751 79.2663 107.008C75.6044 101.397 68.7026 97.6155 62.2175 97.7674C61.8952 97.7816 61.5921 97.921 61.3721 98.1567C61.1439 98.3918 61.0231 98.7118 61.0396 99.0402C61.1701 102.215 63.2232 105.525 66.142 107.805C65.1346 107.765 64.1689 107.701 63.2248 107.625L63.2245 107.525C63.2258 107.423 63.2139 107.321 63.1889 107.222C62.8143 105.804 62.2506 104.443 61.5131 103.174C59.0176 98.852 54.5725 95.513 49.1261 94.0673C48.8127 93.9788 48.4771 94.0244 48.2 94.1929C47.9166 94.3552 47.7123 94.626 47.6342 94.9438C46.8218 98.2364 48.0985 102.274 50.5785 105.377C49.5439 105.071 48.7852 104.815 48.3883 104.677C43.11 96.807 37.8396 94.8335 30.0047 93.9765C29.6215 93.933 29.2408 94.0713 28.9759 94.3507Z" fill="white"/>
</g>
<g filter="url(#filter2_d_1971_8960)">
<path d="M110.428 45.722C110.69 45.4341 110.802 45.04 110.731 44.6566C109.947 40.7888 107.293 37.2637 103.466 34.9956C99.7229 32.7767 95.5264 32.1066 91.8626 33.1193C91.5616 33.0112 91.0927 32.8578 90.4815 32.6738C93.733 31.8274 96.9165 30.3009 99.0022 27.5568C99.2191 27.2715 99.3008 26.9042 99.2234 26.5531C99.1512 26.2022 98.9266 25.9018 98.6111 25.7335C93.3778 22.8791 87.3203 22.4502 82.4202 24.5581C79.6233 25.7784 77.5608 27.7325 76.5904 30.0428C75.4399 29.9581 74.2431 29.8726 73.0018 29.841C76.1219 28.1094 79.0597 25.6223 80.3994 22.1234C80.5309 21.7913 80.5057 21.4172 80.332 21.1038C80.166 20.788 79.8703 20.5609 79.5235 20.4825C73.7698 19.2142 67.8787 20.4815 63.7582 23.8676C61.4354 25.7876 60.0064 28.2098 59.6843 30.6696C58.5813 30.8545 57.4804 31.0659 56.3506 31.3033C58.6888 29.0919 60.6508 26.3494 61.1891 23.0713C61.2468 22.7192 61.1468 22.3587 60.9153 22.086C60.6881 21.8107 60.3529 21.648 59.9972 21.6406C54.1402 21.5326 48.4039 24.0685 45.0089 28.2469C43.0356 30.6995 42.0994 33.486 42.3603 36.0332C39.1134 37.5554 35.9951 39.3367 33.0343 41.3603C32.5055 41.7209 32.344 42.4293 32.6639 42.9869C32.677 43.013 32.6953 43.0367 32.7183 43.055C32.8999 43.3229 33.1804 43.5068 33.4981 43.5664C33.815 43.6258 34.1423 43.5554 34.4064 43.3713C37.2021 41.4674 40.1417 39.7841 43.1989 38.3378C43.2388 38.4056 43.2889 38.4676 43.3472 38.5209C47.7789 43.2232 54.9513 45.1273 62.0685 43.5191C62.3878 43.4474 62.6632 43.2476 62.8307 42.9664C63.0113 42.6909 63.0657 42.3513 62.9812 42.0312C62.1376 38.6619 59.0173 35.6039 55.2677 34.0545C56.9185 33.6507 58.542 33.3213 60.138 33.0645C63.7998 38.6756 70.7016 42.4571 77.1868 42.3052C77.5091 42.2911 77.8122 42.1516 78.0321 41.916C78.2603 41.6808 78.3811 41.3608 78.3646 41.0324C78.2342 37.858 76.181 34.5473 73.2622 32.2675C74.2696 32.3076 75.2354 32.3711 76.1794 32.4479L76.1797 32.5472C76.1784 32.6494 76.1903 32.7518 76.2153 32.8507C76.59 34.2685 77.1536 35.6299 77.8911 36.8981C80.3867 41.2206 84.8318 44.5596 90.2782 46.0054C90.5915 46.0938 90.9272 46.0482 91.2043 45.8797C91.4876 45.7174 91.6919 45.4467 91.7701 45.1289C92.5824 41.8362 91.3058 37.7988 88.8258 34.6957C89.8603 35.0021 90.619 35.2576 91.0159 35.3953C96.2943 43.2656 101.565 45.2391 109.4 46.0961C109.783 46.1397 110.163 46.0014 110.428 45.722Z" fill="white"/>
</g>
</g>
<defs>
<filter id="filter0_d_1971_8960" x="17.6914" y="11" width="111.922" height="128.073" filterUnits="userSpaceOnUse" color-interpolation-filters="sRGB">
<feFlood flood-opacity="0" result="BackgroundImageFix"/>
<feColorMatrix in="SourceAlpha" type="matrix" values="0 0 0 0 0 0 0 0 0 0 0 0 0 0 0 0 0 0 127 0" result="hardAlpha"/>
<feOffset dx="4" dy="5"/>
<feGaussianBlur stdDeviation="7"/>
<feComposite in2="hardAlpha" operator="out"/>
<feColorMatrix type="matrix" values="0 0 0 0 0.8625 0 0 0 0 0.3128 0 0 0 0 0.00359374 0 0 0 0.3 0"/>
<feBlend mode="normal" in2="BackgroundImageFix" result="effect1_dropShadow_1971_8960"/>
<feBlend mode="normal" in="SourceGraphic" in2="effect1_dropShadow_1971_8960" result="shape"/>
</filter>
<filter id="filter1_d_1971_8960" x="18.6523" y="84.9686" width="106.25" height="54.104" filterUnits="userSpaceOnUse" color-interpolation-filters="sRGB">
<feFlood flood-opacity="0" result="BackgroundImageFix"/>
<feColorMatrix in="SourceAlpha" type="matrix" values="0 0 0 0 0 0 0 0 0 0 0 0 0 0 0 0 0 0 127 0" result="hardAlpha"/>
<feOffset dx="4" dy="5"/>
<feGaussianBlur stdDeviation="7"/>
<feComposite in2="hardAlpha" operator="out"/>
<feColorMatrix type="matrix" values="0 0 0 0 0.8625 0 0 0 0 0.3128 0 0 0 0 0.00359374 0 0 0 0.3 0"/>
<feBlend mode="normal" in2="BackgroundImageFix" result="effect1_dropShadow_1971_8960"/>
<feBlend mode="normal" in="SourceGraphic" in2="effect1_dropShadow_1971_8960" result="shape"/>
</filter>
<filter id="filter2_d_1971_8960" x="22.5" y="11" width="106.25" height="54.104" filterUnits="userSpaceOnUse" color-interpolation-filters="sRGB">
<feFlood flood-opacity="0" result="BackgroundImageFix"/>
<feColorMatrix in="SourceAlpha" type="matrix" values="0 0 0 0 0 0 0 0 0 0 0 0 0 0 0 0 0 0 127 0" result="hardAlpha"/>
<feOffset dx="4" dy="5"/>
<feGaussianBlur stdDeviation="7"/>
<feComposite in2="hardAlpha" operator="out"/>
<feColorMatrix type="matrix" values="0 0 0 0 0.8625 0 0 0 0 0.3128 0 0 0 0 0.00359374 0 0 0 0.3 0"/>
<feBlend mode="normal" in2="BackgroundImageFix" result="effect1_dropShadow_1971_8960"/>
<feBlend mode="normal" in="SourceGraphic" in2="effect1_dropShadow_1971_8960" result="shape"/>
</filter>
</defs>
</svg>
