<svg width="140" height="140" viewBox="0 0 140 140" fill="none" xmlns="http://www.w3.org/2000/svg">
<circle cx="70" cy="70" r="70" fill="#FD9F32"/>
<g filter="url(#filter0_d_1971_8970)">
<path d="M45.7812 58.6717L44.2188 52.0311C45 50.3384 46.7188 46.6405 47.3438 45.3905C47.9688 44.1405 52.5521 44.0884 54.7656 44.2186L61.7969 48.1248L71.5625 57.4998L60.625 73.1248L58.2812 74.6873L45.7812 58.6717Z" fill="white"/>
<path d="M31.9862 25.0574C30.788 25.4224 29.7544 26.1326 29.0431 27.0796C25.7277 31.3806 29.1 37.1445 38.5392 43.31C40.1211 44.3436 41.3995 45.7125 42.2628 47.2971L42.3395 47.4381C43.0643 48.7769 43.2556 50.3016 42.8808 51.7536C42.528 53.1001 42.5157 54.5014 42.845 55.8527C43.1742 57.2041 43.8365 58.4704 44.7821 59.557L58.1652 75.0197L60.6082 73.2534L47.241 57.8093C46.5856 57.0563 46.1266 56.1787 45.8983 55.2422C45.67 54.3057 45.6783 53.3346 45.9227 52.4014C46.0251 51.9944 46.0968 51.5815 46.1374 51.1656L53.4187 45.8872C53.9246 45.9646 54.4362 46.0075 54.9492 46.0153C56.0099 46.0243 57.0548 46.2499 58.0061 46.6753C58.9574 47.1007 59.7907 47.715 60.444 48.4724L69.982 59.4925L71.8926 57.1112L62.903 46.7246C61.9619 45.6334 60.7615 44.7483 59.3911 44.1353C58.0207 43.5222 56.5155 43.1969 54.9873 43.1835C53.3375 43.1645 51.7454 42.6304 50.4794 41.6715L50.3448 41.5692C48.8528 40.4324 47.6905 38.9819 46.9595 37.3443C42.658 27.6922 37.3402 23.3297 31.9862 25.0574ZM90.7338 88.8371L83.4521 94.1158C82.946 94.0383 82.4343 93.9954 81.9211 93.9875C80.8604 93.9784 79.8157 93.7528 78.8645 93.3274C77.9133 92.902 77.0802 92.2878 76.4271 91.5304L66.3944 79.9387L63.9514 81.705L73.968 93.2781C74.909 94.3694 76.1092 95.2544 77.4794 95.8675C78.8497 96.4805 80.3548 96.8059 81.8829 96.8193C83.5349 96.8387 85.1289 97.3743 86.3957 98.3354L86.5262 98.4336C88.0182 99.5704 89.1805 101.021 89.9114 102.659C92.0817 107.528 96.5045 115.312 102.594 115.313C103.593 115.309 104.579 115.099 105.475 114.699C106.372 114.298 107.156 113.717 107.767 113.001C111.187 108.692 107.836 102.901 98.3318 96.6928C96.7507 95.6601 95.4727 94.2921 94.6098 92.7085L94.5316 92.564C93.8066 91.2255 93.6154 89.7009 93.9903 88.2492C94.3431 86.9028 94.3554 85.5014 94.0261 84.1501C93.6968 82.7988 93.0346 81.5324 92.089 80.4458L86.1584 73.5938L83.1841 74.746L89.63 82.1935C90.2854 82.9465 90.7445 83.8241 90.9728 84.7606C91.2011 85.697 91.1927 86.6682 90.9484 87.6013C90.846 88.0084 90.7743 88.4213 90.7338 88.8371Z" fill="white"/>
<path d="M102.736 33.4449C96.7635 34.4378 91.4482 37.4909 87.9082 41.9623L64.9629 70.5587C64.501 71.0931 64.1782 71.7151 64.0186 72.3783C63.859 73.0415 63.8666 73.7289 64.041 74.389L56.5801 79.784C55.0812 78.5989 53.1711 77.9278 51.1825 77.8877C49.1939 77.8476 47.2527 78.441 45.6972 79.5646L29.4941 91.2821L40.4394 103.177L56.291 91.714C57.8461 90.5807 58.9185 88.993 59.3246 87.2224C59.7308 85.4517 59.4455 83.6082 58.5176 82.0072L65.9785 76.6122C66.6264 76.9286 67.3519 77.0918 68.0879 77.0865C68.8485 77.0784 69.5999 76.934 70.2988 76.6617L106.072 62.7989C111.672 60.6596 116.143 56.6413 118.549 51.5841C120.869 46.5289 120.393 41.5304 117.244 37.8558L117.228 37.8417C117.213 37.8204 117.205 37.8063 117.189 37.785C113.978 34.1034 108.713 32.5245 102.736 33.4449ZM76.666 60.7882C76.7355 60.7464 76.7985 60.6964 76.8535 60.6395C85.721 51.9832 96.845 45.4832 109.205 41.7357L68.1191 71.4437L76.666 60.7882ZM83.58 68.4347L70.041 73.6739L111.26 43.8739C104.465 54.0331 94.9528 62.4756 83.6035 68.4205C83.5957 68.4205 83.5879 68.4276 83.58 68.4347ZM116.135 41.7569C117.244 44.2987 117.103 47.3573 115.658 50.4938C113.57 54.8705 109.696 58.3461 104.846 60.1935L97.2363 63.1388C105.048 57.2266 111.474 49.9564 116.135 41.7569ZM85.4629 49.8353L90.4394 43.6261C93.4971 39.7523 98.0923 37.103 103.26 36.2345C104.158 36.0959 105.067 36.0249 105.978 36.0221C108.392 35.9739 110.761 36.6127 112.752 37.8487C102.857 40.1359 93.5744 44.2132 85.4629 49.8353ZM27.5488 109.598C29.7938 109.825 32.0465 109.237 33.8144 107.963L37.9863 104.947L27.0488 93.0521L23.2207 95.8204C21.4526 97.1036 20.3153 98.9677 20.0564 101.007C19.7974 103.046 20.4377 105.096 21.8379 106.71C22.532 107.509 23.3941 108.176 24.3744 108.672C25.3546 109.168 26.4335 109.483 27.5488 109.598ZM26.8379 101.279C27.08 101.104 27.3741 100.998 27.6828 100.974C27.9916 100.95 28.3012 101.01 28.5723 101.146C28.8435 101.282 29.0641 101.488 29.2061 101.737C29.3482 101.987 29.4053 102.269 29.3702 102.548C29.3351 102.827 29.2095 103.09 29.0092 103.305C28.8089 103.519 28.5429 103.675 28.2449 103.752C27.947 103.829 27.6305 103.824 27.3355 103.738C27.0405 103.652 26.7803 103.489 26.5879 103.269C26.3305 102.975 26.2122 102.6 26.2591 102.227C26.306 101.854 26.5141 101.513 26.8379 101.279ZM56.5604 50.4615C56.2289 50.6868 56.0098 51.0222 55.9512 51.3939C55.8926 51.7657 55.9994 52.1432 56.2479 52.4436L60.9355 58.1073C61.1874 58.4037 61.5572 58.5993 61.9659 58.6521C62.3747 58.7049 62.79 58.6109 63.1233 58.3901C63.4548 58.1647 63.6739 57.8293 63.7325 57.4576C63.7911 57.0859 63.6843 56.7083 63.4357 56.4079L58.7482 50.7443C58.4993 50.4439 58.1291 50.2455 57.7189 50.1924C57.3086 50.1394 56.8919 50.2362 56.5604 50.4615Z" fill="white"/>
<path d="M66.4844 79.7656L64.5312 81.3281L72.3438 89.1406C73.125 89.9219 80.5469 95.3906 81.1376 95.7812C81.6102 96.0937 84.5865 95.9115 86.0156 95.7812L91.0938 92.2656C91.4844 91.224 92.2656 89.0625 92.2656 88.75C92.2656 88.4375 91.7448 84.7135 91.4844 82.8906L86.4062 76.25L83.2812 74.6875L66.4844 79.7656Z" fill="white"/>
</g>
<defs>
<filter id="filter0_d_1971_8970" x="10" y="11" width="128" height="128" filterUnits="userSpaceOnUse" color-interpolation-filters="sRGB">
<feFlood flood-opacity="0" result="BackgroundImageFix"/>
<feColorMatrix in="SourceAlpha" type="matrix" values="0 0 0 0 0 0 0 0 0 0 0 0 0 0 0 0 0 0 127 0" result="hardAlpha"/>
<feOffset dx="4" dy="5"/>
<feGaussianBlur stdDeviation="7"/>
<feComposite in2="hardAlpha" operator="out"/>
<feColorMatrix type="matrix" values="0 0 0 0 0.8625 0 0 0 0 0.3128 0 0 0 0 0.00359374 0 0 0 0.3 0"/>
<feBlend mode="normal" in2="BackgroundImageFix" result="effect1_dropShadow_1971_8970"/>
<feBlend mode="normal" in="SourceGraphic" in2="effect1_dropShadow_1971_8970" result="shape"/>
</filter>
</defs>
</svg>
