<svg width="140" height="140" viewBox="0 0 140 140" fill="none" xmlns="http://www.w3.org/2000/svg">
<circle cx="70" cy="70" r="70" fill="#FD9F32"/>
<g filter="url(#filter0_d_1971_8944)">
<path d="M32.8438 34.2181V90.9271H108.625V34.2181H32.8438ZM86.0273 43.0072H94.9531V77.3627H86.0273V43.0072ZM66.2715 51.6595H75.1973V77.3627H66.2715V51.6595V51.6595ZM46.5156 60.3217H55.4414V77.3627H46.5156V60.3217ZM98.127 83.7787C98.0977 83.7787 98.0684 83.7787 98.0391 83.7787C95.8223 83.8373 93.6055 83.7787 91.3887 83.7787H48.8301C47.0039 83.7787 47.1211 83.7787 45.2949 83.7787C44.3379 83.7787 43.625 82.9974 43.5859 82.0697C43.5469 81.142 44.3965 80.3607 45.2949 80.3607C45.3242 80.3607 45.3535 80.3607 45.3828 80.3607C47.5996 80.3021 47.8633 80.3607 50.0801 80.3607H98.127C99.084 80.3607 99.7969 81.142 99.8359 82.0697C99.875 82.9974 99.0254 83.7787 98.127 83.7787Z" fill="white"/>
<path d="M27.9603 92.6359C28.722 92.6359 29.4935 92.6359 30.2552 92.6359C32.3255 92.6359 34.3958 92.6359 36.4661 92.6359C39.5423 92.6359 42.6185 92.6359 45.6849 92.6359C49.4251 92.6359 53.1556 92.6359 56.8958 92.6359C61.0072 92.6359 65.1087 92.6359 69.2201 92.6359C73.3704 92.6359 77.5111 92.6359 81.6615 92.6359C85.5091 92.6359 89.3665 92.6359 93.2142 92.6359C96.4662 92.6359 99.7279 92.6359 102.98 92.6359C105.333 92.6359 107.677 92.6359 110.031 92.6359C111.144 92.6359 112.257 92.6554 113.361 92.6359C113.41 92.6359 113.458 92.6359 113.497 92.6359C114.396 92.6359 115.245 91.8547 115.206 90.9269C115.167 89.9992 114.454 89.218 113.497 89.218C112.736 89.218 111.964 89.218 111.202 89.218C109.132 89.218 107.062 89.218 104.992 89.218C101.915 89.218 98.8392 89.218 95.7728 89.218C92.0326 89.218 88.3021 89.218 84.5619 89.218C80.4505 89.218 76.349 89.218 72.2376 89.218C68.0872 89.218 63.9466 89.218 59.7962 89.218C55.9486 89.218 52.0911 89.218 48.2435 89.218C44.9915 89.218 41.7298 89.218 38.4779 89.218C36.1243 89.218 33.7806 89.218 31.4271 89.218C30.3138 89.218 29.2005 89.1984 28.097 89.218C28.0482 89.218 27.9993 89.218 27.9603 89.218C27.0618 89.218 26.2122 89.9992 26.2513 90.9269C26.2904 91.8547 27.0033 92.6359 27.9603 92.6359Z" fill="white"/>
<path d="M87.0323 104.95C85.8897 100.721 84.7569 96.4928 83.6144 92.2741C83.4483 91.6686 83.2921 91.0729 83.1261 90.4674C82.8917 89.608 81.8956 88.9928 81.0265 89.276C80.1378 89.5592 79.5812 90.4576 79.8351 91.3756C80.9776 95.6041 82.1105 99.8326 83.253 104.051C83.419 104.657 83.5753 105.253 83.7413 105.858C83.9757 106.717 84.9718 107.333 85.8409 107.049C86.7198 106.766 87.2765 105.878 87.0323 104.95Z" fill="white"/>
<path d="M27.9603 35.9266C28.722 35.9266 29.4935 35.9266 30.2552 35.9266C32.3255 35.9266 34.3958 35.9266 36.4661 35.9266C39.5423 35.9266 42.6185 35.9266 45.6849 35.9266C49.4251 35.9266 53.1556 35.9266 56.8958 35.9266C61.0072 35.9266 65.1087 35.9266 69.2201 35.9266C73.3704 35.9266 77.5111 35.9266 81.6615 35.9266C85.5091 35.9266 89.3665 35.9266 93.2142 35.9266C96.4662 35.9266 99.7279 35.9266 102.98 35.9266C105.333 35.9266 107.677 35.9266 110.031 35.9266C111.144 35.9266 112.257 35.9462 113.361 35.9266C113.41 35.9266 113.458 35.9266 113.497 35.9266C114.396 35.9266 115.245 35.1454 115.206 34.2177C115.167 33.2899 114.454 32.5087 113.497 32.5087C112.736 32.5087 111.964 32.5087 111.202 32.5087C109.132 32.5087 107.062 32.5087 104.992 32.5087C101.915 32.5087 98.8392 32.5087 95.7728 32.5087C92.0326 32.5087 88.3021 32.5087 84.5619 32.5087C80.4505 32.5087 76.349 32.5087 72.2376 32.5087C68.0872 32.5087 63.9466 32.5087 59.7962 32.5087C55.9486 32.5087 52.0911 32.5087 48.2435 32.5087C44.9915 32.5087 41.7298 32.5087 38.4779 32.5087C36.1243 32.5087 33.7806 32.5087 31.4271 32.5087C30.3138 32.5087 29.2005 32.4891 28.097 32.5087C28.0482 32.5087 27.9993 32.5087 27.9603 32.5087C27.0618 32.5087 26.2122 33.2899 26.2513 34.2177C26.2904 35.1454 27.0033 35.9266 27.9603 35.9266Z" fill="white"/>
<path d="M58.3408 90.4677C57.1982 94.6962 56.0654 98.9247 54.9228 103.143C54.7568 103.749 54.6005 104.345 54.4345 104.95C54.2001 105.809 54.7275 106.845 55.6259 107.05C56.5243 107.255 57.4814 106.776 57.7255 105.858C58.8681 101.63 60.0009 97.4012 61.1435 93.1825C61.3095 92.577 61.4658 91.9813 61.6318 91.3759C61.8661 90.5165 61.3388 89.4813 60.4404 89.2762C59.5419 89.0712 58.5947 89.5497 58.3408 90.4677Z" fill="white"/>
</g>
<defs>
<filter id="filter0_d_1971_8944" x="16.25" y="23.5" width="116.957" height="102.619" filterUnits="userSpaceOnUse" color-interpolation-filters="sRGB">
<feFlood flood-opacity="0" result="BackgroundImageFix"/>
<feColorMatrix in="SourceAlpha" type="matrix" values="0 0 0 0 0 0 0 0 0 0 0 0 0 0 0 0 0 0 127 0" result="hardAlpha"/>
<feOffset dx="4" dy="5"/>
<feGaussianBlur stdDeviation="7"/>
<feComposite in2="hardAlpha" operator="out"/>
<feColorMatrix type="matrix" values="0 0 0 0 0.8625 0 0 0 0 0.3128 0 0 0 0 0.00359374 0 0 0 0.3 0"/>
<feBlend mode="normal" in2="BackgroundImageFix" result="effect1_dropShadow_1971_8944"/>
<feBlend mode="normal" in="SourceGraphic" in2="effect1_dropShadow_1971_8944" result="shape"/>
</filter>
</defs>
</svg>
