<svg width="28" height="32" viewBox="0 0 28 32" fill="none" xmlns="http://www.w3.org/2000/svg">
<path fill-rule="evenodd" clip-rule="evenodd" d="M14 0C12.62 0 10.314 0.53 8.14401 1.12C5.92401 1.72 3.68601 2.43 2.37001 2.86C1.81979 3.0417 1.33199 3.37493 0.962645 3.8214C0.593297 4.26787 0.357385 4.80948 0.282011 5.384C-0.909989 14.338 1.85601 20.974 5.21201 25.364C6.63517 27.2419 8.33207 28.8957 10.246 30.27C11.018 30.816 11.734 31.234 12.342 31.52C12.902 31.784 13.504 32 14 32C14.496 32 15.096 31.784 15.658 31.52C16.391 31.1637 17.0922 30.7456 17.754 30.27C19.668 28.8957 21.3649 27.242 22.788 25.364C26.144 20.974 28.91 14.338 27.718 5.384C27.6428 4.8092 27.4069 4.26728 27.0376 3.82047C26.6682 3.37365 26.1804 3.04006 25.63 2.858C23.7196 2.23163 21.7944 1.65146 19.856 1.118C17.686 0.532 15.38 0 14 0ZM14 10C14.7085 9.99894 15.3945 10.2487 15.9365 10.7049C16.4785 11.1612 16.8415 11.7945 16.9613 12.4928C17.0811 13.1911 16.9499 13.9092 16.5909 14.52C16.2319 15.1308 15.6683 15.5949 15 15.83L15.77 19.81C15.798 19.9548 15.7937 20.1039 15.7573 20.2468C15.7209 20.3897 15.6534 20.5228 15.5595 20.6365C15.4657 20.7502 15.3478 20.8418 15.2145 20.9046C15.0811 20.9675 14.9355 21 14.788 21H13.212C13.0647 20.9997 12.9193 20.9669 12.7862 20.904C12.6531 20.841 12.5355 20.7494 12.4419 20.6357C12.3482 20.522 12.2809 20.3891 12.2446 20.2463C12.2083 20.1036 12.204 19.9546 12.232 19.81L13 15.83C12.3317 15.5949 11.7681 15.1308 11.4091 14.52C11.0502 13.9092 10.9189 13.1911 11.0387 12.4928C11.1585 11.7945 11.5215 11.1612 12.0635 10.7049C12.6055 10.2487 13.2915 9.99894 14 10Z" fill="#B69D86"/>
</svg>
