<svg width="28" height="32" viewBox="0 0 28 32" fill="none" xmlns="http://www.w3.org/2000/svg">
<path fill-rule="evenodd" clip-rule="evenodd" d="M14 0C12.62 0 10.314 0.53 8.14401 1.12C5.92401 1.72 3.68601 2.43 2.37001 2.86C1.81979 3.0417 1.33199 3.37493 0.962645 3.8214C0.593297 4.26787 0.357385 4.80948 0.282011 5.384C-0.909989 14.338 1.85601 20.974 5.21201 25.364C6.63517 27.2419 8.33207 28.8957 10.246 30.27C11.018 30.816 11.734 31.234 12.342 31.52C12.902 31.784 13.504 32 14 32C14.496 32 15.096 31.784 15.658 31.52C16.391 31.1637 17.0922 30.7456 17.754 30.27C19.668 28.8957 21.3649 27.242 22.788 25.364C26.144 20.974 28.91 14.338 27.718 5.384C27.6428 4.8092 27.4069 4.26728 27.0376 3.82047C26.6682 3.37365 26.1804 3.04006 25.63 2.858C23.7196 2.23163 21.7944 1.65146 19.856 1.118C17.686 0.532 15.38 0 14 0ZM18.292 10.292C18.4798 10.1042 18.7345 9.99874 19 9.99874C19.2656 9.99874 19.5202 10.1042 19.708 10.292C19.8958 10.4798 20.0013 10.7344 20.0013 11C20.0013 11.2656 19.8958 11.5202 19.708 11.708L13.708 17.708C13.6151 17.8011 13.5048 17.875 13.3833 17.9254C13.2618 17.9758 13.1315 18.0018 13 18.0018C12.8685 18.0018 12.7382 17.9758 12.6167 17.9254C12.4953 17.875 12.3849 17.8011 12.292 17.708L9.29201 14.708C9.19903 14.615 9.12528 14.5046 9.07496 14.3832C9.02465 14.2617 8.99875 14.1315 8.99875 14C8.99875 13.8685 9.02465 13.7383 9.07496 13.6168C9.12528 13.4954 9.19903 13.385 9.29201 13.292C9.38499 13.199 9.49536 13.1253 9.61684 13.075C9.73832 13.0246 9.86852 12.9987 10 12.9987C10.1315 12.9987 10.2617 13.0246 10.3832 13.075C10.5047 13.1253 10.615 13.199 10.708 13.292L13 15.586L18.292 10.292Z" fill="#B69D86"/>
</svg>
