<svg width="24" height="24" viewBox="0 0 24 24" fill="none" xmlns="http://www.w3.org/2000/svg">
<path d="M1.01053 2.00004C0.454737 2.00004 0 2.45004 0 3.00004C0 3.55004 0.454737 4.00004 1.01053 4.00004H3.25288L5.90552 14.5C6.12985 15.39 6.93625 16 7.86291 16H19.4526C20.3641 16 21.1382 15.402 21.3787 14.531L24 5.00003H7.07368L7.57895 7.00003H21.3787L19.4526 14H7.86291L5.21027 3.50004C5.10098 3.06935 4.84878 2.68742 4.49405 2.41545C4.13933 2.14348 3.70262 1.99719 3.25389 2.00004H1.01053ZM18.1895 16C16.5272 16 15.1579 17.355 15.1579 19C15.1579 20.645 16.5272 22 18.1895 22C19.8518 22 21.2211 20.645 21.2211 19C21.2211 17.355 19.8518 16 18.1895 16ZM9.09474 16C7.43242 16 6.06316 17.355 6.06316 19C6.06316 20.645 7.43242 22 9.09474 22C10.7571 22 12.1263 20.645 12.1263 19C12.1263 17.355 10.7571 16 9.09474 16ZM9.09474 18C9.66366 18 10.1053 18.438 10.1053 19C10.1053 19.563 9.66265 20 9.09474 20C8.52581 20 8.08421 19.562 8.08421 19C8.08421 18.437 8.52682 18 9.09474 18ZM18.1895 18C18.7584 18 19.2 18.438 19.2 19C19.2 19.563 18.7574 20 18.1895 20C17.6205 20 17.1789 19.562 17.1789 19C17.1789 18.437 17.6216 18 18.1895 18Z" fill="#664B42"/>
</svg>
