<svg width="28" height="25" viewBox="0 0 28 25" fill="none" xmlns="http://www.w3.org/2000/svg">
<path d="M1.17895 0.750048C0.530526 0.750048 0 1.28161 0 1.9313C0 2.58098 0.530526 3.11254 1.17895 3.11254H3.79503L6.88977 15.5156C7.15149 16.567 8.09229 17.2875 9.17339 17.2875H22.6947C23.7581 17.2875 24.6612 16.5811 24.9418 15.5523L28 4.29379H8.25263L8.8421 6.65629H24.9418L22.6947 14.925H9.17339L6.07865 2.52192C5.95115 2.01317 5.6569 1.56202 5.24306 1.24075C4.82922 0.919481 4.31973 0.746686 3.79621 0.750048H1.17895ZM21.2211 17.2875C19.2817 17.2875 17.6842 18.8881 17.6842 20.8313C17.6842 22.7744 19.2817 24.375 21.2211 24.375C23.1604 24.375 24.7579 22.7744 24.7579 20.8313C24.7579 18.8881 23.1604 17.2875 21.2211 17.2875ZM10.6105 17.2875C8.67116 17.2875 7.07368 18.8881 7.07368 20.8313C7.07368 22.7744 8.67116 24.375 10.6105 24.375C12.5499 24.375 14.1474 22.7744 14.1474 20.8313C14.1474 18.8881 12.5499 17.2875 10.6105 17.2875ZM10.6105 19.65C11.2743 19.65 11.7895 20.1674 11.7895 20.8313C11.7895 21.4963 11.2731 22.0125 10.6105 22.0125C9.94678 22.0125 9.43158 21.4951 9.43158 20.8313C9.43158 20.1662 9.94796 19.65 10.6105 19.65ZM21.2211 19.65C21.8848 19.65 22.4 20.1674 22.4 20.8313C22.4 21.4963 21.8836 22.0125 21.2211 22.0125C20.5573 22.0125 20.0421 21.4951 20.0421 20.8313C20.0421 20.1662 20.5585 19.65 21.2211 19.65Z" fill="#A28276"/>
</svg>
