<svg width="23" height="23" viewBox="0 0 23 23" fill="none" xmlns="http://www.w3.org/2000/svg">
<path d="M0.67172 0.671842C1.08194 0.261749 1.63824 0.0313721 2.21828 0.0313721C2.79833 0.0313721 3.35463 0.261749 3.76485 0.671842L11.4998 8.40684L19.2348 0.671842C19.6474 0.273371 20.2 0.0528839 20.7735 0.0578679C21.3471 0.0628519 21.8957 0.292909 22.3013 0.698489C22.7069 1.10407 22.937 1.65272 22.9419 2.22628C22.9469 2.79983 22.7264 3.3524 22.328 3.76497L14.593 11.5L22.328 19.235C22.7264 19.6475 22.9469 20.2001 22.9419 20.7737C22.937 21.3472 22.7069 21.8959 22.3013 22.3014C21.8957 22.707 21.3471 22.9371 20.7735 22.9421C20.2 22.9471 19.6474 22.7266 19.2348 22.3281L11.4998 14.5931L3.76485 22.3281C3.35228 22.7266 2.79971 22.9471 2.22616 22.9421C1.6526 22.9371 1.10395 22.707 0.698367 22.3014C0.292787 21.8959 0.0627299 21.3472 0.0577458 20.7737C0.0527618 20.2001 0.273249 19.6475 0.67172 19.235L8.40672 11.5L0.67172 3.76497C0.261627 3.35475 0.03125 2.79845 0.03125 2.2184C0.03125 1.63836 0.261627 1.08206 0.67172 0.671842Z" fill="#B69D86"/>
</svg>
