<svg width="19" height="25" viewBox="0 0 19 25" fill="none" xmlns="http://www.w3.org/2000/svg">
<path fill-rule="evenodd" clip-rule="evenodd" d="M0 2.42593C0 2.19069 0.196306 2 0.438462 2H3.5V2.85185H0.876923V23.4383C0.876923 23.6265 0.953915 23.8071 1.09096 23.9402C1.22801 24.0734 1.41388 24.1481 1.60769 24.1481H17.3923C17.5861 24.1481 17.772 24.0734 17.909 23.9402C18.0461 23.8071 18.1231 23.6265 18.1231 23.4383V2.85185H9.75V2H18.5615C18.8037 2 19 2.19069 19 2.42593V23.4383C19 23.8525 18.8306 24.2497 18.5291 24.5426C18.2276 24.8355 17.8187 25 17.3923 25H1.60769C1.18131 25 0.772384 24.8355 0.470882 24.5426C0.169381 24.2497 0 23.8525 0 23.4383V2.42593Z" fill="#664B42"/>
<path fill-rule="evenodd" clip-rule="evenodd" d="M3.54786 1.58444C3.68248 1.44824 3.86506 1.37169 4.05546 1.37162H8.75001C8.7881 1.37162 8.82463 1.38693 8.85156 1.41417C8.87849 1.44141 8.89362 1.47836 8.89362 1.51689V14.9918L6.75679 12.8303C6.67599 12.7486 6.56641 12.7027 6.45214 12.7027C6.33787 12.7027 6.22828 12.7486 6.14748 12.8303L4.01065 14.9918V2.09797C4.01065 1.85728 3.81775 1.66216 3.5798 1.66216H3.47103L3.54786 1.58444ZM9.46087 0.797841C9.64941 0.988546 9.75532 1.2472 9.75532 1.51689V4.85811V5.72973V8.92568V9.7973V12.9932V13.8649V16.0439C9.75532 16.2202 9.65035 16.3791 9.48935 16.4466C9.32836 16.514 9.14304 16.4767 9.01982 16.3521L6.45214 13.7548L3.88446 16.3521C3.76123 16.4767 3.57592 16.514 3.41492 16.4466C3.25392 16.3791 3.14895 16.2202 3.14895 16.0439V2.53378H2.43086C2.2566 2.53378 2.0995 2.4276 2.03281 2.26475C1.96612 2.1019 2.00298 1.91445 2.12621 1.78981L2.9385 0.96816C3.2347 0.66849 3.63653 0.500091 4.05546 0.5H8.75001C9.01663 0.5 9.27234 0.607136 9.46087 0.797841ZM4.05546 1.37162C3.86506 1.37169 3.68248 1.44824 3.54786 1.58444L3.47103 1.66216H3.5798C3.81775 1.66216 4.01065 1.85728 4.01065 2.09797V14.9918L6.14748 12.8303C6.22828 12.7486 6.33787 12.7027 6.45214 12.7027C6.56641 12.7027 6.67599 12.7486 6.75679 12.8303L8.89362 14.9918V1.51689C8.89362 1.47836 8.87849 1.44141 8.85156 1.41417C8.82463 1.38693 8.7881 1.37162 8.75001 1.37162H4.05546C4.05549 1.37162 4.05543 1.37162 4.05546 1.37162ZM9.75532 4.85811V1.51689C9.75532 1.2472 9.64941 0.988546 9.46087 0.797841C9.27234 0.607136 9.01663 0.5 8.75001 0.5H4.05546C3.63653 0.500091 3.2347 0.66849 2.9385 0.96816C2.93852 0.968144 2.93849 0.968175 2.9385 0.96816L2.12621 1.78981C2.00298 1.91445 1.96612 2.1019 2.03281 2.26475C2.0995 2.4276 2.2566 2.53378 2.43086 2.53378H3.14895V16.0439C3.14895 16.2202 3.25392 16.3791 3.41492 16.4466C3.57592 16.514 3.76123 16.4767 3.88446 16.3521L6.45214 13.7548L9.01982 16.3521C9.14304 16.4767 9.32836 16.514 9.48935 16.4466C9.65035 16.3791 9.75532 16.2202 9.75532 16.0439V13.8649H15.0691C15.3071 13.8649 15.5 13.6697 15.5 13.4291C15.5 13.1884 15.3071 12.9932 15.0691 12.9932H9.75532V9.7973H15.0691C15.3071 9.7973 15.5 9.60218 15.5 9.36149C15.5 9.12079 15.3071 8.92568 15.0691 8.92568H9.75532V5.72973H15.0691C15.3071 5.72973 15.5 5.53461 15.5 5.29392C15.5 5.05323 15.3071 4.85811 15.0691 4.85811H9.75532ZM3.14895 17.4966C3.14895 17.2559 3.34185 17.0608 3.5798 17.0608H15.0691C15.3071 17.0608 15.5 17.2559 15.5 17.4966C15.5 17.7373 15.3071 17.9324 15.0691 17.9324H3.5798C3.34185 17.9324 3.14895 17.7373 3.14895 17.4966ZM3.14895 21.5642C3.14895 21.3235 3.34185 21.1284 3.5798 21.1284H15.0691C15.3071 21.1284 15.5 21.3235 15.5 21.5642C15.5 21.8049 15.3071 22 15.0691 22H3.5798C3.34185 22 3.14895 21.8049 3.14895 21.5642Z" fill="#664B42"/>
<path fill-rule="evenodd" clip-rule="evenodd" d="M3.5967 1.58582C3.73556 1.44944 3.9239 1.37279 4.12031 1.37273H8.96296C9.00226 1.37273 9.03994 1.38805 9.06772 1.41533C9.0955 1.44261 9.11111 1.4796 9.11111 1.51818V15.0101L6.90687 12.846C6.82352 12.7641 6.71047 12.7182 6.5926 12.7182C6.47472 12.7182 6.36168 12.7641 6.27833 12.846L4.07408 15.0101V2.1C4.07408 1.859 3.8751 1.66364 3.62964 1.66364H3.51744L3.5967 1.58582ZM9.69626 0.798218C9.89074 0.989165 10 1.24814 10 1.51818V4.86363V5.73636V8.93636V9.80908V13.0091V13.8818V16.0636C10 16.2401 9.89171 16.3992 9.72564 16.4668C9.55956 16.5343 9.3684 16.497 9.24129 16.3722L6.5926 13.7716L3.94391 16.3722C3.8168 16.497 3.62564 16.5343 3.45956 16.4668C3.29348 16.3992 3.1852 16.2401 3.1852 16.0636V2.53636H2.44446C2.2647 2.53636 2.10264 2.43005 2.03384 2.26699C1.96505 2.10393 2.00308 1.91624 2.13019 1.79144L2.96811 0.968753C3.27365 0.668703 3.68816 0.500091 4.12031 0.5H8.96296C9.238 0.5 9.50178 0.607272 9.69626 0.798218Z" fill="#FD9F32"/>
</svg>
