<svg width="33" height="32" viewBox="0 0 33 32" fill="none" xmlns="http://www.w3.org/2000/svg">
<path d="M7.5 28.5C7.43298 28.4999 7.36666 28.4863 7.305 28.46C7.21463 28.4217 7.13752 28.3577 7.08328 28.2759C7.02904 28.1941 7.00008 28.0981 7 28V23.5H5C4.33696 23.5 3.70107 23.2366 3.23223 22.7678C2.76339 22.2989 2.5 21.663 2.5 21V9C2.5 8.33696 2.76339 7.70107 3.23223 7.23223C3.70107 6.76339 4.33696 6.5 5 6.5H25C25.663 6.5 26.2989 6.76339 26.7678 7.23223C27.2366 7.70107 27.5 8.33696 27.5 9V21C27.5 21.663 27.2366 22.2989 26.7678 22.7678C26.2989 23.2366 25.663 23.5 25 23.5H12.92L7.845 28.36C7.75231 28.4493 7.62873 28.4995 7.5 28.5ZM5 7.5C4.60218 7.5 4.22064 7.65804 3.93934 7.93934C3.65804 8.22064 3.5 8.60218 3.5 9V21C3.5 21.3978 3.65804 21.7794 3.93934 22.0607C4.22064 22.342 4.60218 22.5 5 22.5H7.5C7.63261 22.5 7.75979 22.5527 7.85355 22.6464C7.94732 22.7402 8 22.8674 8 23V26.83L12.375 22.64C12.4677 22.5507 12.5913 22.5005 12.72 22.5H25C25.3978 22.5 25.7794 22.342 26.0607 22.0607C26.342 21.7794 26.5 21.3978 26.5 21V9C26.5 8.60218 26.342 8.22064 26.0607 7.93934C25.7794 7.65804 25.3978 7.5 25 7.5H5ZM30.5 18V6C30.5 5.33696 30.2366 4.70107 29.7678 4.23223C29.2989 3.76339 28.663 3.5 28 3.5H8C7.33696 3.5 6.70107 3.76339 6.23223 4.23223C5.76339 4.70107 5.5 5.33696 5.5 6H6.5C6.5 5.60218 6.65804 5.22064 6.93934 4.93934C7.22064 4.65804 7.60218 4.5 8 4.5H28C28.3978 4.5 28.7794 4.65804 29.0607 4.93934C29.342 5.22064 29.5 5.60218 29.5 6V18C29.5 18.3978 29.342 18.7794 29.0607 19.0607C28.7794 19.342 28.3978 19.5 28 19.5V20.5C28.3283 20.5 28.6534 20.4353 28.9567 20.3097C29.26 20.1841 29.5356 19.9999 29.7678 19.7678C29.9999 19.5356 30.1841 19.26 30.3097 18.9567C30.4353 18.6534 30.5 18.3283 30.5 18Z" fill="#A28276"/>
<path d="M15.5 15.96C16.0639 15.8647 16.5888 15.6102 17.0128 15.2265C17.4369 14.8428 17.7424 14.3459 17.8935 13.7943C18.0445 13.2427 18.0348 12.6594 17.8653 12.1132C17.6959 11.567 17.3739 11.0806 16.9372 10.7113C16.5006 10.342 15.9675 10.1052 15.4007 10.0288C14.8339 9.95245 14.2571 10.0397 13.7383 10.2802C13.2194 10.5207 12.7802 10.9045 12.4722 11.3864C12.1642 11.8682 12.0004 12.4281 12 13H13C13 12.6044 13.1173 12.2178 13.3371 11.8889C13.5568 11.56 13.8692 11.3036 14.2346 11.1522C14.6001 11.0009 15.0022 10.9613 15.3902 11.0384C15.7781 11.1156 16.1345 11.3061 16.4142 11.5858C16.6939 11.8655 16.8844 12.2219 16.9616 12.6098C17.0387 12.9978 16.9991 13.3999 16.8478 13.7654C16.6964 14.1308 16.44 14.4432 16.1111 14.6629C15.7822 14.8827 15.3956 15 15 15C14.8674 15 14.7402 15.0527 14.6464 15.1464C14.5527 15.2402 14.5 15.3674 14.5 15.5V18H15.5V15.96ZM15.5 19H14.5V20H15.5V19Z" fill="#FD9F32"/>
</svg>
