<svg width="30" height="30" viewBox="0 0 30 30" fill="none" xmlns="http://www.w3.org/2000/svg">
<path d="M26.2519 14.9299C26.2628 16.4205 25.9761 17.8982 25.4087 19.2766C24.8412 20.655 24.0044 21.9063 22.9472 22.9572C18.623 27.2814 11.5449 27.3283 7.16208 23.0627C5.55413 21.498 4.45076 19.4883 3.99371 17.2917C3.53667 15.0952 3.74684 12.8121 4.59723 10.736C5.44761 8.65976 6.89935 6.88526 8.76594 5.64044C10.6325 4.39561 12.8287 3.73734 15.0722 3.75018C15.2126 3.75225 15.3508 3.78544 15.4768 3.84734C15.6028 3.90925 15.7135 3.99833 15.8009 4.10818C15.8884 4.21802 15.9503 4.3459 15.9824 4.48258C16.0144 4.61927 16.0158 4.76136 15.9863 4.89862C15.8642 5.44307 15.8651 6.00791 15.989 6.55195C16.1129 7.09599 16.3567 7.60553 16.7025 8.04342C17.0483 8.48131 17.4875 8.8365 17.988 9.08311C18.4885 9.32973 19.0377 9.46154 19.5957 9.46894C19.8443 9.46894 20.0828 9.56771 20.2586 9.74352C20.4344 9.91934 20.5332 10.1578 20.5332 10.4064C20.5406 10.9644 20.6724 11.5136 20.919 12.0141C21.1656 12.5146 21.5208 12.9538 21.9587 13.2996C22.3966 13.6454 22.9061 13.8892 23.4502 14.0131C23.9942 14.137 24.559 14.1379 25.1035 14.0158C25.2407 13.9863 25.3828 13.9877 25.5195 14.0197C25.6562 14.0518 25.7841 14.1137 25.8939 14.2012C26.0038 14.2886 26.0929 14.3993 26.1548 14.5253C26.2167 14.6513 26.2499 14.7895 26.2519 14.9299V14.9299Z" stroke="#A28276" stroke-linecap="round" stroke-linejoin="round"/>
<path d="M18.375 19.75C18.375 20.0261 18.1511 20.25 17.875 20.25C17.5989 20.25 17.375 20.0261 17.375 19.75C17.375 19.4739 17.5989 19.25 17.875 19.25C18.1511 19.25 18.375 19.4739 18.375 19.75Z" stroke="#A28276"/>
<path d="M10.875 18.8125C10.875 19.0886 10.6511 19.3125 10.375 19.3125C10.0989 19.3125 9.875 19.0886 9.875 18.8125C9.875 18.5364 10.0989 18.3125 10.375 18.3125C10.6511 18.3125 10.875 18.5364 10.875 18.8125Z" stroke="#A28276"/>
<path d="M9.9375 12.25C9.9375 12.5261 9.71364 12.75 9.4375 12.75C9.16136 12.75 8.9375 12.5261 8.9375 12.25C8.9375 11.9739 9.16136 11.75 9.4375 11.75C9.71364 11.75 9.9375 11.9739 9.9375 12.25Z" stroke="#A28276"/>
<path d="M16.0312 14.125C16.0312 14.4011 15.8074 14.625 15.5312 14.625C15.2551 14.625 15.0312 14.4011 15.0312 14.125C15.0312 13.8489 15.2551 13.625 15.5312 13.625C15.8074 13.625 16.0312 13.8489 16.0312 14.125Z" stroke="#A28276"/>
</svg>
