<svg width="30" height="30" viewBox="0 0 30 30" fill="none" xmlns="http://www.w3.org/2000/svg">
<path d="M4.37508 18.125C4.37508 18.125 4.34782 20.4673 5.28532 23.2798C5.83048 24.9152 6.48133 25.9166 7.29927 26.407C8.34746 27.0353 9.4224 25.7947 10.0363 24.7381C10.6377 23.7029 12.3036 21.2673 13 20.5" stroke="#A28276" stroke-linecap="round" stroke-linejoin="round"/>
<path d="M20.625 4.94434C22.2642 5.21871 24.0821 5.57255 24.7661 5.88633C25.6572 6.29516 26.5535 7.12816 26.9107 8.01854C27.2426 8.84604 26.3812 9.48104 25.6024 9.91504C24.7245 10.4042 23.8094 11.1711 23.0616 11.8745" stroke="#A28276" stroke-linecap="round" stroke-linejoin="round"/>
<path d="M15.1262 18.6101L13.5625 19.6961C13.2765 19.8947 13.0522 20.1697 12.915 20.4897C12.5125 21.4287 11.427 21.8662 10.4858 21.4686L5.50174 19.3627C4.58152 18.9739 4.13605 17.9249 4.49535 16.9927L4.77697 16.2622C5.32683 14.8357 5.69544 13.797 7 13" stroke="#A28276" stroke-linecap="round" stroke-linejoin="round"/>
<path d="M19.1992 15.3171L20.068 14.3771L20.6381 13.7603C20.835 13.5472 21.0746 13.378 21.3413 13.2637C22.3436 12.8342 22.8394 11.6995 22.4736 10.6722L20.6909 5.66593C20.3936 4.83099 19.5186 4.35064 18.6546 4.54811L17.8929 4.7222C16.2337 5.10139 14.9588 5.59346 14 6.99963" stroke="#A28276" stroke-linecap="round" stroke-linejoin="round"/>
<path d="M8.37917 14.424C7.35648 13.6935 7.07923 12.2908 7.74323 11.2237C8.71167 9.6674 10.0297 8.3524 11.5894 7.38946C12.6348 6.74403 13.9998 7.00246 14.7369 7.98528L18.4444 12.9286C19.2934 14.0606 19.0345 15.6709 17.8735 16.4798L17.7235 16.5843C17.5355 16.7154 17.3663 16.8717 17.2208 17.0488L16.7936 17.5689C15.9587 18.5853 14.479 18.781 13.4087 18.0165L8.37917 14.424Z" stroke="#A28276"/>
</svg>
