<svg width="30" height="30" viewBox="0 0 30 30" fill="none" xmlns="http://www.w3.org/2000/svg">
<path d="M26.4889 10.3H25.4667C25.4667 8.2735 23.8618 6.625 21.8889 6.625H20.445L19.8087 4.98963C19.5736 4.3885 19.0164 4 18.3852 4H12.6148C11.9836 4 11.4264 4.3885 11.1913 4.98963L10.555 6.625H9.11111C7.13822 6.625 5.53333 8.2735 5.53333 10.3H4.51111C4.23 10.3 4 10.5362 4 10.825C4 11.1137 4.23 11.35 4.51111 11.35H5.53333V21.85C5.53333 23.5877 6.90822 25 8.6 25H22.4C24.0918 25 25.4667 23.5877 25.4667 21.85V11.35H26.4889C26.77 11.35 27 11.1137 27 10.825C27 10.5362 26.77 10.3 26.4889 10.3ZM12.1394 5.38075C12.2187 5.18125 12.4027 5.05 12.6148 5.05H18.3852C18.5948 5.05 18.7813 5.17862 18.8606 5.38075L19.3461 6.625H11.6539L12.1394 5.38075ZM9.11111 7.675H10.9H20.1H21.8889C23.297 7.675 24.4444 8.85362 24.4444 10.3H22.4H17.2889H6.55556C6.55556 8.85362 7.703 7.675 9.11111 7.675ZM19.8444 13.7125C19.5633 13.7125 19.3333 13.9487 19.3333 14.2375C19.3333 14.6706 18.9883 15.025 18.5667 15.025C18.145 15.025 17.8 14.6706 17.8 14.2375V11.35H21.8889V16.3375C21.8889 16.7706 21.5439 17.125 21.1222 17.125C20.7006 17.125 20.3556 16.7706 20.3556 16.3375V14.2375C20.3556 13.9487 20.1256 13.7125 19.8444 13.7125ZM24.4444 21.85C24.4444 23.0076 23.527 23.95 22.4 23.95H8.6C7.473 23.95 6.55556 23.0076 6.55556 21.85V11.35H16.7778V14.2375C16.7778 15.2507 17.5802 16.075 18.5667 16.075C18.8401 16.075 19.1008 16.012 19.3333 15.8965V16.3375C19.3333 17.3507 20.1358 18.175 21.1222 18.175C22.1087 18.175 22.9111 17.3507 22.9111 16.3375V11.35H24.4444V21.85Z" fill="#A28276"/>
</svg>
