<svg width="30" height="30" viewBox="0 0 30 30" fill="none" xmlns="http://www.w3.org/2000/svg">
<path fill-rule="evenodd" clip-rule="evenodd" d="M15.0992 2.20101C14.1042 2.59069 13.0392 3.29648 11.948 4.22981C9.76577 6.09651 7.48572 8.8836 5.71225 11.9548C3.93897 15.0262 2.66448 18.395 2.13897 21.2182C1.87623 22.6299 1.79763 23.9043 1.9577 24.9609C2.11776 26.0175 2.5329 26.8994 3.31726 27.3523C4.10162 27.8051 5.02951 27.6521 5.87888 27.1564C6.72826 26.6606 7.58115 25.8317 8.46156 24.7815C9.91937 23.0424 11.4384 20.6738 12.9137 18.1904C13.0347 18.3933 13.1252 18.6111 13.1252 18.7498V26.7186C13.1252 27.4895 13.7605 28.1248 14.5314 28.1248H24.8439C25.6149 28.1248 26.2502 27.4895 26.2502 26.7186V18.7498C26.2502 18.4982 26.5376 17.9782 26.7922 17.7803C27.6152 17.1406 28.125 16.3396 28.1251 15.4686C28.1251 14.1642 27.0488 13.1105 25.5241 12.3924C23.9994 11.6743 21.9502 11.2488 19.6877 11.2498C18.598 11.2503 17.5595 11.3509 16.6034 11.5336C17.2344 10.2636 17.7869 9.04106 18.1945 7.92281C18.6638 6.63524 18.9553 5.4831 18.9599 4.49966C18.9645 3.51623 18.6328 2.63624 17.8484 2.18338C17.0024 1.68416 15.9458 1.86607 15.0991 2.20078L15.0992 2.20101ZM17.3798 2.99479C17.8279 3.2535 18.0263 3.70012 18.0225 4.49535C18.0188 5.29059 17.7632 6.36909 17.3139 7.60176C16.851 8.87165 16.1704 10.3176 15.395 11.8251C14.8389 11.9863 14.3181 12.1748 13.8514 12.3945C12.3269 13.1124 11.2504 14.1656 11.2504 15.4689C11.2506 16.2112 11.623 16.9017 12.2419 17.4858C10.7339 20.0343 9.18137 22.4644 7.74311 24.18C6.90025 25.1854 6.09353 25.9453 5.40672 26.3461C4.71991 26.747 4.23433 26.7989 3.78625 26.5402C3.33816 26.2815 3.02139 25.7187 2.88536 24.8208C2.74935 23.923 2.81118 22.7324 3.06114 21.3895C3.30674 20.0699 3.7338 18.6024 4.30623 17.0975L6.38172 18.2959C7.04936 18.6814 7.91702 18.4481 8.30247 17.7805C8.68794 17.1128 8.45561 16.2452 7.78797 15.8597L5.43053 14.4983C5.70193 13.9375 5.99275 13.3821 6.29842 12.8338L8.72547 14.2355C9.39311 14.621 10.2608 14.3886 10.6462 13.7209C11.0317 13.0533 10.7994 12.1856 10.1317 11.8001L7.77334 10.4388C8.13053 9.91268 8.50056 9.40366 8.87837 8.91072L11.0692 10.176C11.7369 10.5615 12.6045 10.3291 12.99 9.66143C13.3754 8.99374 13.1431 8.12613 12.4755 7.74063L10.7186 6.72621C11.334 6.0648 11.952 5.45932 12.5569 4.94186C13.595 4.05391 14.5953 3.4053 15.4408 3.07418C16.1228 2.78857 16.8919 2.69595 17.3799 2.99453L17.3798 2.99479ZM10.0757 7.43784L12.0066 8.55295C12.2385 8.68684 12.3117 8.96098 12.1778 9.19288C12.0439 9.4248 11.7697 9.4989 11.5378 9.365L9.46147 8.1666C9.6648 7.91703 9.86978 7.67502 10.0758 7.43783L10.0757 7.43784ZM7.25505 11.2226L9.66287 12.6124C9.89479 12.7463 9.96797 13.0204 9.83408 13.2523C9.70018 13.4842 9.42604 13.5583 9.19414 13.4244L6.7662 12.0228C6.92667 11.7542 7.08714 11.4859 7.25511 11.2226L7.25505 11.2226ZM19.6877 12.1876C21.8309 12.1866 23.7658 12.6008 25.1243 13.2404C26.4827 13.8801 27.1878 14.7021 27.1878 15.4688C27.1877 15.9745 26.8925 16.5154 26.2165 17.0408C25.7173 17.4288 25.3129 18.0461 25.3129 18.7501V26.7188C25.3129 26.9866 25.1119 27.1876 24.8441 27.1876H14.5316C14.2639 27.1876 14.0629 26.9866 14.0629 26.7188V18.7501C14.0629 18.0461 13.6585 17.4288 13.1593 17.0408C12.4833 16.5154 12.188 15.9745 12.1879 15.4688C12.1879 14.7039 12.8932 13.8828 14.2515 13.2432C15.6099 12.6036 17.5445 12.1886 19.6881 12.1876H19.6877ZM5.03411 15.3526L7.31922 16.6719C7.55113 16.8058 7.62432 17.0799 7.49042 17.3118C7.35652 17.5437 7.08239 17.6178 6.85048 17.4839L4.65875 16.2187C4.77854 15.9299 4.90422 15.6418 5.03411 15.3526V15.3526Z" fill="#A28276"/>
<path fill-rule="evenodd" clip-rule="evenodd" d="M19.6816 13.127C18.5504 13.1275 17.4716 13.2356 16.4864 13.4318C16.3645 13.4561 16.2573 13.5279 16.1883 13.6312C16.1193 13.7346 16.0941 13.8611 16.1184 13.983C16.1427 14.1049 16.2144 14.2121 16.3178 14.2811C16.4211 14.3501 16.5477 14.3753 16.6695 14.351C17.5906 14.1675 18.6099 14.065 19.6816 14.0645C20.7532 14.064 21.7726 14.1661 22.6946 14.3492C22.8165 14.3734 22.943 14.3483 23.0463 14.2793C23.1497 14.2103 23.2214 14.103 23.2457 13.9811C23.27 13.8593 23.2448 13.7327 23.1758 13.6294C23.1068 13.526 22.9996 13.4543 22.8777 13.43C21.8916 13.2341 20.8128 13.1264 19.6816 13.127H19.6816Z" fill="#A28276"/>
</svg>
