<svg width="24" height="21" viewBox="0 0 24 21" fill="none" xmlns="http://www.w3.org/2000/svg">
<path fill-rule="evenodd" clip-rule="evenodd" d="M8.5 0H23.5V16.5C23.5 18.9853 21.4853 21 19 21H9C8.72386 21 8.5 20.7761 8.5 20.5C8.5 20.2239 8.72386 20 9 20H19C20.933 20 22.5 18.433 22.5 16.5V1H9.5V14C9.5 14.2761 9.27614 14.5 9 14.5C8.72386 14.5 8.5 14.2761 8.5 14V0Z" fill="#664B42"/>
<path fill-rule="evenodd" clip-rule="evenodd" d="M5 13.5H19.5V14.5H6V17.25C6 18.7688 7.23122 20 8.75 20H19C19.2761 20 19.5 20.2239 19.5 20.5C19.5 20.7761 19.2761 21 19 21H8.75C6.67893 21 5 19.3211 5 17.25V13.5Z" fill="#664B42"/>
<path fill-rule="evenodd" clip-rule="evenodd" d="M21.5 10.5C21.7761 10.5 22 10.7239 22 11V16.5C22 17.4665 21.2165 18.25 20.25 18.25C19.2835 18.25 18.5 17.4665 18.5 16.5V14H19.5V16.5C19.5 16.9142 19.8358 17.25 20.25 17.25C20.6642 17.25 21 16.9142 21 16.5V11C21 10.7239 21.2239 10.5 21.5 10.5Z" fill="#664B42"/>
<path d="M0.282261 3.78016C0.360542 4.67775 0.794769 5.48163 1.49349 6.03501L5.90971 9.74543C6.82984 10.5184 7.99591 10.8869 9.19386 10.7824L9.92157 10.7189L8.82366 9.79714C7.99305 9.80333 7.19546 9.51933 6.55264 8.97964L2.12487 5.26043C1.63265 4.87072 1.33261 4.31392 1.27848 3.69327C1.1707 2.45746 2.08868 1.36407 3.32449 1.2563C3.94513 1.20217 4.54476 1.4016 5.02516 1.82848L6.12616 2.75194L6.86628 4.4607L6.76396 3.28741L8.83277 5.02342L9.57404 6.73404L9.4718 5.56173C10.1705 6.16111 10.6004 6.99313 10.6806 7.91188L10.7695 8.93145L5.73686 4.70623L5.09393 5.47202L12.2927 11.5159L12.9357 10.7501L11.8526 9.84079L11.6768 7.825C11.5723 6.62755 11.0081 5.54233 10.087 4.76994L5.67875 1.07254C5.00185 0.470075 4.1352 0.181797 3.2376 0.260078C1.45238 0.415771 0.126568 1.99493 0.282261 3.78016Z" fill="#FD9F32"/>
</svg>

