<svg width="18" height="18" viewBox="0 0 18 18" fill="none" xmlns="http://www.w3.org/2000/svg">
<path d="M17.25 6.9375H15.875C15.8735 5.66159 15.366 4.43836 14.4638 3.53616C13.5616 2.63395 12.3384 2.12646 11.0625 2.125V0.750001C12.7029 0.75182 14.2757 1.4043 15.4357 2.56429C16.5957 3.72427 17.2481 5.29703 17.25 6.9375ZM15.875 17.9375H15.7581C2.24871 17.1606 0.330588 5.76188 0.0624633 2.28313C0.0205576 1.73776 0.196996 1.19809 0.552969 0.782811C0.908942 0.36753 1.41529 0.110656 1.96065 0.0686882C2.01519 0.0645632 2.06996 0.0625006 2.12496 0.0625006H5.74809C6.02347 0.0622341 6.29259 0.144664 6.52059 0.299112C6.74858 0.45356 6.92495 0.672911 7.02684 0.928751L8.07184 3.5C8.17245 3.74994 8.19742 4.02393 8.14364 4.28794C8.08986 4.55195 7.95971 4.79434 7.76934 4.985L6.30496 6.46313C6.53278 7.76341 7.15498 8.96218 8.08719 9.89685C9.01941 10.8315 10.2165 11.4569 11.5162 11.6881L13.0081 10.21C13.2016 10.0217 13.4463 9.89461 13.7116 9.84448C13.9769 9.79436 14.2511 9.82345 14.5 9.92813L17.0918 10.9663C17.3438 11.0714 17.5588 11.2491 17.7094 11.4768C17.86 11.7046 17.9394 11.972 17.9375 12.245V15.875C17.9375 16.422 17.7202 16.9466 17.3334 17.3334C16.9466 17.7202 16.422 17.9375 15.875 17.9375ZM2.12496 1.4375C2.03468 1.43723 1.94523 1.45474 1.86171 1.48904C1.7782 1.52334 1.70225 1.57376 1.63822 1.63741C1.57419 1.70105 1.52332 1.77669 1.48852 1.86C1.45372 1.94331 1.43567 2.03265 1.4354 2.12294C1.4354 2.14219 1.43609 2.16121 1.43746 2.18C1.75371 6.25 3.78184 15.875 15.8337 16.5625C16.0157 16.5734 16.1945 16.5116 16.3309 16.3907C16.4673 16.2697 16.5501 16.0996 16.5611 15.9176L16.5625 15.875V12.245L13.9706 11.2069L11.9975 13.1662L11.6675 13.125C5.68621 12.3756 4.87496 6.39438 4.87496 6.3325L4.83371 6.0025L6.78621 4.02938L5.75496 1.4375H2.12496Z" fill="#664B42"/>
</svg>
