<svg width="27" height="21" viewBox="0 0 27 21" fill="none" xmlns="http://www.w3.org/2000/svg">
<path d="M15.901 12.7605C15.0307 12.7605 14.18 12.5153 13.4563 12.056C12.7327 11.5966 12.1687 10.9438 11.8357 10.1799C11.5026 9.41607 11.4155 8.57555 11.5853 7.76466C11.7551 6.95376 12.1741 6.2089 12.7895 5.62428C13.4049 5.03966 14.189 4.64152 15.0426 4.48023C15.8961 4.31893 16.7809 4.40171 17.5849 4.71811C18.389 5.03451 19.0762 5.5703 19.5597 6.25775C20.0432 6.94519 20.3013 7.75341 20.3013 8.58019C20.3013 9.68887 19.8377 10.7521 19.0125 11.5361C18.1873 12.3201 17.0681 12.7605 15.901 12.7605ZM15.901 5.79333C15.3208 5.79333 14.7537 5.95678 14.2712 6.263C13.7888 6.56923 13.4128 7.00447 13.1908 7.5137C12.9688 8.02294 12.9107 8.58328 13.0239 9.12388C13.137 9.66447 13.4164 10.161 13.8267 10.5508C14.237 10.9405 14.7597 11.206 15.3287 11.3135C15.8978 11.421 16.4876 11.3658 17.0236 11.1549C17.5597 10.944 18.0178 10.5868 18.3402 10.1285C18.6625 9.67019 18.8346 9.13138 18.8346 8.58019C18.8346 7.84107 18.5255 7.13222 17.9753 6.60958C17.4252 6.08695 16.679 5.79333 15.901 5.79333Z" fill="#664B42"/>
<path fill-rule="evenodd" clip-rule="evenodd" d="M1.38005 18.1791L4.4374 14.2535L6.01162 16.1443L8.24781 13.2641L11.9408 18.188V12.321H1.38005V18.1791ZM0.737379 19.3615C0.696625 19.2914 0.660564 19.2183 0.629636 19.1427C0.546088 18.9382 0.499989 18.7149 0.499989 18.4814V11.4409H12.8208V20.2415H2.26011C1.61205 20.2415 1.04286 19.8866 0.737379 19.3615ZM6.03557 17.5485L4.46026 15.6564L2.26011 18.4814H11.0607L8.23571 14.7147L6.03557 17.5485Z" fill="#FD9F32"/>
<path fill-rule="evenodd" clip-rule="evenodd" d="M12.8209 15.8411H25.2989C25.4906 15.8411 25.6745 15.765 25.81 15.6301C25.9456 15.4952 26.0218 15.3121 26.0218 15.1209V2.88039C26.0218 2.68917 25.9456 2.50611 25.81 2.37118C25.6745 2.23582 25.4906 2.16019 25.2989 2.16019H20.6289L19.3928 0.324006C19.3272 0.225172 19.2382 0.143525 19.1335 0.0872325C19.0289 0.0305099 18.9118 0.000429717 18.7928 0H13.0094C12.8904 0.000429717 12.7733 0.0305099 12.6687 0.0872325C12.564 0.143525 12.475 0.225172 12.4094 0.324006L11.1732 2.16019H6.50329C6.39167 2.16019 6.28274 2.18554 6.18444 2.23367C6.11386 2.26847 6.04876 2.31445 5.99214 2.37118C5.85657 2.50611 5.7804 2.68917 5.7804 2.88039V11.4408H7.22618V3.60017H11.5636C11.6827 3.59974 11.7998 3.56966 11.9045 3.51336C12.0091 3.45664 12.0982 3.37543 12.1636 3.27616L13.3998 1.43998H18.4024L19.6386 3.27616C19.704 3.37543 19.793 3.45664 19.8977 3.51336C19.9742 3.55462 20.0572 3.58169 20.1429 3.59372C20.1745 3.59802 20.2064 3.60017 20.2385 3.60017H24.576V14.4011H12.8209V15.8411Z" fill="#664B42"/>
</svg>
