<svg width="33" height="32" viewBox="0 0 33 32" fill="none" xmlns="http://www.w3.org/2000/svg">
<path d="M23.9057 29.6687H1.87145C1.59716 29.6687 1.41431 29.4858 1.41431 29.2115V2.78869C1.41431 2.5144 1.59716 2.33154 1.87145 2.33154H23.9057C24.18 2.33154 24.3629 2.5144 24.3629 2.78869V15.2687C24.3629 15.543 24.18 15.7258 23.9057 15.7258C23.6315 15.7258 23.4486 15.543 23.4486 15.2687V3.24583H2.32859V28.7544H23.4486V24.9601C23.4486 24.6858 23.6315 24.503 23.9057 24.503C24.18 24.503 24.3629 24.6858 24.3629 24.9601V29.2115C24.3629 29.4401 24.1343 29.6687 23.9057 29.6687Z" fill="#A28276"/>
<path d="M7.49435 8.73147C6.35149 8.73147 5.43721 7.81719 5.43721 6.67433C5.43721 5.53147 6.35149 4.61719 7.49435 4.61719C8.63721 4.61719 9.55149 5.53147 9.55149 6.67433C9.55149 7.81719 8.63721 8.73147 7.49435 8.73147ZM7.49435 5.48576C6.85435 5.48576 6.35149 5.98862 6.35149 6.62862C6.35149 7.26862 6.85435 7.77147 7.49435 7.77147C8.13435 7.77147 8.63721 7.26862 8.63721 6.62862C8.63721 6.03433 8.13435 5.48576 7.49435 5.48576ZM11.2886 13.5315H3.70006C3.42578 13.5315 3.24292 13.3486 3.24292 13.0743C3.24292 11.2458 4.38578 9.64576 6.12292 9.05147C6.30578 9.00576 6.53435 9.05147 6.62578 9.23433C6.80863 9.50862 7.12863 9.64576 7.44863 9.64576C7.76863 9.64576 8.08863 9.50862 8.31721 9.23433C8.45435 9.05147 8.63721 9.00576 8.82006 9.05147C10.5572 9.64576 11.7001 11.2458 11.7001 13.0743C11.7458 13.3029 11.5629 13.5315 11.2886 13.5315ZM4.20292 12.6172H10.8315C10.6943 11.4743 9.91721 10.4686 8.86578 10.0115C8.50006 10.3772 8.04292 10.56 7.49435 10.56C6.99149 10.56 6.48863 10.3772 6.16863 10.0115C5.07149 10.4686 4.34006 11.4743 4.20292 12.6172Z" fill="#FD9F32"/>
<path d="M21.1172 6.17137H14.0772C13.8029 6.17137 13.6201 5.98851 13.6201 5.71422C13.6201 5.43994 13.8029 5.25708 14.0772 5.25708H21.1172C21.3915 5.25708 21.5743 5.43994 21.5743 5.71422C21.5743 5.98851 21.3458 6.17137 21.1172 6.17137ZM21.1172 9.69137H14.0772C13.8029 9.69137 13.6201 9.50851 13.6201 9.23422C13.6201 8.95994 13.8029 8.77708 14.0772 8.77708H21.1172C21.3915 8.77708 21.5743 8.95994 21.5743 9.23422C21.5743 9.50851 21.3458 9.69137 21.1172 9.69137ZM21.1172 13.2114H14.0772C13.8029 13.2114 13.6201 13.0285 13.6201 12.7542C13.6201 12.4799 13.8029 12.2971 14.0772 12.2971H21.1172C21.3915 12.2971 21.5743 12.4799 21.5743 12.7542C21.5743 13.0285 21.3458 13.2114 21.1172 13.2114ZM16.5001 16.7314H3.70006C3.42578 16.7314 3.24292 16.5485 3.24292 16.2742C3.24292 15.9999 3.42578 15.8171 3.70006 15.8171H16.5001C16.7743 15.8171 16.9572 15.9999 16.9572 16.2742C16.9572 16.5485 16.7286 16.7314 16.5001 16.7314ZM15.4486 20.2971H3.70006C3.42578 20.2971 3.24292 20.1142 3.24292 19.8399C3.24292 19.5657 3.42578 19.3828 3.70006 19.3828H15.4486C15.7229 19.3828 15.9058 19.5657 15.9058 19.8399C15.9058 20.1142 15.7229 20.2971 15.4486 20.2971ZM16.5001 23.8171H3.70006C3.42578 23.8171 3.24292 23.6342 3.24292 23.3599C3.24292 23.0857 3.42578 22.9028 3.70006 22.9028H16.5001C16.7743 22.9028 16.9572 23.0857 16.9572 23.3599C16.9572 23.6342 16.7286 23.8171 16.5001 23.8171ZM21.1172 27.3371H3.70006C3.42578 27.3371 3.24292 27.1542 3.24292 26.8799C3.24292 26.6057 3.42578 26.4228 3.70006 26.4228H21.1172C21.3915 26.4228 21.5743 26.6057 21.5743 26.8799C21.5743 27.1542 21.3458 27.3371 21.1172 27.3371Z" fill="#FD9F32"/>
<path d="M22.6714 25.5543C21.2543 25.5543 19.8829 25.0057 18.8314 23.9543C17.78 22.9029 17.2314 21.5772 17.2314 20.1143C17.2314 18.6515 17.78 17.28 18.8314 16.2743C19.8372 15.2686 21.2086 14.6743 22.6714 14.6743C24.1343 14.6743 25.5057 15.2229 26.5114 16.2743C28.34 18.1029 28.6143 20.9829 27.1972 23.1315C27.0143 23.4515 26.74 23.7257 26.5114 24C26.2372 24.2286 25.9629 24.4572 25.6429 24.6857C24.7286 25.28 23.7229 25.5543 22.6714 25.5543ZM22.6714 15.5886C21.4829 15.5886 20.34 16.0457 19.4714 16.9143C18.6029 17.7829 18.1457 18.9257 18.1457 20.1143C18.1457 21.3029 18.6029 22.4457 19.4714 23.3143C20.98 24.8229 23.3572 25.0515 25.14 23.9086C25.3686 23.7257 25.6429 23.5429 25.8714 23.3143C26.1 23.0857 26.2829 22.8572 26.4657 22.5829C27.6543 20.8 27.38 18.4229 25.8714 16.9143C25.0029 16.0457 23.86 15.5886 22.6714 15.5886Z" fill="#A28276"/>
<path d="M29.8029 29.0287H29.7571C29.2543 29.0287 28.7971 28.8001 28.4771 28.4344L25.0486 24.5944C24.9571 24.503 24.9114 24.3659 24.9571 24.2287C24.9571 24.0916 25.0486 24.0001 25.14 23.9087C25.4143 23.7259 25.6429 23.543 25.8714 23.3144C26.1 23.0859 26.2829 22.8573 26.4657 22.583C26.5571 22.4916 26.6486 22.4001 26.7857 22.4001C26.9229 22.4001 27.06 22.4459 27.1514 22.4916L30.9914 25.9201C31.3571 26.2401 31.5857 26.6973 31.5857 27.2001C31.5857 27.703 31.4029 28.1601 31.0829 28.4801C30.7171 28.8459 30.3057 29.0287 29.8029 29.0287ZM26.1 24.3659L29.2086 27.8401C29.3457 28.023 29.5743 28.1144 29.8029 28.1144C30.0314 28.1144 30.26 28.023 30.4429 27.8859C30.6257 27.7487 30.7171 27.4744 30.6714 27.2459C30.6714 27.0173 30.58 26.7887 30.3971 26.6516L26.9229 23.543C26.7857 23.6801 26.6486 23.8173 26.5114 23.9544C26.3743 24.0916 26.2371 24.2287 26.1 24.3659Z" fill="#A28276"/>
</svg>
