<svg width="182" height="191" viewBox="0 0 182 191" fill="none" xmlns="http://www.w3.org/2000/svg">
<g clip-path="url(#clip0_2450_14217)">
<path d="M106.13 127.94L96.2793 116.427L102.041 109.928L109.662 101.201L117.282 107.7L120.07 111.042L130.293 120.698L142.002 132.025L155.013 144.838L168.953 158.579L176.945 166.192L181.034 170.277L181.592 171.206L171.369 177.705L161.147 186.246L152.783 177.705L138.657 162.107L119.698 142.052L106.13 127.94Z" fill="white"/>
<path d="M79.178 110.299L71.3717 103.429L68.3978 104.914L54.8296 119.955L43.12 132.211L36.6147 139.453L17.0988 160.064L3.90231 174.177L2.78711 175.662C3.90231 176.467 6.16987 178.113 6.31856 178.262C6.46726 178.41 13.4434 182.904 16.9129 185.132L24.3476 189.589L27.3214 186.246L30.8529 182.161L33.8267 178.076L40.1462 170.463L53.7144 155.422L69.3271 137.224L81.966 123.112L85.6833 117.17L79.178 110.299Z" fill="white"/>
<path d="M86.0557 78.1752L71.3723 91.9162L66.168 88.3881L58.1758 80.9606L41.0761 64.9913L22.4895 47.3508L8.73542 34.3526L1.30078 27.1107L8.54956 15.7836L14.3114 9.09882L16.1701 6.31348L33.8273 23.954L44.4217 35.4667L58.1758 49.3934L64.6811 56.4496L76.7624 68.7051L86.0557 78.1752Z" fill="white"/>
<path d="M108.917 90.6163L103.713 86.1598L99.81 82.446L93.3047 77.8038L97.5796 72.0474L105.014 62.9486L114.308 52.1786L128.805 34.1668L142.373 17.6404L154.083 3.52806L157.057 0.371338L165.792 10.0272L173.785 19.4973L162.261 32.3099L143.117 54.0355L129.92 69.0764L108.917 90.6163Z" fill="white"/>
<path d="M84.5683 99.2694C84.0478 97.9695 84.085 96.5212 84.085 95.0357C84.085 94.3672 83.5274 93.9587 83.0442 93.5873C81.3342 92.3617 79.6986 91.0991 78.1373 89.725C77.654 89.2793 77.2823 89.3536 76.8734 89.7992C75.9813 90.7277 74.9776 91.619 74.1226 92.5846C73.565 93.253 72.7844 93.5873 72.1524 94.1815C71.5205 94.7757 70.8514 94.2929 70.2938 93.8844C66.911 91.2847 63.7884 88.4251 60.6287 85.5655C57.0229 82.3345 53.3428 79.1035 49.96 75.6126C47.9898 73.57 46.1684 71.3417 44.161 69.3363C40.3693 65.5853 36.5033 61.9087 32.8232 58.0835C25.2398 50.2103 16.69 43.3398 8.84645 35.7636C6.05846 33.0154 3.30764 30.2672 0.519654 27.519C-0.0379442 26.9991 -0.112291 26.5163 0.147922 25.7736C0.482481 24.8822 0.928559 24.1024 1.52333 23.3967C3.56786 20.9828 5.61238 18.5688 7.65691 16.1177C10.2219 13.0353 12.7496 9.91569 15.2774 6.83325C16.1696 5.75625 16.1696 5.75625 17.1733 6.75897C19.1063 8.72728 21.0393 10.6585 22.9723 12.5896C36.5777 26.4049 50.2202 40.2202 63.7141 54.184C70.9257 61.6487 78.1745 69.1134 85.3861 76.5781C85.9808 77.1723 86.6871 77.7294 86.9473 78.5465C87.2819 79.5863 86.0552 79.6977 85.6835 80.3662C84.9028 81.7403 83.7133 82.8544 82.6353 83.9686C82.2263 84.3771 82.0405 84.7113 82.5609 85.1941C83.9735 86.4568 85.3117 87.7566 86.6871 89.0936C87.3191 89.6878 87.951 89.9106 88.7688 89.5393C89.661 89.1679 90.6647 89.0193 91.6312 89.1679C92.8207 89.3164 93.6757 88.8336 94.382 88.0166C95.3857 86.7911 96.3522 85.5284 97.3559 84.3028C97.7276 83.8572 97.7276 83.5229 97.2815 83.1144C95.7202 81.6289 94.159 80.1434 92.5977 78.695C92.2631 78.3608 92.3375 78.0265 92.4862 77.7666C92.7835 77.2466 93.1553 76.7267 93.527 76.2439C107.504 59.2719 121.37 42.2628 135.533 25.4393C139.919 20.2029 144.268 14.9293 148.655 9.65573C151.22 6.57329 153.859 3.49084 156.424 0.408401C156.907 -0.148667 157.205 -0.185805 157.725 0.334125C159.212 1.89391 160.736 3.4537 162.223 5.01349C165.829 8.69014 169.435 12.3297 173.003 15.9692C173.672 16.6748 174.23 17.4175 174.639 18.3088C175.011 19.0887 174.825 19.5715 174.342 20.1657C167.39 28.4103 160.104 36.3207 152.632 44.0825C148.209 48.6876 144.306 53.7012 140.142 58.5291C137.503 61.6116 134.641 64.5083 132.261 67.7765C127.132 74.9812 120.812 81.0718 114.864 87.4967C113.378 89.0936 111.705 90.5791 110.106 92.1018C109.474 92.7331 108.917 92.696 108.062 92.2132C106.352 91.1733 105.088 89.6507 103.527 88.4994C102.895 88.0166 102.486 88.0537 101.965 88.6108C100.887 89.7621 99.7349 90.8391 98.6197 91.9904C98.025 92.5846 97.8391 93.253 98.248 94.0701C98.6941 94.9985 98.8428 96.0012 98.7684 97.004C98.6569 98.2295 99.103 99.1208 100.032 99.8264C101.445 100.903 102.783 102.055 104.084 103.317C104.605 103.837 105.014 103.874 105.534 103.355C106.612 102.203 108.136 101.535 109.103 100.272C109.437 99.8636 109.846 100.124 110.143 100.346C110.664 100.718 111.147 101.163 111.63 101.646C124.121 113.865 136.648 126.083 149.138 138.338C156.982 146.063 164.788 153.825 172.594 161.55C175.605 164.558 178.616 167.603 181.665 170.574C182.222 171.131 182.111 171.428 181.59 171.837C179.955 173.137 178.356 174.474 176.758 175.773C172.706 179.116 168.654 182.458 164.602 185.763C164.23 186.061 163.859 186.321 163.487 186.58C161.703 187.62 161.368 187.583 159.918 186.135C152.558 178.819 145.532 171.131 138.73 163.332C134.678 158.69 130.217 154.493 125.905 150.148C122.745 146.917 119.808 143.463 116.389 140.53C109.474 134.587 103.787 127.494 97.6904 120.772C96.4637 119.435 95.4228 117.95 94.2705 116.538C93.7129 115.833 93.8244 115.276 94.382 114.496C95.8317 112.528 97.8391 111.116 99.4375 109.297C99.9951 108.665 100.181 108.257 99.4747 107.588C98.248 106.4 97.1328 105.137 95.9804 103.874C95.4229 103.28 94.8281 103.057 94.0103 103.392C93.1924 103.726 92.3003 103.912 91.4081 103.8C89.7725 103.577 88.6573 104.432 87.728 105.583C86.4269 107.254 85.0887 108.925 83.6389 110.448C83.1557 110.968 83.1557 111.302 83.6761 111.785C84.9028 112.936 86.2782 113.939 87.3563 115.239C88.1369 116.167 87.9882 116.724 87.4306 117.541C85.2002 120.772 82.6724 123.817 80.1818 126.863C76.9478 130.799 73.8252 134.81 70.3309 138.561C68.3607 140.678 66.1675 142.572 64.2345 144.763C60.5172 149.034 56.7627 153.305 52.8595 157.427C45.6479 165.078 39.5143 173.657 32.563 181.493C29.8865 184.538 27.1357 187.546 24.4592 190.554C24.0503 191 23.6414 191.111 23.0094 190.963C22.1173 190.703 21.2623 190.294 20.5188 189.737C14.6826 185.355 8.84645 180.973 2.97309 176.628C2.19245 176.07 2.15527 175.662 2.86157 174.956C4.83175 172.951 6.69041 170.834 8.58624 168.754C17.2476 159.321 25.909 149.888 34.6075 140.53C45.2018 129.128 55.8334 117.764 66.4649 106.4C67.766 105.026 69.067 103.652 70.3681 102.278C71 101.646 71.409 101.312 72.4126 102.166C74.1598 103.615 76.0556 104.914 77.7284 106.437C78.1001 106.771 78.3975 106.66 78.7321 106.326C80.2933 104.729 81.929 103.169 83.4902 101.572C84.085 100.941 84.4939 100.272 84.5683 99.2694ZM165.792 155.942C165.308 156.573 164.751 157.093 164.119 157.502C163.375 157.984 163.338 158.393 164.007 159.024C165.532 160.473 167.018 162.032 168.505 163.518C170.476 165.486 170.476 165.486 172.483 163.555C172.929 163.146 172.966 162.849 172.52 162.441C170.29 160.287 168.022 158.133 165.792 155.942C163.375 153.676 160.996 151.374 158.617 149.108C157.168 147.697 157.168 147.771 155.606 149.071C154.9 149.628 154.937 150 155.569 150.594C157.688 152.636 159.807 154.753 161.889 156.87C162.483 157.464 162.967 157.464 163.561 156.982C164.193 156.462 164.937 156.016 165.792 155.942ZM17.9539 159.915C18.7717 160.027 19.478 160.435 20.1471 160.881C20.8162 161.364 21.2995 161.215 21.8199 160.621C23.4927 158.727 25.2398 156.87 26.987 155.013C28.4367 153.454 28.4739 153.454 26.8383 151.968C26.8011 151.931 26.7639 151.931 26.7639 151.894C26.3179 151.077 25.909 151.448 25.4629 151.931C23.6786 153.825 21.8199 155.682 20.0356 157.613C19.2921 158.356 18.4371 158.95 17.9539 159.915C17.5078 160.175 17.1732 160.51 16.8387 160.881C15.3889 162.441 13.9392 163.964 12.4894 165.523C10.6308 167.529 10.6308 167.529 13.0099 169.014C13.5303 169.349 13.902 169.311 14.3109 168.866C16.1696 166.823 18.0282 164.743 19.9241 162.738C20.3701 162.292 20.2958 161.958 19.8125 161.624C19.1063 161.104 18.3256 160.733 17.9539 159.915ZM31.1875 22.6168C31.2619 22.0226 30.8158 21.7255 30.4813 21.3542C29.0315 19.8315 27.5817 18.2717 26.0948 16.7862C23.9388 14.6322 24.6822 14.4836 22.5262 17.0462C22.1173 17.529 22.1173 17.9003 22.5634 18.346C24.5335 20.3143 26.4666 22.2455 28.3996 24.2509C28.8828 24.7708 29.1802 24.6594 29.5891 24.1766C30.1095 23.5824 30.4069 22.8025 31.1875 22.6168C31.1875 23.3596 30.7415 23.9538 30.2954 24.548C29.775 25.2536 29.8493 25.7364 30.4813 26.3306C32.2656 28.039 33.9755 29.8216 35.6855 31.6042C37.3211 33.2754 37.284 33.2383 38.9567 31.6785C39.5143 31.1585 39.44 30.8986 38.9939 30.4158C36.6892 28.0018 34.4588 25.5879 32.154 23.1739C31.8938 22.8397 31.6336 22.5426 31.1875 22.6168ZM9.8873 33.9439C9.99882 33.164 10.3706 32.4955 10.7795 31.827C12.4523 29.0417 14.3109 26.4049 16.1696 23.731C16.6157 23.0625 16.6157 22.6168 16.0209 22.0598C14.6455 20.7599 13.3072 19.423 11.969 18.086C10.2962 16.4148 10.3334 16.452 9.06949 18.4945C7.17366 21.4656 5.61238 24.7337 2.71287 26.962C2.04376 27.4819 2.6757 27.6676 2.89874 27.8904C4.86892 29.7473 6.8391 31.5671 8.80928 33.424C9.10666 33.7211 9.44122 34.0182 9.8873 33.9439C9.85013 34.501 10.2962 34.7981 10.6308 35.1323C16.9502 41.1858 23.6786 46.8307 29.8493 53.0699C35.6483 58.9005 41.7819 64.3598 47.9155 69.8562C52.6737 74.0899 57.3947 78.3608 61.9298 82.8544C62.3759 83.3001 62.9335 83.6715 63.4539 84.08C63.8256 84.4142 64.0487 84.2657 64.2717 83.8572C64.7549 83.003 65.2382 82.186 65.7586 81.3689C66.0932 80.849 66.056 80.4776 65.6471 80.032C63.4539 77.8037 61.2607 75.5754 59.0674 73.3472C58.6585 72.9015 58.324 72.9015 57.9151 73.3843C57.5062 73.8671 57.0973 74.3499 56.2795 74.647C56.4281 73.7928 56.7627 73.2357 57.1344 72.7529C57.5805 72.1959 57.5433 71.7874 57.0229 71.2674C55.4616 69.7076 53.9004 68.1479 52.4134 66.5509C51.893 65.9939 51.5956 66.0681 51.1496 66.6252C50.592 67.4051 49.96 68.185 48.8076 68.7421C49.3652 67.5908 49.8113 66.7366 50.4433 65.9567C50.8522 65.4739 50.8893 65.0654 50.4061 64.5455C48.7705 62.9114 47.1348 61.2402 45.5364 59.569C45.016 59.0119 44.7186 59.1234 44.3097 59.7176C43.6777 60.6089 43.1201 61.6116 41.9306 62.3172C42.2652 60.9431 42.8971 60.0147 43.5662 59.0862C44.0495 58.4549 44.0123 57.9721 43.4175 57.3779C41.8563 55.8552 40.3693 54.2954 38.8824 52.7356C37.6929 51.5101 37.6929 51.5101 36.2431 52.1786C36.3174 51.4358 37.1353 50.8045 36.2431 49.9874C34.5331 48.3905 32.9347 46.645 31.2991 44.9367C30.7786 44.3796 30.4441 44.3053 29.9608 44.9738C29.4776 45.6052 28.9943 46.2737 28.065 46.645C28.288 45.6423 28.6969 44.8996 29.1802 44.2311C29.7006 43.5626 29.5519 43.0798 28.9943 42.5599C28.2137 41.8171 27.5446 41.0372 26.8011 40.2573C26.9126 40.1459 27.0241 40.0345 27.1357 39.9602C27.8791 40.7773 28.6226 41.6314 29.3661 42.4485C29.775 42.8941 30.1095 42.857 30.4813 42.337C31.076 41.4829 31.6708 40.6287 32.3771 39.8488C32.8975 39.2175 32.8975 38.7718 32.3027 38.1776C30.2954 36.2464 28.3252 34.3153 26.355 32.3098C25.7603 31.7156 25.4257 31.7156 24.9424 32.4212C23.6786 34.3524 22.3403 36.2464 21.0021 38.1405C20.556 38.7718 20.0728 39.3289 19.2549 39.8488C19.3293 38.9575 19.701 38.3633 20.0728 37.8062C21.411 35.7265 22.7864 33.6839 24.199 31.6413C24.6451 30.9729 24.6451 30.5272 24.0503 29.9701C22.1545 28.1504 20.2958 26.2935 18.4743 24.3995C17.8052 23.731 17.4335 23.731 16.8759 24.548C15.5005 26.5906 14.0879 28.6332 12.6753 30.6386C11.8203 31.9013 11.0768 33.1269 9.8873 33.9439ZM154.082 177.333C154.008 177.705 154.156 178.002 154.417 178.262C156.313 180.341 158.246 182.384 160.141 184.501C160.55 184.946 160.736 184.909 161.108 184.426C162.483 182.755 164.119 181.455 165.978 180.378C167.539 179.487 169.063 178.484 170.624 177.556C171.331 177.147 171.368 176.813 170.81 176.256C169.212 174.659 167.576 173.025 166.052 171.354C165.42 170.685 164.974 170.611 164.23 171.131C162.558 172.32 160.885 173.471 159.138 174.585C157.502 175.625 155.941 176.85 154.082 177.333C154.565 176.405 155.458 175.848 156.313 175.253C158.617 173.656 160.922 172.022 163.301 170.463C164.156 169.906 164.305 169.534 163.487 168.754C161.628 167.009 159.844 165.189 158.097 163.332C157.428 162.589 156.907 162.627 156.164 163.184C154.008 164.743 151.815 166.266 149.473 167.529C149.101 167.752 148.729 168.012 148.097 167.863C148.692 167.083 149.324 166.526 150.03 166.043C151.852 164.818 153.673 163.555 155.495 162.329C156.201 161.884 156.387 161.55 155.718 160.844C154.119 159.284 152.595 157.65 150.997 156.053C149.138 154.159 149.101 154.159 147.019 155.719C146.648 155.979 146.276 156.313 145.904 156.536C145.161 156.982 145.198 157.39 145.793 157.947C146.722 158.838 147.577 159.804 148.506 160.733C148.395 160.844 148.246 160.992 148.134 161.104C147.279 160.138 146.462 159.173 145.607 158.207C145.049 157.539 144.491 157.39 143.748 157.947C143.116 158.43 142.41 158.801 141.369 158.95C141.852 158.096 142.373 157.613 142.967 157.204C143.86 156.647 143.636 156.202 143.005 155.607C141.666 154.345 140.365 153.008 139.027 151.745C138.172 150.928 137.503 149.628 135.83 151.04C136.574 149.368 136.574 149.368 135.384 148.217C133.897 146.769 132.373 145.32 130.923 143.798C130.18 143.018 129.585 142.981 128.767 143.612C127.949 144.243 127.094 144.8 125.868 145.023C126.5 143.835 127.54 143.315 128.433 142.721C129.065 142.312 129.065 141.978 128.544 141.495C126.946 139.935 125.31 138.376 123.786 136.779C123.154 136.11 122.671 136.184 122.039 136.704C121.333 137.299 120.589 137.856 119.474 138.041C120.106 137.076 120.849 136.444 121.593 135.85C122.15 135.442 122.113 135.107 121.63 134.662C120.032 133.102 118.433 131.542 116.835 129.945C116.389 129.5 116.017 129.462 115.534 129.834C114.976 130.242 114.344 130.614 113.489 130.725C113.749 130.057 114.121 129.611 114.567 129.314C115.496 128.72 115.236 128.274 114.567 127.643C112.634 125.897 110.775 124.003 108.917 122.183C107.281 120.587 107.653 120.735 106.017 121.886C105.348 122.369 104.01 122.332 104.121 123.372C104.233 124.152 105.051 124.82 105.683 125.452C108.768 128.571 111.705 131.839 114.641 135.145C119.288 140.344 124.009 145.506 128.693 150.668C132.001 154.271 135.496 157.724 138.878 161.252C143.636 166.266 148.172 171.465 152.818 176.59C153.19 176.962 153.525 177.333 154.082 177.333ZM165.717 27.2591C164.677 26.8877 164.045 26.0335 163.375 25.2536C161.517 23.0254 159.658 20.7971 157.837 18.5688C157.279 17.8632 156.907 17.8261 156.313 18.5317C154.603 20.5743 152.893 22.6168 151.145 24.6223C150.625 25.2165 150.625 25.625 151.145 26.2192C152.484 27.8161 153.785 29.4502 155.086 31.0843C155.755 31.9384 156.461 32.7926 156.833 34.0924C155.904 33.6468 155.346 33.0526 154.826 32.4584C153.339 30.6758 151.889 28.856 150.439 27.0734C150.03 26.5535 149.733 26.3678 149.175 26.9991C147.317 29.2274 145.421 31.4185 143.488 33.5725C143.042 34.0924 143.079 34.501 143.525 34.9466C144.231 35.6894 144.938 36.4693 145.607 37.2863C146.09 37.9176 146.462 37.9176 146.982 37.3234C147.614 36.5807 148.283 35.8379 148.915 35.0952C148.506 35.9493 147.986 36.6921 147.354 37.3606C146.722 38.029 146.573 38.5861 147.279 39.3289C147.8 39.8859 148.209 40.6287 148.506 41.5943C147.614 41.1486 147.019 40.6287 146.536 40.0716C146.016 39.4032 145.607 39.4403 145.086 40.1088C143.971 41.52 142.782 42.8941 141.629 44.3053C140.848 45.2709 139.436 46.088 140.96 47.8334C139.324 47.1278 139.324 47.1278 138.358 48.3162C136.982 49.9874 135.644 51.6958 134.194 53.2927C133.488 54.0726 133.563 54.6297 134.194 55.3724C134.901 56.1523 135.533 57.0065 135.904 58.2692C134.752 57.6378 134.12 56.8208 133.525 56.0038C132.968 55.261 132.596 55.1867 131.964 55.9666C130.626 57.675 129.25 59.3462 127.801 60.9431C127.169 61.6487 127.28 62.1315 127.875 62.7257C128.544 63.3942 129.065 64.1741 129.548 65.2511C128.395 64.694 127.689 63.9884 127.057 63.2457C126.611 62.7257 126.314 62.7629 125.868 63.2828C124.455 65.0283 123.043 66.7366 121.556 68.445C121.11 68.9649 121.147 69.3363 121.593 69.8191C122.039 70.3018 122.448 70.8589 122.596 71.6388C121.89 71.5274 121.481 71.1932 121.147 70.7846C120.478 69.9676 120.032 70.1904 119.474 70.9332C118.024 72.7901 116.463 74.5727 114.976 76.3925C113.303 78.3979 113.303 78.3979 114.79 80.5148C115.98 82.1488 115.98 82.1488 117.392 80.6262C117.429 80.589 117.429 80.5519 117.467 80.5519C122.002 75.2783 126.797 70.2647 131.555 65.214C134.864 61.723 138.135 58.1578 141.369 54.5925C144.343 51.2873 147.205 47.9077 150.142 44.5653C154.9 39.1432 159.918 33.9439 164.825 28.6703C165.308 28.1875 165.643 27.8161 165.717 27.2591C166.015 27.2962 166.275 27.1105 166.498 26.8877C168.431 24.7708 170.364 22.654 172.297 20.5743C172.669 20.1657 172.594 19.9801 172.148 19.7201C170.513 18.6059 169.137 17.1947 167.985 15.5978C166.907 14.1123 165.792 12.6268 164.714 11.1041C163.859 9.91569 163.859 9.91569 162.929 10.9927C161.628 12.5153 160.327 14.038 158.989 15.5606C157.874 16.8233 157.911 16.7862 158.915 18.086C161.257 21.057 163.933 23.8053 165.717 27.2591ZM36.0572 171.057C35.3509 171.131 34.942 170.871 34.5331 170.685C32.154 169.497 29.8865 168.086 27.6561 166.637C26.9498 166.192 26.4665 166.155 25.909 166.86C24.3848 168.606 22.7864 170.277 21.2623 172.022C19.8125 173.657 19.5152 173.322 21.6712 174.733C24.5707 176.59 27.6189 178.15 30.2582 180.378C30.8902 180.898 31.2247 180.453 31.5593 180.007C33.2692 177.964 34.9792 175.922 36.6892 173.879C39.8861 170.054 42.8971 166.08 46.2799 162.404C49.2165 159.173 52.1161 155.905 54.904 152.562C59.9224 146.583 64.8293 140.455 69.8477 134.439C72.1896 131.616 74.643 128.905 77.0221 126.083C78.4347 124.449 78.3975 124.412 76.6132 123.409C76.13 123.149 75.6839 122.889 75.2378 122.592C74.7174 122.258 74.3456 122.295 73.9367 122.778C71.8178 125.08 69.699 127.383 67.5801 129.648C67.0969 130.168 67.2084 130.465 67.7288 130.837C68.2492 131.208 68.7325 131.616 69.067 132.359C68.2492 132.248 67.6545 131.988 67.134 131.616C66.5021 131.134 66.0932 131.245 65.5728 131.839C64.123 133.436 62.6732 135.033 61.1863 136.593C60.7031 137.113 60.7031 137.447 61.2978 137.856C62.0785 138.376 62.8591 138.933 63.4911 140.01C62.3759 139.675 61.558 139.267 60.8518 138.673C60.1826 138.153 59.6994 138.19 59.1046 138.858C57.8407 140.307 56.4653 141.681 55.1643 143.092C53.7517 144.652 53.7889 144.355 55.4245 145.395C56.1308 145.84 56.9114 146.249 57.4318 147.214C56.2051 146.954 55.2758 146.472 54.458 145.877C53.5286 145.209 52.9339 145.395 52.2276 146.212C50.8893 147.771 49.4396 149.22 48.0642 150.705C47.6924 151.114 47.2464 151.485 47.0233 151.931C46.7259 152.525 47.7296 152.674 47.6181 153.491C46.1683 152.191 45.4992 153.454 44.6814 154.308C43.3432 155.719 42.0793 157.13 40.7039 158.541C40.1091 159.136 40.0348 159.544 40.8154 160.064C41.4474 160.473 42.1165 160.918 42.4882 161.772C41.4845 161.624 40.7039 161.252 40.0348 160.77C39.3285 160.324 38.8452 160.473 38.362 161.067C37.4698 162.032 36.5405 162.998 35.6483 163.926C36.3918 162.775 37.284 161.735 38.1761 160.77C38.6222 160.287 38.6222 159.953 38.0274 159.581C37.1724 159.061 36.3174 158.504 35.5368 157.873C34.8677 157.353 34.3844 157.353 33.7897 158.059C32.0054 160.138 30.1839 162.181 28.288 164.186C27.5817 164.966 27.8048 165.263 28.5854 165.709C30.5184 166.86 32.4143 168.049 34.3101 169.237C34.8305 169.831 35.4625 170.314 36.0572 171.057ZM19.2549 174.622C18.7717 174.659 18.5858 174.993 18.3628 175.216C17.0246 176.702 15.6863 178.187 14.3481 179.71C13.047 181.233 12.6009 180.973 14.757 182.198C17.9539 184.018 21.4482 185.429 23.9016 188.363C24.2362 188.734 24.422 188.512 24.6451 188.252C26.5037 186.023 28.3624 183.832 30.221 181.604C30.5184 181.233 30.5556 180.898 30.0352 180.713C26.3922 179.227 23.1953 176.887 19.7754 174.919C19.6267 174.808 19.4036 174.696 19.2549 174.622ZM18.1398 14.4094C18.2141 14.3722 18.2513 14.298 18.3256 14.2608C18.6602 14.5579 18.9947 14.855 19.3293 15.1893C21.5969 17.3804 20.9649 17.0462 22.8979 15.0407C23.4555 14.4836 23.4555 14.1123 22.8979 13.5181C20.9649 11.5498 19.1063 9.58145 17.2476 7.53887C16.5785 6.79611 16.1696 6.90753 15.6863 7.68742C14.2366 10.1014 12.7496 12.4782 11.2627 14.855C10.9653 15.3378 11.0025 15.6721 11.4114 16.0806C13.2329 17.7518 15.0172 19.4601 16.7643 21.1685C17.2848 21.6513 17.5822 21.6884 18.0282 21.0942C18.7717 20.0543 19.5523 19.0516 20.333 18.0489C20.7419 17.529 20.7419 17.1204 20.2586 16.6376C19.5523 15.932 18.846 15.1521 18.1398 14.4094ZM155.16 8.83869C155.235 8.91297 155.272 8.98725 155.346 9.06152C154.826 9.69286 154.342 10.3242 153.822 10.9556C153.413 11.4383 153.413 11.8097 153.859 12.2554C154.751 13.221 155.643 14.1865 156.461 15.1893C156.907 15.7092 157.242 15.6349 157.651 15.1521C159.286 13.2952 160.922 11.4755 162.595 9.61859C162.929 9.24721 163.078 8.91297 162.781 8.50445C160.996 6.12763 159.435 3.60226 157.539 1.33685C157.13 0.854055 156.759 0.779779 156.35 1.33685C154.528 3.63939 152.67 5.9048 150.848 8.17021C150.662 8.43018 150.439 8.69014 150.699 8.98725C151.369 9.65573 152 10.2871 152.707 10.8813C153.116 11.2155 153.413 10.7699 153.673 10.5099C154.156 9.98997 154.677 9.4329 155.16 8.83869ZM174.119 168.754C173.97 168.903 173.821 169.089 173.672 169.237C172.929 168.569 172.186 167.937 171.516 167.195C170.922 166.526 170.401 166.563 169.769 167.12C168.877 167.863 167.948 168.569 166.981 169.2C166.349 169.646 166.275 169.943 166.833 170.537C168.543 172.282 170.178 174.065 171.851 175.848C172.26 176.293 172.632 176.368 173.152 176.033C175.531 174.585 177.91 173.137 180.289 171.725C181.144 171.205 181.219 170.76 180.438 170.054C178.802 168.606 177.204 167.046 175.643 165.523C173.71 163.666 173.747 163.666 171.777 165.523C171.293 165.969 171.219 166.34 171.702 166.786C172.483 167.454 173.338 168.086 174.119 168.754ZM10.3706 173.545C10.3334 173.508 10.2962 173.471 10.2962 173.434C10.6308 173.062 10.9282 172.654 11.2627 172.282C12.9727 170.314 12.9355 170.351 10.9282 168.643C10.3706 168.16 10.036 168.16 9.51557 168.717C7.61974 170.76 5.7239 172.765 3.75372 174.733C3.0846 175.402 3.19612 175.811 3.93959 176.219C6.43019 177.593 8.95797 178.93 11.4486 180.304C11.8947 180.527 12.2292 180.527 12.5638 180.118C14.1994 178.224 15.835 176.293 17.4706 174.399C17.9167 173.916 17.8795 173.582 17.3219 173.211C16.2439 172.505 15.2031 171.8 14.1622 171.057C13.5674 170.611 13.1585 170.76 12.6753 171.243C11.9318 172.06 11.1512 172.802 10.3706 173.545ZM120.403 124.523C120.366 124.449 120.329 124.337 120.217 124.263C117.95 121.886 115.682 119.547 113.415 117.207C113.117 116.91 112.857 116.947 112.485 117.17C111.221 118.135 109.958 119.064 108.694 119.992C108.21 120.364 108.136 120.624 108.582 121.069C110.813 123.26 113.043 125.452 115.236 127.643C115.682 128.088 116.054 128.125 116.537 127.717C117.652 126.826 118.805 126.009 119.957 125.117C120.18 125.006 120.44 124.857 120.403 124.523ZM73.6765 121.663C73.6765 121.663 73.4906 121.589 73.3048 121.515C71.9665 120.624 70.6283 119.695 69.2901 118.804C68.8068 118.47 68.5094 118.692 68.2121 119.064C66.1675 121.366 64.123 123.706 62.0785 126.009C61.6324 126.529 61.6696 126.826 62.2643 127.197C63.4167 127.94 64.5319 128.683 65.6099 129.5C66.2419 129.982 66.6508 129.871 67.1712 129.314C69.1786 127.086 71.2603 124.894 73.3048 122.666C73.4163 122.406 73.6393 122.221 73.6765 121.663ZM119.771 69.4105C119.734 69.3363 119.66 69.1877 119.548 69.0763C118.507 67.8879 117.429 66.7366 116.389 65.5482C115.942 65.0654 115.645 65.3997 115.348 65.7339C113.303 68.0364 111.296 70.3761 109.251 72.6787C108.88 73.0872 108.805 73.4214 109.214 73.8671C110.255 74.9812 111.296 76.1325 112.299 77.3209C112.746 77.878 113.043 77.7666 113.452 77.2838C115.422 74.9069 117.392 72.5301 119.362 70.1904C119.585 69.9676 119.808 69.7819 119.771 69.4105ZM70.1451 75.2412C69.9964 75.0555 69.8848 74.8327 69.699 74.6841C67.4686 72.493 65.201 70.339 62.9706 68.1107C62.4874 67.6651 62.19 67.7765 61.8554 68.2593C61.0005 69.4105 60.1455 70.5618 59.2905 71.6759C58.8816 72.1959 58.9931 72.5301 59.402 72.9758C61.5581 75.1669 63.7513 77.358 65.9073 79.5863C66.3162 79.9948 66.6136 80.1062 66.9853 79.5492C67.8775 78.2865 68.844 77.0981 69.7733 75.8725C69.922 75.6868 69.9964 75.464 70.1451 75.2412ZM74.5687 120.921C74.8289 120.921 74.9776 120.735 75.1634 120.587C76.7247 118.878 78.286 117.17 79.8844 115.499C80.3305 115.016 80.1447 114.682 79.7729 114.31C78.5462 113.085 77.3195 111.859 76.0928 110.634C75.6467 110.188 75.3865 110.262 75.1263 110.782C74.6802 111.785 73.8624 112.528 73.1561 113.345C72.1152 114.533 71.0744 115.721 70.0707 116.947C69.8477 117.207 69.4759 117.541 69.8477 117.838C71.2974 118.99 72.8587 119.992 74.4572 120.921C74.4572 120.921 74.5315 120.921 74.5687 120.921ZM105.757 108.999C105.683 109.074 105.534 109.148 105.422 109.259C104.196 110.596 103.006 111.933 101.742 113.27C101.296 113.753 101.482 114.05 101.854 114.422C103.452 115.981 105.051 117.541 106.612 119.138C107.095 119.621 107.467 119.621 107.987 119.212C109.065 118.358 110.181 117.504 111.333 116.761C112.151 116.204 112.039 115.833 111.444 115.164C109.697 113.196 107.616 111.599 106.203 109.334C106.166 109.148 106.017 108.999 105.757 108.999ZM106.686 85.0827C107.021 85.0456 107.17 84.8599 107.318 84.6742C108.805 82.8916 110.255 81.109 111.779 79.3635C112.151 78.9178 112.076 78.5836 111.705 78.1751C110.775 77.1352 109.846 76.1325 108.991 75.0555C108.322 74.2385 107.913 74.2756 107.244 75.0555C105.683 76.8381 104.233 78.7693 102.411 80.3291C101.779 80.849 101.742 81.1832 102.337 81.666C103.638 82.743 104.976 83.7829 106.277 84.8599C106.426 84.9713 106.612 85.0456 106.686 85.0827ZM77.9886 82.743C78.0258 82.1488 77.7284 82.0374 77.5054 81.926C76.7247 81.5175 76.1671 80.9233 75.5352 80.3291C74.2341 79.1035 72.933 77.9151 71.7063 76.6524C71.1487 76.0582 70.8142 76.1696 70.3681 76.7638C69.5503 77.9151 68.6953 79.0664 67.8031 80.1805C67.3571 80.7376 67.3571 81.1461 67.8775 81.666C69.4016 83.1887 70.9257 84.7113 72.4126 86.3083C72.9702 86.9025 73.3791 86.8282 73.9367 86.3083C75.1263 85.157 76.353 84.08 77.6169 82.9659C77.8027 82.8173 77.9886 82.743 77.9886 82.743ZM149.733 24.0652C149.807 23.9909 149.993 23.8795 150.105 23.731C152.038 21.577 153.933 19.3858 155.829 17.2318C156.201 16.8233 156.127 16.5262 155.792 16.1177C154.9 15.1521 154.045 14.1865 153.19 13.1467C152.707 12.5525 152.372 12.6268 151.926 13.1838C150.216 15.3007 148.469 17.4175 146.685 19.4973C146.313 19.9429 146.239 20.3514 146.685 20.7971C147.503 21.7255 148.283 22.6911 149.064 23.6196C149.25 23.8424 149.361 24.0652 149.733 24.0652ZM28.5111 25.4765C28.5111 25.0679 28.2509 24.8451 28.0278 24.6594C26.132 22.7283 24.2362 20.7971 22.3775 18.8288C21.8199 18.2346 21.4482 18.346 21.0021 18.9402C20.2958 19.9429 19.5895 20.9456 18.8089 21.9112C18.3628 22.4683 18.5115 22.8397 18.9576 23.2853C20.9649 25.2165 22.9723 27.1105 24.9053 29.0417C25.3514 29.4873 25.6859 29.5616 26.0948 28.9674C26.7268 28.0018 27.4331 27.0734 28.1022 26.1449C28.288 25.9221 28.3996 25.6621 28.5111 25.4765ZM18.5487 172.691C18.9947 172.728 19.1806 172.542 19.3665 172.32C21.2251 170.166 23.121 168.012 24.9796 165.858C25.3142 165.486 25.277 165.189 24.8681 164.892C23.7901 164.186 22.7121 163.518 21.6712 162.812C21.188 162.478 20.8534 162.589 20.4445 162.998C18.5487 165.041 16.6528 167.083 14.757 169.089C14.3109 169.571 14.3109 169.906 14.8685 170.277C15.7235 170.797 16.5413 171.391 17.3591 171.948C17.8052 172.208 18.2141 172.468 18.5487 172.691ZM162.558 158.801C162.483 158.839 162.372 158.876 162.26 158.913C161.108 159.693 159.993 160.51 158.878 161.327C158.394 161.661 158.692 161.995 158.989 162.292C160.922 164.298 162.818 166.303 164.751 168.309C165.197 168.791 165.606 168.829 166.126 168.42C167.13 167.64 168.171 166.897 169.212 166.155C169.769 165.746 169.732 165.412 169.286 164.966C167.316 163.072 165.383 161.141 163.413 159.21C163.152 158.987 162.967 158.764 162.558 158.801ZM145.644 21.1685C145.235 21.2799 145.049 21.6141 144.826 21.8741C143.488 23.5081 142.112 25.1422 140.774 26.7763C138.469 29.5988 138.469 29.5988 141.109 32.2355C141.629 32.7555 141.964 32.8298 142.484 32.2355C144.38 30.0815 146.35 27.9276 148.283 25.8107C148.729 25.3279 148.766 24.9194 148.357 24.4366C147.577 23.5453 146.871 22.5797 146.127 21.6513C145.978 21.4656 145.793 21.317 145.644 21.1685ZM36.875 33.9439C36.7635 33.7582 36.6892 33.5725 36.5405 33.424C34.3101 31.1214 32.0797 28.856 29.8493 26.5535C29.4776 26.1821 29.1802 26.2563 28.92 26.6649C28.2137 27.7047 27.5446 28.7074 26.8383 29.7102C26.5037 30.193 26.5409 30.6015 26.987 31.01C29.143 33.0154 31.2619 35.0209 33.3808 37.0263C33.8268 37.472 34.1986 37.5463 34.6075 36.9892C35.2394 36.1722 35.9085 35.3551 36.5405 34.5381C36.6892 34.3524 36.7635 34.1667 36.875 33.9439ZM25.9461 164.261C26.4294 164.261 26.6152 163.964 26.8383 163.704C28.1393 162.181 29.4404 160.658 30.7043 159.098C31.4106 158.207 32.8603 157.464 32.6745 156.425C32.4886 155.422 30.9645 155.013 30.0724 154.271C29.4032 153.713 28.9943 153.862 28.4367 154.456C26.5409 156.536 24.5707 158.579 22.6749 160.621C21.6712 161.698 21.6712 161.698 22.9723 162.478C23.7157 162.924 24.4592 163.444 25.2398 163.889C25.4257 164.038 25.7231 164.149 25.9461 164.261ZM161.777 157.724C161.591 157.539 161.405 157.279 161.145 157.019C159.658 155.57 158.171 154.122 156.684 152.636C154.119 150.111 154.119 150.148 151.294 152.414C150.588 152.971 150.551 153.305 151.183 153.936C153.153 155.979 155.049 158.021 156.945 160.101C157.428 160.621 157.799 160.77 158.431 160.324C159.398 159.618 160.402 158.987 161.405 158.319C161.554 158.207 161.777 158.096 161.777 157.724ZM58.9559 138.004C58.9559 137.707 58.8444 137.559 58.6585 137.447C57.4318 136.63 56.2423 135.813 55.0156 134.996C54.5695 134.699 54.2349 134.885 53.9375 135.219C52.3391 137.039 50.7407 138.858 49.105 140.678C48.659 141.161 48.659 141.495 49.2537 141.866C50.2946 142.461 51.3354 143.055 52.3019 143.761C53.0082 144.243 53.4171 144.132 53.9747 143.538C55.4988 141.829 57.0601 140.195 58.5842 138.524C58.7329 138.301 58.8816 138.116 58.9559 138.004ZM134.046 138.71C133.971 138.598 133.934 138.487 133.823 138.376C132.038 136.519 130.254 134.662 128.433 132.805C128.135 132.508 127.838 132.471 127.503 132.731C126.314 133.622 125.161 134.476 123.972 135.33C123.526 135.627 123.6 135.924 123.935 136.259C125.682 137.967 127.392 139.675 129.102 141.384C129.511 141.792 129.882 141.792 130.328 141.458C131.369 140.715 132.447 140.047 133.488 139.304C133.711 139.155 134.009 139.044 134.046 138.71ZM132.224 54.5183C132.187 54.444 132.187 54.3326 132.113 54.2212C131.183 53.0327 130.217 51.8815 129.288 50.7302C128.879 50.2474 128.619 50.6188 128.358 50.9159C126.723 52.7728 125.124 54.6297 123.489 56.4866C123.117 56.9322 123.117 57.2665 123.489 57.675C124.381 58.6777 125.31 59.6804 126.165 60.6831C126.611 61.2031 126.909 61.2031 127.317 60.646C128.804 58.8263 130.328 57.0436 131.815 55.2239C132.038 55.0382 132.261 54.8525 132.224 54.5183ZM54.6438 60.2375C54.4951 60.0518 54.3836 59.829 54.2349 59.6804C52.4506 57.9349 50.6663 56.1895 48.882 54.444C48.4731 54.0355 48.1757 54.1469 47.8783 54.5925C47.1348 55.7067 46.3542 56.8208 45.6107 57.9349C45.3134 58.3806 45.4249 58.7148 45.7594 59.0491C47.4322 60.7574 49.105 62.4286 50.7778 64.1741C51.1867 64.6198 51.5213 64.6198 51.893 64.137C52.7108 63.0228 53.5658 61.9087 54.3836 60.8317C54.458 60.6089 54.5323 60.4232 54.6438 60.2375ZM122.225 58.0835C122.15 58.1578 122.002 58.232 121.927 58.3435C120.329 60.1632 118.73 61.983 117.132 63.8027C116.797 64.2112 117.02 64.5083 117.281 64.8054C118.247 65.8824 119.214 66.9223 120.106 67.9993C120.552 68.5192 120.849 68.5192 121.295 67.9993C122.745 66.2538 124.195 64.5083 125.645 62.7629C126.016 62.3172 126.016 61.983 125.607 61.5745C124.678 60.5717 123.749 59.4947 122.857 58.4549C122.671 58.2692 122.559 58.0835 122.225 58.0835ZM55.4616 61.1288C55.3501 61.2031 55.2014 61.3145 55.0899 61.463C54.2349 62.6143 53.3799 63.7656 52.4878 64.8797C52.1161 65.3625 52.2648 65.6968 52.6365 66.0681C54.1978 67.6651 55.7962 69.262 57.3203 70.8589C57.7664 71.3046 58.0638 71.416 58.5098 70.8218C59.3277 69.7076 60.1455 68.5935 61.0376 67.4794C61.4837 66.9594 61.4094 66.5509 60.9261 66.1053C59.3277 64.5826 57.7664 63.06 56.1679 61.5002C56.0192 61.3888 55.8705 61.1288 55.4616 61.1288ZM65.3869 131.059C65.4241 130.688 65.2382 130.539 65.0523 130.428C63.8256 129.574 62.5617 128.757 61.335 127.903C60.8889 127.606 60.5544 127.754 60.2198 128.088C58.7329 129.797 57.2088 131.505 55.6847 133.176C55.2014 133.696 55.3501 133.993 55.9077 134.365C57.0229 135.07 58.1009 135.813 59.179 136.556C59.7366 136.964 60.1083 136.89 60.5544 136.37C62.0041 134.736 63.5282 133.139 65.0152 131.505C65.1638 131.356 65.3125 131.171 65.3869 131.059ZM47.3951 53.2184C47.2835 53.0327 47.2464 52.8471 47.0977 52.7356C45.3134 50.9902 43.529 49.2447 41.7076 47.4621C41.373 47.1278 41.1128 47.2764 40.8154 47.5735C39.9976 48.5391 39.1798 49.5046 38.3248 50.4702C37.9531 50.8787 37.9902 51.1759 38.362 51.5472C40.1835 53.367 42.005 55.2239 43.7893 57.0808C44.3097 57.6007 44.5699 57.4521 44.9045 56.8951C45.5736 55.8552 46.2799 54.8525 46.9862 53.8126C47.172 53.6641 47.2835 53.4784 47.3951 53.2184ZM127.057 131.394C126.983 131.319 126.909 131.171 126.834 131.059C125.199 129.351 123.526 127.643 121.853 125.897C121.444 125.489 121.11 125.674 120.738 125.934C119.623 126.789 118.545 127.606 117.392 128.423C116.797 128.831 116.76 129.165 117.281 129.685C118.879 131.245 120.478 132.805 122.039 134.402C122.411 134.773 122.745 134.922 123.228 134.55C124.344 133.696 125.496 132.842 126.648 131.988C126.871 131.876 127.094 131.728 127.057 131.394ZM140.811 145.692C140.737 145.58 140.663 145.469 140.551 145.357C138.841 143.575 137.131 141.829 135.421 140.047C135.012 139.638 134.678 139.787 134.306 140.047C133.265 140.752 132.224 141.495 131.146 142.164C130.626 142.498 130.514 142.758 130.998 143.241C132.856 145.06 134.678 146.88 136.499 148.7C136.908 149.108 137.243 149.108 137.689 148.737C138.581 147.957 139.51 147.177 140.402 146.397C140.588 146.212 140.811 146.063 140.811 145.692ZM138.915 46.5336C138.804 46.3851 138.655 46.1994 138.507 46.0508C137.652 45.1967 136.797 44.3796 135.979 43.5255C135.496 43.0427 135.161 43.1541 134.752 43.5997C133.265 45.3452 131.741 47.0907 130.18 48.8362C129.771 49.319 129.808 49.6903 130.18 50.136C130.96 51.0644 131.741 52.03 132.485 53.0327C132.931 53.6269 133.228 53.6269 133.711 53.0699C135.31 51.1387 136.908 49.2075 138.507 47.2764C138.692 47.0536 138.915 46.8679 138.915 46.5336ZM47.9155 142.312C47.7296 142.424 47.5438 142.498 47.4322 142.646C45.7966 144.503 44.161 146.36 42.5254 148.18C42.1165 148.626 42.3395 148.923 42.7112 149.22C43.6777 149.963 44.6071 150.668 45.5364 151.411C45.9825 151.745 46.2799 151.819 46.6888 151.374C48.4359 149.443 50.183 147.549 51.9302 145.655C52.3391 145.209 52.3391 144.912 51.7815 144.578C50.6291 143.909 49.5511 143.203 48.3987 142.535C48.2872 142.461 48.1013 142.424 47.9155 142.312ZM148.023 153.156C147.949 153.082 147.874 152.934 147.8 152.822C145.941 150.928 144.12 148.997 142.261 147.103C141.889 146.732 141.592 146.843 141.257 147.103C140.291 147.883 139.362 148.663 138.395 149.405C137.875 149.814 137.986 150.148 138.395 150.52C140.142 152.265 141.889 154.011 143.599 155.756C144.045 156.202 144.454 156.202 144.9 155.83C145.793 155.125 146.685 154.493 147.577 153.788C147.763 153.639 148.023 153.528 148.023 153.156ZM142.15 35.2808C141.927 35.4665 141.741 35.578 141.592 35.7636C139.919 37.6948 138.246 39.5888 136.574 41.52C136.128 42.0399 136.239 42.3742 136.685 42.7827C137.503 43.5997 138.321 44.4168 139.101 45.2709C139.51 45.7166 139.808 45.7909 140.217 45.3081C141.815 43.3769 143.451 41.4829 145.049 39.5517C145.421 39.106 145.384 38.7347 145.012 38.3262C144.231 37.472 143.488 36.5807 142.707 35.7265C142.558 35.5408 142.373 35.4294 142.15 35.2808ZM45.2762 152.822C45.3505 152.488 45.1647 152.377 45.016 152.265C43.9751 151.485 42.8971 150.705 41.8563 149.925C41.4102 149.591 41.0756 149.777 40.7782 150.148C39.1054 152.042 37.4698 153.936 35.797 155.793C35.3509 156.276 35.3509 156.61 35.9457 156.982C36.8379 157.576 37.73 158.17 38.6222 158.801C39.217 159.247 39.6259 159.136 40.1091 158.579C41.7076 156.796 43.3432 155.05 44.9416 153.268C45.0903 153.156 45.2018 152.934 45.2762 152.822ZM33.9755 40.0345C33.8268 40.1459 33.6782 40.183 33.6038 40.2945C32.786 41.3715 31.9682 42.4485 31.1504 43.5255C30.8902 43.8597 31.076 44.1939 31.3362 44.4539C33.1206 46.2365 34.9049 48.0563 36.7264 49.876C37.1353 50.2845 37.4326 50.1731 37.7672 49.7646C38.5107 48.8362 39.2541 47.9077 40.0348 47.0164C40.4808 46.5336 40.3693 46.1622 39.9232 45.7537C38.1389 44.0454 36.3918 42.2999 34.6447 40.5916C34.4216 40.3687 34.1986 40.2202 33.9755 40.0345ZM134.603 40.6287C135.012 40.6287 135.198 40.4059 135.384 40.2202C137.094 38.3262 138.767 36.395 140.477 34.5381C140.886 34.0924 140.923 33.6839 140.514 33.2383C139.845 32.4955 139.139 31.7899 138.507 31.01C138.061 30.4529 137.763 30.5272 137.354 31.0471C136.09 32.6069 134.789 34.1296 133.525 35.6894C131.704 37.8805 131.704 37.8805 133.786 39.8859C134.009 40.1088 134.343 40.4059 134.603 40.6287ZM33.6782 155.31C33.9384 155.273 34.1242 155.125 34.2729 154.939C36.0201 152.934 37.73 150.928 39.4772 148.923C39.8489 148.477 39.7002 148.18 39.3285 147.883C38.7709 147.474 38.2133 147.066 37.6929 146.583C36.875 145.803 36.2803 145.803 35.5368 146.732C34.4216 148.106 33.1577 149.331 31.931 150.631C29.9237 152.785 29.8865 152.785 32.3399 154.493C32.7488 154.79 33.1577 155.199 33.6782 155.31ZM146.573 142.795C146.239 142.758 146.053 142.943 145.867 143.092C145.198 143.649 144.529 144.28 143.86 144.8C143.302 145.246 143.302 145.617 143.785 146.1C144.9 147.251 145.978 148.477 147.131 149.628C147.949 150.445 148.581 151.782 149.621 151.931C150.737 152.042 151.517 150.668 152.521 150.074C153.264 149.628 153.264 149.257 152.632 148.663C150.774 146.88 148.952 145.06 147.094 143.241C146.945 143.055 146.722 142.906 146.573 142.795ZM37.9902 34.9837C37.6929 34.9466 37.5442 35.058 37.4326 35.2437C36.7635 36.135 36.0944 37.0263 35.3881 37.9176C35.0164 38.4004 35.2023 38.7347 35.574 39.106C37.3955 40.8515 39.217 42.5599 41.0013 44.3053C41.5589 44.8624 41.9678 44.751 42.4139 44.1939C42.8971 43.5997 43.3804 43.0055 43.938 42.4485C44.4212 41.9285 44.4956 41.5571 43.938 41.0001C42.1165 39.1803 40.3322 37.3234 38.5107 35.4665C38.3248 35.2808 38.1389 35.1323 37.9902 34.9837ZM143.339 17.7146C142.782 17.9003 142.596 18.2346 142.373 18.4945C140.625 20.6485 138.915 22.8397 137.168 25.0308C135.793 26.7763 135.83 26.7391 137.429 28.2989C137.912 28.7446 138.172 28.8189 138.618 28.2989C140.625 25.885 142.633 23.5081 144.64 21.0942C144.938 20.7228 145.086 20.3886 144.752 19.9429C144.306 19.3116 143.86 18.6802 143.413 18.0489C143.376 17.9375 143.339 17.7889 143.339 17.7146ZM65.4241 63.4313C65.3869 63.4685 65.3125 63.6913 65.1638 63.877C64.8293 64.3598 64.4947 64.8426 64.123 65.2511C63.5654 65.8453 63.7513 66.291 64.2717 66.8109C66.1675 68.5935 67.989 70.4133 69.8477 72.1959C71.5576 73.8299 71.5576 73.8299 72.8959 71.8988C73.2676 71.3417 73.2676 70.9703 72.7844 70.4875C70.5911 68.2964 68.4723 66.0681 66.279 63.877C66.1675 63.6913 66.0188 63.4685 65.4241 63.4313ZM114.567 63.6913C114.232 62.8743 113.526 62.4286 113.08 61.7601C112.597 61.0545 112.151 61.1659 111.63 61.7973C109.995 63.8399 108.285 65.8082 106.612 67.8507C105.014 69.8191 105.088 69.262 106.686 71.156C107.207 71.7874 107.616 71.7502 108.136 71.1189C110.106 68.8535 112.076 66.5881 114.047 64.3227C114.27 64.137 114.418 63.9141 114.567 63.6913ZM67.0225 117.356C66.6508 116.761 65.9817 116.538 65.4984 116.13C64.8293 115.499 64.3089 115.573 63.6769 116.279C62.0413 118.135 60.3313 119.918 58.6957 121.738C56.7255 123.929 56.614 123.298 59.1418 125.08C59.6994 125.452 60.0711 125.452 60.5172 124.932C62.5246 122.629 64.5319 120.364 66.5393 118.061C66.688 117.838 66.8366 117.615 67.0225 117.356ZM124.79 121.218C124.641 121.032 124.455 120.809 124.232 120.587C122.411 118.767 120.589 116.947 118.73 115.127C116.872 113.307 117.429 113.456 115.348 114.942C114.716 115.387 114.679 115.759 115.236 116.316C117.02 118.135 118.768 119.955 120.515 121.812C122.336 123.669 122.522 123.706 124.418 121.886C124.604 121.701 124.79 121.589 124.79 121.218ZM51.7443 49.0961C51.4098 49.1333 51.2982 49.3561 51.1496 49.5418C50.7407 50.1731 50.3317 50.8416 49.8857 51.473C49.4024 52.0672 49.4768 52.5128 50.0344 53.0327C51.3354 54.2212 52.5993 55.4838 53.8632 56.7094C56.0192 58.7891 56.0192 58.7891 57.7292 56.3009C58.1009 55.7809 58.0266 55.4096 57.6177 55.0011C55.7962 53.1813 54.0119 51.3244 52.1904 49.4675C52.0789 49.319 51.893 49.2075 51.7443 49.0961ZM52.7108 133.696C52.6737 133.585 52.6737 133.473 52.5993 133.436C51.7815 132.731 50.8893 132.099 49.96 131.616C49.6998 131.468 49.4396 131.765 49.2909 131.951C47.4694 133.882 45.6851 135.85 43.9008 137.818C43.5662 138.19 43.6034 138.487 44.0123 138.747C44.6814 139.118 45.3505 139.49 45.9825 139.935C46.6888 140.418 47.1348 140.232 47.6553 139.638C49.1794 137.856 50.7406 136.11 52.3019 134.328C52.4134 134.105 52.5621 133.882 52.7108 133.696ZM127.578 48.5762C127.02 47.8706 126.388 47.0536 125.793 46.2365C125.384 45.6794 125.087 45.6794 124.641 46.2365C123.451 47.722 122.188 49.2075 120.961 50.6931C119.065 52.9585 119.102 52.9585 121.184 55.0382C121.667 55.521 121.927 55.521 122.373 55.0011C123.972 53.1813 125.57 51.3615 127.169 49.5418C127.317 49.2818 127.578 49.0961 127.578 48.5762ZM136.09 137.633C136.759 137.187 137.54 136.63 138.395 136.147C139.101 135.739 139.213 135.367 138.544 134.773C137.131 133.473 135.793 132.062 134.418 130.725C132.41 128.757 132.41 128.757 130.217 130.651C129.734 131.059 129.622 131.356 130.105 131.839C131.815 133.585 133.525 135.405 135.235 137.187C135.458 137.336 135.644 137.559 136.09 137.633ZM152 12.0326C151.666 11.2898 150.922 10.807 150.402 10.1757C149.882 9.54431 149.51 9.65573 149.064 10.2499C147.688 11.9583 146.313 13.6666 144.9 15.3378C143.302 17.269 143.339 17.269 145.086 19.0516C145.644 19.6458 145.978 19.5344 146.462 18.9773C148.172 16.9347 149.882 14.9293 151.592 12.8867C151.815 12.6639 152 12.4411 152 12.0326ZM133.897 41.6686C133.711 41.4457 133.563 41.1858 133.414 41.0001C132.856 40.4059 132.261 39.8859 131.704 39.2917C131.183 38.7347 130.812 38.7347 130.328 39.3289C129.511 40.4059 128.619 41.4086 127.764 42.4485C125.793 44.8624 125.793 44.8624 127.838 47.2392C128.321 47.7963 128.619 47.8334 129.102 47.2764C130.514 45.6052 132.001 43.9711 133.451 42.337C133.6 42.1514 133.748 41.9285 133.897 41.6686ZM139.733 136.444C139.027 136.89 138.246 137.484 137.391 138.004C136.797 138.376 136.685 138.71 137.206 139.23C138.73 140.789 140.254 142.386 141.741 143.983C142.187 144.466 142.596 144.54 143.116 144.058C143.711 143.501 144.343 142.981 144.975 142.498C145.569 142.052 145.607 141.681 145.049 141.124C143.562 139.712 142.15 138.264 140.7 136.853C140.477 136.667 140.291 136.407 139.733 136.444ZM46.0197 141.347C45.9453 141.198 45.9081 141.087 45.8338 141.012C44.9045 140.418 43.938 139.824 42.9715 139.267C42.5254 139.044 42.2652 139.49 42.0049 139.75C41.1128 140.678 40.2578 141.607 39.4028 142.535C37.1724 144.949 37.1724 144.912 39.8489 146.917C40.4808 147.4 40.8898 147.363 41.373 146.769C42.7484 145.135 44.161 143.575 45.5364 141.941C45.7223 141.792 45.8338 141.569 46.0197 141.347ZM45.3877 42.597C45.2018 42.7084 45.016 42.7827 44.9045 42.9312C44.2353 43.674 43.6034 44.4539 42.9715 45.1967C42.5997 45.6423 42.7856 45.9394 43.1201 46.2737C44.7558 47.8334 46.3914 49.4304 48.027 50.9902C48.25 51.213 48.5103 51.5472 48.8076 51.213C49.5511 50.3217 50.2202 49.3932 50.7407 48.3534C50.8893 48.0191 50.6291 47.7963 50.4061 47.5363C48.9192 46.0137 47.4694 44.5282 45.9825 43.0055C45.7966 42.8941 45.5736 42.7827 45.3877 42.597ZM81.6316 79.5863C81.4829 79.4006 81.4085 79.2149 81.297 79.1035C79.0666 76.8381 76.8734 74.6098 74.643 72.3444C74.4943 72.1959 74.2713 71.9359 74.0482 72.1216C73.3791 72.7158 72.7844 73.4214 72.4498 74.2013C72.1896 74.7584 72.8959 75.0184 73.1933 75.3526C74.9776 77.3209 77.208 78.8436 78.6206 81.1461C78.9179 81.5918 79.2153 81.666 79.6614 81.2947C80.1818 80.849 80.7394 80.4405 81.297 79.9948C81.4085 79.9205 81.5201 79.772 81.6316 79.5863ZM83.5646 118.098C83.6018 117.764 83.4159 117.615 83.2672 117.467C82.6724 116.947 82.0033 116.427 81.4457 115.87C80.9625 115.387 80.6279 115.536 80.219 115.981C78.7692 117.578 77.3195 119.175 75.8326 120.735C75.3493 121.255 75.3121 121.589 75.9812 121.998C76.7247 122.443 77.431 122.889 78.063 123.446C78.5834 123.892 78.9179 123.78 79.2897 123.298C80.6279 121.663 82.0033 120.067 83.3415 118.433C83.4159 118.321 83.4902 118.173 83.5646 118.098ZM100.404 80.3662C100.701 80.3291 100.85 80.0691 100.962 79.8463C102.04 77.7294 103.861 76.1696 105.348 74.3499C106.835 72.5301 106.872 72.5673 105.237 70.896C104.753 70.3761 104.456 70.4504 104.047 70.9332C102.114 73.2729 100.144 75.6126 98.2108 77.9151C98.025 78.1379 97.7648 78.3608 97.9134 78.7321C97.9878 78.955 100.181 80.3662 100.404 80.3662ZM115.348 82.3345C115.236 82.2231 115.087 82.0374 114.939 81.8889C114.381 81.2575 113.749 80.6633 113.229 79.9948C112.708 79.2892 112.374 79.4749 111.891 80.032C110.552 81.666 109.214 83.3001 107.802 84.9342C107.355 85.4541 107.318 85.8255 107.913 86.2711C108.508 86.7539 109.103 87.2738 109.623 87.7938C110.032 88.2023 110.329 88.0909 110.664 87.7195C112.002 86.234 113.378 84.7856 114.716 83.3001C115.05 83.0401 115.348 82.8173 115.348 82.3345ZM116.203 112.973C116.091 112.565 115.831 112.342 115.571 112.082C113.861 110.411 112.188 108.74 110.515 107.031C108.619 105.1 108.657 105.1 107.021 107.217C106.575 107.811 106.686 108.182 107.244 108.48C108.173 108.999 108.917 109.705 109.623 110.448C110.775 111.636 111.928 112.825 113.08 114.013C113.378 114.31 113.675 114.83 114.232 114.459C114.939 114.05 115.682 113.605 116.203 112.973ZM106.538 120.141C106.463 119.732 106.203 119.547 106.017 119.324C105.051 118.358 104.047 117.393 103.043 116.39C100.813 114.162 100.813 114.162 98.5826 116.39C98.5454 116.427 98.4711 116.501 98.3967 116.538C98.1365 116.798 98.0993 117.058 98.3595 117.356C99.8465 118.952 101.185 120.698 102.783 122.221C103.081 122.518 103.378 122.666 103.787 122.332C104.567 121.701 105.385 121.106 106.166 120.512C106.352 120.401 106.463 120.215 106.538 120.141ZM72.5613 87.4967C72.487 87.051 72.1896 86.8282 71.9666 86.6054C70.554 85.157 69.1414 83.7829 67.766 82.2974C67.0597 81.5175 66.6508 81.6289 66.1303 82.4831C65.7958 83.0773 65.3497 83.6343 64.8665 84.1171C64.346 84.6742 64.346 85.0456 64.9036 85.5284C66.1304 86.5682 67.2084 87.7938 68.4723 88.7965C70.0707 90.022 70.0335 90.0963 71.4461 88.6479C71.855 88.2766 72.1896 87.8681 72.5613 87.4967ZM67.6545 116.353C68.1377 116.316 68.3607 115.944 68.5838 115.647C70.0707 113.976 71.4833 112.23 73.0817 110.671C74.7917 108.999 74.8661 109.074 73.1561 107.328C73.1189 107.291 73.0817 107.291 73.0817 107.254C72.71 106.734 72.3383 106.845 71.9666 107.254C69.8848 109.519 67.8031 111.822 65.7586 114.087C65.5728 114.273 65.2382 114.533 65.4612 114.756C66.0932 115.461 66.8738 115.944 67.6545 116.353ZM118.545 53.7755C118.247 53.8498 118.061 54.1097 117.875 54.3697C116.797 55.6324 115.757 56.9322 114.679 58.1949C113.006 60.2003 113.006 60.2004 114.827 62.1315C115.348 62.6886 115.645 62.6143 116.091 62.0944C117.169 60.8317 118.284 59.6061 119.362 58.3435C121.333 56.0038 121.333 56.8951 119.288 54.444C119.102 54.184 118.953 53.8126 118.545 53.7755ZM131.667 128.014C131.518 127.828 131.295 127.606 131.109 127.383C129.957 126.231 128.842 125.08 127.652 123.966C125.496 121.923 126.351 121.849 123.637 123.855C123.117 124.226 123.154 124.56 123.563 124.969C125.161 126.603 126.723 128.237 128.284 129.908C128.581 130.205 128.879 130.428 129.288 130.131C129.994 129.611 130.737 129.091 131.444 128.571C131.555 128.46 131.704 128.311 131.667 128.014ZM58.9188 126.64C58.9559 126.269 58.7329 126.157 58.547 126.009C58.1009 125.712 57.6177 125.452 57.2088 125.08C56.4653 124.375 55.9077 124.56 55.313 125.303C54.3465 126.454 53.3056 127.568 52.3019 128.645C50.2946 130.799 50.2946 130.799 52.8595 132.322C53.3799 132.656 53.7145 132.656 54.1606 132.174C55.6103 130.465 57.0973 128.794 58.5842 127.123C58.7329 126.937 58.8444 126.751 58.9188 126.64ZM149.064 140.307C148.841 140.455 148.543 140.641 148.32 140.901C146.871 142.238 146.796 141.904 148.209 143.278C149.584 144.652 150.997 146.063 152.409 147.437C154.305 149.257 153.562 149.294 155.904 147.734C156.461 147.363 156.573 147.14 156.052 146.62C153.971 144.652 151.926 142.684 149.844 140.715C149.659 140.492 149.473 140.27 149.064 140.307ZM64.7549 62.5772C64.7549 62.1315 64.4947 61.9458 64.2717 61.7601C63.1565 60.646 62.0785 59.4947 60.9633 58.3806C58.4727 55.9295 59.3648 55.9666 57.1716 58.7148C56.8371 59.1234 56.7999 59.4947 57.2088 59.9404C58.8816 61.5373 60.5544 63.1342 62.19 64.7683C62.3759 64.954 62.6361 65.2511 62.8963 64.9911C63.6397 64.2484 64.2345 63.3942 64.7549 62.5772ZM137.206 29.7102C137.094 29.3017 136.722 28.9674 136.388 28.596C135.31 27.3333 135.31 27.3333 134.269 28.6703C132.856 30.4158 131.444 32.1241 130.068 33.8696C128.916 35.318 128.953 35.2808 130.217 36.5807C130.886 37.2492 131.258 37.1749 131.853 36.4693C133.451 34.501 135.087 32.5698 136.722 30.6015C136.908 30.3415 137.168 30.1558 137.206 29.7102ZM46.949 38.8461C46.7259 38.5861 46.5029 38.289 46.2799 38.0662C44.6814 36.3578 43.0458 34.6866 41.4102 32.9783C40.0348 31.5299 40.0719 31.5299 38.8452 33.2011C38.3248 33.8696 38.3248 34.3524 38.9567 34.9466C40.7411 36.6921 42.451 38.5118 44.2353 40.2945C44.5327 40.5916 44.8301 41.26 45.3134 40.8515C45.9825 40.2945 46.5773 39.7003 46.949 38.8461ZM35.797 145.283C35.574 144.763 35.1279 144.615 34.7933 144.28C34.0499 143.463 33.4179 143.463 32.6373 144.392C31.1875 146.063 29.6263 147.623 28.1393 149.183C26.3922 151.002 26.3922 151.002 28.6598 152.154C29.1058 152.377 29.4404 152.377 29.775 151.968C31.6336 149.925 33.5295 147.883 35.4253 145.84C35.574 145.655 35.6855 145.432 35.797 145.283ZM82.4494 78.9921C82.9326 78.8807 83.23 78.435 83.6761 78.2122C84.3081 77.8408 84.308 77.5066 83.7876 76.9495C81.3714 74.4613 78.9551 71.9731 76.5388 69.4477C76.353 69.262 76.2043 68.9649 75.8697 69.0763C75.1263 69.2991 74.6802 71.3046 75.275 71.8988C77.3938 74.0899 79.5499 76.2439 81.6688 78.435C81.8918 78.695 82.0777 78.955 82.4494 78.9921ZM96.7611 78.0637C97.3187 78.0637 97.5045 77.6923 97.7276 77.3952C99.5119 75.2412 101.259 73.0129 103.155 70.9332C104.01 69.9676 104.047 69.2991 103.266 68.2964C102.634 67.4794 102.374 67.6279 101.854 68.2964C99.8465 70.7846 97.8019 73.2357 95.7946 75.724C95.4972 76.0954 94.8281 76.4667 95.1626 76.9495C95.5344 77.4695 96.2406 77.7294 96.7611 78.0637ZM64.2717 114.125C64.8293 114.087 65.0895 113.716 65.3497 113.419C67.2456 111.376 69.1786 109.297 71.0744 107.217C72.1152 106.066 72.0781 105.694 70.9257 104.617C70.5911 104.32 70.3681 104.283 70.0335 104.617C67.5429 107.254 65.0523 109.891 62.5989 112.528C62.4502 112.713 62.1528 112.973 62.4874 113.196C63.045 113.567 63.7141 113.865 64.2717 114.125ZM110.627 102.797C110.106 103.206 109.772 103.763 109.437 104.283C109.14 104.729 109.511 104.989 109.772 105.249C111.816 107.254 113.824 109.259 115.868 111.265C117.095 112.453 117.058 112.416 118.582 111.599C119.325 111.191 119.325 110.931 118.73 110.374C116.24 107.997 113.786 105.583 111.333 103.206C111.147 103.057 110.961 102.835 110.627 102.797ZM63.6397 115.09C63.3052 114.459 62.6732 114.31 62.1528 114.013C61.6696 113.716 61.2978 113.902 60.9261 114.31C58.8072 116.576 56.6884 118.804 54.5695 121.069C54.3836 121.255 54.0491 121.515 54.2349 121.738C54.6438 122.332 55.3501 122.555 55.9077 122.889C56.3538 123.149 56.614 122.852 56.8742 122.555C58.9931 120.252 61.112 117.95 63.2308 115.647C63.4167 115.499 63.5282 115.313 63.6397 115.09ZM73.8252 70.339C74.42 70.0047 74.6059 69.4105 74.9404 68.8906C75.2378 68.445 75.2378 68.0736 74.8289 67.6651C72.6357 65.4368 70.4796 63.2085 68.3236 60.9431C68.1377 60.7574 67.9518 60.4232 67.6545 60.5717C67.0225 60.906 66.7995 61.6116 66.3906 62.1687C66.0932 62.5772 66.4277 62.8743 66.688 63.1714C68.8812 65.3997 71.0372 67.6279 73.2304 69.8562C73.4163 70.0419 73.6022 70.1533 73.8252 70.339ZM111.705 60.4603C111.63 59.9032 111.221 59.6433 110.961 59.2348C110.404 58.3063 109.958 58.3063 109.288 59.1976C107.616 61.3516 105.906 63.5056 104.084 65.5111C103.229 66.4766 103.304 67.1451 104.047 68.0736C104.567 68.7049 104.902 68.7792 105.46 68.1107C107.393 65.771 109.326 63.4313 111.296 61.0917C111.482 60.906 111.593 60.646 111.705 60.4603ZM127.801 119.324C127.578 119.064 127.392 118.841 127.169 118.618C125.199 116.687 123.191 114.756 121.184 112.825C120.032 111.711 119.623 111.711 118.359 112.75C117.95 113.085 117.913 113.307 118.284 113.679C120.589 115.944 122.894 118.21 125.199 120.512C125.533 120.846 125.831 120.921 126.202 120.624C126.723 120.178 127.429 119.992 127.801 119.324ZM53.603 45.7909C53.0082 46.2365 52.8223 46.905 52.4506 47.4621C52.1161 47.9449 52.1532 48.3534 52.5993 48.7619C54.3836 50.5445 56.1679 52.4014 57.9522 54.184C58.324 54.5554 58.7329 55.1867 59.179 54.3697C59.5507 53.7012 61.0005 53.2927 59.9224 52.1414C58.0266 50.1731 56.1308 48.2048 54.2349 46.2365C54.0491 46.1622 53.8632 46.0137 53.603 45.7909ZM118.693 52.1043C118.879 51.9557 119.028 51.8443 119.139 51.6958C120.849 49.6161 122.596 47.5363 124.306 45.4938C124.641 45.1224 124.678 44.7881 124.381 44.3796C124.121 44.0454 123.86 43.7111 123.674 43.3398C123.266 42.6713 122.931 42.597 122.411 43.2655C120.738 45.3823 118.991 47.4249 117.318 49.5418C117.095 49.8018 116.649 50.0989 117.02 50.5445C117.504 51.0644 117.987 51.6586 118.693 52.1043ZM48.9935 131.022C48.5474 130.391 47.8783 130.057 47.3207 129.611C46.8746 129.277 46.6144 129.611 46.3542 129.871C44.4584 131.876 42.5625 133.919 40.6667 135.924C40.4808 136.11 40.2206 136.296 40.3322 136.593C40.5924 137.373 42.8228 137.818 43.3804 137.224C45.0903 135.405 46.7631 133.548 48.4731 131.691C48.6218 131.505 48.7705 131.282 48.9935 131.022ZM142.298 133.659C142.335 133.325 142.112 133.213 141.964 133.028C139.956 131.097 137.986 129.165 135.979 127.197C135.533 126.751 135.161 126.677 134.715 127.16C134.418 127.457 134.083 127.717 133.748 127.977C133.34 128.311 133.377 128.608 133.711 128.943C135.644 130.837 137.577 132.731 139.473 134.625C139.808 134.922 140.105 135.033 140.514 134.773C141.109 134.402 141.852 134.216 142.298 133.659ZM112.597 59.3833C112.82 59.1976 113.006 59.0491 113.154 58.9005C114.641 57.1179 116.091 55.3353 117.578 53.5898C117.95 53.1442 117.913 52.7728 117.578 52.3643C117.281 52.0672 117.02 51.7329 116.76 51.3987C116.426 50.953 116.128 50.9159 115.757 51.3615C114.27 53.2184 112.746 55.0382 111.221 56.8951C110.998 57.1922 110.775 57.4893 111.073 57.8235C111.593 58.3063 111.928 59.0119 112.597 59.3833ZM132.596 127.606C133.154 127.494 133.488 127.048 133.934 126.789C134.641 126.38 134.715 126.009 134.083 125.414C132.633 124.077 131.258 122.666 129.845 121.292C128.619 120.104 128.619 120.104 127.206 121.106C126.574 121.552 126.537 121.886 127.094 122.443C128.693 123.966 130.217 125.526 131.778 127.086C132.038 127.308 132.261 127.531 132.596 127.606ZM55.4245 124.04C55.0527 123.372 54.3464 123.186 53.7888 122.815C53.3428 122.481 53.0082 122.74 52.7108 123.075C51.1496 124.746 49.5883 126.38 48.0642 128.051C47.8783 128.237 47.5438 128.46 47.6924 128.72C48.0642 129.388 48.8076 129.611 49.4024 130.02C49.8485 130.317 50.1087 129.945 50.3689 129.685C51.893 128.014 53.4543 126.343 54.9784 124.672C55.1271 124.486 55.2386 124.263 55.4245 124.04ZM66.8738 59.6433C66.7251 59.4205 66.6508 59.2348 66.5021 59.0491C64.8665 57.3407 63.1937 55.5953 61.5581 53.8869C61.4094 53.7384 61.1863 53.4413 61.0005 53.5898C60.3685 54.0726 59.9968 54.7411 59.625 55.4096C59.3648 55.8924 59.8853 56.1523 60.1455 56.4494C61.5209 57.8978 62.9335 59.309 64.346 60.7203C64.6806 61.0545 64.9408 61.7601 65.4984 61.4259C66.1304 61.0545 66.4649 60.3118 66.8738 59.6433ZM41.9306 138.635C41.2615 138.227 40.6667 137.893 40.0348 137.484C39.5887 137.187 39.2541 137.336 38.9196 137.67C37.7672 138.895 36.6148 140.121 35.4253 141.384C34.1242 142.758 34.1242 142.758 35.7227 143.872C36.2059 144.206 36.652 144.54 37.2096 143.909C38.585 142.349 40.0348 140.827 41.4102 139.304C41.5589 139.155 41.7076 138.97 41.9306 138.635ZM142.93 134.365C142.521 134.625 142.001 134.959 141.48 135.256C140.737 135.664 140.811 136.036 141.369 136.556C142.558 137.67 143.674 138.858 144.826 139.972C146.536 141.607 145.904 141.569 147.949 140.158C148.581 139.712 148.506 139.378 148.023 138.895C146.61 137.559 145.198 136.147 143.785 134.81C143.562 134.587 143.376 134.402 142.93 134.365ZM52.8223 45.1967C52.8223 44.7881 52.5621 44.6025 52.3763 44.3796C51.2982 43.2284 50.1831 42.0771 49.105 40.9629C47.4322 39.2917 48.027 39.106 46.2799 41.26C45.9825 41.6686 45.9453 42.0028 46.317 42.3742C47.8411 43.8968 49.3281 45.4566 50.8522 46.9793C51.038 47.165 51.2611 47.4621 51.5213 47.165C52.0417 46.5708 52.4878 45.9023 52.8223 45.1967ZM125.273 43.934C125.719 43.8968 125.868 43.5997 126.054 43.3769C127.057 42.1514 128.098 40.9629 129.102 39.7374C130.589 37.8805 130.737 38.4747 129.065 36.5064C128.619 35.9865 128.321 35.9865 127.912 36.5064C126.648 38.0662 125.384 39.626 124.121 41.1858C123.86 41.4829 123.6 41.78 123.898 42.1885C124.306 42.8198 124.715 43.4512 125.273 43.934Z" fill="#B69D86"/>
</g>
<defs>
<clipPath id="clip0_2450_14217">
<rect width="182" height="191" fill="white"/>
</clipPath>
</defs>
</svg>
